<?xml version="1.0" encoding="utf-8"?>
<!-- Generator: Adobe Illustrator 27.8.1, SVG Export Plug-In . SVG Version: 6.00 Build 0)  -->
<svg version="1.1" id="Layer_1" xmlns="http://www.w3.org/2000/svg" xmlns:xlink="http://www.w3.org/1999/xlink" x="0px" y="0px"
	 viewBox="0 0 78.5 78.5" style="enable-background:new 0 0 78.5 78.5;" xml:space="preserve">
<style type="text/css">
	.st0{fill:#FFFFFF;stroke:#000000;stroke-miterlimit:10;}
	.st1{fill:none;stroke:#000000;stroke-miterlimit:10;}
</style>
<circle class="st0" cx="39.4" cy="39.2" r="38.8"/>
<path class="st0" d="M26.6,34.5L26.6,34.5c-1.7,0-3-1.4-3-3V19.2c0-1.7,1.4-3,3-3h0c1.7,0,3,1.4,3,3v12.2
	C29.7,33.1,28.3,34.5,26.6,34.5z"/>
<path class="st0" d="M51.9,34.5L51.9,34.5c-1.7,0-3-1.4-3-3V19.2c0-1.7,1.4-3,3-3h0c1.7,0,3,1.4,3,3v12.2
	C54.9,33.1,53.5,34.5,51.9,34.5z"/>
<path class="st0" d="M42,22.4H37c-1,0-1.8-0.8-1.8-1.8v-0.6c0-1,0.8-1.8,1.8-1.8H42c1,0,1.8,0.8,1.8,1.8v0.6
	C43.8,21.5,43,22.4,42,22.4z"/>
<path class="st0" d="M55.9,56.4L55.9,56.4c-1.7,0-3-1.4-3-3v-3.8c0-1.7,1.4-3,3-3h0c1.7,0,3,1.4,3,3v3.8C59,55,57.6,56.4,55.9,56.4z
	"/>
<path class="st0" d="M22.4,56L22.4,56c-1.7,0-3-1.4-3-3v-3.8c0-1.7,1.4-3,3-3h0c1.7,0,3,1.4,3,3v3.8C25.5,54.6,24.1,56,22.4,56z"/>
<line class="st1" x1="19.6" y1="49.4" x2="59" y2="49.5"/>
<path class="st0" d="M50.9,58H27.6c-2.8,0-5-2.2-5-5V32.5c0-6.6,5.4-12,12-12h9.3c6.6,0,12,5.4,12,12V53C55.9,55.8,53.7,58,50.9,58z
	"/>
<path class="st0" d="M50.9,55.4H28.4c-1.1,0-2-0.9-2-2v-8.2c0-2.2,1.8-4,4-4h18.5c2.2,0,4,1.8,4,4v8.2C52.9,54.5,52,55.4,50.9,55.4z
	"/>
<line class="st1" x1="28.7" y1="44.8" x2="49.8" y2="44.8"/>
<path class="st1" d="M53.5,40.6c0.4-16.1-5.1-17.3-11.7-17.3h-4.7c-6.6,0-12.9,0.6-11.7,17.3"/>
<path class="st0" d="M33.4,57.2"/>
</svg>
