<?xml version="1.0" encoding="utf-8"?>
<!-- Generator: Adobe Illustrator 27.8.1, SVG Export Plug-In . SVG Version: 6.00 Build 0)  -->
<svg version="1.1" id="Layer_1" xmlns="http://www.w3.org/2000/svg" xmlns:xlink="http://www.w3.org/1999/xlink" x="0px" y="0px"
	 viewBox="0 0 78.5 78.5" style="enable-background:new 0 0 78.5 78.5;" xml:space="preserve">
<style type="text/css">
	.st0{fill:#FFFFFF;stroke:#1D1D1B;stroke-miterlimit:10;}
	.st1{fill:#FFFFFF;stroke:#000000;stroke-miterlimit:10;}
	.st2{stroke:#000000;stroke-miterlimit:10;}
	.st3{fill:none;stroke:#FFFFFF;stroke-width:0.5;stroke-miterlimit:10;stroke-dasharray:1.0181,1.0181;}
	.st4{fill:none;stroke:#FFFFFF;stroke-miterlimit:10;}
</style>
<g>
	<ellipse class="st0" cx="39.2" cy="39.2" rx="38.8" ry="38.8"/>
</g>
<path class="st1" d="M46.4,55.6H32c-1.6,0-3-1.3-3-3V25.8c0-1.6,1.4-3,3-3h14.3c1.6,0,3,1.4,3,3v26.7C49.4,54.2,48,55.6,46.4,55.6z"
	/>
<path class="st2" d="M46.7,53.8h-15c-0.5,0-1-0.5-1-1V25.7c0-0.5,0.5-1,1-1h15c0.5,0,1,0.5,1,1v27.2C47.7,53.4,47.3,53.8,46.7,53.8z
	"/>
<path class="st2" d="M42.5,22.8H36v-2.7c0-0.2,0.2-0.4,0.4-0.4h5.7c0.2,0,0.4,0.2,0.4,0.4V22.8z"/>
<g>
	<circle class="st3" cx="39.2" cy="39.2" r="5.2"/>
</g>
<polyline class="st4" points="41.7,32.4 36,38.8 41.7,38.8 36,46.2 "/>
</svg>
