<?xml version="1.0" encoding="utf-8"?>
<!-- Generator: Adobe Illustrator 27.8.1, SVG Export Plug-In . SVG Version: 6.00 Build 0)  -->
<svg version="1.1" id="Layer_1" xmlns="http://www.w3.org/2000/svg" xmlns:xlink="http://www.w3.org/1999/xlink" x="0px" y="0px"
	 viewBox="0 0 78.5 78.5" style="enable-background:new 0 0 78.5 78.5;" xml:space="preserve">
<style type="text/css">
	.st0{fill:#FFFFFF;stroke:#1D1D1B;stroke-miterlimit:10;}
	.st1{fill:none;stroke:#000000;stroke-width:2;stroke-miterlimit:10;}
	.st2{fill:#FFFFFF;stroke:#000000;stroke-width:3;stroke-miterlimit:10;}
	.st3{fill:none;}
	.st4{display:none;fill:#FFFFFF;stroke:#000000;stroke-width:3;stroke-miterlimit:10;}
	.st5{fill:#FFFFFF;stroke:#000000;stroke-width:0.3;stroke-miterlimit:10;}
</style>
<g>
	<path class="st0" d="M39.2,0.4C61,0.4,78.1,18.8,78,39.2c0,21.6-19.1,35.6-33.6,38.3C41.7,78,39.8,78,39.2,78
		C23.3,78,0.5,63.3,0.5,39.2C0.5,17.8,17.8,0.4,39.2,0.4z"/>
</g>
<path class="st1" d="M29.3,41.5c-2.8,3.7-5.1,4.1-9.8,1.6c-3.1-1.6-6-10.2-4.3-15.3c2.4-7.4,6.3-13.5,15.7-16.5
	c10-3.1,16.3-1,20.6,1c4.4,2,8.1,5.4,9.8,11.5c1.1,4.1-2.1,7.8-6.3,8.9c-1.9,0.5-4.7-0.9-8.7-0.6c-4.2,0.3-10.3,2.3-12.5,4.3
	C30.8,39.2,29.3,41.5,29.3,41.5z"/>
<ellipse class="st2" cx="43" cy="34" rx="10.5" ry="10.9"/>
<path class="st3" d="M56.1,29.5c-0.8,0.2-1.6,2.2-0.7,3.7c1,1.7,3.3,1.8,3.9,1.1C60,33.3,57.4,29.2,56.1,29.5z"/>
<ellipse class="st4" cx="44.2" cy="40.6" rx="6.2" ry="6.4"/>
<ellipse class="st4" cx="44.2" cy="40.6" rx="2" ry="2.1"/>
<path class="st5" d="M21.4,25.2c0.4,1.6,0.8,5.9-2.2,8.7c-1.4,1.3-3.3,1.5-3.2,1.7c0.1,0.2,2.1-0.7,4.4-0.2c2.7,0.6,4.8,2.9,5.7,5
	c0.5,1.2,0.7,2.4,0.8,2.4c0.1,0-2.4-5.6-0.1-8.9c0.6-0.9,1.9-2.2,3.9-2.9c0.7-0.2,1.5-0.3,1.5-0.4c0-0.2-4,0.7-6.3-1.4
	c-0.2-0.1-0.5-0.7-1.3-1.9C23.7,26.1,23,25,22,23.5c-1.7-2.8-2.1-3.5-2.2-3.4C19.6,20.2,21.1,23.9,21.4,25.2z"/>
<path class="st5" d="M33.9,22c-1.2-0.4-4.3-1.8-5.3-5.9c-0.5-1.9,0-3.8-0.1-3.8c-0.2,0-0.2,2.3-1.3,4.3c-1.3,2.3-3.5,3.3-5.3,3.2
	c-1,0-1.8-0.4-1.9-0.3c0,0.1,4.6,0.2,6.2,3.8c0.4,1,0.9,2.8,0.7,5c-0.1,0.8-0.3,1.5-0.2,1.6c0.2,0.1,0.8-4.1,3-5.4
	c0.2-0.1,0.7-0.2,1.7-0.4c1.1-0.2,2.1-0.4,3.5-0.6c2.4-0.4,3-0.4,3-0.6C38,22.5,35,22.3,33.9,22z"/>
<path class="st5" d="M46.8,14.6c1,1.2,3.4,4.7,2.6,7.9c-0.4,1.4-1.8,2-1.7,2.2c0.2,0.2,1.3-1.1,3.3-1.3c2.3-0.1,5.1,1.3,6.8,2.9
	c1,0.9,1.7,1.8,1.7,1.8c0.1-0.1-4.6-4.2-4.4-7.5c0-0.9,0.4-2.3,1.6-3.3c0.4-0.4,1-0.6,1-0.6c-0.1-0.2-2.8,1.5-5.5,0.3
	c-0.2-0.1-0.8-0.5-1.9-1.3C49,14.8,48,14,46.5,13c-2.7-1.9-3.3-2.4-3.4-2.3C43,10.7,45.9,13.5,46.8,14.6z"/>
<path class="st5" d="M43.8,20.2c-0.9-0.9-3.2-3.5-2.5-6.8c0.3-1.5,1.5-2.6,1.4-2.7c-0.2-0.1-1.1,1.5-2.9,2.4c-2,0.9-4.5,0.5-6.1-0.5
	c-0.9-0.5-1.5-1.2-1.6-1.2c-0.1,0.1,4.1,2.5,4.1,5.8c0,0.9-0.3,2.4-1.3,3.8c-0.3,0.5-0.9,0.9-0.8,1c0.1,0.1,2.4-2.5,4.8-2.2
	c0.2,0,0.7,0.2,1.7,0.6c1.1,0.4,2.1,0.8,3.4,1.4c2.4,1,2.9,1.3,3,1.1C47.3,22.6,44.7,20.9,43.8,20.2z"/>
<path class="st5" d="M43.8,13.6c0.2,0.8,0.7,3-0.2,4.3c-0.4,0.6-1.2,0.5-1.1,0.6c0,0.1,0.8-0.2,1.7,0.2c1.1,0.5,2.1,1.8,2.6,2.9
	c0.3,0.6,0.4,1.2,0.5,1.2c0,0-1.3-3-0.7-4.5c0.2-0.4,0.6-1,1.3-1.2c0.2-0.1,0.6,0,0.5-0.1c0-0.1-1.5,0.1-2.5-1.1
	c-0.1-0.1-0.3-0.4-0.6-1c-0.4-0.7-0.8-1.3-1.2-2.2c-0.8-1.5-1-1.9-1.1-1.9C42.7,10.9,43.6,12.9,43.8,13.6z"/>
<path class="st5" d="M31.9,14.3c0.2,0.7,0.4,2.5-0.7,3.7c-0.5,0.5-1.3,0.6-1.3,0.7s0.8-0.3,1.8,0c1.1,0.3,1.9,1.3,2.4,2.2
	c0.2,0.5,0.3,1,0.3,1c0.1,0-1-2.4-0.2-3.8c0.2-0.4,0.7-0.9,1.5-1.2c0.3-0.1,0.6-0.1,0.6-0.1c0-0.1-1.6,0.2-2.5-0.7
	c-0.1-0.1-0.2-0.3-0.6-0.8c-0.4-0.6-0.7-1-1.1-1.7c-0.7-1.2-0.9-1.5-0.9-1.5C31.1,12.1,31.8,13.7,31.9,14.3z"/>
<path class="st5" d="M34.6,24.5c-0.7,0.4-2.5,1.2-3.7,0.7c-0.5-0.2-0.6-0.8-0.7-0.8c-0.1,0.1,0.3,0.6,0,1.4c-0.3,1-1.3,2.1-2.2,2.7
	c-0.5,0.4-1,0.6-1,0.6s2.4-1.7,3.8-1.5c0.4,0.1,0.9,0.3,1.2,0.8c0.1,0.2,0.1,0.4,0.1,0.4c0.1,0-0.2-1.2,0.7-2.3
	c0.1-0.1,0.3-0.3,0.8-0.7c0.6-0.5,1-0.9,1.7-1.5c1.2-1,1.5-1.3,1.5-1.3C36.8,23.1,35.2,24.2,34.6,24.5z"/>
<path class="st5" d="M23.9,22.5c0.2,0.6,0.7,2.3,0.2,3.1c-0.2,0.4-0.6,0.3-0.6,0.3c0,0.1,0.4-0.1,1,0.3c0.6,0.5,1.3,1.5,1.7,2.4
	c0.2,0.5,0.4,0.9,0.4,0.9s-1-2.3-0.8-3.3c0.1-0.3,0.2-0.6,0.6-0.7c0.1,0,0.3,0,0.3,0c0-0.1-0.8-0.1-1.5-1.1c0-0.1-0.2-0.3-0.4-0.8
	c-0.3-0.5-0.5-1-0.9-1.7c-0.6-1.2-0.7-1.5-0.8-1.5C23.1,20.4,23.8,21.9,23.9,22.5z"/>
<path class="st5" d="M22,18.2c0.5-0.2,1.9-0.8,2.9-0.3c0.4,0.2,0.5,0.7,0.6,0.7s-0.2-0.5-0.1-1.2c0.2-0.8,1-1.6,1.7-2
	c0.4-0.3,0.8-0.4,0.8-0.4s-1.9,1.2-3,0.9c-0.3-0.1-0.7-0.3-0.9-0.8c-0.1-0.2-0.1-0.4-0.1-0.4c-0.1,0,0.2,1-0.5,1.8
	c0,0.1-0.2,0.2-0.6,0.5c-0.4,0.4-0.8,0.7-1.3,1.1c-0.9,0.7-1.1,0.9-1.1,0.9C20.3,19.1,21.5,18.4,22,18.2z"/>
<path class="st5" d="M19.5,25.5c-0.3,0.9-1.3,3.1-2.8,3.6c-0.7,0.2-1.2-0.3-1.3-0.2c0,0.1,0.7,0.3,1.2,1.3c0.5,1.1,0.4,2.9,0.1,4.2
	c-0.2,0.7-0.4,1.4-0.4,1.4s0.9-3.5,2.3-4.4c0.4-0.2,1.1-0.5,1.7-0.2c0.2,0.1,0.4,0.3,0.5,0.3c0.1-0.1-1.2-0.9-1.2-2.6
	c0-0.1,0.1-0.5,0.2-1.3c0.1-0.9,0.2-1.6,0.4-2.7c0.3-1.9,0.4-2.3,0.3-2.3C20.4,22.5,19.8,24.7,19.5,25.5z"/>
<path class="st5" d="M29.6,33.7c-0.2,0.7-0.9,2.6-2.4,3c-0.7,0.2-1.3-0.2-1.3-0.1c0,0.1,0.8,0.2,1.3,1c0.7,0.9,0.8,2.3,0.6,3.4
	c-0.1,0.6-0.3,1.1-0.3,1.1s0.4-2.9,1.8-3.7c0.3-0.2,1-0.4,1.7-0.3c0.2,0.1,0.5,0.2,0.5,0.2c0-0.1-1.3-0.7-1.5-2.1c0-0.1,0-0.4,0-1.1
	c0-0.7,0-1.3,0.1-2.2c0.1-1.5,0.1-1.9,0-1.9C30.1,31.2,29.8,33.1,29.6,33.7z"/>
<path class="st5" d="M18.7,37.5c0.6,0.5,2.1,2.1,1.9,3.7c-0.1,0.7-0.7,1.1-0.6,1.2c0.1,0.1,0.5-0.6,1.5-0.9c1.1-0.2,2.6,0.3,3.6,0.9
	c0.5,0.4,1,0.8,1,0.8s-2.6-1.7-2.8-3.3c-0.1-0.4,0-1.2,0.5-1.8c0.2-0.2,0.5-0.3,0.4-0.4c-0.1-0.1-1.2,0.9-2.7,0.6
	c-0.1,0-0.4-0.2-1-0.5c-0.7-0.3-1.3-0.6-2.1-1.1c-1.5-0.8-1.8-1-1.8-0.9C16.5,35.8,18.1,37,18.7,37.5z"/>
<path class="st5" d="M36.2,21.7c0.5-0.1,1.7-0.2,2.2,0.4c0.3,0.2,0.1,0.6,0.2,0.6c0.1,0,0-0.4,0.3-0.8c0.4-0.5,1.2-0.8,1.9-1
	c0.4-0.1,0.7-0.1,0.7-0.1s-1.8,0.4-2.5,0c-0.2-0.1-0.4-0.3-0.5-0.7c0-0.1,0.1-0.3,0-0.3s-0.2,0.7-0.9,1.1c-0.1,0-0.2,0.1-0.6,0.2
	c-0.4,0.1-0.8,0.3-1.3,0.4c-0.9,0.3-1.1,0.4-1.1,0.4C34.6,22,35.8,21.7,36.2,21.7z"/>
<path class="st1" d="M60.9,28.1c0.1,6.9,3.3,10.3,4.6,12.2c0.5,0.7,1.9,2.8,1.7,3.5c-0.3,1-4,0.2-4.6,1.5c-0.4,1,1.1,2.1,0.6,3.2
	c-0.3,0.8-1.7,0.7-1.7,1.1c0,0.4,1,0.3,1.6,1.1c0.4,0.5,0.3,0.1,0.2,0.7c-0.2,0.8-1,1.4-1.8,1.6c-0.9,0.2,0.4,2.4,0.4,2.6
	c0.5,1.4,1.3,1.5,1,3c-1.4,7.3-17.4-3.5-19.9,1c-0.8,1.5-0.2,3.9,0.4,6.4c0.6,2.4,1.7,4.5,2.2,5.4c0.3,0.7,1,1.9,2.3,4.4
	c0.2,0.3,0.3,0.6,0.4,0.8"/>
</svg>
