<?xml version="1.0" encoding="utf-8"?>
<!-- Generator: Adobe Illustrator 27.8.1, SVG Export Plug-In . SVG Version: 6.00 Build 0)  -->
<svg version="1.1" id="Layer_1" xmlns="http://www.w3.org/2000/svg" xmlns:xlink="http://www.w3.org/1999/xlink" x="0px" y="0px"
	 viewBox="0 0 78.5 78.5" style="enable-background:new 0 0 78.5 78.5;" xml:space="preserve">
<style type="text/css">
	.st0{fill:#FFFFFF;stroke:#1D1D1B;stroke-miterlimit:10;}
	.st1{fill:none;stroke:#1D1D1B;stroke-linejoin:round;stroke-miterlimit:10;}
	.st2{fill:none;stroke:#1D1D1B;stroke-miterlimit:10;}
</style>
<g>
	<ellipse class="st0" cx="39.2" cy="39.2" rx="38.8" ry="38.8"/>
</g>
<path class="st1" d="M26.5,30.4c0,0-3.2-1.5,1-4.1c4-2.5,5.9-0.5,5.9-0.5s-2.1-2.8,1.4-3.7c3.4-0.8,5.6,1.1,5.6,1.1s1.2-2.8,4.4-2.5
	c3.8,0.4,2.7,3,2.7,3s1.2-2.5,4-1.2c2.8,1.3,1,3.5,1,3.5s2.6-1,4.3,0.5c1.6,1.5-0.1,3-0.1,3s2-1.2,2.8,1.8c0.6,2.3-1,2.5-1,2.5
	s2.3,0.1,2.1,3.4c-0.2,2.6-1.5,1.4-1.5,1.4s2,1.6-0.1,4C57.1,44.7,56,42,56,42s0.6,2.8-1.6,3.8c-2.9,1.3-4.3-1-4.3-1s1.2,3-2,3.5
	c-3.2,0.5-3.5-2.4-3.5-2.4s1.4,3-2.9,2.8c-3.3-0.1-2-3-2-3s0.1,3.1-3.9,2.1c-3.4-0.9-1.8-3.1-1.8-3.1s-3.7,1.2-5.3-1
	c-1.5-2.2,0.4-3.3,0.4-3.3S25,42,24.2,39.3c-0.8-2.7,1.2-3.4,1.2-3.4s-2.5,0.9-2.6-1.4C22.6,31.4,26.5,30.4,26.5,30.4z"/>
<path class="st2" d="M25.3,46.9c-0.7,0.9-0.3,2.3,0.7,2.9c1.2,0.6,2.8,0,3.2-1.2c0.3-1.1-0.6-2.3-1.7-2.5
	C26.6,46,25.8,46.3,25.3,46.9z"/>
<path class="st2" d="M21.1,52.4c-0.5,0.7-0.3,1.8,0.5,2.2c0.9,0.5,2.1,0,2.4-0.9c0.3-0.8-0.4-1.8-1.3-1.9
	C22.1,51.7,21.5,51.9,21.1,52.4z"/>
</svg>
