<?xml version="1.0" encoding="utf-8"?>
<!-- Generator: Adobe Illustrator 27.8.1, SVG Export Plug-In . SVG Version: 6.00 Build 0)  -->
<svg version="1.1" id="Layer_1" xmlns="http://www.w3.org/2000/svg" xmlns:xlink="http://www.w3.org/1999/xlink" x="0px" y="0px"
	 viewBox="0 0 78.5 78.5" style="enable-background:new 0 0 78.5 78.5;" xml:space="preserve">
<style type="text/css">
	.st0{fill:#FFFFFF;stroke:#1D1D1B;stroke-miterlimit:10;}
	.st1{fill:none;stroke:#000000;stroke-width:2;stroke-miterlimit:10;}
	.st2{fill:none;stroke:#000000;stroke-miterlimit:10;}
</style>
<circle class="st0" cx="39.4" cy="39.2" r="38.8"/>
<path class="st1" d="M50.2,68.3h-22c-2.8,0-5-2.2-5-5V15.4c0-2.8,2.2-5,5-5h22c2.8,0,5,2.2,5,5v47.8C55.2,66,53,68.3,50.2,68.3z"/>
<path class="st1" d="M30.5,38c-0.2,0.6-1.4,5.3,1.4,8.8c3.3,4.2,11,4.9,14.8,0.3c2.8-3.3,2.8-8.8-0.5-12.2
	c-3.4-3.5-9.1-3.8-12.9-0.5"/>
<line class="st2" x1="37.7" y1="38.1" x2="37.7" y2="44.6"/>
<line class="st2" x1="38" y1="38.5" x2="41.8" y2="41.4"/>
<line class="st2" x1="37.9" y1="44.2" x2="42.3" y2="41.4"/>
<path class="st2" d="M46.5,13.8H31.9c-0.2,0-0.4-0.2-0.4-0.4l0,0c0-0.2,0.2-0.4,0.4-0.4h14.6c0.2,0,0.4,0.2,0.4,0.4l0,0
	C46.8,13.6,46.7,13.8,46.5,13.8z"/>
</svg>
