<?xml version="1.0" encoding="utf-8"?>
<!-- Generator: Adobe Illustrator 27.8.1, SVG Export Plug-In . SVG Version: 6.00 Build 0)  -->
<svg version="1.1" id="Layer_1" xmlns="http://www.w3.org/2000/svg" xmlns:xlink="http://www.w3.org/1999/xlink" x="0px" y="0px"
	 viewBox="0 0 78.5 78.5" style="enable-background:new 0 0 78.5 78.5;" xml:space="preserve">
<style type="text/css">
	.st0{fill:#FFFFFF;stroke:#1D1D1B;stroke-miterlimit:10;}
	.st1{fill:#1D1D1B;}
</style>
<g>
	<ellipse class="st0" cx="39.3" cy="39.2" rx="38.8" ry="38.8"/>
	<g>
		<g>
			<g>
				<path class="st1" d="M9.4,27.8c0,5.9,8.2,5.9,12.3,5.3c4.8-0.7,9.3-3.2,12.5-6.9c0.9-1,1-2.5,0-3.5c-0.9-0.9-2.6-1-3.5,0
					c-2.3,2.7-5.3,4.5-8.8,5.3c-1.6,0.4-3.3,0.5-5.1,0.3c-0.6-0.1-1.4-0.2-1.9-0.4c0.1,0.1-0.4-0.2-0.4-0.2
					c-0.1-0.1-0.3-0.1-0.1-0.1c-0.4-0.1,0.1-0.2-0.1,0c0,0,0,0.7,0,0C14.4,24.6,9.4,24.6,9.4,27.8L9.4,27.8z"/>
			</g>
		</g>
		<g>
			<g>
				<path class="st1" d="M31,25.5c2.7,3.8,7.5,5.4,12,5.9c4.4,0.5,9.3-1.2,11.5-5.3c1.5-2.8-2.8-5.3-4.3-2.5c-0.6,1-1.5,1.9-2.5,2.3
					c-1.5,0.6-3.1,0.7-4.7,0.5c-1.6-0.2-3.3-0.7-4.8-1.3c-1-0.4-2.3-1.2-2.9-2.1c-0.8-1.1-2.2-1.6-3.4-0.9
					C30.8,22.7,30.2,24.4,31,25.5L31,25.5z"/>
			</g>
		</g>
		<g>
			<g>
				<path class="st1" d="M51.4,25.4c1.7,2.8,4.6,4.7,7.8,5.5c3.7,0.9,7.6,0.4,11.3-0.5c1.3-0.3,2.1-1.8,1.7-3.1
					c-0.4-1.3-1.8-2.1-3.1-1.7c-2.8,0.7-5.7,1.2-8.4,0.6c-0.6-0.1-1.2-0.3-1.8-0.5c0.4,0.2-0.4-0.2-0.5-0.3
					c-0.3-0.1-0.5-0.3-0.7-0.4c-0.2-0.1-0.5-0.3-0.7-0.5c0.3,0.3-0.3-0.3-0.4-0.4c-0.2-0.2-0.4-0.5-0.7-0.7c0.3,0.3-0.3-0.4-0.3-0.5
					c-0.7-1.1-2.2-1.6-3.4-0.9C51.1,22.7,50.7,24.3,51.4,25.4L51.4,25.4z"/>
			</g>
		</g>
		<g>
			<g>
				<path class="st1" d="M10.9,43.1c7.2,1.4,14.7-0.7,20.2-5.6c1-0.9,0.9-2.6,0-3.5c-1-1-2.5-0.9-3.5,0c-1,0.9-2,1.6-3.3,2.3
					c-1.4,0.8-2.3,1.1-3.9,1.6c-1.5,0.4-2.5,0.6-4,0.7c-0.7,0-1.5,0-2.2,0c-0.9-0.1-1.2-0.1-1.9-0.2C10.9,38,9.6,38.6,9.2,40
					C8.8,41.2,9.6,42.8,10.9,43.1L10.9,43.1z"/>
			</g>
		</g>
		<g>
			<g>
				<path class="st1" d="M27.1,36.7c1.8,5.1,7.1,7,12.2,6.5c5.2-0.5,10.1-2.4,14.5-5.2c1.1-0.7,1.6-2.2,0.9-3.4
					c-0.7-1.1-2.3-1.6-3.4-0.9c-3.4,2.2-7,3.7-11,4.4c-2.7,0.5-7.2,0.6-8.3-2.7c-0.4-1.3-1.7-2.1-3.1-1.7
					C27.6,34,26.6,35.4,27.1,36.7L27.1,36.7z"/>
			</g>
		</g>
		<g>
			<g>
				<path class="st1" d="M51.2,38.7c5.5,4,12.5,2,18.2-0.2c1.3-0.5,2.1-1.7,1.7-3.1c-0.3-1.2-1.8-2.2-3.1-1.7
					c-2.5,1-5.4,2.1-7.9,2.3C59.6,36,59,36,58.3,36c-0.3,0-0.6,0-0.9-0.1c0.4,0.1-0.4-0.1-0.5-0.1c-0.5-0.1-1.3-0.4-1.6-0.5
					c-0.3-0.1-1.1-0.6-1.5-0.9c-1.1-0.8-2.8-0.2-3.4,0.9C49.6,36.5,50.1,37.9,51.2,38.7L51.2,38.7z"/>
			</g>
		</g>
		<g>
			<g>
				<path class="st1" d="M12.3,52.9c6.7,0.8,13.5-1.5,18.6-5.8c1-0.9,0.9-2.6,0-3.5c-1-1-2.5-0.9-3.5,0c-1.9,1.6-4.4,3-6.9,3.7
					c-2.8,0.8-5.1,1-8.1,0.7c-1.3-0.2-2.5,1.3-2.5,2.5C9.8,51.9,10.9,52.8,12.3,52.9L12.3,52.9z"/>
			</g>
		</g>
		<g>
			<g>
				<path class="st1" d="M27.7,47.8c1.8,4,7.7,4.4,11.5,4.1c4.5-0.3,8.9-1.8,12.6-4.5c1.1-0.8,1.6-2.2,0.9-3.4
					c-0.6-1.1-2.3-1.7-3.4-0.9c-2.8,2-6,3.4-9.4,3.8c-1.7,0.2-3.4,0.2-5.1-0.1c-0.7-0.1-1.4-0.3-1.8-0.5c-0.6-0.3-0.7-0.4-0.9-1
					c-0.6-1.2-2.3-1.5-3.4-0.9C27.3,45.2,27.2,46.6,27.7,47.8L27.7,47.8z"/>
			</g>
		</g>
		<g>
			<g>
				<path class="st1" d="M49.5,47.1c2.2,3.3,6.5,3.5,10.1,3.2c3.9-0.3,7.6-1.4,10.5-4.1c1-0.9,0.9-2.6,0-3.5c-1-1-2.5-0.9-3.5,0
					c-0.1,0.1-0.3,0.2-0.4,0.3c0.2-0.2,0,0-0.1,0.1c-0.3,0.2-0.6,0.4-0.9,0.6c-0.3,0.2-0.6,0.3-0.9,0.5c-0.1,0-0.4,0.2-0.1,0.1
					c-0.2,0.1-0.3,0.1-0.5,0.2c-0.7,0.2-1.3,0.4-2,0.6c-0.3,0.1-0.7,0.1-1,0.2c-0.1,0-0.4,0.1-0.1,0c-0.2,0-0.4,0.1-0.7,0.1
					c-1.4,0.1-2.7,0.1-4.1,0c-0.4,0,0.4,0.1-0.1,0c-0.2,0-0.3-0.1-0.5-0.1c-0.3-0.1-0.6-0.2-0.9-0.3c-0.4-0.1,0.3,0.2,0,0
					c-0.1-0.1-0.3-0.1-0.4-0.2c-0.3-0.2,0.2,0.2,0,0c-0.1-0.1-0.3-0.5-0.1-0.1c-0.7-1.1-2.2-1.6-3.4-0.9
					C49.3,44.4,48.8,46,49.5,47.1L49.5,47.1z"/>
			</g>
		</g>
		<g>
			<g>
				<path class="st1" d="M13.7,62.2c5.8,0.8,11.8-1.3,16.1-5.3c1-0.9,1-2.7,0-3.5c-1-0.9-2.5-0.9-3.5,0c-0.2,0.2-0.5,0.4-0.7,0.6
					c-0.1,0.1-0.2,0.2-0.4,0.3c0.2-0.2,0.1-0.1,0,0c-0.5,0.4-1,0.7-1.5,1c-0.5,0.3-1.1,0.6-1.6,0.8c-0.2,0.1-0.3,0.1,0,0
					c-0.1,0.1-0.3,0.1-0.4,0.2c-0.3,0.1-0.6,0.2-1,0.3c-0.6,0.2-1.2,0.3-1.8,0.4c-0.3,0.1-0.6,0.1-0.9,0.2c-0.4,0.1,0.4,0,0,0
					c-0.2,0-0.3,0-0.5,0c-1.3,0.1-2.5,0.1-3.8-0.1c-1.3-0.2-2.6,1.3-2.5,2.5C11.3,61.2,12.3,62,13.7,62.2L13.7,62.2z"/>
			</g>
		</g>
		<g>
			<g>
				<path class="st1" d="M27.5,57.5c3.2,2.8,7.5,3.1,11.5,2.6c4.3-0.5,8.3-1.9,12-4.3c1.1-0.7,1.6-2.2,0.9-3.4
					c-0.7-1.1-2.3-1.6-3.4-0.9c-2.9,1.8-6,3.1-9.4,3.6c-2.6,0.4-6,0.6-8-1.1c-1-0.9-2.5-1-3.5,0C26.6,54.9,26.4,56.6,27.5,57.5
					L27.5,57.5z"/>
			</g>
		</g>
		<g>
			<g>
				<path class="st1" d="M49.6,56.7c5.1,3.3,11.7,3.4,17,0.6c1.2-0.6,1.6-2.3,0.9-3.4c-0.8-1.2-2.2-1.6-3.4-0.9
					c-0.3,0.1-0.5,0.3-0.8,0.4c-0.3,0.1-0.3,0.1,0,0c-0.1,0.1-0.3,0.1-0.4,0.2c-0.6,0.2-1.1,0.4-1.7,0.5c-0.3,0.1-0.6,0.1-0.9,0.2
					c0.6-0.1-0.4,0-0.5,0c-0.6,0-1.1,0.1-1.7,0c-0.3,0-0.5,0-0.8-0.1c-0.2,0-0.3,0-0.5,0c0.3,0,0.3,0,0,0c-0.6-0.1-1.2-0.2-1.8-0.4
					c-0.3-0.1-0.6-0.2-0.9-0.3c-0.3-0.1-0.3-0.1,0,0c-0.1-0.1-0.3-0.1-0.4-0.2c-0.5-0.3-1.1-0.6-1.6-0.9c-1.1-0.7-2.8-0.3-3.4,0.9
					C48.1,54.6,48.5,56,49.6,56.7L49.6,56.7z"/>
			</g>
		</g>
		<g>
			<g>
				<path class="st1" d="M13,21.3c3,2,6.9,1.9,10.3,1c3.5-1,6.9-2.8,9.9-4.9c1.1-0.8,1.6-2.2,0.9-3.4c-0.6-1.1-2.3-1.7-3.4-0.9
					c-2.5,1.8-5.3,3.3-8.2,4.2c-2.6,0.8-4.9,1-7-0.3c-1.1-0.7-2.8-0.2-3.4,0.9C11.4,19.1,11.9,20.5,13,21.3L13,21.3z"/>
			</g>
		</g>
		<g>
			<g>
				<path class="st1" d="M31.1,15.7c3.5,2,7.4,3.6,11.5,3.4c3.9-0.2,7.3-1.8,9.7-4.9c0.8-1.1,0.2-2.8-0.9-3.4
					c-1.3-0.8-2.6-0.2-3.4,0.9c0.2-0.2-0.4,0.4-0.5,0.5c-0.1,0.1-0.7,0.6-0.5,0.4c-0.3,0.2-0.6,0.4-0.9,0.6c-0.1,0-0.9,0.4-0.6,0.3
					c-1.3,0.5-2.2,0.7-3.5,0.7c-2.9,0-5.8-1.2-8.4-2.7c-1.2-0.7-2.7-0.3-3.4,0.9C29.5,13.4,29.9,15,31.1,15.7L31.1,15.7z"/>
			</g>
		</g>
		<g>
			<g>
				<path class="st1" d="M50,13.8c4.7,4.1,10.6,7.3,17,6.1c1.3-0.2,2.1-1.9,1.7-3.1c-0.4-1.4-1.7-2-3.1-1.7c-0.2,0-0.3,0.1-0.5,0.1
					c0.3,0,0.2,0-0.1,0c-0.3,0-0.6,0-1,0c-0.3,0-0.6,0-1,0c-0.2,0-0.3,0-0.5,0c0.3,0,0.3,0,0,0c-0.6-0.1-1.1-0.2-1.6-0.4
					c-0.3-0.1-0.6-0.2-0.9-0.3c-0.1,0-0.9-0.4-0.5-0.2c-2.4-1-4.4-2.5-6.1-4c-1-0.9-2.6-1-3.5,0C49.1,11.2,48.9,12.9,50,13.8
					L50,13.8z"/>
			</g>
		</g>
	</g>
</g>
</svg>
