<?xml version="1.0" encoding="utf-8"?>
<!-- Generator: Adobe Illustrator 27.8.1, SVG Export Plug-In . SVG Version: 6.00 Build 0)  -->
<svg version="1.1" id="Layer_1" xmlns="http://www.w3.org/2000/svg" xmlns:xlink="http://www.w3.org/1999/xlink" x="0px" y="0px"
	 viewBox="0 0 78.5 78.5" style="enable-background:new 0 0 78.5 78.5;" xml:space="preserve">
<style type="text/css">
	.st0{fill:#FFFFFF;stroke:#1D1D1B;stroke-miterlimit:10;}
	.st1{stroke:#000000;stroke-miterlimit:10;}
</style>
<circle class="st0" cx="39.2" cy="39.3" r="38.8"/>
<path class="st1" d="M22.7,37.4c18.8,13.1,28.7,19.8,28.7,19.8c2.2-2.3,2.4-2.6,2.4-2.6c-1.4-1.1-3.2-2.1-4.8-3.4
	c0,0,3.3-4.8,8.9-11.9c8.4-10.7-1-15.4-5.1-18.2c-4-2.7-11.4-6.4-15.6-1.8c-4,4.4-10.9,12.7-13.4,14.7c0,0-1.1-1.1-3.8-2.7l-2.3,2.5
	C19.6,35.3,21.1,36.3,22.7,37.4z"/>
</svg>
