<?xml version="1.0" encoding="utf-8"?>
<!-- Generator: Adobe Illustrator 27.8.1, SVG Export Plug-In . SVG Version: 6.00 Build 0)  -->
<svg version="1.1" id="Layer_1" xmlns="http://www.w3.org/2000/svg" xmlns:xlink="http://www.w3.org/1999/xlink" x="0px" y="0px"
	 viewBox="0 0 78.5 78.5" style="enable-background:new 0 0 78.5 78.5;" xml:space="preserve">
<style type="text/css">
	.st0{fill:#FFFFFF;stroke:#1D1D1B;stroke-miterlimit:10;}
	.st1{fill:none;stroke:#1D1D1B;stroke-miterlimit:10;}
	.st2{fill:none;stroke:#1D1D1B;stroke-width:0.5;stroke-miterlimit:10;}
	.st3{fill:none;stroke:#1D1D1B;stroke-width:2;stroke-miterlimit:10;}
</style>
<circle class="st0" cx="39.2" cy="39.3" r="38.8"/>
<path class="st1" d="M39.5,54.9L39.5,54.9c-2.9,0-5.3-2.4-5.3-5.3V37c0-2.9,2.4-5.3,5.3-5.3h0c2.9,0,5.3,2.4,5.3,5.3v12.6
	C44.8,52.5,42.4,54.9,39.5,54.9z"/>
<path class="st1" d="M32.9,42.8l0,6.6c-0.2,3.8,3,6.8,6.5,6.8c3.9,0,6.7-3.2,6.6-7.2"/>
<line class="st1" x1="46" y1="42.8" x2="46.1" y2="49.4"/>
<line class="st2" x1="32.9" y1="43.5" x2="34.2" y2="43.5"/>
<line class="st2" x1="44.7" y1="43.7" x2="46.1" y2="43.7"/>
<line class="st1" x1="39.5" y1="56.2" x2="39.5" y2="58.4"/>
<path class="st0" d="M41.1,59.2h-3.1v-0.7c0-0.1,0.1-0.2,0.2-0.2h2.7c0.1,0,0.2,0.1,0.2,0.2V59.2z"/>
<path class="st0" d="M25.7,47.3h1.1V31.6h-1.1c-2.8,0-5,2.2-5,5v5.7C20.7,45.1,22.9,47.3,25.7,47.3z"/>
<path class="st0" d="M52.1,47.5h1.1c2.8,0,5-2.2,5-5v-5.7c0-2.8-2.2-5-5-5h-1.1V47.5z"/>
<path class="st3" d="M52.5,31.8c0-4.5,0.9-14-12.9-14c-15.6,0-12.8,9.9-13.3,13.7"/>
</svg>
