<?xml version="1.0" encoding="utf-8"?>
<!-- Generator: Adobe Illustrator 27.8.1, SVG Export Plug-In . SVG Version: 6.00 Build 0)  -->
<svg version="1.1" id="Layer_1" xmlns="http://www.w3.org/2000/svg" xmlns:xlink="http://www.w3.org/1999/xlink" x="0px" y="0px"
	 viewBox="0 0 78.5 78.5" style="enable-background:new 0 0 78.5 78.5;" xml:space="preserve">
<style type="text/css">
	.st0{fill:#FFFFFF;stroke:#1D1D1B;stroke-miterlimit:10;}
	.st1{fill:#1D1D1B;}
</style>
<g>
	<circle class="st0" cx="39.2" cy="39.2" r="38.8"/>
	<g>
		<g>
			<path class="st1" d="M21.9,35.3c-0.4,6.8-0.4,13.9,0.7,20.7c0.8,5,3.3,11.5,8.9,12.9c3.5,0.9,5.8-2.1,6.5-5.1
				c0.9-3.4,1.3-7,1.6-10.4c0.3-3.5,0.3-7,0.1-10.5c-0.2-3.2-0.7-6.5-2.6-9.1c-2-2.7-5.7-4.6-9.1-3.4c-3.1,1.1-5.4,4.8-4.1,8.1
				c0.5,1.2,1.7,2.1,3.1,1.7c1.2-0.3,2.3-1.8,1.7-3.1c-0.4-1,0.3-2.2,1.6-2.1c1.7,0.1,3,1.8,3.6,3.3c0.8,2.3,0.9,4.8,0.9,7.2
				c0.1,2.8,0,5.6-0.2,8.4c-0.2,2.6-0.6,5.3-1.2,7.9c-0.1,0.7-0.3,1.8-0.8,2.4c0,0,0.2,0,0.2,0c-0.4,0.1-1.2-0.5-1.5-0.8
				c-2.8-2.1-3.6-6.1-4-9.4c-0.8-6.1-0.7-12.5-0.4-18.6C27.1,32.1,22.1,32.1,21.9,35.3L21.9,35.3z"/>
		</g>
	</g>
	<g>
		<g>
			<path class="st1" d="M23,19c0.6,3.5,4.1,5.9,7.5,6.1c3.6,0.1,6.7-2.6,7.4-6.1c0.4-1.9,0.2-3.7-0.6-5.4c-0.7-1.5-2-2.8-3.4-3.5
				c-3.3-1.6-7.4-1.2-10,1.5c-2.9,2.9-3.4,7.8-1.1,11.3c0.7,1.1,2.2,1.7,3.4,0.9c1.1-0.7,1.7-2.2,0.9-3.4c-0.2-0.2-0.3-0.5-0.4-0.7
				c-0.2-0.5,0.2,0.4,0,0.1c-0.1-0.2-0.1-0.3-0.2-0.5c0-0.1-0.1-0.3-0.1-0.4c0-0.1-0.1-0.6,0-0.2c0.1,0.5,0,0,0-0.1
				c0-0.2,0-0.3,0-0.5c0-0.2,0-0.3,0-0.5c0-0.1,0-0.1,0-0.2c0-0.3,0,0.4,0,0.3c0-0.3,0.1-0.7,0.2-1c0-0.1,0.1-0.2,0.1-0.4
				c0.2-0.5-0.2,0.4,0,0.1c0.1-0.3,0.3-0.5,0.4-0.8c0.1-0.1,0.4-0.5,0.1-0.2c-0.3,0.3,0,0,0.1-0.1c0.1-0.1,0.2-0.2,0.3-0.3
				c0,0,0.1-0.1,0.1-0.1c0.2-0.2,0.4-0.1-0.2,0.1c0.2-0.1,0.5-0.3,0.7-0.4c0.1,0,0.5-0.2,0.1-0.1c-0.4,0.2,0.1,0,0.2-0.1
				c0.3-0.1,0.5-0.1,0.8-0.2c0.4-0.1-0.6,0-0.1,0c0.1,0,0.3,0,0.4,0c0.2,0,0.7-0.1,0.9,0c0.1,0-0.6-0.1-0.4,0c0.1,0,0.1,0,0.2,0
				c0.2,0,0.3,0.1,0.5,0.1c0.1,0,0.3,0.1,0.4,0.1c0,0,0.1,0,0.2,0.1c0,0-0.5-0.3-0.3-0.1c0.3,0.2,0.6,0.3,0.8,0.4
				c0,0,0.1,0.1,0.2,0.1c0.2,0.1-0.3-0.2-0.3-0.2c0.1,0.1,0.2,0.2,0.3,0.3c0.1,0.1,0.2,0.2,0.3,0.3c0.1,0.1,0.1,0.1,0.2,0.2
				c0.2,0.2-0.3-0.4-0.2-0.2c0.1,0.2,0.3,0.4,0.4,0.7c0.2,0.3-0.2-0.6,0-0.1c0,0.1,0.1,0.3,0.1,0.4c0,0.1,0.1,0.3,0.1,0.4
				c0.1,0.5,0-0.5,0-0.1c0,0.3,0,0.6,0,0.8c0,0.1,0,0.2,0,0.4c0,0.4,0.1-0.6,0-0.1c-0.1,0.3-0.1,0.5-0.2,0.8c0,0.1-0.1,0.2-0.1,0.2
				c-0.1,0.3,0.1-0.4,0.1-0.3c0,0.1-0.1,0.3-0.2,0.4c-0.1,0.1-0.1,0.2-0.2,0.3c-0.1,0.1-0.4,0.5-0.1,0.2c0.3-0.4,0,0-0.1,0.1
				c-0.1,0.1-0.2,0.2-0.2,0.3c-0.1,0.1-0.5,0.4-0.1,0.1c0.4-0.3,0,0-0.1,0.1c-0.1,0.1-0.2,0.1-0.4,0.2c-0.4,0.2,0.5-0.1,0.1,0
				c-0.2,0-0.7,0.3-0.8,0.2c-0.1,0,0.6,0,0.4-0.1c-0.1,0-0.2,0-0.3,0c-0.1,0-0.3,0-0.4,0c-0.1,0-0.2,0-0.2,0c-0.3,0,0.6,0.1,0.3,0
				c-0.2,0-0.3-0.1-0.5-0.1c-0.1,0-0.3-0.1-0.4-0.1c-0.1,0-0.2-0.1-0.2-0.1c-0.3-0.1,0.2,0.1,0.3,0.1c-0.2,0-0.6-0.3-0.8-0.4
				c-0.1,0-0.1-0.1-0.2-0.1c-0.2-0.1,0.4,0.4,0.2,0.2c-0.1-0.1-0.2-0.2-0.4-0.3c-0.1-0.1-0.2-0.2-0.3-0.3c0,0-0.1-0.1-0.2-0.2
				c0,0,0.4,0.5,0.2,0.2c-0.1-0.1-0.2-0.3-0.2-0.4c0-0.1-0.1-0.1-0.1-0.2c-0.1-0.2,0-0.4,0.1,0.2c-0.1-0.3-0.2-0.6-0.2-0.9
				c-0.1-0.6-0.7-1.2-1.1-1.5c-0.5-0.3-1.3-0.4-1.9-0.3c-0.6,0.2-1.2,0.6-1.5,1.1C22.9,17.7,22.9,18.3,23,19L23,19z"/>
		</g>
	</g>
	<g>
		<g>
			<path class="st1" d="M44.4,31.9C44.3,38.4,44,45,44.2,51.5c0.1,3,0.5,6,1.8,8.8c1.2,2.5,3.7,4.8,6.6,4.8c3.4,0,5.1-2.9,6.2-5.7
				c1.2-2.8,1.8-5.8,2.3-8.8c0.4-3,0.6-6.1,0.6-9.2c0-3.2-0.1-6.5-1.7-9.3c-1.4-2.7-4.4-5-7.6-4.8c-3.3,0.3-5.9,2.7-6.3,6
				c-0.1,1.3,1.2,2.5,2.5,2.5c1.5,0,2.4-1.2,2.5-2.5c0.1-0.9,1.6-1.2,2.4-0.9c1.7,0.6,2.5,2.6,2.8,4.1c0.5,2.2,0.4,4.6,0.3,6.9
				c0,2.2-0.2,4.5-0.5,6.7c-0.4,2.3-0.9,4.7-1.7,6.9c-0.3,0.8-1,3.5-2.2,2.9c-1.6-0.8-2.3-2.9-2.6-4.4c-0.4-2-0.4-4-0.4-6.1
				c0-5.9,0.1-11.7,0.2-17.6C49.5,28.7,44.5,28.7,44.4,31.9L44.4,31.9z"/>
		</g>
	</g>
	<g>
		<g>
			<path class="st1" d="M44.6,17c0.6,2.6,2.8,4.6,5.3,5.2c2.7,0.7,5.5-0.1,7.2-2.3c0.7-0.9,1.2-2,1.4-3.2c0.2-1.3,0.2-2.6-0.3-3.9
				c-0.5-1.4-1.4-2.5-2.6-3.4c-1.1-0.7-2.4-1.1-3.6-1.1c-2.7-0.1-5.8,1.4-6.9,3.9c-0.3,0.6-0.4,1.2-0.3,1.9c0.2,0.6,0.6,1.2,1.1,1.5
				c0.6,0.3,1.3,0.5,1.9,0.3c0.6-0.2,1.2-0.6,1.5-1.1c0.1-0.3,0.3-0.6,0.5-0.9c-0.1,0.2-0.3,0.3-0.4,0.5c0.2-0.3,0.5-0.5,0.8-0.8
				c-0.2,0.1-0.3,0.3-0.5,0.4c0.3-0.3,0.7-0.5,1.1-0.6c-0.2,0.1-0.4,0.2-0.6,0.3c0.4-0.2,0.9-0.3,1.3-0.4c-0.2,0-0.4,0.1-0.7,0.1
				c0.5-0.1,0.9-0.1,1.4,0c-0.2,0-0.4-0.1-0.7-0.1c0.4,0.1,0.8,0.2,1.2,0.3c-0.2-0.1-0.4-0.2-0.6-0.3c0.3,0.1,0.6,0.3,0.9,0.5
				c-0.2-0.1-0.3-0.3-0.5-0.4c0.3,0.2,0.5,0.5,0.7,0.7c-0.1-0.2-0.3-0.3-0.4-0.5c0.2,0.3,0.4,0.6,0.6,0.9c-0.1-0.2-0.2-0.4-0.3-0.6
				c0.2,0.4,0.3,0.8,0.3,1.2c0-0.2-0.1-0.4-0.1-0.7c0.1,0.5,0.1,1,0,1.5c0-0.2,0.1-0.4,0.1-0.7c-0.1,0.5-0.2,0.9-0.4,1.3
				c0.1-0.2,0.2-0.4,0.3-0.6c-0.2,0.4-0.4,0.7-0.6,1c0.1-0.2,0.3-0.3,0.4-0.5c-0.2,0.3-0.5,0.5-0.8,0.8c0.2-0.1,0.3-0.3,0.5-0.4
				c-0.3,0.2-0.5,0.3-0.8,0.5c0.2-0.1,0.4-0.2,0.6-0.3c-0.3,0.1-0.7,0.2-1.1,0.3c0.2,0,0.4-0.1,0.7-0.1c-0.4,0.1-0.9,0.1-1.3,0
				c0.2,0,0.4,0.1,0.7,0.1c-0.5-0.1-0.9-0.2-1.4-0.4c0.2,0.1,0.4,0.2,0.6,0.3c-0.4-0.2-0.8-0.4-1.1-0.7c0.2,0.1,0.3,0.3,0.5,0.4
				c-0.3-0.3-0.6-0.5-0.9-0.9c0.1,0.2,0.3,0.3,0.4,0.5c-0.2-0.3-0.4-0.6-0.6-1c0.1,0.2,0.2,0.4,0.3,0.6c-0.1-0.2-0.2-0.5-0.2-0.7
				c-0.3-1.3-1.8-2.1-3.1-1.7C45,14.4,44.3,15.7,44.6,17L44.6,17z"/>
		</g>
	</g>
</g>
</svg>
