<?xml version="1.0" encoding="utf-8"?>
<!-- Generator: Adobe Illustrator 27.8.1, SVG Export Plug-In . SVG Version: 6.00 Build 0)  -->
<svg version="1.1" id="Layer_1" xmlns="http://www.w3.org/2000/svg" xmlns:xlink="http://www.w3.org/1999/xlink" x="0px" y="0px"
	 viewBox="0 0 78.5 78.5" style="enable-background:new 0 0 78.5 78.5;" xml:space="preserve">
<style type="text/css">
	.st0{fill:#FFFFFF;stroke:#1D1D1B;stroke-miterlimit:10;}
	.st1{fill:#1D1D1B;}
</style>
<g>
	<circle class="st0" cx="441.3" cy="85.3" r="9.9"/>
	<g>
		<g>
			<g>
				<path class="st1" d="M434,83.5c-0.4,1.3-0.2,2.8,0.7,3.9c0.9,1.1,2.4,1.4,3.7,0.9c1.3-0.5,2.2-1.8,2.1-3.3
					c-0.1-1.4-1.1-2.7-2.5-3.1c-1.5-0.4-3.3,0.4-4,1.8c-0.2,0.3-0.1,0.7,0.2,0.9c0.3,0.2,0.7,0.1,0.9-0.2c0.5-0.9,1.4-1.3,2.3-1.3
					c0.2,0-0.1,0,0.1,0c0.1,0,0.1,0,0.2,0s0.1,0,0.2,0.1c0,0,0.2,0.1,0.1,0c0.2,0.1,0.4,0.2,0.6,0.4c0.4,0.3,0.6,0.7,0.7,1.2
					c0.2,0.9-0.1,1.7-0.9,2.2c-0.4,0.2-0.8,0.3-1.3,0.3c-0.2,0,0.1,0-0.1,0c-0.1,0-0.1,0-0.2,0s-0.2-0.1-0.3-0.1
					c-0.3-0.1-0.4-0.2-0.6-0.4c-0.2-0.2-0.3-0.3-0.4-0.6c-0.1-0.2-0.2-0.4-0.3-0.7c0-0.2-0.1-0.5-0.1-0.8s0-0.5,0.1-0.8
					s-0.1-0.7-0.4-0.8C434.4,83,434.1,83.2,434,83.5L434,83.5z"/>
			</g>
		</g>
		<g>
			<g>
				<path class="st1" d="M442.5,83.4c-0.4,1.3-0.2,2.8,0.7,3.9c0.9,1.1,2.4,1.4,3.7,0.9c1.3-0.5,2.2-1.8,2.1-3.3
					c-0.1-1.4-1.1-2.7-2.5-3.1c-1.5-0.4-3.3,0.4-4,1.8c-0.2,0.3-0.1,0.7,0.2,0.9c0.3,0.2,0.7,0.1,0.9-0.2c0.5-0.9,1.4-1.3,2.3-1.3
					c0.2,0-0.1,0,0.1,0c0.1,0,0.1,0,0.2,0s0.1,0,0.2,0.1c0,0,0.2,0.1,0.1,0c0.2,0.1,0.4,0.2,0.6,0.4c0.4,0.3,0.6,0.7,0.7,1.2
					c0.2,0.9-0.1,1.7-0.9,2.2c-0.4,0.2-0.8,0.3-1.3,0.3c-0.2,0,0.1,0-0.1,0c-0.1,0-0.1,0-0.2,0s-0.2-0.1-0.3-0.1
					c-0.3-0.1-0.4-0.2-0.6-0.4c-0.2-0.2-0.3-0.3-0.4-0.6c-0.1-0.2-0.2-0.4-0.3-0.7c0-0.2-0.1-0.5-0.1-0.8s0-0.5,0.1-0.8
					s-0.1-0.7-0.4-0.8C442.9,82.9,442.6,83.1,442.5,83.4L442.5,83.4z"/>
			</g>
		</g>
		<g>
			<g>
				<path class="st1" d="M441,85.7L441,85.7C441,85.7,440.9,85.7,441,85.7c0,0,0,0,0.1-0.1C441,85.6,441,85.7,441,85.7
					c0.1-0.1,0.2-0.1,0.2-0.1S441.1,85.6,441,85.7c0.2-0.1,0.3-0.2,0.4-0.2c-0.1,0-0.1,0-0.2,0c0.1,0,0.2,0,0.3,0
					c-0.1,0-0.1,0-0.2,0c0.1,0,0.2,0,0.3,0.1c0,0-0.1,0-0.1-0.1c0.1,0,0.2,0.1,0.2,0.1l-0.1-0.1c0.1,0,0.1,0.1,0.1,0.1
					c0.2,0.2,0.7,0.2,0.9,0c0.2-0.3,0.2-0.6,0-0.9c-0.3-0.4-0.9-0.6-1.4-0.5c-0.3,0-0.6,0.1-0.8,0.2c-0.3,0.1-0.4,0.3-0.6,0.6
					c-0.1,0.1-0.1,0.3-0.1,0.5c0,0.1,0.2,0.3,0.3,0.4c0.1,0.1,0.3,0.1,0.5,0.1C440.8,85.9,440.9,85.8,441,85.7L441,85.7z"/>
			</g>
		</g>
	</g>
</g>
<g>
	<circle class="st0" cx="39.3" cy="39.3" r="38.7"/>
	<g>
		<g>
			<path class="st1" d="M14.9,38C21,32.2,29,28.5,37.4,27.9c8.8-0.6,17.5,2.1,24.6,7.4c1.1,0.8,2.8,0.2,3.4-0.9
				c0.7-1.3,0.2-2.6-0.9-3.4c-12.3-9.2-29.1-10.6-42.9-3.8c-3.8,1.9-7.3,4.4-10.3,7.3C9.1,36.7,12.6,40.2,14.9,38L14.9,38z"/>
		</g>
	</g>
	<g>
		<g>
			<path class="st1" d="M11.8,38.6C17,44.2,24.1,48,31.6,49.2c7.7,1.2,15.4-0.3,22.2-4.1c3.7-2.1,7-4.9,9.7-8.2c0.8-1.1,1-2.5,0-3.5
				c-0.9-0.9-2.7-1.1-3.5,0c-8.4,10.5-23.2,14.4-35.4,8.5c-3.5-1.7-6.5-3.9-9.2-6.8C13.1,32.7,9.6,36.2,11.8,38.6L11.8,38.6z"/>
		</g>
	</g>
	<g>
		<g>
			<path class="st1" d="M38.8,37.8c0.2,0,0.5,0,0.7,0c0.3,0,0.7-0.1,1-0.2c0.3-0.1,0.6-0.3,0.8-0.5s0.4-0.5,0.5-0.8
				c0.2-0.3,0.2-0.6,0.2-1c0-0.2-0.1-0.4-0.1-0.7c-0.1-0.4-0.3-0.8-0.6-1.1c-0.2-0.1-0.3-0.3-0.5-0.4c-0.4-0.2-0.8-0.3-1.3-0.3
				c-0.2,0-0.5,0-0.7,0c-0.3,0-0.7,0.1-1,0.2c-0.3,0.1-0.6,0.3-0.8,0.5s-0.4,0.5-0.5,0.8c-0.2,0.3-0.2,0.6-0.2,1
				c0,0.2,0.1,0.4,0.1,0.7c0.1,0.4,0.3,0.8,0.6,1.1c0.2,0.1,0.3,0.3,0.5,0.4C37.9,37.7,38.3,37.8,38.8,37.8L38.8,37.8z"/>
		</g>
	</g>
</g>
</svg>
