<?xml version="1.0" encoding="utf-8"?>
<!-- Generator: Adobe Illustrator 27.8.1, SVG Export Plug-In . SVG Version: 6.00 Build 0)  -->
<svg version="1.1" id="Layer_1" xmlns="http://www.w3.org/2000/svg" xmlns:xlink="http://www.w3.org/1999/xlink" x="0px" y="0px"
	 viewBox="0 0 78.5 78.5" style="enable-background:new 0 0 78.5 78.5;" xml:space="preserve">
<style type="text/css">
	.st0{fill:#FFFFFF;stroke:#1D1D1B;stroke-miterlimit:10;}
	.st1{fill:#FFFFFF;stroke:#000000;stroke-miterlimit:10;}
	.st2{font-family:'MyriadPro-Regular';}
	.st3{font-size:12px;}
	.st4{fill:none;stroke:#000000;stroke-miterlimit:10;}
</style>
<g>
	<ellipse class="st0" cx="39.2" cy="39.2" rx="38.8" ry="38.8"/>
</g>
<path class="st1" d="M44.7,51.6h-11c-1.6,0-3-1.3-3-3V29.8c0-1.6,1.4-3,3-3h11c1.6,0,3,1.4,3,3v18.8C47.7,50.2,46.4,51.6,44.7,51.6z
	"/>
<text transform="matrix(1 0 0 1 35.5088 43.2057)" class="st2 st3">P</text>
<path class="st4" d="M26.6,25.3c0-1.6,1.4-3,3-3h19.4c1.7,0,3,1.4,3,3"/>
<path class="st4" d="M26.5,53.1c0,1.7,1.4,3,3,3h19.4c1.7,0,3-1.3,3-3"/>
<path class="st4" d="M23.6,22.3c0-2,1.7-3.7,3.7-3.7h23.9c2,0,3.7,1.6,3.7,3.7"/>
<path class="st4" d="M23.5,56.2c0,2,1.7,3.7,3.7,3.7h23.9c2,0,3.7-1.6,3.7-3.7"/>
</svg>
