<?xml version="1.0" encoding="utf-8"?>
<!-- Generator: Adobe Illustrator 27.8.1, SVG Export Plug-In . SVG Version: 6.00 Build 0)  -->
<svg version="1.1" id="Layer_1" xmlns="http://www.w3.org/2000/svg" xmlns:xlink="http://www.w3.org/1999/xlink" x="0px" y="0px"
	 viewBox="0 0 78.5 78.5" style="enable-background:new 0 0 78.5 78.5;" xml:space="preserve">
<style type="text/css">
	.st0{fill:#FFFFFF;stroke:#1D1D1B;stroke-miterlimit:10;}
	.st1{fill:#1D1D1B;}
	.st2{fill:#FFFFFF;stroke:#1D1D1B;stroke-width:3;stroke-miterlimit:10;}
	.st3{fill:none;stroke:#1D1D1B;stroke-miterlimit:10;}
</style>
<g>
	<circle class="st0" cx="441.3" cy="85.3" r="9.9"/>
	<g>
		<g>
			<g>
				<path class="st1" d="M434,83.5c-0.4,1.3-0.2,2.8,0.7,3.9c0.9,1.1,2.4,1.4,3.7,0.9c1.3-0.5,2.2-1.8,2.1-3.3
					c-0.1-1.4-1.1-2.7-2.5-3.1c-1.5-0.4-3.3,0.4-4,1.8c-0.2,0.3-0.1,0.7,0.2,0.9c0.3,0.2,0.7,0.1,0.9-0.2c0.5-0.9,1.4-1.3,2.3-1.3
					c0.2,0-0.1,0,0.1,0c0.1,0,0.1,0,0.2,0s0.1,0,0.2,0.1c0,0,0.2,0.1,0.1,0c0.2,0.1,0.4,0.2,0.6,0.4c0.4,0.3,0.6,0.7,0.7,1.2
					c0.2,0.9-0.1,1.7-0.9,2.2c-0.4,0.2-0.8,0.3-1.3,0.3c-0.2,0,0.1,0-0.1,0c-0.1,0-0.1,0-0.2,0s-0.2-0.1-0.3-0.1
					c-0.3-0.1-0.4-0.2-0.6-0.4c-0.2-0.2-0.3-0.3-0.4-0.6c-0.1-0.2-0.2-0.4-0.3-0.7c0-0.2-0.1-0.5-0.1-0.8s0-0.5,0.1-0.8
					s-0.1-0.7-0.4-0.8C434.4,83,434.1,83.2,434,83.5L434,83.5z"/>
			</g>
		</g>
		<g>
			<g>
				<path class="st1" d="M442.5,83.4c-0.4,1.3-0.2,2.8,0.7,3.9c0.9,1.1,2.4,1.4,3.7,0.9c1.3-0.5,2.2-1.8,2.1-3.3
					c-0.1-1.4-1.1-2.7-2.5-3.1c-1.5-0.4-3.3,0.4-4,1.8c-0.2,0.3-0.1,0.7,0.2,0.9c0.3,0.2,0.7,0.1,0.9-0.2c0.5-0.9,1.4-1.3,2.3-1.3
					c0.2,0-0.1,0,0.1,0c0.1,0,0.1,0,0.2,0s0.1,0,0.2,0.1c0,0,0.2,0.1,0.1,0c0.2,0.1,0.4,0.2,0.6,0.4c0.4,0.3,0.6,0.7,0.7,1.2
					c0.2,0.9-0.1,1.7-0.9,2.2c-0.4,0.2-0.8,0.3-1.3,0.3c-0.2,0,0.1,0-0.1,0c-0.1,0-0.1,0-0.2,0s-0.2-0.1-0.3-0.1
					c-0.3-0.1-0.4-0.2-0.6-0.4c-0.2-0.2-0.3-0.3-0.4-0.6c-0.1-0.2-0.2-0.4-0.3-0.7c0-0.2-0.1-0.5-0.1-0.8s0-0.5,0.1-0.8
					s-0.1-0.7-0.4-0.8C442.9,82.9,442.6,83.1,442.5,83.4L442.5,83.4z"/>
			</g>
		</g>
		<g>
			<g>
				<path class="st1" d="M441,85.7L441,85.7C441,85.7,440.9,85.7,441,85.7c0,0,0,0,0.1-0.1C441,85.6,441,85.7,441,85.7
					c0.1-0.1,0.2-0.1,0.2-0.1S441.1,85.6,441,85.7c0.2-0.1,0.3-0.2,0.4-0.2c-0.1,0-0.1,0-0.2,0c0.1,0,0.2,0,0.3,0
					c-0.1,0-0.1,0-0.2,0c0.1,0,0.2,0,0.3,0.1c0,0-0.1,0-0.1-0.1c0.1,0,0.2,0.1,0.2,0.1l-0.1-0.1c0.1,0,0.1,0.1,0.1,0.1
					c0.2,0.2,0.7,0.2,0.9,0c0.2-0.3,0.2-0.6,0-0.9c-0.3-0.4-0.9-0.6-1.4-0.5c-0.3,0-0.6,0.1-0.8,0.2c-0.3,0.1-0.4,0.3-0.6,0.6
					c-0.1,0.1-0.1,0.3-0.1,0.5c0,0.1,0.2,0.3,0.3,0.4c0.1,0.1,0.3,0.1,0.5,0.1C440.8,85.9,440.9,85.8,441,85.7L441,85.7z"/>
			</g>
		</g>
	</g>
</g>
<circle class="st0" cx="39.2" cy="39.2" r="38.8"/>
<path class="st2" d="M58.1,66.6H20.4c-0.5,0-1-0.4-1-1V12.9c0-0.5,0.5-1,1-1h28.8c5.5,0,10,4.5,10,10v43.7
	C59.1,66.2,58.7,66.6,58.1,66.6z"/>
<path class="st0" d="M29,31.5h-4.1c-0.1,0-0.1,0-0.1-0.1v-4.1c0-0.1,0-0.1,0.1-0.1H29c0.1,0,0.1,0,0.1,0.1v4.1
	C29.1,31.5,29.1,31.5,29,31.5z"/>
<path class="st0" d="M29,40.2h-4.1c-0.1,0-0.1,0-0.1-0.1V36c0-0.1,0-0.1,0.1-0.1H29c0.1,0,0.1,0,0.1,0.1v4.1
	C29.1,40.2,29.1,40.2,29,40.2z"/>
<path class="st0" d="M29,49h-4.1c-0.1,0-0.1,0-0.1-0.1v-4.1c0-0.1,0-0.1,0.1-0.1H29c0.1,0,0.1,0,0.1,0.1v4.1
	C29.1,48.9,29.1,49,29,49z"/>
<path class="st0" d="M29,57.7h-4.1c-0.1,0-0.1,0-0.1-0.1v-4.1c0-0.1,0-0.1,0.1-0.1H29c0.1,0,0.1,0,0.1,0.1v4.1
	C29.1,57.6,29.1,57.7,29,57.7z"/>
<path class="st0" d="M49.2,21.2H24.9c-0.1,0-0.1,0-0.1-0.1v-4.1c0-0.1,0-0.1,0.1-0.1h24.4c0.1,0,0.1,0,0.1,0.1v4.1
	C49.3,21.1,49.3,21.2,49.2,21.2z"/>
<line class="st3" x1="31.1" y1="31.5" x2="52.5" y2="31.5"/>
<line class="st3" x1="31.1" y1="40.2" x2="52.5" y2="40.2"/>
<line class="st3" x1="31.1" y1="49" x2="52.5" y2="49"/>
<line class="st3" x1="31.1" y1="57.7" x2="52.5" y2="57.7"/>
</svg>
