<?xml version="1.0" encoding="utf-8"?>
<!-- Generator: Adobe Illustrator 27.8.0, SVG Export Plug-In . SVG Version: 6.00 Build 0)  -->
<svg version="1.1" id="Layer_1" xmlns="http://www.w3.org/2000/svg" xmlns:xlink="http://www.w3.org/1999/xlink" x="0px" y="0px"
	 viewBox="0 0 78.5 78.5" style="enable-background:new 0 0 78.5 78.5;" xml:space="preserve">
<style type="text/css">
	.st0{fill:#FFFFFF;stroke:#1D1D1B;stroke-miterlimit:10;}
	.st1{fill:#1D1D1B;}
</style>
<g>
	<circle class="st0" cx="441.3" cy="85.3" r="9.9"/>
	<g>
		<g>
			<g>
				<path class="st1" d="M434,83.5c-0.4,1.3-0.2,2.8,0.7,3.9c0.9,1.1,2.4,1.4,3.7,0.9c1.3-0.5,2.2-1.8,2.1-3.3
					c-0.1-1.4-1.1-2.7-2.5-3.1c-1.5-0.4-3.3,0.4-4,1.8c-0.2,0.3-0.1,0.7,0.2,0.9c0.3,0.2,0.7,0.1,0.9-0.2c0.5-0.9,1.4-1.3,2.3-1.3
					c0.2,0-0.1,0,0.1,0c0.1,0,0.1,0,0.2,0c0.1,0,0.1,0,0.2,0.1c0,0,0.2,0.1,0.1,0c0.2,0.1,0.4,0.2,0.6,0.4c0.4,0.3,0.6,0.7,0.7,1.2
					c0.2,0.9-0.1,1.7-0.9,2.2c-0.4,0.2-0.8,0.3-1.3,0.3c-0.2,0,0.1,0-0.1,0c-0.1,0-0.1,0-0.2,0c-0.1,0-0.2-0.1-0.3-0.1
					c-0.3-0.1-0.4-0.2-0.6-0.4c-0.2-0.2-0.3-0.3-0.4-0.6c-0.1-0.2-0.2-0.4-0.3-0.7c0-0.2-0.1-0.5-0.1-0.8c0-0.3,0-0.5,0.1-0.8
					c0.1-0.3-0.1-0.7-0.4-0.8C434.4,83,434.1,83.2,434,83.5L434,83.5z"/>
			</g>
		</g>
		<g>
			<g>
				<path class="st1" d="M442.5,83.4c-0.4,1.3-0.2,2.8,0.7,3.9c0.9,1.1,2.4,1.4,3.7,0.9c1.3-0.5,2.2-1.8,2.1-3.3
					c-0.1-1.4-1.1-2.7-2.5-3.1c-1.5-0.4-3.3,0.4-4,1.8c-0.2,0.3-0.1,0.7,0.2,0.9c0.3,0.2,0.7,0.1,0.9-0.2c0.5-0.9,1.4-1.3,2.3-1.3
					c0.2,0-0.1,0,0.1,0c0.1,0,0.1,0,0.2,0c0.1,0,0.1,0,0.2,0.1c0,0,0.2,0.1,0.1,0c0.2,0.1,0.4,0.2,0.6,0.4c0.4,0.3,0.6,0.7,0.7,1.2
					c0.2,0.9-0.1,1.7-0.9,2.2c-0.4,0.2-0.8,0.3-1.3,0.3c-0.2,0,0.1,0-0.1,0c-0.1,0-0.1,0-0.2,0c-0.1,0-0.2-0.1-0.3-0.1
					c-0.3-0.1-0.4-0.2-0.6-0.4c-0.2-0.2-0.3-0.3-0.4-0.6c-0.1-0.2-0.2-0.4-0.3-0.7c0-0.2-0.1-0.5-0.1-0.8c0-0.3,0-0.5,0.1-0.8
					c0.1-0.3-0.1-0.7-0.4-0.8C442.9,82.9,442.6,83.1,442.5,83.4L442.5,83.4z"/>
			</g>
		</g>
		<g>
			<g>
				<path class="st1" d="M441,85.7C441,85.7,441,85.7,441,85.7C441,85.7,440.9,85.7,441,85.7c0,0,0,0,0.1-0.1
					C441,85.6,441,85.7,441,85.7c0.1-0.1,0.2-0.1,0.2-0.1C441.2,85.6,441.1,85.6,441,85.7c0.2-0.1,0.3-0.2,0.4-0.2
					c-0.1,0-0.1,0-0.2,0c0.1,0,0.2,0,0.3,0c-0.1,0-0.1,0-0.2,0c0.1,0,0.2,0,0.3,0.1c0,0-0.1,0-0.1-0.1c0.1,0,0.2,0.1,0.2,0.1
					c0,0-0.1-0.1-0.1-0.1c0.1,0,0.1,0.1,0.1,0.1c0.2,0.2,0.7,0.2,0.9,0c0.2-0.3,0.2-0.6,0-0.9c-0.3-0.4-0.9-0.6-1.4-0.5
					c-0.3,0-0.6,0.1-0.8,0.2c-0.3,0.1-0.4,0.3-0.6,0.6c-0.1,0.1-0.1,0.3-0.1,0.5c0,0.1,0.2,0.3,0.3,0.4c0.1,0.1,0.3,0.1,0.5,0.1
					C440.8,85.9,440.9,85.8,441,85.7L441,85.7z"/>
			</g>
		</g>
	</g>
</g>
<g>
	<ellipse class="st0" cx="39.2" cy="39.2" rx="38.8" ry="38.8"/>
	<g>
		<g>
			<g>
				<path class="st1" d="M10.4,32.4c-1.6,5.1-0.6,11,2.7,15.1c3.4,4.3,9.4,5.5,14.4,3.5c5.1-2.1,8.7-7.1,8.1-12.8
					c-0.6-5.5-4.3-10.7-9.9-12c-6-1.5-12.8,1.5-15.7,7c-0.6,1.2-0.3,2.7,0.9,3.4c1.1,0.7,2.8,0.3,3.4-0.9c1.8-3.4,5.3-5.1,9-4.9
					c0.8,0.1-0.2-0.1,0.3,0c0.2,0,0.4,0.1,0.7,0.1c0.3,0.1,0.5,0.1,0.8,0.2c0,0,0.8,0.3,0.4,0.1c0.9,0.4,1.7,0.9,2.2,1.4
					c1.4,1.3,2.3,2.7,2.8,4.6c0.1,0.3,0.1,0.5,0.2,0.8c0.2,0.8,0-0.2,0,0.3c0,0.5,0.1,1,0,1.5c0,0-0.1,0.9,0,0.4
					c0,0.2-0.1,0.4-0.1,0.5c-0.1,0.3-0.1,0.5-0.2,0.8c0,0.1-0.3,0.9-0.2,0.7c-0.8,1.7-1.9,2.8-3.4,3.7c-0.8,0.5-1.3,0.7-2.4,0.9
					c-0.5,0.1-0.9,0.2-1.2,0.2c-0.5,0-1,0-1.6,0c-1.4-0.1-3.1-1-4.3-2.1c-0.7-0.7-1-1.2-1.6-2.2c-0.4-0.8-0.8-1.7-1-2.9
					c-0.2-0.9-0.3-1.8-0.2-3.1c0-0.6,0.1-1,0.1-1.2c0.1-0.6,0.3-1.2,0.5-1.8C16.2,30.6,11.4,29.3,10.4,32.4L10.4,32.4z"/>
			</g>
		</g>
		<g>
			<g>
				<path class="st1" d="M43.5,31.7c-1.6,5.1-0.6,11,2.7,15.1c3.4,4.3,9.4,5.5,14.4,3.5c5.1-2.1,8.7-7.1,8.1-12.8
					c-0.6-5.5-4.3-10.7-9.9-12c-6-1.5-12.8,1.5-15.7,7c-0.6,1.2-0.3,2.7,0.9,3.4c1.1,0.7,2.8,0.3,3.4-0.9c1.8-3.4,5.3-5.1,9-4.9
					c0.8,0.1-0.2-0.1,0.3,0c0.2,0,0.4,0.1,0.7,0.1c0.3,0.1,0.5,0.1,0.8,0.2c0,0,0.8,0.3,0.4,0.1c0.9,0.4,1.7,0.9,2.2,1.4
					c1.4,1.3,2.3,2.7,2.8,4.6c0.1,0.3,0.1,0.5,0.2,0.8c0.2,0.8,0-0.2,0,0.3c0,0.5,0.1,1,0,1.5c0,0-0.1,0.9,0,0.4
					c0,0.2-0.1,0.4-0.1,0.5c-0.1,0.3-0.1,0.5-0.2,0.8c0,0.1-0.3,0.9-0.2,0.7c-0.8,1.7-1.9,2.8-3.4,3.7c-0.8,0.5-1.3,0.7-2.4,0.9
					c-0.5,0.1-0.9,0.2-1.2,0.2c-0.5,0-1,0-1.6,0c-1.4-0.1-3.1-1-4.3-2.1c-0.7-0.7-1-1.2-1.6-2.2c-0.4-0.8-0.8-1.7-1-2.9
					c-0.2-0.9-0.3-1.8-0.2-3.1c0-0.6,0.1-1,0.1-1.2c0.1-0.6,0.3-1.2,0.5-1.8C49.3,30,44.5,28.7,43.5,31.7L43.5,31.7z"/>
			</g>
		</g>
		<g>
			<g>
				<path class="st1" d="M37.7,40.8c0,0,0.1-0.1,0.1-0.1c-0.1,0.2-0.3,0.3-0.4,0.5c0.2-0.3,0.5-0.5,0.7-0.7
					C38,40.6,37.9,40.7,37.7,40.8c0.3-0.2,0.6-0.4,0.9-0.5c-0.2,0.1-0.4,0.2-0.6,0.3c0.4-0.2,0.8-0.3,1.3-0.3
					c-0.2,0-0.4,0.1-0.7,0.1c0.4-0.1,0.9-0.1,1.3,0c-0.2,0-0.4-0.1-0.7-0.1c0.4,0.1,0.9,0.2,1.3,0.3c-0.2-0.1-0.4-0.2-0.6-0.3
					c0.3,0.1,0.6,0.3,0.9,0.5c-0.2-0.1-0.3-0.3-0.5-0.4c0.2,0.2,0.4,0.3,0.6,0.5c0.9,1,2.7,1,3.5,0c1-1,0.9-2.5,0-3.5
					c-1.3-1.5-3.5-2.3-5.5-2.2c-1.1,0.1-2.2,0.3-3.2,0.9c-1,0.5-1.8,1.3-2.4,2.2c-0.4,0.5-0.4,1.4-0.3,1.9c0.2,0.6,0.6,1.2,1.1,1.5
					c0.6,0.3,1.3,0.5,1.9,0.3C36.9,41.8,37.3,41.4,37.7,40.8L37.7,40.8z"/>
			</g>
		</g>
	</g>
</g>
</svg>
