<?xml version="1.0" encoding="utf-8"?>
<!-- Generator: Adobe Illustrator 27.8.1, SVG Export Plug-In . SVG Version: 6.00 Build 0)  -->
<svg version="1.1" id="Layer_1" xmlns="http://www.w3.org/2000/svg" xmlns:xlink="http://www.w3.org/1999/xlink" x="0px" y="0px"
	 viewBox="0 0 78.5 78.5" style="enable-background:new 0 0 78.5 78.5;" xml:space="preserve">
<style type="text/css">
	.st0{fill:#FFFFFF;stroke:#1D1D1B;stroke-miterlimit:10;}
	.st1{stroke:#000000;stroke-linecap:round;stroke-linejoin:round;stroke-miterlimit:10;}
	.st2{fill:none;stroke:#1D1D1B;stroke-linecap:round;stroke-linejoin:round;stroke-miterlimit:10;}
	.st3{fill:#FFFFFF;stroke:#000000;stroke-linecap:round;stroke-linejoin:round;stroke-miterlimit:10;}
	.st4{display:none;fill:none;stroke:#000000;stroke-miterlimit:10;}
</style>
<g>
	<ellipse class="st0" cx="39.2" cy="39.2" rx="38.8" ry="38.8"/>
</g>
<polygon class="st1" points="38.5,35.2 43.7,59.4 46,60.1 56.9,54.4 57.6,55.4 60.8,53.7 50.9,37.4 52.3,36 47.6,30.6 46.1,31.9 
	41.6,28.5 36.2,31.5 "/>
<path class="st2" d="M36.2,31.5l-2.2-3.7l-13.1-5c0,0-1.3-0.1-0.7-2.3c0.6-2.2,1.9-2.1,1.9-2.1l15.2,6.8l2.6,4.2"/>
<path class="st3" d="M46.4,56l6.5-2.9l-4.7-9.9c0,0-1.4-0.9-2.9,0c-1.5,0.9-2.1,2-2.1,2L46.4,56z"/>
<path class="st4" d="M43.6,45.2c0,0,2.5,0.3,3.1,0.8s4,7.5,4,7.5"/>
<path class="st0" d="M20,29.1c0,0-2.4,4.7-2.3,7c0.1,2.3,0.9,2.5,2.3,2.6s2.4-1.2,2.4-3.1C22.5,33.7,20,29.1,20,29.1z"/>
</svg>
