<?xml version="1.0" encoding="utf-8"?>
<!-- Generator: Adobe Illustrator 27.8.1, SVG Export Plug-In . SVG Version: 6.00 Build 0)  -->
<svg version="1.1" id="Layer_1" xmlns="http://www.w3.org/2000/svg" xmlns:xlink="http://www.w3.org/1999/xlink" x="0px" y="0px"
	 viewBox="0 0 78.5 78.5" style="enable-background:new 0 0 78.5 78.5;" xml:space="preserve">
<style type="text/css">
	.st0{fill:#FFFFFF;stroke:#1D1D1B;stroke-miterlimit:10;}
	.st1{stroke:#000000;stroke-miterlimit:10;}
	.st2{fill:none;stroke:#000000;stroke-width:2;stroke-miterlimit:10;}
	.st3{fill:none;stroke:#000000;stroke-miterlimit:10;}
	.st4{fill:none;stroke:#000000;stroke-width:0.5;stroke-miterlimit:10;}
</style>
<circle class="st0" cx="39.4" cy="39.2" r="38.8"/>
<ellipse class="st1" cx="39.4" cy="53.4" rx="5.7" ry="1.2"/>
<path class="st2" d="M50.2,68.3h-22c-2.8,0-5-2.2-5-5V15.4c0-2.8,2.2-5,5-5h22c2.8,0,5,2.2,5,5v47.8C55.2,66,53,68.3,50.2,68.3z"/>
<path class="st3" d="M46.7,14.1H31.3c-0.3,0-0.6-0.3-0.6-0.6v0c0-0.3,0.3-0.6,0.6-0.6h15.4c0.3,0,0.6,0.3,0.6,0.6v0
	C47.4,13.8,47.1,14.1,46.7,14.1z"/>
<path class="st0" d="M39.3,53c-1.7-0.1-2.7-2.4-6.4-12.3c-1.2-3.3-2.2-6.2-2.2-8.6c0-2.4,0.9-4.9,4.1-7.1c2.1-1.4,6.3-1.7,9.1,0.1
	c2.8,1.8,3.3,5.6,3.3,6.4c0,2.6-1.2,6.8-1.8,8.8C42.3,50.2,40.9,53.1,39.3,53z"/>
<circle class="st3" cx="39" cy="32.2" r="5.8"/>
<circle class="st1" cx="40.1" cy="29.2" r="0.7"/>
<circle class="st1" cx="40.1" cy="34.9" r="0.7"/>
<circle class="st1" cx="35.9" cy="31.9" r="0.7"/>
<path class="st4" d="M39.8,29.3c-0.9,0.6-4.2,2.5-4.2,2.5c0,0,2.8,2.1,4.2,3.3"/>
</svg>
