<?xml version="1.0" encoding="utf-8"?>
<!-- Generator: Adobe Illustrator 27.8.0, SVG Export Plug-In . SVG Version: 6.00 Build 0)  -->
<svg version="1.1" id="Layer_1" xmlns="http://www.w3.org/2000/svg" xmlns:xlink="http://www.w3.org/1999/xlink" x="0px" y="0px"
	 viewBox="0 0 78.5 78.5" style="enable-background:new 0 0 78.5 78.5;" xml:space="preserve">
<style type="text/css">
	.st0{fill:#FFFFFF;stroke:#1D1D1B;stroke-miterlimit:10;}
	.st1{fill:#1D1D1B;stroke:#1D1D1B;stroke-width:2;stroke-miterlimit:10;}
</style>
<ellipse class="st0" cx="39.1" cy="39.3" rx="38.7" ry="38.7"/>
<circle class="st1" cx="26.1" cy="17.1" r="4.3"/>
<ellipse transform="matrix(0.9418 -0.3362 0.3362 0.9418 -11.4353 12.0582)" class="st1" cx="29.1" cy="39.1" rx="4.7" ry="13.9"/>
<path class="st1" d="M51.2,52.2H33.1c-0.4,0-0.7-0.3-0.7-0.7v-4c0-0.4,0.3-0.7,0.7-0.7h18.1c0.4,0,0.7,0.3,0.7,0.7v4
	C51.8,51.9,51.5,52.2,51.2,52.2z"/>
<path class="st1" d="M52,47.8l2.5,17.9c0.1,0.4-0.2,0.7-0.6,0.8L50,67c-0.4,0.1-0.7-0.2-0.8-0.6l-2.5-17.9c-0.1-0.4,0.2-0.7,0.6-0.8
	l4-0.6C51.6,47.1,52,47.4,52,47.8z"/>
</svg>
