<?xml version="1.0" encoding="utf-8"?>
<!-- Generator: Adobe Illustrator 27.8.1, SVG Export Plug-In . SVG Version: 6.00 Build 0)  -->
<svg version="1.1" id="Layer_1" xmlns="http://www.w3.org/2000/svg" xmlns:xlink="http://www.w3.org/1999/xlink" x="0px" y="0px"
	 viewBox="0 0 78.5 78.5" style="enable-background:new 0 0 78.5 78.5;" xml:space="preserve">
<style type="text/css">
	.st0{fill:#FFFFFF;stroke:#1D1D1B;stroke-miterlimit:10;}
	.st1{font-family:'HiraMaruProN-W4-83pv-RKSJ-H';}
	.st2{font-size:10px;}
	.st3{fill:none;stroke:#000000;stroke-width:2;stroke-miterlimit:10;}
	.st4{fill:none;stroke:#000000;stroke-miterlimit:10;}
</style>
<circle class="st0" cx="39.2" cy="39.3" r="38.8"/>
<text transform="matrix(1 0 0 1 41.7831 28.2644)" class="st1 st2">Z</text>
<path class="st3" d="M46.4,42c0,7.6-4.1,12.6-11.7,12.6S23,49.6,23,42s4.1-12.3,11.7-12.3S46.4,34.4,46.4,42z"/>
<path class="st4" d="M27,38.3c1.1,1.1,2.7,1.6,4,1.1c1-0.4,1.6-1.2,1.7-1.5"/>
<path class="st4" d="M35.8,38.3c1.1,1.1,2.7,1.6,4,1.1c1-0.4,1.6-1.2,1.7-1.5"/>
<text transform="matrix(1 0 0 1 48.1927 34.0278)" class="st1 st2">Z</text>
<text transform="matrix(1 0 0 1 52.2877 23.9481)" class="st1 st2">Z</text>
<circle cx="34" cy="46.2" r="1.7"/>
</svg>
