<?xml version="1.0" encoding="utf-8"?>
<!-- Generator: Adobe Illustrator 27.8.1, SVG Export Plug-In . SVG Version: 6.00 Build 0)  -->
<svg version="1.1" id="Layer_1" xmlns="http://www.w3.org/2000/svg" xmlns:xlink="http://www.w3.org/1999/xlink" x="0px" y="0px"
	 viewBox="0 0 78.5 78.5" style="enable-background:new 0 0 78.5 78.5;" xml:space="preserve">
<style type="text/css">
	.st0{fill:#FFFFFF;stroke:#1D1D1B;stroke-miterlimit:10;}
	.st1{fill:#1D1D1B;}
</style>
<g>
	<ellipse class="st0" cx="39.3" cy="39.3" rx="38.7" ry="38.7"/>
	<g>
		<g>
			<path class="st1" d="M69,42.7C67.2,30,55.8,20.4,43.1,20.2c-6.5-0.1-13.2,2.4-18.6,6.1c-5.2,3.5-9,8.7-10.5,14.8
				c-1.5,6.2-0.5,13.6,4.6,17.9c5.1,4.4,12.6,6.2,19.1,4.5c6.4-1.7,11.4-7.1,12.1-13.7c0.7-6.1-3.4-12.2-9.2-14
				c-6.9-2.1-14.8,3.5-14.7,10.8c0,4.1,2.7,8,7,8.5c4.1,0.4,7.7-3.2,7.8-7.2c0-2-1.8-3.8-3.8-3.8c-2.1,0.1-3.7,1.6-3.8,3.8
				c0,0.8,0,0.1,0-0.1c0.2-1,0.1,0.1,0,0c0.1-0.1,0.1-0.2,0.2-0.3c-0.1,0.1-0.2,0.1-0.2,0.2c0.1-0.1,0.2-0.1,0.3-0.2
				c-0.3,0.2-0.4,0.2-0.1,0.1c0.5-0.2-0.6,0.1,0,0c0.1,0,0.1,0,0.2,0c-0.4,0-0.4,0-0.1,0c0.1,0.1,0.8,0.1,0.3,0.1
				c-0.2-0.1-0.2-0.1,0.1,0.1c-0.1-0.1-0.2-0.2-0.2-0.2c0.1,0.1,0.1,0.1,0.2,0.2c-0.1-0.1-0.1-0.2-0.2-0.3c0.1,0.6,0,0,0-0.1
				c-0.1-0.2-0.1-0.5-0.2-0.7c0.1,0.7,0,0,0-0.2c0-0.1,0.1-0.8,0-0.3c-0.1,0.5,0.1-0.2,0.1-0.3c0-0.1,0.3-0.7,0.1-0.3
				c-0.2,0.4,0.2-0.4,0.3-0.5c0.1-0.2,0.2-0.4,0.4-0.6c-0.4,0.5,0,0,0.1,0c0.2-0.2,0.3-0.3,0.5-0.5c0.8-0.7-0.3,0.2,0.2-0.2
				c0.2-0.1,0.4-0.2,0.6-0.4c0.1,0,0.7-0.4,0.3-0.2c-0.4,0.2,0.3-0.1,0.4-0.1c0.3-0.1,0.6-0.2,0.8-0.2c-0.7,0.1,0.5,0,0.7,0
				c-0.6,0-0.1,0,0,0c0.3,0.1,0.6,0.1,0.8,0.2c0.6,0.2-0.5-0.2,0.1,0c0.2,0.1,0.4,0.2,0.6,0.3c0.2,0.1,0.4,0.2,0.6,0.4
				c0.3,0.2-0.3-0.3,0.2,0.2c0.3,0.3,0.7,0.6,1,1c-0.4-0.5,0,0,0,0.1c0.2,0.2,0.3,0.5,0.5,0.7c0.1,0.2,0.2,0.4,0.3,0.6
				c0.3,0.5-0.2-0.5,0,0.1c0.2,0.5,0.3,1,0.4,1.5c-0.1-0.7,0,0.5,0,0.7c0-0.1-0.1,1.1,0,0.6c0.1-0.4-0.1,0.3-0.1,0.4
				c-0.1,0.5-0.2,0.9-0.4,1.4c-0.2,0.6,0.2-0.4,0,0.1c-0.1,0.3-0.3,0.5-0.4,0.8c-0.1,0.1-0.8,1.2-0.5,0.8c-0.3,0.4-0.7,0.8-1.1,1.2
				c-0.2,0.2-0.4,0.3-0.5,0.5c-0.5,0.4,0.4-0.3-0.1,0.1c-0.4,0.3-0.9,0.6-1.4,0.9c-0.2,0.1-0.4,0.2-0.7,0.3c0.5-0.2-0.2,0.1-0.2,0.1
				c-0.6,0.2-1.2,0.4-1.8,0.5c-0.7,0.2-1.8,0.3-3,0.2c-1.8-0.1-4.3-0.7-5.9-1.5c-1-0.5-1.9-1-2.5-1.6c-0.4-0.4-0.8-0.7-1.1-1.2
				c-0.4-0.5,0.2,0.3-0.1-0.2c-0.2-0.3-0.4-0.6-0.5-0.8c-0.4-0.8-0.6-1.4-0.9-2.6c0-0.1-0.2-0.9-0.1-0.5c0.1,0.4,0-0.4,0-0.5
				c0-0.6-0.1-1.2-0.1-1.8c0-1.3,0.1-1.5,0.3-2.7c0.2-1.1,0.6-2.1,1-3.1c-0.2,0.5,0.1-0.1,0.1-0.2c0.1-0.3,0.3-0.6,0.4-0.9
				c0.2-0.5,0.5-0.9,0.8-1.3c0.7-1.1,0.8-1.3,1.6-2.2c1.6-1.8,3.1-2.8,5.1-4c2.2-1.2,4.2-2.2,6.4-2.9c2.5-0.8,3.9-1,6.5-1
				c2.4,0,4.7,0.5,7.2,1.5c0.1,0,0.7,0.3,1.2,0.6c0.6,0.3,1.2,0.7,1.8,1c0.2,0.1,0.5,0.3,0.7,0.5c0.1,0.1,0.8,0.6,0.6,0.4
				c-0.4-0.3,0.6,0.5,0.5,0.4c0.2,0.2,0.5,0.4,0.7,0.6c1.9,1.8,2.8,3,4.1,5.4c1,1.9,1.7,4,2,6.6c0.3,2,2.8,3.1,4.6,2.6
				C68.6,46.7,69.3,44.7,69,42.7L69,42.7z"/>
		</g>
	</g>
	<g>
		<g>
			<path class="st1" d="M47.7,55.9c3.5-1.2,7-2.6,10.4-4.1c3.2-1.4,6.2-2.9,8.8-5.1c1-0.9,0.9-2.6,0-3.5c-1-1-2.5-0.9-3.5,0
				c-2.2,1.9-5.1,3.2-7.8,4.4c-3,1.3-6.1,2.5-9.2,3.6c-1.3,0.4-2.1,1.7-1.7,3.1C45,55.3,46.4,56.3,47.7,55.9L47.7,55.9z"/>
		</g>
	</g>
</g>
</svg>
