<?xml version="1.0" encoding="utf-8"?>
<!-- Generator: Adobe Illustrator 27.8.1, SVG Export Plug-In . SVG Version: 6.00 Build 0)  -->
<svg version="1.1" id="Layer_1" xmlns="http://www.w3.org/2000/svg" xmlns:xlink="http://www.w3.org/1999/xlink" x="0px" y="0px"
	 viewBox="0 0 78.5 78.5" style="enable-background:new 0 0 78.5 78.5;" xml:space="preserve">
<style type="text/css">
	.st0{fill:#FFFFFF;stroke:#1D1D1B;stroke-miterlimit:10;}
	.st1{fill:#1D1D1B;}
</style>
<g>
	<ellipse class="st0" cx="39.3" cy="39.1" rx="38.8" ry="38.9"/>
	<g>
		<g>
			<path class="st1" d="M19.5,39.2c0.8-7.3,6.4-13.6,13.4-15.4c7.5-2,15.7,0.6,20.4,6.9c4.4,5.9,4.9,13.6,0.8,19.8
				c-2,2.9-4.9,5.1-8.3,6.1c-4.2,1.2-8.9,0.9-13.1,0.1c-4.3-0.9-8.8-2.7-11.3-6.5c-2.9-4.2-1.9-9.1-0.3-13.7c1-3.1-3.8-4.4-4.8-1.3
				c-1.7,5.2-2.6,10.8-0.1,15.9c2.2,4.5,6.4,7.5,11,9.2c4.8,1.8,10.5,2.4,15.6,1.9c5-0.5,9.7-2.4,13.2-6.1c6.5-6.8,7.7-17,3.3-25.2
				c-4.5-8.6-14.1-13.6-23.8-12.6c-11.1,1.2-19.7,9.9-20.9,21c-0.1,1.3,1.3,2.5,2.5,2.5C18.5,41.7,19.4,40.6,19.5,39.2L19.5,39.2z"
				/>
		</g>
	</g>
	<g>
		<g>
			<path class="st1" d="M39.9,38c-0.2-0.2-0.3-0.3-0.5-0.5c-0.2-0.2-0.5-0.4-0.8-0.5c-0.3-0.2-0.6-0.2-1-0.2c-0.3,0-0.7,0.1-1,0.2
				c-0.3,0.1-0.6,0.3-0.8,0.5c-0.1,0.2-0.3,0.3-0.4,0.5c-0.2,0.4-0.3,0.8-0.3,1.3c0,0.2,0.1,0.4,0.1,0.7c0.1,0.4,0.3,0.8,0.6,1.1
				c0.2,0.2,0.3,0.3,0.5,0.5c0.2,0.2,0.5,0.4,0.8,0.5c0.3,0.2,0.6,0.2,1,0.2c0.3,0,0.7-0.1,1-0.2c0.3-0.1,0.6-0.3,0.8-0.5
				c0.1-0.2,0.3-0.3,0.4-0.5c0.2-0.4,0.3-0.8,0.3-1.3c0-0.2-0.1-0.4-0.1-0.7C40.4,38.7,40.2,38.3,39.9,38L39.9,38z"/>
		</g>
	</g>
	<g>
		<g>
			<path class="st1" d="M40.2,39.2c-0.4-3.1-0.8-6.1-1.2-9.2c-0.1-0.7-0.2-1.3-0.7-1.8c-0.4-0.4-1.1-0.8-1.8-0.7
				c-0.6,0-1.3,0.2-1.8,0.7c-0.4,0.5-0.8,1.1-0.7,1.8c0.4,3.1,0.8,6.1,1.2,9.2c0.1,0.7,0.2,1.3,0.7,1.8c0.4,0.4,1.1,0.8,1.8,0.7
				c0.6,0,1.3-0.2,1.8-0.7C39.9,40.6,40.3,39.9,40.2,39.2L40.2,39.2z"/>
		</g>
	</g>
	<g>
		<g>
			<path class="st1" d="M41.6,42c0.4-0.7,0.8-1.3,1.3-1.9c-0.1,0.2-0.3,0.3-0.4,0.5c0.7-0.9,1.5-1.8,2.4-2.6
				c0.5-0.4,0.7-1.2,0.7-1.8c0-0.6-0.3-1.3-0.7-1.8c-0.5-0.4-1.1-0.8-1.8-0.7c-0.7,0-1.2,0.3-1.8,0.7c-1.6,1.4-3,3.1-4.1,5
				c-0.3,0.6-0.4,1.3-0.3,1.9c0.2,0.6,0.6,1.2,1.1,1.5c0.6,0.3,1.3,0.5,1.9,0.3C40.8,42.9,41.3,42.5,41.6,42L41.6,42z"/>
		</g>
	</g>
	<g>
		<g>
			<path class="st1" d="M33.6,14.9c0.2,1.4,0.4,2.7,0.6,4.1c0.1,0.3,0.2,0.6,0.4,0.9c0.2,0.3,0.4,0.5,0.7,0.6
				c0.5,0.3,1.3,0.4,1.9,0.3c0.6-0.2,1.2-0.6,1.5-1.1c0.1-0.2,0.2-0.4,0.3-0.6c0.1-0.4,0.1-0.9,0-1.3c-0.2-1.4-0.4-2.7-0.6-4.1
				c-0.1-0.3-0.2-0.6-0.4-0.9c-0.2-0.3-0.4-0.5-0.7-0.6c-0.5-0.3-1.3-0.4-1.9-0.3c-0.6,0.2-1.2,0.6-1.5,1.1
				c-0.1,0.2-0.2,0.4-0.3,0.6C33.5,14,33.5,14.4,33.6,14.9L33.6,14.9z"/>
		</g>
	</g>
	<g>
		<g>
			<path class="st1" d="M35.8,14.9c0.1-0.1,0.2-0.2,0.3-0.3c-0.2,0.1-0.3,0.3-0.5,0.4c0.2-0.2,0.5-0.3,0.8-0.5
				c-0.2,0.1-0.4,0.2-0.6,0.3c0.3-0.1,0.7-0.2,1-0.3c-0.2,0-0.4,0.1-0.7,0.1c0.4,0,0.7-0.1,1.1,0c-0.2,0-0.4-0.1-0.7-0.1
				c0.3,0,0.6,0.1,0.9,0.3c-0.2-0.1-0.4-0.2-0.6-0.3c0.2,0.1,0.3,0.2,0.5,0.2c0.5,0.3,1.3,0.4,1.9,0.3c0.6-0.2,1.2-0.6,1.5-1.1
				c0.3-0.6,0.5-1.3,0.3-1.9c-0.2-0.6-0.6-1.1-1.1-1.5c-2.4-1.5-5.7-1-7.7,0.9c-0.5,0.5-0.7,1.1-0.7,1.8c0,0.6,0.3,1.3,0.7,1.8
				c0.5,0.4,1.1,0.8,1.8,0.7C34.7,15.6,35.3,15.4,35.8,14.9L35.8,14.9z"/>
		</g>
	</g>
	<g>
		<g>
			<path class="st1" d="M51.6,24.6c0.7-0.5,1.4-1,2-1.5c0.3-0.2,0.5-0.4,0.7-0.6c0.2-0.2,0.4-0.5,0.4-0.9c0.1-0.3,0.1-0.7,0-1
				c0-0.3-0.1-0.6-0.3-0.9c-0.1-0.2-0.3-0.3-0.4-0.5c-0.3-0.3-0.7-0.5-1.1-0.6c-0.2,0-0.4-0.1-0.7-0.1c-0.5,0-0.9,0.1-1.3,0.3
				c-0.7,0.5-1.4,1-2,1.5c-0.3,0.2-0.5,0.4-0.7,0.6c-0.2,0.2-0.4,0.5-0.4,0.9c-0.1,0.3-0.1,0.7,0,1c0,0.3,0.1,0.6,0.3,0.9
				c0.1,0.2,0.3,0.3,0.4,0.5c0.3,0.3,0.7,0.5,1.1,0.6c0.2,0,0.4,0.1,0.7,0.1C50.8,24.9,51.2,24.8,51.6,24.6L51.6,24.6z"/>
		</g>
	</g>
	<g>
		<g>
			<path class="st1" d="M52.4,19.7C52.4,19.7,52.4,19.7,52.4,19.7c-0.1,0-0.4,0-0.6-0.1c0.3,0,0.6,0.1,0.8,0.2
				c-0.2-0.1-0.4-0.2-0.6-0.3c0.3,0.1,0.6,0.3,0.8,0.5C52.7,19.9,52.5,19.8,52.4,19.7c0.2,0.2,0.5,0.4,0.6,0.7
				c-0.1-0.2-0.3-0.3-0.4-0.5c0.2,0.2,0.3,0.5,0.5,0.8c-0.1-0.2-0.2-0.4-0.3-0.6c0.1,0.1,0.1,0.3,0.2,0.5c0.1,0.3,0.2,0.6,0.4,0.9
				c0.2,0.3,0.4,0.5,0.7,0.6c0.3,0.2,0.6,0.3,0.9,0.3c0.3,0.1,0.7,0.1,1,0c0.6-0.2,1.2-0.6,1.5-1.1c0.3-0.6,0.4-1.3,0.3-1.9
				c-0.1-0.4-0.3-0.7-0.4-1.1c-0.1-0.2-0.2-0.3-0.3-0.5c-0.3-0.5-0.7-0.9-1.1-1.3c-0.4-0.4-0.9-0.7-1.4-1c-0.4-0.2-0.7-0.3-1.1-0.4
				c-0.4-0.1-0.8-0.1-1.2-0.2c-0.3,0-0.7,0.1-1,0.2c-0.3,0.1-0.6,0.3-0.8,0.5c-0.2,0.2-0.4,0.5-0.5,0.8c-0.2,0.3-0.2,0.6-0.2,1
				c0,0.6,0.2,1.3,0.7,1.8c0.2,0.1,0.3,0.3,0.5,0.4C51.5,19.6,51.9,19.7,52.4,19.7L52.4,19.7z"/>
		</g>
	</g>
	<g>
		<g>
			<path class="st1" d="M7.3,28.7C3.8,36.4,4,45.3,7.9,52.8c1.5,2.9,5.8,0.3,4.3-2.5c-3-5.8-3.3-13.1-0.6-19
				c0.6-1.2,0.4-2.7-0.9-3.4C9.6,27.2,7.8,27.5,7.3,28.7L7.3,28.7z"/>
		</g>
	</g>
	<g>
		<g>
			<path class="st1" d="M63.2,29.1c3.9,8.8,2.4,20-3.7,27.5c-0.9,1-1,2.5,0,3.5c0.9,0.9,2.7,1.1,3.5,0c7.7-9.4,9.4-22.5,4.5-33.6
				c-0.5-1.2-2.3-1.5-3.4-0.9C62.9,26.4,62.7,27.9,63.2,29.1L63.2,29.1z"/>
		</g>
	</g>
</g>
</svg>
