<?xml version="1.0" encoding="utf-8"?>
<!-- Generator: Adobe Illustrator 27.8.1, SVG Export Plug-In . SVG Version: 6.00 Build 0)  -->
<svg version="1.1" id="Layer_1" xmlns="http://www.w3.org/2000/svg" xmlns:xlink="http://www.w3.org/1999/xlink" x="0px" y="0px"
	 viewBox="0 0 78.5 78.5" style="enable-background:new 0 0 78.5 78.5;" xml:space="preserve">
<style type="text/css">
	.st0{fill:#FFFFFF;stroke:#1D1D1B;stroke-miterlimit:10;}
	.st1{fill:#1D1D1B;}
</style>
<g>
	<ellipse class="st0" cx="39.2" cy="39.2" rx="38.8" ry="38.8"/>
	<g>
		<g>
			<g>
				<path class="st1" d="M12.1,32.5c0.7,8.2,1.4,16.4,2,24.6c0.3,3.3,4.6,3.2,5,0c0.1-0.6,0.1-1.2,0.2-1.8c0.2-1.3-1.3-2.5-2.5-2.5
					c-1.5,0-2.3,1.2-2.5,2.5c-0.1,0.6-0.1,1.2-0.2,1.8c1.7,0,3.3,0,5,0c-0.7-8.2-1.4-16.4-2-24.6C17,31.1,16,30,14.6,30
					C13.4,30,12,31.1,12.1,32.5L12.1,32.5z"/>
			</g>
		</g>
		<g>
			<g>
				<path class="st1" d="M18,58.5c15.3-2,31.1,0.3,46.2-4.2c3.1-0.9,1.8-5.7-1.3-4.8c-14.6,4.3-29.9,2-44.8,4
					c-1.3,0.2-2.5,1-2.5,2.5C15.5,57.2,16.6,58.7,18,58.5L18,58.5z"/>
			</g>
		</g>
		<g>
			<g>
				<path class="st1" d="M58,29.2c0.7,7.4,1.4,14.8,2,22.1c0.1,1.3,1.1,2.5,2.5,2.5c1.3,0,2.6-1.1,2.5-2.5c-0.7-7.4-1.4-14.8-2-22.1
					c-0.1-1.3-1.1-2.5-2.5-2.5C59.2,26.7,57.9,27.8,58,29.2L58,29.2z"/>
			</g>
		</g>
		<g>
			<g>
				<path class="st1" d="M16.3,32.7c13.9-1.6,27.8-2.8,41.7-3.6c3.2-0.2,3.2-5.2,0-5c-13.9,0.8-27.8,2-41.7,3.6
					c-1.3,0.2-2.5,1-2.5,2.5C13.8,31.4,14.9,32.9,16.3,32.7L16.3,32.7z"/>
			</g>
		</g>
		<g>
			<g>
				<path class="st1" d="M19.6,23.3c0,1.3,0,2.6,0,3.9c0,0.6,0.3,1.3,0.7,1.8c0.4,0.4,1.1,0.8,1.8,0.7c0.6,0,1.3-0.2,1.8-0.7
					c0.4-0.5,0.7-1.1,0.7-1.8c0-1.3,0-2.6,0-3.9c0-0.6-0.3-1.3-0.7-1.8c-0.4-0.4-1.1-0.8-1.8-0.7c-0.6,0-1.3,0.2-1.8,0.7
					C19.9,22,19.6,22.6,19.6,23.3L19.6,23.3z"/>
			</g>
		</g>
		<g>
			<g>
				<path class="st1" d="M23.4,23.8c2.8,0,5.7,0,8.5,0c1.3,0,2.6-1.1,2.5-2.5c-0.1-1.4-1.1-2.5-2.5-2.5c-2.8,0-5.7,0-8.5,0
					c-1.3,0-2.6,1.1-2.5,2.5C21,22.7,22,23.8,23.4,23.8L23.4,23.8z"/>
			</g>
		</g>
		<g>
			<g>
				<path class="st1" d="M29.5,21.3c-0.4,2.6-0.3,5.3,0.5,7.9c0.2,0.6,0.6,1.2,1.1,1.5c0.5,0.3,1.3,0.4,1.9,0.3
					c1.2-0.4,2.2-1.7,1.7-3.1c-0.3-0.8-0.4-1.6-0.6-2.5c0,0.2,0.1,0.4,0.1,0.7c-0.2-1.2-0.2-2.4,0-3.6c0,0.2-0.1,0.4-0.1,0.7
					c0-0.2,0-0.3,0.1-0.5c0.1-0.7,0.1-1.3-0.3-1.9c-0.3-0.5-0.9-1-1.5-1.1c-0.6-0.1-1.4-0.1-1.9,0.3C30.2,20.2,29.6,20.7,29.5,21.3
					L29.5,21.3z"/>
			</g>
		</g>
		<g>
			<g>
				<path class="st1" d="M29.3,38.5c-1.9,4.2,0.4,8.8,4.5,10.6c3.9,1.7,9.4,1.8,12.8-1c3.1-2.6,3.5-7.3,1.9-10.8
					c-1.7-3.6-5.6-6-9.5-6.5c-3.7-0.5-8.6,1.3-9.3,5.4c-0.2,1.3,0.3,2.8,1.7,3.1c1.2,0.3,2.8-0.4,3.1-1.7c0-0.1,0.1-0.3,0.1-0.4
					c0.1-0.5-0.1,0-0.1,0c0-0.1,0.3-0.6,0.3-0.6c0,0-0.4,0.4,0,0.1c0.1-0.1,0.2-0.1,0.2-0.2c0.2-0.3-0.5,0.3,0,0
					c0.1-0.1,0.3-0.2,0.4-0.3c0.1-0.1,0.2-0.1,0.3-0.2c-0.4,0.3-0.3,0.1-0.1,0c0.3-0.1,0.6-0.2,0.9-0.3c0.2-0.1,0.8-0.1,0.3-0.1
					c0.3,0,0.7,0,1,0c0.3,0,0.6,0,0.8,0.1c-0.6-0.1,0,0,0.2,0.1c0.3,0.1,0.7,0.2,1,0.3c0.1,0.1,0.3,0.1,0.4,0.2
					c-0.5-0.2,0.2,0.1,0.2,0.1c0.3,0.1,0.6,0.3,0.9,0.5c0.1,0.1,0.9,0.6,0.5,0.3c0.2,0.2,0.5,0.4,0.7,0.6c0.1,0.1,0.3,0.3,0.4,0.4
					c0.1,0.1,0.5,0.6,0.3,0.3c-0.2-0.3,0.2,0.3,0.2,0.3c0.1,0.1,0.2,0.2,0.2,0.4c0.1,0.1,0.1,0.3,0.2,0.4c0.3,0.6-0.1-0.3,0,0.1
					c0.1,0.3,0.2,0.6,0.3,0.9c0,0.1,0.1,0.3,0.1,0.4c-0.1-0.6,0,0,0,0.1c0,0.3,0,0.6,0,0.9c0,0.4,0.1-0.6,0,0c0,0.1-0.1,0.3-0.1,0.4
					c0,0.1-0.1,0.3-0.1,0.4c0,0-0.2,0.6-0.1,0.3c0.1-0.4-0.1,0.2-0.1,0.2c-0.1,0.2-0.2,0.3-0.3,0.5c-0.1,0.1-0.3,0.3,0,0
					c-0.1,0.1-0.2,0.2-0.3,0.3c-0.1,0.1-0.3,0.2-0.4,0.3c-0.2,0.2,0.5-0.3-0.1,0.1c-0.1,0.1-0.3,0.2-0.4,0.2c-0.1,0-0.4,0.2-0.1,0
					c-0.4,0.2-0.8,0.2-1.2,0.3c-0.7,0.2,0.2,0-0.2,0c-0.2,0-0.4,0-0.6,0.1c-0.3,0-0.7,0-1,0c-0.4,0-0.8,0-1.2-0.1
					c-0.1,0-0.5-0.1-0.1,0c-0.2,0-0.5-0.1-0.7-0.1c-0.4-0.1-0.8-0.2-1.2-0.3c-0.2,0-0.3-0.1-0.4-0.2c0.4,0.2-0.2-0.1-0.3-0.1
					c-0.2-0.1-0.3-0.2-0.5-0.3c-0.1,0-0.6-0.4-0.4-0.3c0.2,0.2-0.3-0.3-0.3-0.2c-0.2-0.2-0.3-0.3-0.4-0.5c0.1,0.1,0.2,0.4,0,0
					c-0.1-0.2-0.2-0.4-0.3-0.6c-0.2-0.4,0-0.1,0,0c-0.1-0.2-0.1-0.4-0.2-0.6c-0.1-0.4,0-0.1,0,0c0-0.2,0-0.4,0-0.6
					c0-0.6-0.1,0.3,0-0.1c0-0.1,0.3-0.8,0.1-0.3c0.5-1.2,0.4-2.7-0.9-3.4C31.6,37,29.9,37.2,29.3,38.5L29.3,38.5z"/>
			</g>
		</g>
	</g>
</g>
</svg>
