<?xml version="1.0" encoding="utf-8"?>
<!-- Generator: Adobe Illustrator 27.8.0, SVG Export Plug-In . SVG Version: 6.00 Build 0)  -->
<svg version="1.1" id="Layer_1" xmlns="http://www.w3.org/2000/svg" xmlns:xlink="http://www.w3.org/1999/xlink" x="0px" y="0px"
	 viewBox="0 0 78.5 78.5" style="enable-background:new 0 0 78.5 78.5;" xml:space="preserve">
<style type="text/css">
	.st0{fill:#FFFFFF;stroke:#1D1D1B;stroke-miterlimit:10;}
	.st1{fill:#1D1D1B;}
	.st2{fill:#1D1D1B;stroke:#1D1D1B;stroke-width:2;stroke-miterlimit:10;}
</style>
<g>
	<circle class="st0" cx="441.3" cy="85.3" r="9.9"/>
	<g>
		<g>
			<g>
				<path class="st1" d="M434,83.5c-0.4,1.3-0.2,2.8,0.7,3.9c0.9,1.1,2.4,1.4,3.7,0.9c1.3-0.5,2.2-1.8,2.1-3.3
					c-0.1-1.4-1.1-2.7-2.5-3.1c-1.5-0.4-3.3,0.4-4,1.8c-0.2,0.3-0.1,0.7,0.2,0.9c0.3,0.2,0.7,0.1,0.9-0.2c0.5-0.9,1.4-1.3,2.3-1.3
					c0.2,0-0.1,0,0.1,0c0.1,0,0.1,0,0.2,0c0.1,0,0.1,0,0.2,0.1c0,0,0.2,0.1,0.1,0c0.2,0.1,0.4,0.2,0.6,0.4c0.4,0.3,0.6,0.7,0.7,1.2
					c0.2,0.9-0.1,1.7-0.9,2.2c-0.4,0.2-0.8,0.3-1.3,0.3c-0.2,0,0.1,0-0.1,0c-0.1,0-0.1,0-0.2,0c-0.1,0-0.2-0.1-0.3-0.1
					c-0.3-0.1-0.4-0.2-0.6-0.4c-0.2-0.2-0.3-0.3-0.4-0.6c-0.1-0.2-0.2-0.4-0.3-0.7c0-0.2-0.1-0.5-0.1-0.8c0-0.3,0-0.5,0.1-0.8
					c0.1-0.3-0.1-0.7-0.4-0.8C434.4,83,434.1,83.2,434,83.5L434,83.5z"/>
			</g>
		</g>
		<g>
			<g>
				<path class="st1" d="M442.5,83.4c-0.4,1.3-0.2,2.8,0.7,3.9c0.9,1.1,2.4,1.4,3.7,0.9c1.3-0.5,2.2-1.8,2.1-3.3
					c-0.1-1.4-1.1-2.7-2.5-3.1c-1.5-0.4-3.3,0.4-4,1.8c-0.2,0.3-0.1,0.7,0.2,0.9c0.3,0.2,0.7,0.1,0.9-0.2c0.5-0.9,1.4-1.3,2.3-1.3
					c0.2,0-0.1,0,0.1,0c0.1,0,0.1,0,0.2,0c0.1,0,0.1,0,0.2,0.1c0,0,0.2,0.1,0.1,0c0.2,0.1,0.4,0.2,0.6,0.4c0.4,0.3,0.6,0.7,0.7,1.2
					c0.2,0.9-0.1,1.7-0.9,2.2c-0.4,0.2-0.8,0.3-1.3,0.3c-0.2,0,0.1,0-0.1,0c-0.1,0-0.1,0-0.2,0c-0.1,0-0.2-0.1-0.3-0.1
					c-0.3-0.1-0.4-0.2-0.6-0.4c-0.2-0.2-0.3-0.3-0.4-0.6c-0.1-0.2-0.2-0.4-0.3-0.7c0-0.2-0.1-0.5-0.1-0.8c0-0.3,0-0.5,0.1-0.8
					c0.1-0.3-0.1-0.7-0.4-0.8C442.9,82.9,442.6,83.1,442.5,83.4L442.5,83.4z"/>
			</g>
		</g>
		<g>
			<g>
				<path class="st1" d="M441,85.7C441,85.7,441,85.7,441,85.7C441,85.7,440.9,85.7,441,85.7c0,0,0,0,0.1-0.1
					C441,85.6,441,85.7,441,85.7c0.1-0.1,0.2-0.1,0.2-0.1C441.2,85.6,441.1,85.6,441,85.7c0.2-0.1,0.3-0.2,0.4-0.2
					c-0.1,0-0.1,0-0.2,0c0.1,0,0.2,0,0.3,0c-0.1,0-0.1,0-0.2,0c0.1,0,0.2,0,0.3,0.1c0,0-0.1,0-0.1-0.1c0.1,0,0.2,0.1,0.2,0.1
					c0,0-0.1-0.1-0.1-0.1c0.1,0,0.1,0.1,0.1,0.1c0.2,0.2,0.7,0.2,0.9,0c0.2-0.3,0.2-0.6,0-0.9c-0.3-0.4-0.9-0.6-1.4-0.5
					c-0.3,0-0.6,0.1-0.8,0.2c-0.3,0.1-0.4,0.3-0.6,0.6c-0.1,0.1-0.1,0.3-0.1,0.5c0,0.1,0.2,0.3,0.3,0.4c0.1,0.1,0.3,0.1,0.5,0.1
					C440.8,85.9,440.9,85.8,441,85.7L441,85.7z"/>
			</g>
		</g>
	</g>
</g>
<ellipse class="st0" cx="39.2" cy="39.2" rx="38.7" ry="38.5"/>
<path class="st2" d="M62.4,57.8H19c-2.3,0-4.2-1.9-4.2-4.2V22.2c0-2.3,1.9-4.2,4.2-4.2h43.3c2.3,0,4.2,1.9,4.2,4.2v31.4
	C66.6,55.9,64.7,57.8,62.4,57.8z"/>
<polygon class="st2" points="22.6,54.1 19.8,61.5 31.8,57.5 "/>
</svg>
