<?xml version="1.0" encoding="utf-8"?>
<!-- Generator: Adobe Illustrator 27.8.1, SVG Export Plug-In . SVG Version: 6.00 Build 0)  -->
<svg version="1.1" id="Layer_1" xmlns="http://www.w3.org/2000/svg" xmlns:xlink="http://www.w3.org/1999/xlink" x="0px" y="0px"
	 viewBox="0 0 78.5 78.5" style="enable-background:new 0 0 78.5 78.5;" xml:space="preserve">
<style type="text/css">
	.st0{fill:#FFFFFF;stroke:#1D1D1B;stroke-miterlimit:10;}
	.st1{fill:#1D1D1B;}
</style>
<g>
	<ellipse class="st0" cx="39.2" cy="39.2" rx="38.8" ry="38.8"/>
	<g>
		<g>
			<g>
				<path class="st1" d="M18.1,51.5c1.9,0.1,3.8,0.5,5.6,0c2-0.5,3.6-2.1,4.6-3.9c1.2-2,1.7-4.4,1.9-6.7c0.2-2.3-0.1-4.8-1.5-6.8
					c-2.9-4.3-8.5-5.4-13.1-3.3c-4,1.9-5.5,6.5-5.5,10.7c0,4.4,2.3,8.4,6.7,9.5c1.3,0.3,2.8-0.4,3.1-1.7c0.3-1.3-0.4-2.7-1.7-3.1
					c-0.1,0-1.1-0.4-0.5-0.1c-0.2-0.1-0.5-0.2-0.7-0.3c-0.2-0.1-0.3-0.2-0.5-0.3c0.1,0.1,0.4,0.3,0.1,0c-0.2-0.2-0.4-0.4-0.6-0.7
					c0.4,0.5-0.1-0.3-0.2-0.4c-0.1-0.1-0.1-0.2-0.2-0.3c0.2,0.4,0.1,0.2,0,0.1c-0.1-0.3-0.2-0.6-0.3-0.9c0-0.1-0.1-0.3-0.1-0.4
					c0-0.2-0.1-0.6,0-0.2c-0.1-1.6-0.1-2.7,0.3-3.9c0.1-0.4,0.2-0.7,0.4-1.1c0.1-0.2,0.1-0.3,0.2-0.5c-0.2,0.4,0,0,0-0.1
					c0.2-0.3,0.3-0.6,0.5-0.9c-0.1,0.1-0.3,0.3,0,0c0.2-0.2,0.4-0.4,0.6-0.5c-0.3,0.2,0.2-0.1,0.2-0.1c0.2-0.1,0.4-0.2,0.6-0.3
					c0,0,0.4-0.2,0.1-0.1c0.2-0.1,0.4-0.1,0.5-0.2c0.9-0.3,1.3-0.3,2.4-0.3c1.2,0,2.3,0.7,3.2,1.6c0.3,0.3,0.1,0.2,0.1,0.1
					c0.1,0.2,0.3,0.4,0.4,0.6c0.1,0.1,0.2,0.3,0.2,0.4c-0.1-0.3,0,0.1,0,0.2c0.3,1,0.3,1.3,0.3,2.4c0,0.4,0,0.8-0.1,1.3
					c0,0.1-0.1,0.6,0,0.2c0,0.2-0.1,0.3-0.1,0.5c-0.1,0.4-0.2,0.8-0.3,1.3c0,0.2-0.1,0.3-0.2,0.5c0,0-0.3,0.7-0.1,0.4
					c-0.2,0.4-0.4,0.8-0.6,1.1c0-0.1-0.4,0.6-0.2,0.4c0.1-0.1,0-0.1-0.1,0.1c-0.1,0.1-0.2,0.3-0.4,0.4c-0.1,0.1-0.2,0.2-0.3,0.3
					c0.4-0.4,0,0-0.1,0c-0.1,0.1-0.2,0.1-0.3,0.2c0.6-0.3,0.1-0.1-0.1,0c0,0-0.6,0.2-0.2,0.1c0.4-0.1-0.2,0-0.3,0
					c-0.4,0-0.7,0-1.1,0c-0.9-0.1-1.8-0.1-2.7-0.2c-1.3-0.1-2.6,1.2-2.5,2.5C15.6,50.4,16.7,51.4,18.1,51.5L18.1,51.5z"/>
			</g>
		</g>
		<g>
			<g>
				<path class="st1" d="M57.4,28.3c-6.4-1.1-13.6-2.1-19.2,1.8c-2.4,1.7-4.3,3.9-5.2,6.7c-0.4,1.4-0.6,2.8-0.3,4.2
					c0.3,1.8,1.5,3,2.9,4c4.8,3.6,10.9,5.5,16.9,5.5c5.4,0,12.5-1.5,15.4-6.6c1.7-3,1.3-6.7-0.8-9.5c-2.3-3.1-5.7-4.5-9.1-5.8
					c-1.3-0.5-2.7,0.5-3.1,1.7c-0.4,1.4,0.5,2.6,1.7,3.1c2.8,1.1,9,3.7,7,7.8c-1.7,3.4-7,4.1-10.3,4.2c-4.4,0.2-8.9-0.9-12.7-3.1
					c-0.8-0.5-1.7-1-2.4-1.6c-0.7-0.6-0.7-1.1-0.5-2c0.3-1.7,1.4-3.1,2.7-4.2c4.4-3.5,10.6-2.4,15.7-1.6c1.3,0.2,2.7-0.3,3.1-1.7
					C59.4,30.1,58.7,28.5,57.4,28.3L57.4,28.3z"/>
			</g>
		</g>
	</g>
</g>
</svg>
