<?xml version="1.0" encoding="utf-8"?>
<!-- Generator: Adobe Illustrator 27.8.1, SVG Export Plug-In . SVG Version: 6.00 Build 0)  -->
<svg version="1.1" id="Layer_1" xmlns="http://www.w3.org/2000/svg" xmlns:xlink="http://www.w3.org/1999/xlink" x="0px" y="0px"
	 viewBox="0 0 78.5 78.5" style="enable-background:new 0 0 78.5 78.5;" xml:space="preserve">
<style type="text/css">
	.st0{fill:#FFFFFF;stroke:#1D1D1B;stroke-miterlimit:10;}
	.st1{fill:#1D1D1B;}
</style>
<g>
	<circle class="st0" cx="39.2" cy="39.2" r="38.7"/>
</g>
<path class="st1" d="M39.5,64.5c0,0-0.7-2-3.7-2c-2.7,0-12.6-0.2-12.6-0.2s-0.5,0-2.5,0c-2,0-1.7-1.7-1.7-2.8s11.1-0.6,11.1-0.6
	S35,59,35,57.2c0-1.5-2.5-1.2-2.5-1.2H17.6c0,0-1.9-0.3-2-2c-0.1-1.6,4.4-1.4,4.4-1.4s4.3,0.6,4.3-1.8s-6.2-1.7-6.2-1.7
	s-2.1,0-2.1-1.6c0-1.5,12.4-1.2,12.4-1.2s2.3,0.3,2.2-1c-0.1-1.4-2.5-1.1-2.5-1.1s-4.6,0-6.6-0.1C18,44,19,39.6,20.8,39.5
	c4.5-0.3,11.8,0,11.8,0s2.4,0.2,2.3-1.6c-0.1-2.5-21.3,0.8-21.3-1.4c0-2.6,10.7-1,10.7-2.1c-0.1-2.2-1.4-1.7-3-1.7s-4.5-0.3-4.5-0.3
	s-1.9-0.4-0.6-1.9c0.5-0.6,13.2-0.5,13.2-0.5s1.4,0.1,1.3-1.5c-0.1-1.6-4.1-1.1-4.1-1.1s-5.6-0.2-5.6-2.3c-0.1-3,8.5-2.6,8.5-2.6
	s5.6,0,5.8-1.3c0.2-2-5.6-1.9-5.6-1.9s-5.2,0.2-5.3-1.3c0-2.3,7-1.4,7-1.4s6.4,0.6,4.7-2.3l-5-0.1c0,0-3.4,0-4.1-0.7
	c-0.7-0.6-0.1-2.3-0.1-2.3l12.7,0"/>
<path class="st1" d="M39.5,11.4c0,0,0.7,2,3.7,2c2.7,0,12.6,0.2,12.6,0.2s0.5,0,2.5,0c2,0,1.7,1.7,1.7,2.8c0,1.1-11.1,0.6-11.1,0.6
	S44,16.8,44,18.7c0,1.5,2.5,1.2,2.5,1.2h14.9c0,0,1.9,0.3,2,2c0.1,1.6-4.4,1.4-4.4,1.4s-4.3-0.6-4.3,1.8s6.2,1.7,6.2,1.7
	s2.1,0,2.1,1.6c0,1.5-12.4,1.2-12.4,1.2s-2.3-0.3-2.2,1c0.1,1.4,2.5,1.1,2.5,1.1s4.6,0,6.6,0.1c3.6,0.2,2.5,4.5,0.7,4.6
	c-4.5,0.3-11.8,0-11.8,0s-2.4-0.2-2.3,1.6c0.1,2.5,21.3-0.8,21.3,1.4c0,2.6-10.7,1-10.7,2.1c0.1,2.2,1.4,1.7,3,1.7
	c1.6,0,4.5,0.3,4.5,0.3s1.9,0.4,0.6,1.9c-0.5,0.6-13.2,0.5-13.2,0.5s-1.4-0.1-1.3,1.5c0.1,1.6,4.1,1.1,4.1,1.1s5.6,0.2,5.6,2.3
	c0.1,3-8.5,2.6-8.5,2.6s-5.6,0-5.8,1.3c-0.2,2,5.6,1.9,5.6,1.9s5.2-0.2,5.3,1.3c0,2.3-7,1.4-7,1.4s-6.4-0.6-4.7,2.3l5,0.1
	c0,0,3.4,0,4.1,0.7c0.7,0.6,0.1,2.3,0.1,2.3l-12.7,0"/>
</svg>
