<?xml version="1.0" encoding="utf-8"?>
<!-- Generator: Adobe Illustrator 27.8.0, SVG Export Plug-In . SVG Version: 6.00 Build 0)  -->
<svg version="1.1" id="Layer_1" xmlns="http://www.w3.org/2000/svg" xmlns:xlink="http://www.w3.org/1999/xlink" x="0px" y="0px"
	 viewBox="0 0 78.5 78.5" style="enable-background:new 0 0 78.5 78.5;" xml:space="preserve">
<style type="text/css">
	.st0{fill:#FFFFFF;stroke:#1D1D1B;stroke-miterlimit:10;}
	.st1{fill:#1D1D1B;}
</style>
<g>
	<circle class="st0" cx="39.5" cy="39.6" r="38.9"/>
	<g>
		<g>
			<g>
				<path class="st1" d="M18.4,31.9c13.6-2.3,27.3-4.7,40.9-7c1.3-0.2,2.1-1.9,1.7-3.1c-0.4-1.4-1.7-2-3.1-1.7
					c-13.6,2.3-27.3,4.7-40.9,7c-1.3,0.2-2.1,1.9-1.7,3.1C15.7,31.6,17,32.2,18.4,31.9L18.4,31.9z"/>
			</g>
		</g>
		<g>
			<g>
				<path class="st1" d="M15.5,31.1c0.8,5.1,1.4,10.4,1.7,15.6c0.1,1.3,1.1,2.6,2.5,2.5c1.3-0.1,2.6-1.1,2.5-2.5
					c-0.3-5.7-1-11.3-1.9-17c-0.2-1.3-1.9-2.1-3.1-1.7C15.8,28.4,15.3,29.8,15.5,31.1L15.5,31.1z"/>
			</g>
		</g>
		<g>
			<g>
				<path class="st1" d="M56.6,23.2c-0.3,5.3-0.2,10.6,0.3,15.9c0.1,1.3,1.1,2.6,2.5,2.5c1.3-0.1,2.6-1.1,2.5-2.5
					c-0.5-5.3-0.6-10.6-0.3-15.9c0.1-1.3-1.2-2.6-2.5-2.5C57.7,20.8,56.7,21.8,56.6,23.2L56.6,23.2z"/>
			</g>
		</g>
		<g>
			<g>
				<path class="st1" d="M20.9,48.8c13.1-3,26.2-5.9,39.4-8.9c3.1-0.7,1.8-5.5-1.3-4.8c-13.1,3-26.2,5.9-39.4,8.9
					C16.4,44.6,17.8,49.5,20.9,48.8L20.9,48.8z"/>
			</g>
		</g>
		<g>
			<g>
				<path class="st1" d="M20.6,39.9c13.2-0.2,25.7-5,38.7-7c1.3-0.2,2.1-1.9,1.7-3.1c-0.4-1.4-1.7-2-3.1-1.7
					c-12.5,1.9-24.6,6.6-37.4,6.8C17.4,35,17.4,40,20.6,39.9L20.6,39.9z"/>
			</g>
		</g>
		<g>
			<g>
				<path class="st1" d="M31.2,55.8c6.2-2.8,13-3.9,19.6-5.2c6.8-1.3,13.6-2.7,19.9-5.6c1.2-0.6,1.5-2.3,0.9-3.4
					c-0.7-1.3-2.2-1.5-3.4-0.9c-6.2,2.8-13,4-19.6,5.3c-6.8,1.3-13.6,2.7-19.9,5.6c-1.2,0.5-1.5,2.3-0.9,3.4
					C28.6,56.2,30,56.4,31.2,55.8L31.2,55.8z"/>
			</g>
		</g>
		<g>
			<g>
				<path class="st1" d="M59.6,41.7c0.4,0,0.8,0.1,1.3,0.1c-0.2,0-0.4-0.1-0.7-0.1c1.4,0.2,2.8,0.6,4.2,1.1
					c-0.2-0.1-0.4-0.2-0.6-0.3c0.9,0.4,1.8,0.8,2.6,1.4c1.1,0.7,2.8,0.3,3.4-0.9c0.7-1.2,0.3-2.7-0.9-3.4c-2.8-1.8-6-2.8-9.3-3
					c-1.3-0.1-2.6,1.2-2.5,2.5C57.2,40.6,58.2,41.6,59.6,41.7L59.6,41.7z"/>
			</g>
		</g>
		<g>
			<g>
				<path class="st1" d="M18.4,50.1c3.3,1.5,6.4,3.3,9.4,5.2c1.1,0.7,2.8,0.3,3.4-0.9c0.7-1.2,0.3-2.7-0.9-3.4c-3-2-6.2-3.7-9.4-5.2
					c-0.6-0.3-1.2-0.4-1.9-0.3c-0.6,0.2-1.2,0.6-1.5,1.1C16.9,47.7,17.1,49.5,18.4,50.1L18.4,50.1z"/>
			</g>
		</g>
		<g>
			<g>
				<path class="st1" d="M26.1,51c12.2-3.1,24.4-6.2,36.8-7.9c-0.4-1.6-0.9-3.2-1.3-4.8c-10.9,3.2-21.8,6.3-32.7,9.5
					c-3.1,0.9-1.8,5.7,1.3,4.8C41,49.5,52,46.3,62.9,43.1c1.3-0.4,2.1-1.8,1.7-3.1c-0.4-1.4-1.7-1.9-3.1-1.7
					c-12.5,1.7-24.7,4.8-36.8,7.9C21.6,47,22.9,51.8,26.1,51L26.1,51z"/>
			</g>
		</g>
		<g>
			<g>
				<path class="st1" d="M17.1,49c0.5,3.6,1,7.2,1.5,10.7c0.1,0.6,0.7,1.2,1.1,1.5c0.5,0.3,1.3,0.4,1.9,0.3c0.6-0.2,1.2-0.6,1.5-1.1
					c0.3-0.6,0.4-1.2,0.3-1.9c-0.5-3.6-1-7.2-1.5-10.7c-0.1-0.6-0.7-1.2-1.1-1.5c-0.5-0.3-1.3-0.4-1.9-0.3c-0.6,0.2-1.2,0.6-1.5,1.1
					C17,47.7,17,48.3,17.1,49L17.1,49z"/>
			</g>
		</g>
		<g>
			<g>
				<path class="st1" d="M28.3,55.5c0.2,2.8,0.4,5.6,0.5,8.5c0.1,1.3,1.1,2.6,2.5,2.5c1.3-0.1,2.6-1.1,2.5-2.5
					c-0.2-2.8-0.4-5.6-0.5-8.5c-0.1-1.3-1.1-2.6-2.5-2.5C29.5,53,28.2,54.1,28.3,55.5L28.3,55.5z"/>
			</g>
		</g>
		<g>
			<g>
				<path class="st1" d="M68,44.1c-0.8,2.9-1.2,5.9-1.2,8.8c0,1.3,1.1,2.6,2.5,2.5c1.4-0.1,2.5-1.1,2.5-2.5c0-1.4,0.1-2.8,0.3-4.2
					c0,0.2-0.1,0.4-0.1,0.7c0.2-1.3,0.5-2.7,0.8-4c0.3-1.3-0.4-2.8-1.7-3.1C69.7,42,68.3,42.7,68,44.1L68,44.1z"/>
			</g>
		</g>
	</g>
</g>
</svg>
