<?xml version="1.0" encoding="utf-8"?>
<!-- Generator: Adobe Illustrator 27.8.1, SVG Export Plug-In . SVG Version: 6.00 Build 0)  -->
<svg version="1.1" id="Layer_1" xmlns="http://www.w3.org/2000/svg" xmlns:xlink="http://www.w3.org/1999/xlink" x="0px" y="0px"
	 viewBox="0 0 78.5 78.5" style="enable-background:new 0 0 78.5 78.5;" xml:space="preserve">
<style type="text/css">
	.st0{fill:#FFFFFF;stroke:#1D1D1B;stroke-miterlimit:10;}
	.st1{fill:#FFFFFF;stroke:#000000;stroke-width:1;stroke-miterlimit:10;}
	.st2{font-family:'MyriadPro-Regular';}
	.st3{font-size:12px;}
	.st4{fill:none;stroke:#1D1D1B;stroke-miterlimit:10;}
</style>
<g>
	<circle class="st0" cx="39.2" cy="39.2" r="38.7"/>
</g>
<path class="st0" d="M59.8,57.2h-2.2c-1.1,0-2-0.9-2-2V53c0-1.1,0.9-2,2-2h2.2c1.1,0,2,0.9,2,2v2.2C61.8,56.3,60.9,57.2,59.8,57.2z"
	/>
<path class="st0" d="M36.9,57.2h-2.2c-1.1,0-2-0.9-2-2V53c0-1.1,0.9-2,2-2h2.2c1.1,0,2,0.9,2,2v2.2C38.9,56.3,38,57.2,36.9,57.2z"/>
<ellipse class="st0" cx="61.4" cy="42.5" rx="3.3" ry="1.7"/>
<ellipse class="st0" cx="32.8" cy="42.2" rx="3.3" ry="1.7"/>
<path class="st1" d="M62.8,54.6H31.7c-0.6,0-1-0.3-1-0.7l1.1-8.9c0.1-0.6,0.8-1.1,1.8-1.1h27.4c0.9,0,1.7,0.5,1.8,1.1l1.1,8.9
	C63.8,54.3,63.4,54.6,62.8,54.6z"/>
<path class="st0" d="M61.4,43.9H33.1V42c0-5.4,4.3-9.7,9.7-9.7h8.6c5.5,0,10,4.5,10,10V43.9z"/>
<circle class="st0" cx="38.9" cy="50.2" r="1.3"/>
<circle class="st0" cx="55.8" cy="50.2" r="1.3"/>
<polygon class="st0" points="51.7,51 43.5,51 42.8,48.9 52.4,48.9 "/>
<rect x="23.8" y="31.5" class="st0" width="1.2" height="25.1"/>
<path class="st0" d="M28.1,32.3h-8c-1.7,0-3-1.3-3-3v-9c0-1.7,1.3-3,3-3h8c1.7,0,3,1.3,3,3v9C31.1,30.9,29.7,32.3,28.1,32.3z"/>
<text transform="matrix(1 0 0 1 20.8796 28.8623)" class="st2 st3">P</text>
<line class="st4" x1="63.8" y1="57.2" x2="12.2" y2="57.2"/>
</svg>
