<?xml version="1.0" encoding="utf-8"?>
<!-- Generator: Adobe Illustrator 27.8.1, SVG Export Plug-In . SVG Version: 6.00 Build 0)  -->
<svg version="1.1" id="Layer_1" xmlns="http://www.w3.org/2000/svg" xmlns:xlink="http://www.w3.org/1999/xlink" x="0px" y="0px"
	 viewBox="0 0 78.5 78.5" style="enable-background:new 0 0 78.5 78.5;" xml:space="preserve">
<style type="text/css">
	.st0{fill:#FFFFFF;stroke:#1D1D1B;stroke-miterlimit:10;}
	.st1{fill:none;stroke:#000000;stroke-width:1;stroke-miterlimit:10;}
	.st2{fill:none;stroke:#000000;stroke-width:1;stroke-miterlimit:10;stroke-dasharray:3.0214,3.0214;}
	.st3{fill:#FFFFFF;stroke:#000000;stroke-width:1;stroke-miterlimit:10;}
	.st4{fill:none;stroke:#1D1D1B;stroke-miterlimit:10;}
</style>
<g>
	<circle class="st0" cx="39.2" cy="39.2" r="38.7"/>
</g>
<line class="st1" x1="17.7" y1="12" x2="17.7" y2="66.4"/>
<line class="st1" x1="19.9" y1="12" x2="19.9" y2="66.4"/>
<line class="st1" x1="57.5" y1="12" x2="57.5" y2="66.4"/>
<line class="st1" x1="59.7" y1="12" x2="59.7" y2="66.4"/>
<g>
	<g>
		<line class="st1" x1="38.7" y1="12" x2="38.7" y2="13.5"/>
		<line class="st2" x1="38.7" y1="16.5" x2="38.7" y2="63.4"/>
		<line class="st1" x1="38.7" y1="64.9" x2="38.7" y2="66.4"/>
	</g>
</g>
<circle class="st1" cx="29.9" cy="42" r="5.8"/>
<circle class="st1" cx="47.5" cy="42" r="5.8"/>
<polyline class="st1" points="29.9,42 34.4,31.8 45.6,31.8 45.6,36.2 48.1,42 "/>
<circle class="st3" cx="38.1" cy="43.5" r="1.5"/>
<line class="st1" x1="29.3" y1="42.2" x2="36.5" y2="43.7"/>
<path class="st4" d="M39.1,42.4l6.5-10.6V29h4.3c0,0,1,0,1,1.3c0,1.3-1.6,1-1.6,1"/>
<polyline class="st4" points="37.6,42.1 34.4,31.8 33.5,29.6 32.1,29.6 35.3,29.6 "/>
</svg>
