<?xml version="1.0" encoding="utf-8"?>
<!-- Generator: Adobe Illustrator 27.8.1, SVG Export Plug-In . SVG Version: 6.00 Build 0)  -->
<svg version="1.1" id="Layer_1" xmlns="http://www.w3.org/2000/svg" xmlns:xlink="http://www.w3.org/1999/xlink" x="0px" y="0px"
	 viewBox="0 0 78.5 78.5" style="enable-background:new 0 0 78.5 78.5;" xml:space="preserve">
<style type="text/css">
	.st0{fill:#FFFFFF;stroke:#1D1D1B;stroke-miterlimit:10;}
	.st1{fill:none;stroke:#000000;stroke-width:1;stroke-miterlimit:10;}
	.st2{fill:#FFFFFF;stroke:#000000;stroke-width:0.5;stroke-miterlimit:10;}
	.st3{stroke:#000000;stroke-width:1;stroke-miterlimit:10;}
	.st4{fill:#FFFFFF;stroke:#1D1D1B;stroke-width:0.5;stroke-miterlimit:10;}
	.st5{fill:none;stroke:#000000;stroke-width:0.2;stroke-miterlimit:10;}
	.st6{fill:#FFFFFF;stroke:#000000;stroke-width:0.2;stroke-miterlimit:10;}
	.st7{fill:none;stroke:#1D1E1C;stroke-width:0.2;stroke-miterlimit:10;}
	.st8{fill:none;stroke:#1D1D1B;stroke-width:0.2;stroke-miterlimit:10;}
</style>
<g>
	<circle class="st0" cx="39.2" cy="39.2" r="38.7"/>
</g>
<line class="st1" x1="56.7" y1="55.2" x2="18.1" y2="55.2"/>
<line class="st1" x1="56.7" y1="53.1" x2="19.3" y2="53.1"/>
<line class="st1" x1="56.7" y1="51.1" x2="19.3" y2="51.1"/>
<rect x="48.9" y="19" class="st2" width="7.8" height="36.2"/>
<path class="st3" d="M27.4,55.1h-9.1V41.8c0-0.7,0.5-1.2,1.2-1.2h1.2c1.6,0,2.9,1,3.3,2.5L27.4,55.1z"/>
<path class="st4" d="M44.8,27.2v8.3c0,1.1,0.9,2,2,2l11.6,0c1.1,0,2-0.9,2-2v-8.3c0-1.1-0.9-2-2-2l-11.6,0
	C45.7,25.2,44.8,26.1,44.8,27.2z"/>
<path class="st4" d="M46.4,27.6v5.1c0,0.6,0.4,1,1,1l10.4,0c0.6,0,1-0.4,1-1v-5.1c0-0.6-0.4-1-1-1l-10.4,0
	C46.9,26.6,46.4,27,46.4,27.6z"/>
<ellipse class="st5" cx="51.2" cy="22.6" rx="1.1" ry="1.1"/>
<ellipse class="st5" cx="54.5" cy="22.6" rx="1.1" ry="1.1"/>
<polyline class="st5" points="51.2,22.6 52,20.8 54.1,20.8 54.1,21.5 54.6,22.6 "/>
<ellipse class="st6" cx="52.7" cy="22.8" rx="0.3" ry="0.3"/>
<line class="st5" x1="51.1" y1="22.6" x2="52.4" y2="22.9"/>
<path class="st7" d="M52.9,22.7l1.2-1.9v-0.5h0.8c0,0,0.2,0,0.2,0.2c0,0.2-0.3,0.2-0.3,0.2"/>
<polyline class="st7" points="52.6,22.6 52,20.8 51.8,20.3 51.6,20.3 52.2,20.3 "/>
<line class="st8" x1="50.1" y1="24.2" x2="55.7" y2="24.3"/>
<path class="st3" d="M31.2,52.8h-9.1V39.4c0-0.7,0.5-1.2,1.2-1.2h1.2c1.6,0,2.9,1,3.3,2.5L31.2,52.8z"/>
<path class="st3" d="M35.3,51.1h-9.1V37.8c0-0.7,0.5-1.2,1.2-1.2h1.2c1.6,0,2.9,1,3.3,2.5L35.3,51.1z"/>
</svg>
