<?xml version="1.0" encoding="utf-8"?>
<!-- Generator: Adobe Illustrator 27.8.1, SVG Export Plug-In . SVG Version: 6.00 Build 0)  -->
<svg version="1.1" id="Layer_1" xmlns="http://www.w3.org/2000/svg" xmlns:xlink="http://www.w3.org/1999/xlink" x="0px" y="0px"
	 viewBox="0 0 78.5 78.5" style="enable-background:new 0 0 78.5 78.5;" xml:space="preserve">
<style type="text/css">
	.st0{fill:#FFFFFF;stroke:#1D1D1B;stroke-miterlimit:10;}
	.st1{fill:#1D1D1B;}
</style>
<g>
	<ellipse class="st0" cx="39.3" cy="39.3" rx="38.8" ry="38.7"/>
	<g>
		<g>
			<g>
				<path class="st1" d="M30.5,32.4c0.5-2,0.9-4.3,2.3-5.8c1.5-1.6,4.1-1.8,6.1-1.5c4.5,0.7,7.7,4.2,8.3,8.6
					c0.2,1.3,1.9,2.1,3.1,1.7c1.4-0.4,2-1.7,1.7-3.1c-1-6.6-6.6-11.6-13.2-12.3c-3.3-0.4-6.8,0.4-9.3,2.6c-2.3,2.1-3.3,5.4-3.9,8.3
					C25,34.2,29.8,35.6,30.5,32.4L30.5,32.4z"/>
			</g>
		</g>
		<g>
			<g>
				<path class="st1" d="M27.9,35.6c1.4,0,2.7,0,4.1,0c0.6,0,1.3-0.3,1.8-0.7c0.4-0.4,0.8-1.1,0.7-1.8c0-0.6-0.2-1.3-0.7-1.8
					c-0.5-0.4-1.1-0.7-1.8-0.7c-1.4,0-2.7,0-4.1,0c-0.6,0-1.3,0.3-1.8,0.7c-0.4,0.4-0.8,1.1-0.7,1.8c0,0.6,0.2,1.3,0.7,1.8
					C26.6,35.3,27.2,35.6,27.9,35.6L27.9,35.6z"/>
			</g>
		</g>
		<g>
			<g>
				<path class="st1" d="M34.7,34.8c0.1-0.1,0.3-0.3,0.5-0.4c-0.3,0.4-0.3,0.2-0.1,0.1c0.1-0.1,0.2-0.1,0.3-0.2
					c0.1,0,0.2-0.1,0.3-0.1c0.3-0.1-0.5,0.2-0.2,0.1c0.2-0.1,0.4-0.1,0.7-0.2c0.1,0,0.2,0,0.3-0.1c-0.1,0-0.5,0.1-0.2,0
					c0.2,0,0.5,0,0.7,0c0.1,0,0.2,0,0.3,0c0.1,0,0.5,0,0.1,0c-0.4,0,0,0,0.1,0c0.1,0,0.3,0.1,0.4,0.1c0.2,0.1,0.4,0.1,0.6,0.2
					c0.3,0.1,0,0-0.1-0.1c0.1,0.1,0.2,0.1,0.3,0.1c0.4,0.2,0.9,0.5,1.3,0.7c0.1,0.1,0.2,0.2,0.4,0.3c0.3,0.2,0,0-0.1-0.1
					c0.1,0.2,0.4,0.3,0.5,0.5c0.4,0.3,0.8,0.7,1.2,1.1c0.9,0.9,2.6,1,3.5,0c0.9-1,1-2.5,0-3.5c-1.8-1.8-4-3.6-6.6-4.1
					c-2.7-0.6-5.7,0-7.6,2c-0.9,1-1,2.6,0,3.5C32.1,35.7,33.7,35.8,34.7,34.8L34.7,34.8z"/>
			</g>
		</g>
		<g>
			<g>
				<path class="st1" d="M35.3,16.8c-0.2,1.7,0,3.4,0.4,5.1c0.2,0.6,0.6,1.2,1.1,1.5c0.5,0.3,1.3,0.4,1.9,0.3
					c0.6-0.2,1.2-0.6,1.5-1.1c0.3-0.6,0.4-1.3,0.3-1.9c-0.1-0.5-0.2-0.9-0.3-1.4c0,0.2,0.1,0.4,0.1,0.7c-0.1-1-0.1-2,0-3
					c0.1-0.6-0.3-1.4-0.7-1.8c-0.4-0.4-1.1-0.8-1.8-0.7c-0.6,0-1.3,0.2-1.8,0.7c-0.1,0.2-0.3,0.3-0.4,0.5
					C35.4,15.9,35.3,16.3,35.3,16.8L35.3,16.8z"/>
			</g>
		</g>
		<g>
			<g>
				<path class="st1" d="M36.7,17.7c0.4-0.1,0.9-0.2,1.4-0.2c-0.2,0-0.4,0.1-0.7,0.1c1-0.1,2.1-0.2,3.1-0.1c0.6,0,1.3-0.3,1.8-0.7
					c0.4-0.4,0.8-1.1,0.7-1.8c0-0.6-0.2-1.3-0.7-1.8c-0.5-0.5-1.1-0.7-1.8-0.7c-1.7-0.1-3.4,0.1-5.1,0.5c-0.6,0.1-1.2,0.6-1.5,1.1
					c-0.3,0.5-0.4,1.3-0.3,1.9c0.2,0.6,0.6,1.2,1.1,1.5C35.4,17.7,36,17.8,36.7,17.7L36.7,17.7z"/>
			</g>
		</g>
		<g>
			<g>
				<path class="st1" d="M24.4,41.5c0.1,1,0.3,2,0.4,3c0.1,0.3,0.2,0.6,0.4,0.9c0.2,0.3,0.4,0.5,0.7,0.6c0.3,0.2,0.6,0.3,0.9,0.3
					c0.3,0.1,0.7,0.1,1,0c0.6-0.2,1.2-0.6,1.5-1.1c0.1-0.2,0.2-0.4,0.3-0.6c0.1-0.4,0.1-0.9,0-1.3c-0.1-1-0.3-2-0.4-3
					c-0.1-0.3-0.2-0.6-0.4-0.9c-0.2-0.3-0.4-0.5-0.7-0.6c-0.3-0.2-0.6-0.3-0.9-0.3c-0.3-0.1-0.7-0.1-1,0c-0.6,0.2-1.2,0.6-1.5,1.1
					c-0.1,0.2-0.2,0.4-0.3,0.6C24.3,40.7,24.3,41.1,24.4,41.5L24.4,41.5z"/>
			</g>
		</g>
		<g>
			<g>
				<path class="st1" d="M30.6,45.6c0.1,0.9,0.3,1.8,0.4,2.7c0.1,0.3,0.2,0.6,0.4,0.9c0.2,0.3,0.4,0.5,0.7,0.6
					c0.3,0.2,0.6,0.3,0.9,0.3c0.3,0.1,0.7,0.1,1,0c0.6-0.2,1.2-0.6,1.5-1.1c0.1-0.2,0.2-0.4,0.3-0.6c0.1-0.4,0.1-0.9,0-1.3
					c-0.1-0.9-0.3-1.8-0.4-2.7c-0.1-0.3-0.2-0.6-0.4-0.9c-0.2-0.3-0.4-0.5-0.7-0.6c-0.3-0.2-0.6-0.3-0.9-0.3c-0.3-0.1-0.7-0.1-1,0
					c-0.6,0.2-1.2,0.6-1.5,1.1c-0.1,0.2-0.2,0.4-0.3,0.6C30.5,44.7,30.5,45.2,30.6,45.6L30.6,45.6z"/>
			</g>
		</g>
		<g>
			<g>
				<path class="st1" d="M25.5,51.4c-0.1,0.7-0.2,1.5-0.2,2.2c0.1,0.7,0.2,1.5,0.4,2.2c0.1,0.3,0.2,0.6,0.4,0.9
					c0.2,0.3,0.4,0.5,0.7,0.6c0.3,0.2,0.6,0.3,0.9,0.3c0.3,0.1,0.7,0.1,1,0c0.6-0.2,1.2-0.6,1.5-1.1c0.3-0.6,0.5-1.3,0.3-1.9
					c-0.1-0.4-0.2-0.8-0.3-1.2c0,0.2,0.1,0.4,0.1,0.7c-0.1-0.5-0.1-1.1,0-1.6c0,0.2-0.1,0.4-0.1,0.7c0-0.1,0-0.2,0-0.3
					c0.1-0.3,0.1-0.7,0-1c0-0.3-0.1-0.6-0.3-0.9c-0.2-0.3-0.4-0.5-0.6-0.7c-0.2-0.2-0.5-0.4-0.9-0.4c-0.6-0.1-1.4-0.1-1.9,0.3
					C26.2,50.3,25.6,50.8,25.5,51.4L25.5,51.4z"/>
			</g>
		</g>
		<g>
			<g>
				<path class="st1" d="M31.6,56.8c0.1,0.4,0.2,0.9,0.3,1.4c0-0.2-0.1-0.4-0.1-0.7c0.1,0.8,0.1,1.6,0,2.4c0,0.3,0.1,0.7,0.2,1
					c0.1,0.3,0.3,0.6,0.5,0.8c0.4,0.4,1.1,0.8,1.8,0.7c0.6,0,1.3-0.2,1.8-0.7c0.1-0.2,0.3-0.3,0.4-0.5c0.2-0.4,0.3-0.8,0.3-1.3
					c0.1-0.6,0.1-1.3,0-1.9c-0.1-0.8-0.2-1.7-0.4-2.5c-0.2-0.6-0.6-1.2-1.1-1.5c-0.3-0.2-0.6-0.3-0.9-0.3c-0.3-0.1-0.7-0.1-1,0
					c-0.6,0.2-1.2,0.6-1.5,1.1C31.6,55.5,31.4,56.2,31.6,56.8L31.6,56.8z"/>
			</g>
		</g>
	</g>
</g>
</svg>
