<?xml version="1.0" encoding="utf-8"?>
<!-- Generator: Adobe Illustrator 27.8.1, SVG Export Plug-In . SVG Version: 6.00 Build 0)  -->
<svg version="1.1" id="Layer_1" xmlns="http://www.w3.org/2000/svg" xmlns:xlink="http://www.w3.org/1999/xlink" x="0px" y="0px"
	 viewBox="0 0 78.5 78.5" style="enable-background:new 0 0 78.5 78.5;" xml:space="preserve">
<style type="text/css">
	.st0{fill:#FFFFFF;stroke:#1D1D1B;stroke-miterlimit:10;}
	.st1{fill:#FFFFFF;stroke:#000000;stroke-linejoin:round;stroke-miterlimit:10;}
</style>
<g>
	<circle class="st0" cx="39.5" cy="39.4" r="38.7"/>
</g>
<path class="st1" d="M48,24.2H22.7c-2.3,0-4.2-1.9-4.2-4.2v0c0-2.3,1.9-4.2,4.2-4.2H48c2.3,0,4.2,1.9,4.2,4.2v0
	C52.2,22.3,50.3,24.2,48,24.2z"/>
<path class="st1" d="M55.8,32.6H30.5c-2.3,0-4.2-1.9-4.2-4.2v0c0-2.3,1.9-4.2,4.2-4.2h25.4c2.3,0,4.2,1.9,4.2,4.2v0
	C60,30.7,58.1,32.6,55.8,32.6z"/>
<path class="st1" d="M28.2,50.7V36.1c0-2,1.6-3.6,3.6-3.6H33c2,0,3.6,1.6,3.6,3.6v14.6c0,2-1.6,3.6-3.6,3.6h-1.2
	C29.8,54.3,28.2,52.7,28.2,50.7z"/>
<path class="st1" d="M44.1,50.7V36.1c0-2,1.6-3.6,3.6-3.6h1.2c2,0,3.6,1.6,3.6,3.6v14.6c0,2-1.6,3.6-3.6,3.6h-1.2
	C45.7,54.3,44.1,52.7,44.1,50.7z"/>
<path class="st1" d="M49.8,62.7H24.4c-2.3,0-4.2-1.9-4.2-4.2v0c0-2.3,1.9-4.2,4.2-4.2h25.4c2.3,0,4.2,1.9,4.2,4.2v0
	C54,60.8,52.1,62.7,49.8,62.7z"/>
</svg>
