<?xml version="1.0" encoding="utf-8"?>
<!-- Generator: Adobe Illustrator 27.8.1, SVG Export Plug-In . SVG Version: 6.00 Build 0)  -->
<svg version="1.1" id="Layer_1" xmlns="http://www.w3.org/2000/svg" xmlns:xlink="http://www.w3.org/1999/xlink" x="0px" y="0px"
	 viewBox="0 0 78.5 78.5" style="enable-background:new 0 0 78.5 78.5;" xml:space="preserve">
<style type="text/css">
	.st0{fill:#FFFFFF;stroke:#1D1D1B;stroke-miterlimit:10;}
	.st1{fill:#1D1D1B;}
</style>
<g>
	<circle class="st0" cx="39.2" cy="39.2" r="38.7"/>
	<g>
		<g>
			<g>
				<path class="st1" d="M17,39.5c0.6,4.3,1.5,8.8,4,12.4c2.6,3.8,6.6,6,11.1,7c4.5,0.9,9.4,1.1,13.9,0.4c4.6-0.7,8.5-3.1,11-7
					c2.4-3.7,3.4-8.2,4.3-12.5c1-4.7,0.3-9.3-2.5-13.3c-2.8-3.9-6.8-6.5-11.3-8c-4.5-1.5-9.8-2.1-14.6-1.4c-5.4,0.8-9,4.7-12,9
					c-3,4.3-6.2,9.6-3.5,14.9c1.4,2.9,5.8,0.3,4.3-2.5c-1.5-3.1,1.6-7,3.2-9.4c1.9-2.8,4.2-5.8,7.5-6.8c3.6-1,8-0.4,11.6,0.4
					c3.6,0.9,7,2.5,9.5,5.3c2.3,2.5,3.5,5.8,3,9.2c-0.3,1.9-0.8,3.9-1.3,5.8c-0.4,1.6-0.9,3.2-1.6,4.7c-1.5,3.2-3.8,5.4-7.3,6.3
					c-3.5,0.9-7.5,0.7-11.1,0.3c-3.7-0.5-7.6-1.7-9.9-4.8c-2.4-3.2-3.1-7.5-3.6-11.3c-0.2-1.3-1.9-2.1-3.1-1.7
					C17.4,36.8,16.8,38.1,17,39.5L17,39.5z"/>
			</g>
		</g>
		<g>
			<g>
				<path class="st1" d="M23.2,28.5c8.7,7.4,17.7,14.5,26.8,21.3c1.1,0.8,2.8,0.2,3.4-0.9c0.7-1.3,0.2-2.6-0.9-3.4
					C43.8,39,35.1,32.1,26.8,25c-1-0.9-2.5-1-3.5,0C22.3,25.9,22.2,27.6,23.2,28.5L23.2,28.5z"/>
			</g>
		</g>
		<g>
			<g>
				<path class="st1" d="M53.9,23.8c-10.8,7.1-21,15.1-30.4,24c-2.3,2.2,1.2,5.7,3.5,3.5C36.1,42.7,46,35,56.4,28.1
					C59.1,26.4,56.6,22,53.9,23.8L53.9,23.8z"/>
			</g>
		</g>
	</g>
</g>
</svg>
