<?xml version="1.0" encoding="utf-8"?>
<!-- Generator: Adobe Illustrator 27.8.1, SVG Export Plug-In . SVG Version: 6.00 Build 0)  -->
<svg version="1.1" id="Layer_1" xmlns="http://www.w3.org/2000/svg" xmlns:xlink="http://www.w3.org/1999/xlink" x="0px" y="0px"
	 viewBox="0 0 78.5 78.5" style="enable-background:new 0 0 78.5 78.5;" xml:space="preserve">
<style type="text/css">
	.st0{fill:#FFFFFF;stroke:#1D1D1B;stroke-miterlimit:10;}
	.st1{fill:none;stroke:#1D1D1B;stroke-miterlimit:10;}
</style>
<g>
	<circle class="st0" cx="39.2" cy="39.2" r="38.7"/>
</g>
<rect x="22.6" y="27.4" class="st0" width="4.4" height="21.6"/>
<line class="st1" x1="22.3" y1="30.2" x2="26.9" y2="30.2"/>
<line class="st1" x1="22.2" y1="32.3" x2="26.8" y2="32.3"/>
<line class="st1" x1="22.3" y1="43.9" x2="26.9" y2="43.9"/>
<line class="st1" x1="22.2" y1="46" x2="26.8" y2="46"/>
<line class="st0" x1="24.6" y1="34.2" x2="24.6" y2="41.8"/>
<rect x="28.2" y="27.4" class="st0" width="4.4" height="21.6"/>
<line class="st1" x1="27.9" y1="30.2" x2="32.5" y2="30.2"/>
<line class="st1" x1="27.8" y1="32.3" x2="32.4" y2="32.3"/>
<line class="st1" x1="27.9" y1="43.9" x2="32.5" y2="43.9"/>
<line class="st1" x1="27.8" y1="46" x2="32.4" y2="46"/>
<line class="st0" x1="30.2" y1="34.2" x2="30.2" y2="41.8"/>
<rect x="33.8" y="27.4" class="st0" width="4.4" height="21.6"/>
<line class="st1" x1="33.5" y1="30.2" x2="38.1" y2="30.2"/>
<line class="st1" x1="33.4" y1="32.3" x2="38" y2="32.3"/>
<line class="st1" x1="33.5" y1="43.9" x2="38.1" y2="43.9"/>
<line class="st1" x1="33.4" y1="46" x2="38" y2="46"/>
<line class="st0" x1="35.8" y1="34.2" x2="35.8" y2="41.8"/>
<rect x="39.4" y="27.4" class="st0" width="4.4" height="21.6"/>
<line class="st1" x1="39.2" y1="30.2" x2="43.7" y2="30.2"/>
<line class="st1" x1="39.1" y1="32.3" x2="43.6" y2="32.3"/>
<line class="st1" x1="39.2" y1="43.9" x2="43.7" y2="43.9"/>
<line class="st1" x1="39.1" y1="46" x2="43.6" y2="46"/>
<line class="st0" x1="41.4" y1="34.2" x2="41.4" y2="41.8"/>
<rect x="45" y="27.4" class="st0" width="4.4" height="21.6"/>
<line class="st1" x1="44.8" y1="30.2" x2="49.3" y2="30.2"/>
<line class="st1" x1="44.7" y1="32.3" x2="49.2" y2="32.3"/>
<line class="st1" x1="44.8" y1="43.9" x2="49.3" y2="43.9"/>
<line class="st1" x1="44.7" y1="46" x2="49.2" y2="46"/>
<line class="st0" x1="47" y1="34.2" x2="47" y2="41.8"/>
<rect x="53.2" y="27.1" transform="matrix(0.9516 -0.3074 0.3074 0.9516 -8.9657 18.8542)" class="st0" width="4.4" height="21.6"/>
<line class="st1" x1="50.6" y1="31" x2="54.9" y2="29.6"/>
<line class="st1" x1="51.1" y1="33" x2="55.4" y2="31.6"/>
<line class="st1" x1="54.8" y1="44" x2="59.1" y2="42.6"/>
<line class="st1" x1="55.3" y1="46" x2="59.6" y2="44.6"/>
<line class="st0" x1="54" y1="34.1" x2="56.3" y2="41.3"/>
</svg>
