<?xml version="1.0" encoding="utf-8"?>
<!-- Generator: Adobe Illustrator 27.8.1, SVG Export Plug-In . SVG Version: 6.00 Build 0)  -->
<svg version="1.1" id="Layer_1" xmlns="http://www.w3.org/2000/svg" xmlns:xlink="http://www.w3.org/1999/xlink" x="0px" y="0px"
	 viewBox="0 0 78.5 78.5" style="enable-background:new 0 0 78.5 78.5;" xml:space="preserve">
<style type="text/css">
	.st0{fill:#FFFFFF;stroke:#1D1D1B;stroke-miterlimit:10;}
	.st1{fill:#FFFFFF;stroke:#1D1D1B;stroke-width:2;stroke-miterlimit:10;}
	.st2{fill:none;stroke:#1D1D1B;stroke-width:2;stroke-miterlimit:10;}
	.st3{fill:none;stroke:#1D1D1B;stroke-width:5;stroke-miterlimit:10;}
</style>
<g>
	<circle class="st0" cx="39.2" cy="39.2" r="38.7"/>
</g>
<path class="st1" d="M20.8,61.1h-1.4c-1.7,0-3-1.4-3-3v-4.6c0-1.7,1.3-3,3-3h1.4c1.6,0,3,1.3,3,3v4.6C23.8,59.7,22.4,61.1,20.8,61.1
	z"/>
<path class="st1" d="M59,61.1h-1.4c-1.7,0-3-1.4-3-3v-4.6c0-1.7,1.3-3,3-3H59c1.6,0,3,1.3,3,3v4.6C62,59.7,60.6,61.1,59,61.1z"/>
<path class="st1" d="M62,53.4H16.4V42.8c0-4.4,3.6-8,8-8H54c4.4,0,8,3.6,8,8V53.4z"/>
<path class="st2" d="M57,34.8H21.7l5-13.1c1-2.3,1.9-3.4,4.5-3.4h15.4c2.6,0,3.4,0.8,5,3.2L57,34.8z"/>
<line class="st3" x1="57.5" y1="9.9" x2="16.9" y2="65.5"/>
</svg>
