<?xml version="1.0" encoding="utf-8"?>
<!-- Generator: Adobe Illustrator 27.8.1, SVG Export Plug-In . SVG Version: 6.00 Build 0)  -->
<svg version="1.1" id="Layer_1" xmlns="http://www.w3.org/2000/svg" xmlns:xlink="http://www.w3.org/1999/xlink" x="0px" y="0px"
	 viewBox="0 0 78.5 78.5" style="enable-background:new 0 0 78.5 78.5;" xml:space="preserve">
<style type="text/css">
	.st0{fill:#FFFFFF;stroke:#1D1D1B;stroke-miterlimit:10;}
	.st1{fill:none;stroke:#1D1D1B;stroke-miterlimit:10;}
	.st2{fill:none;stroke:#1D1D1B;stroke-width:6;stroke-miterlimit:10;}
</style>
<g>
	<circle class="st0" cx="39.2" cy="39.2" r="38.7"/>
</g>
<circle class="st0" cx="36.6" cy="22.2" r="5.2"/>
<path class="st0" d="M36.8,29.3c-1.3,7.1-1.1,10.9,0.2,11.8c2,1.4,4.3-0.3,6.8,1.3c2,1.3,2.3,4.5,1.3,6.6c-1.3,2.7-3.8,1.2-6.9,3.8
	c-1.8,1.5-3.7,4.3-4,10"/>
<path class="st0" d="M41.4,52.4c0,0,4,8.7,6.7,8.8"/>
<path class="st1" d="M36.4,29.7c0,0,10-0.6,12.1,0.8c2.1,1.4,1.8,9.3,1.8,9.3"/>
<path class="st0" d="M36.6,31.8c0,0-2.5,3.3-4.2,3.2c-1.7,0-4.2,0-4.2,0"/>
<line class="st2" x1="64.4" y1="17.5" x2="19.5" y2="62.1"/>
</svg>
