<?xml version="1.0" encoding="utf-8"?>
<!-- Generator: Adobe Illustrator 27.8.1, SVG Export Plug-In . SVG Version: 6.00 Build 0)  -->
<svg version="1.1" id="Layer_1" xmlns="http://www.w3.org/2000/svg" xmlns:xlink="http://www.w3.org/1999/xlink" x="0px" y="0px"
	 viewBox="0 0 78.5 78.5" style="enable-background:new 0 0 78.5 78.5;" xml:space="preserve">
<style type="text/css">
	.st0{fill:#FFFFFF;stroke:#1D1D1B;stroke-miterlimit:10;}
	.st1{fill:#1D1D1B;}
	.st2{stroke:#1D1D1B;stroke-miterlimit:10;}
</style>
<g>
	<circle class="st0" cx="39.2" cy="39.2" r="38.7"/>
</g>
<path class="st1" d="M39.5,58.2c0,0-5.4-5.4-5.2-9.2c0.2-3,2.3-3.1,5.2-5s-0.3-3.7-0.3-3.7s-10.6,1.3-17.8,8.2s-8.2,9.7-8.2,9.7"/>
<path class="st1" d="M42.6,58.2c0,0-5.4-4.9-5.8-8.6c-0.4-3.7,4.4-4,5.4-5.8c1.3-2.6-1.5-3.6-1.5-3.6s13.9,1.5,21.1,8.3
	s8.2,9.7,8.2,9.7"/>
<line class="st0" x1="27.8" y1="45.1" x2="27.8" y2="39.1"/>
<circle class="st2" cx="27.9" cy="36.5" r="3.5"/>
<circle class="st2" cx="23.5" cy="46.3" r="2.2"/>
<line class="st0" x1="49.6" y1="42.9" x2="49.6" y2="37.9"/>
<ellipse class="st2" cx="49.6" cy="32.4" rx="2.6" ry="6.7"/>
<circle class="st2" cx="57.3" cy="44.8" r="2.2"/>
<circle class="st2" cx="53.1" cy="43.4" r="1.3"/>
</svg>
