<?xml version="1.0" encoding="utf-8"?>
<!-- Generator: Adobe Illustrator 27.8.1, SVG Export Plug-In . SVG Version: 6.00 Build 0)  -->
<svg version="1.1" id="Layer_1" xmlns="http://www.w3.org/2000/svg" xmlns:xlink="http://www.w3.org/1999/xlink" x="0px" y="0px"
	 viewBox="0 0 78.5 78.5" style="enable-background:new 0 0 78.5 78.5;" xml:space="preserve">
<style type="text/css">
	.st0{fill:#FFFFFF;stroke:#1D1D1B;stroke-miterlimit:10;}
	.st1{fill:none;stroke:#000000;stroke-miterlimit:10;}
</style>
<g>
	<circle class="st0" cx="39.2" cy="39.2" r="38.7"/>
</g>
<rect x="23.7" y="23.9" transform="matrix(0.9043 -0.4269 0.4269 0.9043 -8.4035 16.9345)" class="st1" width="19.8" height="6.7"/>
<rect x="17.5" y="34.1" transform="matrix(0.9043 -0.4269 0.4269 0.9043 -13.3646 15.3055)" class="st1" width="19.8" height="6.7"/>
<rect x="35.5" y="25.7" transform="matrix(0.9043 -0.4269 0.4269 0.9043 -8.0393 22.1435)" class="st1" width="19.8" height="6.7"/>
<rect x="29.3" y="35.9" transform="matrix(0.9043 -0.4269 0.4269 0.9043 -13.0004 20.5145)" class="st1" width="19.8" height="6.7"/>
<rect x="47.3" y="27.5" transform="matrix(0.9043 -0.4269 0.4269 0.9043 -7.6752 27.3525)" class="st1" width="19.8" height="6.7"/>
<rect x="11.4" y="44.4" transform="matrix(0.9043 -0.4269 0.4269 0.9043 -18.3257 13.6765)" class="st1" width="19.8" height="6.7"/>
<rect x="23.2" y="46.2" transform="matrix(0.9043 -0.4269 0.4269 0.9043 -17.9615 18.8855)" class="st1" width="19.8" height="6.7"/>
<rect x="41.1" y="37.7" transform="matrix(0.9043 -0.4269 0.4269 0.9043 -12.6363 25.7235)" class="st1" width="19.8" height="6.7"/>
<rect x="35" y="48" transform="matrix(0.9043 -0.4269 0.4269 0.9043 -17.5974 24.0945)" class="st1" width="19.8" height="6.7"/>
</svg>
