<?xml version="1.0" encoding="utf-8"?>
<!-- Generator: Adobe Illustrator 27.8.1, SVG Export Plug-In . SVG Version: 6.00 Build 0)  -->
<svg version="1.1" id="Layer_1" xmlns="http://www.w3.org/2000/svg" xmlns:xlink="http://www.w3.org/1999/xlink" x="0px" y="0px"
	 viewBox="0 0 78.5 78.5" style="enable-background:new 0 0 78.5 78.5;" xml:space="preserve">
<style type="text/css">
	.st0{fill:#FFFFFF;stroke:#1D1D1B;stroke-miterlimit:10;}
	.st1{fill:#1D1D1B;}
</style>
<g>
	<circle class="st0" cx="39.3" cy="39.3" r="38.8"/>
	<g>
		<g>
			<path class="st1" d="M39.9,42.8c2,0,3.8-1.7,3.8-3.8c-0.1-2-1.6-3.8-3.8-3.8c-2,0-3.8,1.7-3.8,3.8C36.2,41.1,37.8,42.8,39.9,42.8
				L39.9,42.8z"/>
		</g>
	</g>
	<g>
		<g>
			<path class="st1" d="M34.5,7.3c-6.2,7.5-7.7,17.9-3.9,26.9c0.8,1.9,3.4,1.4,4.3,0c0.4-0.7,0.9-1.3,1.3-2c1.8-2.7-2.6-5.2-4.3-2.5
				c-0.4,0.7-0.9,1.3-1.3,2c1.4,0,2.9,0,4.3,0c-2.9-6.7-1.6-15.2,3.1-20.8c0.9-1,1-2.5,0-3.5C37.1,6.4,35.4,6.2,34.5,7.3L34.5,7.3z"
				/>
		</g>
	</g>
	<g>
		<g>
			<path class="st1" d="M37.6,9.1C40.4,12.2,42.2,16,43,20c0.4,2,0.5,4,0.4,6c0,0.9-0.1,1.8-0.3,2.8c-0.1,0.6-0.2,1.1-0.4,1.7
				c-0.1,0.2-0.2,0.5-0.2,0.7c0,0.3-0.3,0.1,0.3-0.2c0.4-0.1,0.8-0.2,1.3-0.3c0.1,0,0.2,0,0.2,0c0.5,0.4,1,0.8,1.5,1.1
				c0,0-0.1-0.1-0.1-0.1c0.1,0.4,0.2,0.8,0.3,1.3c-0.2,0.4-0.4,0.8-0.5,1.1c-0.6,0.2-1.2,0.5-1.8,0.7c0,0,0.1,0,0.1,0
				c-0.6-0.2-1.2-0.5-1.8-0.7c0,0,0.1,0.1,0.1,0.1c1,0.9,2.5,1,3.5,0c0.9-0.9,1-2.6,0-3.5c-1.9-1.7-4.7-0.4-4.7,2.1
				c0,2.4,2.6,3.6,4.5,2.4c1.6-1,2-3,2.3-4.7c0.4-1.8,0.6-3.6,0.6-5.4c0.1-7.2-2.6-14.2-7.3-19.5C39,3.2,35.5,6.7,37.6,9.1L37.6,9.1
				z"/>
		</g>
	</g>
	<g>
		<g>
			<path class="st1" d="M32.8,30.4c-7.1-4.5-16-5.7-24.1-3.4C5.7,28,7,32.8,10.1,31.9c6.8-2,14.2-0.9,20.2,2.9
				C33.1,36.5,35.6,32.2,32.8,30.4L32.8,30.4z"/>
		</g>
	</g>
	<g>
		<g>
			<path class="st1" d="M5.3,34.3c2.1,5.4,6,10,11.3,12.4c6,2.8,12.7,2.7,18.8,0.1c1.2-0.5,1.5-2.4,0.9-3.4
				c-0.7-1.3-2.2-1.4-3.4-0.9c-8.7,3.8-19.3-0.6-22.7-9.5c-0.5-1.3-1.7-2.1-3.1-1.7C5.8,31.5,4.8,33,5.3,34.3L5.3,34.3z"/>
		</g>
	</g>
	<g>
		<g>
			<path class="st1" d="M33.3,42.4c-7.8,2.2-13.5,10.4-12.5,18.5c0.2,1.3,1,2.6,2.5,2.5c1.2-0.1,2.7-1.1,2.5-2.5
				c-0.1-0.8-0.1-1.6-0.1-2.5c0-0.2,0-0.4,0.1-0.7c0-0.5,0,0.2,0-0.1c0.1-0.4,0.1-0.8,0.2-1.2c0.1-0.4,0.2-0.8,0.3-1.2
				c0.1-0.2,0.1-0.4,0.2-0.5c0.2-0.7-0.2,0.4,0.1-0.2c0.3-0.8,0.7-1.5,1.2-2.2c0.2-0.3,0.4-0.6,0.7-0.9c-0.3,0.4,0.1-0.1,0.2-0.2
				c0.1-0.2,0.3-0.3,0.5-0.5c0.3-0.3,0.5-0.5,0.8-0.8c0.2-0.2,0.3-0.3,0.5-0.4c0.1-0.1,0.6-0.5,0.2-0.2c0.6-0.5,1.3-0.9,2-1.3
				c0.2-0.1,0.3-0.2,0.5-0.2c0.5-0.3-0.3,0.1,0.2-0.1c0.4-0.2,0.9-0.3,1.3-0.4c1.3-0.4,2.2-1.8,1.7-3.1C35.9,42.9,34.6,42,33.3,42.4
				L33.3,42.4z"/>
		</g>
	</g>
	<g>
		<g>
			<path class="st1" d="M41.7,45.9c-0.4,9.4-8.7,18-18,18.8c-1.3,0.1-2.5,1.1-2.5,2.5c0,1.3,1.1,2.6,2.5,2.5
				c12.2-1,22.5-11.5,23-23.8c0.1-1.4-1.2-2.5-2.5-2.5C42.8,43.4,41.7,44.5,41.7,45.9L41.7,45.9z"/>
		</g>
	</g>
	<g>
		<g>
			<path class="st1" d="M22,58.3c-0.6,1.5-0.6,3.3-0.3,4.9c0.4,1.6,1.2,3.1,2.4,4.2c0.5,0.4,1.1,0.7,1.8,0.7c0.6,0,1.3-0.3,1.8-0.7
				c0.9-1,1-2.6,0-3.5c-0.2-0.2-0.5-0.5-0.7-0.7c0.1,0.2,0.3,0.3,0.4,0.5c-0.3-0.4-0.6-0.9-0.8-1.3c0.1,0.2,0.2,0.4,0.3,0.6
				c-0.2-0.5-0.4-1-0.4-1.6c0,0.2,0.1,0.4,0.1,0.7c-0.1-0.6-0.1-1.1,0-1.7c0,0.2-0.1,0.4-0.1,0.7c0.1-0.5,0.2-1,0.4-1.4
				c0.2-0.6,0-1.4-0.3-1.9c-0.3-0.5-0.9-1-1.5-1.1c-0.6-0.1-1.4-0.1-1.9,0.3c-0.2,0.1-0.3,0.3-0.5,0.4C22.4,57.5,22.2,57.9,22,58.3
				L22,58.3z"/>
		</g>
	</g>
	<g>
		<g>
			<path class="st1" d="M42.7,43.8c-2.2,4.5,0.7,8.8,4.3,11.5c3.7,2.8,8,4.9,12.3,6.6c1.2,0.5,2.8-0.5,3.1-1.7
				c0.3-1.4-0.4-2.6-1.7-3.1c-1.5-0.6-3.2-1.4-4.9-2.3c-1.7-0.9-3.4-1.9-5.1-3c-0.2-0.1-0.3-0.2-0.5-0.3c-0.4-0.3,0.1,0.1-0.1-0.1
				c-0.3-0.3-0.7-0.6-1-0.9c-0.3-0.3-0.6-0.6-0.8-0.9c0,0-0.5-0.6-0.2-0.2c-0.1-0.2-0.2-0.3-0.3-0.5c-0.2-0.3-0.4-0.7-0.6-1.1
				c0.1,0.2,0.1,0.2,0,0c-0.1-0.2-0.1-0.4-0.2-0.6c-0.1-0.5,0,0.2,0,0c0-0.2,0-0.3,0-0.5c0,0.5,0,0.1,0-0.1c0.1-0.5-0.2,0.3,0.1-0.2
				c0.6-1.2,0.4-2.8-0.9-3.4C45,42.3,43.3,42.6,42.7,43.8L42.7,43.8z"/>
		</g>
	</g>
	<g>
		<g>
			<path class="st1" d="M49.2,38.7c4,1.6,7.6,4.7,9.9,8.3c1.2,1.9,2.2,3.8,2.8,6c0.3,1,0.6,2.1,0.7,3.2c0.1,0.5,0.1,1,0.1,1.6
				c0,0.3,0,0.6,0,0.9c0,0.1,0,0.2,0,0.4c-0.1,0.7,0.6,0.5,2-0.7c0.3,0.3,0.6,0.6,0.9,0.9c0-0.1-0.1-0.1-0.1-0.2
				c-0.8-1.1-2.2-1.6-3.4-0.9c-1.1,0.6-1.7,2.3-0.9,3.4c1.2,1.8,3.8,2.2,5.4,0.6c1.4-1.5,1.2-3.7,1-5.5c-0.4-3.3-1.3-6.5-2.8-9.5
				c-3-6-8.2-10.7-14.4-13.2c-1.3-0.5-2.7,0.5-3.1,1.7C47.1,37,47.9,38.2,49.2,38.7L49.2,38.7z"/>
		</g>
	</g>
	<g>
		<g>
			<path class="st1" d="M65.3,16.5c-8.9,0.1-17.2,4.6-22.4,11.8c-0.8,1.1-0.2,2.8,0.9,3.4c1.3,0.7,2.6,0.2,3.4-0.9
				c4.1-5.7,11.1-9.2,18.1-9.3C68.5,21.5,68.5,16.5,65.3,16.5L65.3,16.5z"/>
		</g>
	</g>
	<g>
		<g>
			<path class="st1" d="M66.2,19.2c-1.8,8.9-9,16-17.9,17.8c-1.3,0.3-2.1,1.8-1.7,3.1c0.4,1.4,1.7,2,3.1,1.7
				c10.5-2.1,19.3-10.8,21.4-21.3c0.3-1.3-0.4-2.7-1.7-3.1C68.1,17.1,66.5,17.8,66.2,19.2L66.2,19.2z"/>
		</g>
	</g>
</g>
</svg>
