<?xml version="1.0" encoding="utf-8"?>
<!-- Generator: Adobe Illustrator 27.8.1, SVG Export Plug-In . SVG Version: 6.00 Build 0)  -->
<svg version="1.1" id="Layer_1" xmlns="http://www.w3.org/2000/svg" xmlns:xlink="http://www.w3.org/1999/xlink" x="0px" y="0px"
	 viewBox="0 0 78.5 78.5" style="enable-background:new 0 0 78.5 78.5;" xml:space="preserve">
<style type="text/css">
	.st0{fill:#FFFFFF;stroke:#1D1D1B;stroke-miterlimit:10;}
	.st1{fill:#FFFFFF;stroke:#000000;stroke-miterlimit:10;}
	.st2{stroke:#000000;stroke-miterlimit:10;}
	.st3{fill:none;stroke:#1D1D1B;stroke-width:2;stroke-miterlimit:10;}
	.st4{fill:none;stroke:#1D1D1B;stroke-miterlimit:10;}
</style>
<g>
	<ellipse class="st0" cx="38.8" cy="39.2" rx="38.8" ry="38.8"/>
</g>
<path class="st1" d="M62.5,51.1H44.2c-2.8,0-5-2.2-5-5V25.9c0-2.8,2.2-5,5-5h18.3c2.8,0,5,2.2,5,5v20.2
	C67.5,48.9,65.3,51.1,62.5,51.1z"/>
<path class="st1" d="M62.9,40.6H44.1c-1.7,0-3-1.3-3-3v-7c0-1.6,1.3-3,3-3h18.8c1.7,0,3,1.4,3,3v7C65.9,39.3,64.6,40.6,62.9,40.6z"
	/>
<path class="st1" d="M62,25.6H45c-0.5,0-1-0.5-1-1v-0.9c0-0.5,0.5-1,1-1h17c0.5,0,1,0.5,1,1v0.9C63,25.2,62.6,25.6,62,25.6z"/>
<circle class="st1" cx="44" cy="46.5" r="1.4"/>
<circle class="st1" cx="63" cy="46.5" r="1.4"/>
<path class="st2" d="M44,54.7L44,54.7c-0.8,0-1.4-0.6-1.4-1.4v-0.8c0-0.8,0.6-1.4,1.4-1.4h0c0.8,0,1.4,0.6,1.4,1.4v0.8
	C45.3,54.1,44.7,54.7,44,54.7z"/>
<path class="st2" d="M63,54.7L63,54.7c-0.8,0-1.4-0.6-1.4-1.4v-0.8c0-0.8,0.6-1.4,1.4-1.4h0c0.8,0,1.4,0.6,1.4,1.4v0.8
	C64.4,54.1,63.8,54.7,63,54.7z"/>
<line class="st3" x1="39.2" y1="54.7" x2="13.8" y2="54.7"/>
<line class="st4" x1="13.8" y1="55.7" x2="13.8" y2="25.5"/>
<line class="st4" x1="13.6" y1="26" x2="26" y2="15"/>
<line class="st4" x1="25.7" y1="15.1" x2="46.7" y2="15.1"/>
<line class="st4" x1="13.8" y1="42.9" x2="19.8" y2="42.9"/>
<line class="st4" x1="13.6" y1="26.3" x2="27.5" y2="17.4"/>
<line class="st4" x1="44.5" y1="17.6" x2="27.2" y2="17.4"/>
<line class="st4" x1="47" y1="15" x2="44.2" y2="17.8"/>
<line class="st4" x1="17" y1="23.2" x2="27.1" y2="16.5"/>
<line class="st4" x1="19.1" y1="21.1" x2="26.7" y2="15.8"/>
<line class="st4" x1="26.2" y1="16" x2="45.9" y2="16"/>
<line class="st4" x1="25" y1="16.7" x2="44.8" y2="16.7"/>
</svg>
