<?xml version="1.0" encoding="utf-8"?>
<!-- Generator: Adobe Illustrator 27.8.0, SVG Export Plug-In . SVG Version: 6.00 Build 0)  -->
<svg version="1.1" id="Layer_1" xmlns="http://www.w3.org/2000/svg" xmlns:xlink="http://www.w3.org/1999/xlink" x="0px" y="0px"
	 viewBox="0 0 78.5 78.5" style="enable-background:new 0 0 78.5 78.5;" xml:space="preserve">
<style type="text/css">
	.st0{fill:#FFFFFF;stroke:#1D1D1B;stroke-miterlimit:10;}
	.st1{fill:#1D1D1B;}
</style>
<g>
	<ellipse class="st0" cx="39.2" cy="39.5" rx="38.8" ry="39"/>
	<g>
		<g>
			<g>
				<path class="st1" d="M23.1,52c5.5-8.8,11.1-17.5,17-26.1c1.1-1.7,0.3-4.2-1.3-5.1c-1.9-1.1-4-0.3-5.1,1.3
					c-5.9,8.6-11.5,17.3-17,26.1c-1.1,1.7-0.4,4.1,1.3,5.1C19.8,54.4,22.1,53.7,23.1,52L23.1,52z"/>
			</g>
		</g>
		<g>
			<g>
				<path class="st1" d="M37.4,24.3C44.6,33,51.8,41.8,59,50.6c1.3,1.6,4,1.3,5.3,0c1.5-1.5,1.3-3.7,0-5.3
					C57.1,36.5,49.9,27.7,42.7,19c-1.3-1.6-4-1.3-5.3,0C35.8,20.5,36.1,22.7,37.4,24.3L37.4,24.3z"/>
			</g>
		</g>
		<g>
			<g>
				<path class="st1" d="M21.5,55.3c13.3-0.5,26.5-1.4,39.7-2.6c1.9-0.2,3.8-1.6,3.8-3.8c-0.1-1.9-1.7-3.9-3.8-3.8
					c-13.2,1.3-26.4,2.1-39.7,2.6c-2,0.1-3.8,1.7-3.8,3.8C17.9,53.5,19.4,55.4,21.5,55.3L21.5,55.3z"/>
			</g>
		</g>
		<g>
			<g>
				<path class="st1" d="M35.7,29.2c-3.8,5.6-7.6,11.1-11.3,16.7c-0.9,1.4-0.5,3.4,0.6,4.5c1.2,1.2,3.1,1.4,4.5,0.6
					c5.3-3,9.8-7.5,12.5-12.9c-2,0.3-3.9,0.5-5.9,0.8c4,4.5,8.6,8.5,13.6,12c1-2.3,1.9-4.6,2.9-6.9c-4.6-1.7-9.6-1.9-14.3-0.8
					c1.4,1.8,2.8,3.7,4.2,5.5c0.4-0.6-0.2,0.3,0-0.1c0.3-0.4-0.7,0.5,0.1,0c-0.3,0.2-0.5,0.2-0.1,0c0.3-0.1,0.5-0.1,0.8-0.2
					c0.3-0.1,0.5-0.1,0.8-0.1c-0.5,0.1-0.2,0,0.1,0c0.7-0.1,1.4-0.2,2.1-0.3c2.6-0.4,5.3-1.8,6.5-4.2c0.7-1.4,1-3.2,0.4-4.7
					c-0.5-1.5-1.6-2.6-2.7-3.8c-2.1-2.1-4.2-4.2-6.3-6.4c-3-3-8.2,0.9-5.9,4.5c2.4,3.8,5.3,7.2,8.7,10.1c0.6-2.1,1.1-4.2,1.7-6.3
					c-2.5,1-5.1,1.9-7.7,2.5c-2.5,0.6-5.1,1.1-7.4,1.3c-1.9,0.2-3.8,1.6-3.7,3.8c0.1,1.9,1.7,4,3.7,3.8c5.9-0.6,11.6-1.9,17.1-4.1
					c1.3-0.5,2.2-1.2,2.6-2.6c0.3-1.2,0-2.8-1-3.6c-3.1-2.6-5.5-5.4-7.5-8.6c-2,1.5-3.9,3-5.9,4.5c1.8,1.8,3.6,3.6,5.3,5.4
					c0.5,0.5,1,1,1.5,1.5c0.2,0.2,0.3,0.3,0.5,0.5c-0.3-0.3-0.1-0.2,0,0.1c-0.2-0.6-0.2-0.9,0-1.5c-0.2,0.4-0.1,0.1,0.1-0.1
					c-0.5,0.5,0.3-0.1-0.1,0.1c-0.2,0.1-0.4,0.2-0.6,0.3c-0.5,0.3,0.5-0.2,0,0c-0.2,0.1-0.4,0.1-0.6,0.2c-0.1,0-0.8,0.1-0.3,0.1
					c0.5-0.1-0.2,0-0.3,0c-0.2,0-0.4,0-0.6,0.1c-0.7,0.1-1.4,0.2-2.1,0.3c-2.4,0.4-4.5,1.7-5.7,3.8c-1.7,2.9,1.1,6.3,4.2,5.5
					c1.7-0.4,3.2-0.6,5.2-0.4c1.5,0.1,3.4,0.5,5.1,1.2c1.7,0.7,3.8-0.6,4.4-2.2c0.8-1.8,0-3.6-1.5-4.7c-4.3-3-8.4-6.7-12.1-10.8
					c-1.6-1.7-4.8-1.3-5.9,0.8c-0.6,1.1-1.2,2.2-2,3.3c0,0-0.7,0.9-0.3,0.5c-0.2,0.2-0.3,0.4-0.5,0.6c-0.4,0.5-0.9,1.1-1.4,1.6
					c-1.9,2-3.3,3-5.7,4.4c1.7,1.7,3.4,3.4,5.1,5.1c3.8-5.6,7.6-11.1,11.3-16.7c1.1-1.6,0.4-4.2-1.3-5.1
					C39,26.9,36.9,27.5,35.7,29.2L35.7,29.2z"/>
			</g>
		</g>
		<g>
			<g>
				<path class="st1" d="M53,50.1c2,0,3.8-1.7,3.8-3.8c-0.1-2-1.6-3.8-3.8-3.8c-2,0-3.8,1.7-3.8,3.8C49.4,48.4,50.9,50.1,53,50.1
					L53,50.1z"/>
			</g>
		</g>
		<g>
			<g>
				<path class="st1" d="M39.8,25.5c-0.3,0-0.7,0-1,0c-0.5,0-1,0.1-1.4,0.3c-0.5,0.2-0.9,0.4-1.2,0.8c-0.4,0.3-0.6,0.7-0.8,1.2
					c-0.2,0.4-0.3,0.9-0.3,1.4c0,0.3,0.1,0.7,0.1,1c0.2,0.6,0.5,1.2,1,1.7c0.3,0.2,0.5,0.4,0.8,0.6c0.6,0.3,1.2,0.5,1.9,0.5
					c0.3,0,0.7,0,1,0c0.5,0,1-0.1,1.4-0.3c0.5-0.2,0.9-0.4,1.2-0.8c0.4-0.3,0.6-0.7,0.8-1.2c0.2-0.4,0.3-0.9,0.3-1.4
					c0-0.3-0.1-0.7-0.1-1c-0.2-0.6-0.5-1.2-1-1.7c-0.3-0.2-0.5-0.4-0.8-0.6C41.1,25.7,40.4,25.5,39.8,25.5L39.8,25.5z"/>
			</g>
		</g>
	</g>
</g>
</svg>
