<?xml version="1.0" encoding="utf-8"?>
<!-- Generator: Adobe Illustrator 27.8.1, SVG Export Plug-In . SVG Version: 6.00 Build 0)  -->
<svg version="1.1" id="Layer_1" xmlns="http://www.w3.org/2000/svg" xmlns:xlink="http://www.w3.org/1999/xlink" x="0px" y="0px"
	 viewBox="0 0 78.5 78.5" style="enable-background:new 0 0 78.5 78.5;" xml:space="preserve">
<style type="text/css">
	.st0{fill:#FFFFFF;stroke:#1D1D1B;stroke-miterlimit:10;}
	.st1{fill:#FFFFFF;stroke:#000000;stroke-miterlimit:10;}
	.st2{stroke:#000000;stroke-miterlimit:10;}
	.st3{fill:none;stroke:#000000;stroke-miterlimit:10;}
</style>
<g>
	<ellipse class="st0" cx="39.3" cy="39.3" rx="38.8" ry="38.8"/>
</g>
<path class="st1" d="M57.7,57.6H39.4c-2.8,0-5-2.2-5-5V32.4c0-2.8,2.2-5,5-5h18.3c2.8,0,5,2.2,5,5v20.2
	C62.7,55.4,60.5,57.6,57.7,57.6z"/>
<path class="st1" d="M58.1,47.1H39.3c-1.7,0-3-1.3-3-3v-7c0-1.6,1.3-3,3-3h18.8c1.7,0,3,1.4,3,3v7C61.1,45.8,59.8,47.1,58.1,47.1z"
	/>
<path class="st1" d="M57.2,32.1h-17c-0.5,0-1-0.5-1-1v-0.9c0-0.5,0.5-1,1-1h17c0.5,0,1,0.5,1,1v0.9C58.2,31.7,57.8,32.1,57.2,32.1z"
	/>
<circle class="st1" cx="39.2" cy="53" r="1.4"/>
<circle class="st1" cx="58.2" cy="53" r="1.4"/>
<path class="st2" d="M39.2,61.2L39.2,61.2c-0.8,0-1.4-0.6-1.4-1.4V59c0-0.8,0.6-1.4,1.4-1.4l0,0c0.8,0,1.4,0.6,1.4,1.4v0.8
	C40.5,60.6,39.9,61.2,39.2,61.2z"/>
<path class="st2" d="M58.2,61.2L58.2,61.2c-0.8,0-1.4-0.6-1.4-1.4V59c0-0.8,0.6-1.4,1.4-1.4l0,0c0.8,0,1.4,0.6,1.4,1.4v0.8
	C59.6,60.6,59,61.2,58.2,61.2z"/>
<line class="st3" x1="23.3" y1="61.2" x2="23.3" y2="36.1"/>
<path class="st2" d="M23.3,39.7L23.3,39.7c-2.8,0-5-2.2-5-5v-2.3c0-2.8,2.2-5,5-5h0c2.8,0,5,2.2,5,5v2.3
	C28.3,37.4,26,39.7,23.3,39.7z"/>
<path class="st2" d="M24.8,61.5h-3.1c-0.8,0-1.5-0.7-1.5-1.5v0c0-0.8,0.7-1.5,1.5-1.5h3.1c0.8,0,1.5,0.7,1.5,1.5v0
	C26.3,60.9,25.7,61.5,24.8,61.5z"/>
</svg>
