<?xml version="1.0" encoding="utf-8"?>
<!-- Generator: Adobe Illustrator 27.8.0, SVG Export Plug-In . SVG Version: 6.00 Build 0)  -->
<svg version="1.1" id="Layer_1" xmlns="http://www.w3.org/2000/svg" xmlns:xlink="http://www.w3.org/1999/xlink" x="0px" y="0px"
	 viewBox="0 0 78.5 78.5" style="enable-background:new 0 0 78.5 78.5;" xml:space="preserve">
<style type="text/css">
	.st0{fill:#FFFFFF;stroke:#1D1D1B;stroke-miterlimit:10;}
	.st1{fill:#1D1D1B;}
</style>
<g>
	<circle class="st0" cx="39.3" cy="39.3" r="38.7"/>
	<g>
		<g>
			<path class="st1" d="M10.7,40c10.2-1.4,20.4-2.4,30.6-3c-0.8-1.1-1.6-2.1-2.4-3.2c-1.1,4.3-2.3,8.6-3.4,12.9
				c-0.4,1.5,0.8,3.2,2.4,3.2c7.5-0.3,15,0.1,22.4,1c1.3,0.2,2.7-0.3,3.1-1.7c0.3-1.2-0.4-2.9-1.7-3.1c-7.9-1.1-15.8-1.5-23.7-1.2
				c0.8,1.1,1.6,2.1,2.4,3.2c1.1-4.3,2.3-8.6,3.4-12.9c0.4-1.5-0.8-3.3-2.4-3.2c-10.7,0.7-21.3,1.7-31.9,3.2
				c-1.3,0.2-2.1,1.9-1.7,3.1C8,39.7,9.3,40.2,10.7,40L10.7,40z"/>
		</g>
	</g>
</g>
</svg>
