<?xml version="1.0" encoding="utf-8"?>
<!-- Generator: Adobe Illustrator 27.8.1, SVG Export Plug-In . SVG Version: 6.00 Build 0)  -->
<svg version="1.1" id="Layer_1" xmlns="http://www.w3.org/2000/svg" xmlns:xlink="http://www.w3.org/1999/xlink" x="0px" y="0px"
	 viewBox="0 0 78.5 78.5" style="enable-background:new 0 0 78.5 78.5;" xml:space="preserve">
<style type="text/css">
	.st0{fill:#FFFFFF;stroke:#1D1D1B;stroke-miterlimit:10;}
	.st1{fill:none;stroke:#1D1D1B;stroke-miterlimit:10;}
</style>
<g>
	<circle class="st0" cx="39.2" cy="39.2" r="38.7"/>
</g>
<path class="st1" d="M58.4,64.9h-37c-1.6,0-3-1.3-3-3V35.2c0-1.7,1.4-3,3-3h37c1.7,0,3,1.3,3,3v26.8C61.4,63.6,60.1,64.9,58.4,64.9z
	"/>
<path class="st0" d="M60.8,34.1H18.7c-1.6,0-3-1.3-3-3l4.4-9H60l3.8,9C63.8,32.7,62.5,34.1,60.8,34.1z"/>
<rect x="22.2" y="13.5" class="st0" width="35.8" height="8.6"/>
<line class="st1" x1="34.3" y1="22.3" x2="29.8" y2="34.3"/>
<line class="st1" x1="45.8" y1="22.1" x2="50.4" y2="34.1"/>
<path class="st1" d="M54.1,53.9H41.4c-1.7,0-3-1.4-3-3v-9.5c0-1.6,1.3-3,3-3h12.7c1.7,0,3,1.4,3,3v9.5
	C57.1,52.6,55.8,53.9,54.1,53.9z"/>
<rect x="23" y="38.4" class="st1" width="11.4" height="26.5"/>
</svg>
