<?xml version="1.0" encoding="utf-8"?>
<!-- Generator: Adobe Illustrator 27.8.0, SVG Export Plug-In . SVG Version: 6.00 Build 0)  -->
<svg version="1.1" id="Layer_1" xmlns="http://www.w3.org/2000/svg" xmlns:xlink="http://www.w3.org/1999/xlink" x="0px" y="0px"
	 viewBox="0 0 78.5 78.5" style="enable-background:new 0 0 78.5 78.5;" xml:space="preserve">
<style type="text/css">
	.st0{fill:#FFFFFF;stroke:#1D1D1B;stroke-miterlimit:10;}
	.st1{fill:#1D1D1B;}
</style>
<g>
	<circle class="st0" cx="39.2" cy="39.2" r="38.6"/>
	<g>
		<g>
			<path class="st1" d="M49.2,17.3C37,21.9,24.9,26.4,12.8,30.9c-1.3,0.5-2.1,1.7-1.7,3.1c0.3,1.2,1.8,2.2,3.1,1.7
				c12.1-4.5,24.3-9.1,36.4-13.6c1.3-0.5,2.1-1.7,1.7-3.1C51.9,17.9,50.4,16.9,49.2,17.3L49.2,17.3z"/>
		</g>
	</g>
	<g>
		<g>
			<path class="st1" d="M51.4,25.1c-10.8,6.9-21.7,13.7-32.7,20.4c-2.7,1.7-0.2,6,2.5,4.3c11-6.7,21.9-13.5,32.7-20.4
				C56.6,27.7,54.1,23.4,51.4,25.1L51.4,25.1z"/>
		</g>
	</g>
	<g>
		<g>
			<path class="st1" d="M58.4,30.8C50.5,40.4,42.6,50,34.8,59.7c-0.8,1-1,2.2-0.2,3.3c0.7,0.9,2.2,1.4,3.2,0.6
				c0.6-0.4,1.1-0.8,1.7-1.3c1.1-0.8,1.6-2.2,0.9-3.4C39.8,57.8,38,57.2,37,58c-0.6,0.4-1.1,0.8-1.7,1.3c1,1.3,2,2.6,3,3.9
				C46.2,53.6,54,44,61.9,34.4c0.9-1,1-2.5,0-3.5C61,30,59.2,29.8,58.4,30.8L58.4,30.8z"/>
		</g>
	</g>
	<g>
		<g>
			<path class="st1" d="M66.7,36.8c-3.4,7.4-6.6,14.9-9.4,22.6c1.6,0.2,3.3,0.4,4.9,0.7c-0.1-0.6-0.1-1.3-0.2-1.9
				c-0.1-1.3-1.1-2.5-2.5-2.5c-1.3,0-2.6,1.1-2.5,2.5c0.1,0.6,0.1,1.3,0.2,1.9c0.3,2.8,3.9,3.4,4.9,0.7c2.7-7.2,5.7-14.4,8.9-21.4
				c0.6-1.2,0.3-2.7-0.9-3.4C69.1,35.3,67.3,35.6,66.7,36.8L66.7,36.8z"/>
		</g>
	</g>
	<g>
		<g>
			<path class="st1" d="M22.6,17.1c7.1-0.5,14.3-1,21.4-1.5c1.3-0.1,2.5-1.1,2.5-2.5c0-1.3-1.1-2.6-2.5-2.5
				c-7.1,0.5-14.3,1-21.4,1.5c-1.3,0.1-2.5,1.1-2.5,2.5C20.1,15.9,21.2,17.2,22.6,17.1L22.6,17.1z"/>
		</g>
	</g>
</g>
</svg>
