<?xml version="1.0" encoding="utf-8"?>
<!-- Generator: Adobe Illustrator 27.8.1, SVG Export Plug-In . SVG Version: 6.00 Build 0)  -->
<svg version="1.1" id="Layer_1" xmlns="http://www.w3.org/2000/svg" xmlns:xlink="http://www.w3.org/1999/xlink" x="0px" y="0px"
	 viewBox="0 0 78.5 78.5" style="enable-background:new 0 0 78.5 78.5;" xml:space="preserve">
<style type="text/css">
	.st0{fill:#FFFFFF;stroke:#1D1D1B;stroke-miterlimit:10;}
	.st1{fill:#1D1D1B;}
</style>
<g>
	<circle class="st0" cx="39.2" cy="39.2" r="38.7"/>
	<g>
		<g>
			<path class="st1" d="M14.4,20.8c0.4,12.7,0.8,25.5,1.2,38.2c0,1.3,1.1,2.5,2.5,2.5c14.5-0.5,29-1,43.6-1.5c1.3,0,2.6-1.1,2.5-2.5
				C63.4,44.3,63,31.1,63,18c0-1.3-1.1-2.5-2.5-2.5c-14.2,0.4-28.4,0.7-42.6,0.8c-3.2,0-3.2,5,0,5c14.2-0.1,28.4-0.4,42.6-0.8
				c-0.8-0.8-1.7-1.7-2.5-2.5c0,13.2,0.4,26.3,1.2,39.5c0.8-0.8,1.7-1.7,2.5-2.5c-14.5,0.5-29,1-43.6,1.5c0.8,0.8,1.7,1.7,2.5,2.5
				c-0.4-12.7-0.8-25.5-1.2-38.2C19.3,17.5,14.3,17.5,14.4,20.8L14.4,20.8z"/>
		</g>
	</g>
	<g>
		<g>
			<path class="st1" d="M23.3,26.9c0.3,7.6,0.9,15.2,1.8,22.7c0.2,1.4,1,2.5,2.5,2.5c7.8,0.2,15.5-0.1,23.2-0.8
				c1.3-0.1,2.5-1,2.5-2.5c-0.1-7.7-1.1-15.4-3.1-22.9c-0.8-3.1-5.7-1.8-4.8,1.3c1.9,7,2.9,14.3,3,21.6c0.8-0.8,1.7-1.7,2.5-2.5
				c-7.7,0.7-15.5,1-23.2,0.8c0.8,0.8,1.7,1.7,2.5,2.5c-0.8-7.6-1.4-15.1-1.8-22.7C28.1,23.7,23.1,23.7,23.3,26.9L23.3,26.9z"/>
		</g>
	</g>
	<g>
		<g>
			<path class="st1" d="M26.7,28.6c6.1,0.5,12.2,0.8,18.4,0.9c1.4,0,2.5-1.2,2.5-2.5c0-1.4-1.1-2.5-2.5-2.5
				C39,24.3,32.9,24,26.7,23.6c-1.3-0.1-2.5,1.2-2.5,2.5C24.2,27.5,25.4,28.4,26.7,28.6L26.7,28.6z"/>
		</g>
	</g>
</g>
</svg>
