<?xml version="1.0" encoding="utf-8"?>
<!-- Generator: Adobe Illustrator 27.8.1, SVG Export Plug-In . SVG Version: 6.00 Build 0)  -->
<svg version="1.1" id="Layer_1" xmlns="http://www.w3.org/2000/svg" xmlns:xlink="http://www.w3.org/1999/xlink" x="0px" y="0px"
	 viewBox="0 0 78.5 78.5" style="enable-background:new 0 0 78.5 78.5;" xml:space="preserve">
<style type="text/css">
	.st0{fill:#FFFFFF;stroke:#1D1D1B;stroke-miterlimit:10;}
	.st1{fill:#1D1D1B;}
</style>
<g>
	<circle class="st0" cx="39.2" cy="39.2" r="38.8"/>
	<g>
		<g>
			<g>
				<path class="st1" d="M24.1,38.1c2.4,1,5.1,1,7.6,1.3c2.7,0.3,5.5,0.6,8.2,0.7c2.7,0.1,5.5,0.1,8.2-0.2c2.6-0.3,5.3-0.7,6.9-3.1
					c1.4-2.2,1-4.9-0.8-6.6c-1.7-1.7-4.3-2.5-6.4-3.3c-5-1.8-10.2-2.5-15.5-1.7c-4.7,0.7-13.1,3.7-11.8,9.9c0.3,1.3,1.8,2.1,3.1,1.7
					c1.4-0.4,2-1.7,1.7-3.1c-0.2-0.7,2.6-1.9,3-2.1c1.6-0.8,3.5-1.3,5.3-1.6c3.6-0.5,7.4,0,10.9,1c1.8,0.5,3.5,1.1,5.2,2
					c0.6,0.3,1.7,0.7,1,1.3c-0.5,0.4-1.4,0.4-2,0.5c-1.1,0.1-2.3,0.2-3.4,0.2c-2.1,0.1-4.2,0-6.3-0.1c-2.4-0.1-4.9-0.4-7.3-0.6
					c-2.1-0.2-4.3-0.3-6.3-1.1c-1.2-0.5-2.7,0.6-3.1,1.7C22,36.5,22.9,37.6,24.1,38.1L24.1,38.1z"/>
			</g>
		</g>
		<g>
			<g>
				<path class="st1" d="M20.5,37c-0.4,5.2-0.5,10.4-0.3,15.6c0.1,1.3,0.1,2.6,0.2,3.9c0.1,1.2,0,2.5,0.7,3.5
					c0.8,1.3,2.2,1.4,3.6,1.6c1.4,0.2,2.8,0.3,4.2,0.4c5.3,0.4,10.5,0.4,15.8,0.1c1.2-0.1,2.5-0.2,3.7-0.3c1.3-0.1,2.8-0.1,3.9-0.7
					c2.6-1.3,2.1-4.1,2-6.6c-0.2-5.9-0.1-11.8,0.5-17.7c0.1-1.3-1.2-2.5-2.5-2.5c-1.5,0-2.4,1.2-2.5,2.5c-0.4,4-0.6,8-0.6,12
					c0,2,0,4.1,0.1,6.1c0,0.3-0.1,2.1,0.1,2.3c-0.4-0.3,1.6-0.9,0.1-0.7c-0.5,0.1-1,0.1-1.5,0.1c-3.9,0.4-7.9,0.5-11.8,0.5
					c-2,0-3.9-0.1-5.9-0.2c-1.1-0.1-2.1-0.2-3.2-0.2c-0.6-0.1-2.3-0.1-2.6-0.3c0.3,0.3,0.6,0.6,0.9,0.9c0.1,0.5,0.1,0.6,0.1,0.2
					c0-0.2,0-0.5-0.1-0.7c0-0.4-0.1-0.8-0.1-1.2c-0.1-0.9-0.1-1.8-0.2-2.7c-0.1-1.8-0.1-3.6-0.1-5.4c0-3.6,0.1-7.1,0.4-10.7
					c0.1-1.3-1.2-2.5-2.5-2.5C21.5,34.5,20.6,35.7,20.5,37L20.5,37z"/>
			</g>
		</g>
		<g>
			<g>
				<path class="st1" d="M52.9,45.5c0.2,0.2,0.5,0.3,0.7,0.5c-0.2-0.1-0.3-0.3-0.5-0.4c0.9,0.7,1.6,1.4,2.3,2.3
					c-0.1-0.2-0.3-0.3-0.4-0.5c0.2,0.3,0.4,0.5,0.5,0.8c-0.1-0.2-0.2-0.4-0.3-0.6c0.1,0.2,0.1,0.3,0.1,0.5c0-0.2-0.1-0.4-0.1-0.7
					c0,0.1,0,0.2,0,0.4c0-0.2,0.1-0.4,0.1-0.7c0,0.1,0,0.2-0.1,0.3c0.1-0.2,0.2-0.4,0.3-0.6c-0.1,0.1-0.1,0.3-0.2,0.4
					c0.1-0.2,0.3-0.3,0.4-0.5c-0.2,0.2-0.4,0.4-0.6,0.6c0.2-0.1,0.3-0.3,0.5-0.4c-0.5,0.4-1.1,0.7-1.7,1c0.2-0.1,0.4-0.2,0.6-0.3
					c-0.5,0.2-1,0.4-1.5,0.5c-1.3,0.3-2.1,1.8-1.7,3.1c0.4,1.4,1.7,2,3.1,1.7c1.2-0.2,2.3-0.7,3.4-1.4c1.4-0.9,2.7-2.2,2.7-4
					c0-1.6-1.1-2.9-2.1-4.1c-0.8-0.9-1.8-1.7-2.8-2.4c-0.5-0.3-1.3-0.4-1.9-0.3c-0.6,0.2-1.2,0.6-1.5,1.1
					C51.3,43.4,51.7,44.7,52.9,45.5L52.9,45.5z"/>
			</g>
		</g>
		<g>
			<g>
				<path class="st1" d="M28.6,12.5c-1,1-1.3,2.5-0.9,3.8c0.1,0.5,0.4,1,0.7,1.4c0.2,0.3,0.4,0.6,0.6,1c-0.1-0.2-0.2-0.4-0.3-0.6
					c0.1,0.2,0.2,0.5,0.2,0.7c0-0.2-0.1-0.4-0.1-0.7c0,0.3,0,0.6,0,0.9c0-0.2,0.1-0.4,0.1-0.7c0,0.3-0.1,0.6-0.3,0.9
					c0.1-0.2,0.2-0.4,0.3-0.6c-0.1,0.2-0.2,0.4-0.4,0.6c0.1-0.2,0.3-0.3,0.4-0.5c-0.1,0.2-0.3,0.4-0.5,0.5c0.2-0.1,0.3-0.3,0.5-0.4
					c0,0,0,0-0.1,0.1c-0.5,0.4-1,0.8-1.1,1.5c-0.2,0.6-0.1,1.4,0.3,1.9c0.3,0.5,0.9,1,1.5,1.1c0.6,0.1,1.4,0.1,1.9-0.3
					c0.7-0.5,1.3-1.1,1.7-1.9c0.4-0.8,0.6-1.6,0.7-2.6c0.1-0.7,0-1.4-0.3-2.1c-0.2-0.4-0.4-0.9-0.6-1.3c-0.2-0.3-0.4-0.6-0.5-0.9
					c0.1,0.2,0.2,0.4,0.3,0.6c-0.1-0.1-0.1-0.3-0.1-0.5c0,0.2,0.1,0.4,0.1,0.7c0-0.2,0-0.3,0-0.5c0,0.2-0.1,0.4-0.1,0.7
					c0-0.1,0-0.2,0.1-0.3c-0.1,0.2-0.2,0.4-0.3,0.6c0-0.1,0.1-0.2,0.1-0.2c-0.1,0.2-0.3,0.3-0.4,0.5c0,0,0.1-0.1,0.1-0.1
					c0.9-0.9,1-2.6,0-3.5C31.1,11.6,29.6,11.6,28.6,12.5L28.6,12.5z"/>
			</g>
		</g>
		<g>
			<g>
				<path class="st1" d="M36.2,11.9c-0.5,0.6-1,1.3-1.1,2.2c-0.2,0.9-0.1,1.7,0,2.6c0.2,1,0.6,1.9,0.7,2.9c0-0.2-0.1-0.4-0.1-0.7
					c0.1,0.4,0.1,0.9,0,1.3c0-0.2,0.1-0.4,0.1-0.7c0,0.2-0.1,0.4-0.2,0.6c0.1-0.2,0.2-0.4,0.3-0.6c-0.1,0.2-0.2,0.3-0.3,0.5
					c0.1-0.2,0.3-0.3,0.4-0.5c-0.1,0.1-0.2,0.2-0.2,0.2c0.2-0.1,0.3-0.3,0.5-0.4c-0.1,0.1-0.2,0.1-0.3,0.2c0.2-0.1,0.4-0.2,0.6-0.3
					c0,0-0.1,0-0.1,0c-0.6,0.2-1.1,0.6-1.5,1.1c-0.3,0.5-0.4,1.3-0.3,1.9c0.4,1.2,1.8,2.2,3.1,1.7c1-0.4,1.9-1,2.3-2
					c0.4-0.8,0.6-1.7,0.6-2.7c0-0.7-0.1-1.5-0.4-2.2c-0.2-0.7-0.4-1.3-0.5-2c0,0.2,0.1,0.4,0.1,0.7c0-0.3-0.1-0.7,0-1
					c0,0.2-0.1,0.4-0.1,0.7c0-0.2,0.1-0.4,0.2-0.6c-0.1,0.2-0.2,0.4-0.3,0.6c0.1-0.1,0.1-0.3,0.2-0.4c-0.1,0.2-0.3,0.3-0.4,0.5
					c0-0.1,0.1-0.1,0.1-0.2c0.9-1,1-2.6,0-3.5C38.8,11,37.1,10.8,36.2,11.9L36.2,11.9z"/>
			</g>
		</g>
		<g>
			<g>
				<path class="st1" d="M44.3,16.4c0.3,0.2-0.4-0.4-0.2-0.1C44.2,16.3,44.3,16.4,44.3,16.4C44.5,16.6,44.4,16.6,44.3,16.4
					c-0.2-0.2-0.2-0.3-0.1-0.1c0,0.1,0.1,0.2,0.1,0.2c0,0.1,0.1,0.2,0.1,0.3c-0.1-0.1-0.2-0.6-0.1-0.2c0.1,0.2,0.1,0.4,0.1,0.6
					c0-0.2-0.1-0.4-0.1-0.7c0,0.4,0,0.7,0,1.1c0-0.2,0.1-0.4,0.1-0.7c0,0.2-0.1,0.3-0.1,0.5c0,0.1,0,0.1-0.1,0.2
					c0.2-0.4,0.2-0.5,0.1-0.3c-0.2,0.3-0.3,0.6-0.5,0.8c-0.5,0.7-1,1.4-1.1,2.3c-0.5,2.3,0.8,4.8,3.4,4.9c1.3,0.1,2.6-1.2,2.5-2.5
					c-0.1-1.4-1.1-2.4-2.5-2.5c0,0-0.1,0-0.1,0c0.2,0,0.4,0.1,0.7,0.1c-0.4-0.1,0.2,0.1,0.3,0.1c0.4,0.3,0.5,0.4,0.3,0.2
					c0.3,0.4,0.4,0.5,0.3,0.3c-0.2-0.4,0.1,0.5,0.1,0.2c0-0.1-0.1-0.2-0.1-0.4c0,0.2,0.1,0.4,0.1,0.7c0-0.2,0-0.3,0-0.5
					c0,0.2-0.1,0.4-0.1,0.7c0-0.1,0.2-0.6,0-0.2c-0.2,0.4,0,0.1,0,0c0-0.1,0.1-0.2,0.1-0.2c0.2-0.3,0.5-0.6,0.7-1
					c0.6-0.9,0.9-2,1-3.1c0.1-2.1-0.9-4.1-2.6-5.2c-1.1-0.7-2.8-0.2-3.4,0.9C42.8,14.3,43.2,15.6,44.3,16.4L44.3,16.4z"/>
			</g>
		</g>
	</g>
</g>
</svg>
