<?xml version="1.0" encoding="utf-8"?>
<!-- Generator: Adobe Illustrator 27.8.1, SVG Export Plug-In . SVG Version: 6.00 Build 0)  -->
<svg version="1.1" id="Layer_1" xmlns="http://www.w3.org/2000/svg" xmlns:xlink="http://www.w3.org/1999/xlink" x="0px" y="0px"
	 viewBox="0 0 78.5 78.5" style="enable-background:new 0 0 78.5 78.5;" xml:space="preserve">
<style type="text/css">
	.st0{fill:#FFFFFF;stroke:#1D1D1B;stroke-miterlimit:10;}
	.st1{fill:#1D1D1B;}
</style>
<g>
	<circle class="st0" cx="39.2" cy="39.2" r="38.7"/>
	<g>
		<g>
			<g>
				<path class="st1" d="M38.5,56.1c3-2.8,3.1-7.9,0-10.7c-1-1-2.8-1.5-2.1-3.1c0.7-1.8,2.5-3.1,3.4-4.9c0.9-1.9,1.1-3.9,0.4-5.9
					c-0.6-1.6-1.6-3-2.5-4.6c-0.7-1.3-0.9-1.8,0-3.1c1.4-1.8,2.5-3.6,2.9-5.9C41.4,13,37.9,7.8,32.5,8c-3.2,0.1-3.2,5.1,0,5
					c3.2-0.1,3.8,3.6,2.6,5.9c-0.9,1.7-2.4,2.9-2.9,4.8c-0.4,1.7,0,3.4,0.7,5c0.6,1.3,1.4,2.4,2.1,3.7c0.6,1.1,0.8,1.9,0.1,3.1
					c-0.9,1.5-2.3,2.7-3,4.3c-1,1.9-1.3,4.2-0.2,6.1c0.5,0.9,1.2,1.6,2,2.2c0.5,0.4,1.2,0.8,1.6,1.4c0.7,1,0.4,2.4-0.5,3.2
					C32.6,54.8,36.2,58.3,38.5,56.1L38.5,56.1z"/>
			</g>
		</g>
		<g>
			<g>
				<path class="st1" d="M45.5,57.3c1.7-0.8,2.8-2.6,3.1-4.5c0.2-1,0.2-2,0.1-3c-0.1-1-0.3-2.1,0-3.1c0.4-1.3,1.7-2.5,2.5-3.6
					c1.1-1.5,1.8-3.3,1.6-5.1c-0.1-1-0.4-2-0.7-2.9c-0.2-0.7-0.5-1.4-0.2-2.1c0.4-0.9,1.7-1.9,2.4-2.9c1.1-1.4,2-3,1.8-4.9
					c-0.1-1.7-0.9-3.2-1.8-4.5c-0.5-0.7-1-1.5-1.4-2.3c-0.2-0.5-0.2-0.7-0.1-1.3c0.5-2.4,0.8-4.5-1.5-6.1c-1.1-0.8-2.8-0.2-3.4,0.9
					c-0.7,1.3-0.2,2.6,0.9,3.4c-0.1-0.2-0.2-0.3-0.3-0.5c-0.2-0.6-0.3-0.7-0.3-0.3c0,0,0,0.2,0,0.1c-0.1,0.3-0.2,0.7-0.2,1
					c-0.2,0.8-0.3,1.7-0.3,2.5c0.1,1.5,0.8,2.9,1.6,4.1c0.7,1,1.6,2.1,1.8,3.2c0,0.2,0,0.4-0.1,0.6c-0.3,0.6-0.7,0.9-1.1,1.4
					c-0.9,1-1.9,2-2.5,3.3c-0.8,1.8-0.7,3.6-0.2,5.4c0.4,1.3,0.9,2.4,0.2,3.6c-0.7,1.2-1.7,2.2-2.5,3.4c-1.2,1.8-1.4,3.9-1.2,6
					c0.1,1.2,0.6,3.2-0.7,3.8c-1.2,0.6-1.5,2.3-0.9,3.4C42.8,57.7,44.2,57.9,45.5,57.3L45.5,57.3z"/>
			</g>
		</g>
		<g>
			<g>
				<path class="st1" d="M54.7,59.6c2-0.7,3.3-2.2,4-4.2c0.6-1.9,0.3-3.8,0.5-5.7c0.2-1.6,1.1-2.2,2.3-3.1c1.7-1.3,3-2.9,3.1-5.2
					c0-1-0.2-2-0.5-3c-0.2-0.8-0.6-1.7-0.4-2.6c0.4-1.8,2.5-3.3,3.4-4.8c1.1-1.8,1.6-4,0.9-6c-0.8-2-2.5-3.4-4.7-3.4
					c-3.2,0-3.2,5,0,5c-0.3,0-0.1-0.2,0,0c0.2,0.4,0.1,0.8-0.2,1.3c-0.7,1.5-2.1,2.6-3,3.9c-1.1,1.5-1.6,3.3-1.4,5.2
					c0.1,0.9,0.3,1.7,0.6,2.6c0.1,0.5,0.4,1.2,0.3,1.7c-0.2,0.9-1.7,1.7-2.4,2.2c-1.3,1-2.2,2.3-2.7,3.8c-0.4,1.6-0.3,3.3-0.4,4.9
					c0,0.7-0.3,2.1-0.8,2.3c-1.3,0.4-2.1,1.7-1.7,3.1C51.9,59.1,53.4,60,54.7,59.6L54.7,59.6z"/>
			</g>
		</g>
		<g>
			<g>
				<path class="st1" d="M29.7,55.5c0.6-2.3-0.4-4.5-2.2-6c-1-0.8-2.9-1.7-3.3-2.7c-0.4-1-0.1-2.2,0.2-3.4c0.4-1.6,0.9-3.2,1-4.9
					c0.2-1.7-0.1-3.5-0.9-5c-0.7-1.3-2.5-2.5-2.8-4c-0.2-0.9,0.1-1.9,0.1-2.7c0.1-1,0.1-1.9-0.1-2.8c-0.4-2.1-1.7-3.6-3.6-4.4
					c-1.3-0.5-2.7,0.5-3.1,1.7c-0.4,1.4,0.5,2.6,1.7,3.1c-0.2-0.1,0.1,0.7,0.1,0.9c0.1,0.5-0.1,1.3-0.1,1.9c-0.2,2-0.2,3.9,0.9,5.6
					c0.7,1.2,2.2,2.3,2.6,3.5c0.3,0.9,0.2,2-0.1,3.1c-0.6,2.8-1.7,5.6-1,8.5c0.5,1.7,1.6,3,3,4.1c0.4,0.3,2.8,1.5,2.6,2.2
					C24.1,57.3,28.9,58.6,29.7,55.5L29.7,55.5z"/>
			</g>
		</g>
		<g>
			<g>
				<path class="st1" d="M24.1,59.4c-0.7-2.1-2.1-3.6-3.8-4.9c-1.1-0.8-1.4-1-2.3-1.8c-0.3-0.3-0.6-0.6-0.9-0.9
					c-0.1-0.1-0.2-0.2-0.2-0.3c0.1,0.2,0.2,0.2,0.1,0.1c-0.1-0.2-0.2-0.4-0.3-0.6c-0.1-0.2,0,0.3,0-0.1c0-0.2-0.1-0.7-0.1-0.2
					c0-0.7,0.1-1.4,0-2.2c-0.1-1.7-1-3-2.3-4c-1.6-1.3-2.8-3.1-2.4-5.1c0.2-1.3-0.4-2.7-1.7-3.1c-1.2-0.3-2.8,0.4-3.1,1.7
					C6.4,41,7.1,44,9,46.4c0.4,0.5,0.9,0.9,1.4,1.3c0.2,0.2,1.1,0.7,1.2,0.9c0.2,0.4-0.1,1.1-0.1,1.5c0,0.7,0.1,1.4,0.3,2
					c0.7,2.2,2.4,3.7,4.1,5c0.9,0.7,1.3,0.9,2.2,1.8c0.2,0.2,0.3,0.3,0.5,0.5c0.1,0.1,0.5,0.6,0.3,0.4c-0.1-0.2,0.2,0.4,0.3,0.4
					c0.1,0.1,0.1,0.2,0.2,0.3c-0.1-0.2-0.1-0.2,0,0.1c0.4,1.3,1.7,2.1,3.1,1.7C23.6,62.1,24.6,60.7,24.1,59.4L24.1,59.4z"/>
			</g>
		</g>
	</g>
</g>
</svg>
