<?xml version="1.0" encoding="utf-8"?>
<!-- Generator: Adobe Illustrator 27.8.0, SVG Export Plug-In . SVG Version: 6.00 Build 0)  -->
<svg version="1.1" id="Layer_1" xmlns="http://www.w3.org/2000/svg" xmlns:xlink="http://www.w3.org/1999/xlink" x="0px" y="0px"
	 viewBox="0 0 78.5 78.5" style="enable-background:new 0 0 78.5 78.5;" xml:space="preserve">
<style type="text/css">
	.st0{fill:#FFFFFF;stroke:#1D1D1B;stroke-width:0.5;stroke-miterlimit:10;}
	.st1{fill:#1D1D1B;}
</style>
<g>
	<circle class="st0" cx="39.2" cy="39.2" r="38.9"/>
	<g>
		<g>
			<path class="st1" d="M20,20.3c0,4.8,0,9.5,0.1,14.3c0,2.4,0,4.8,0,7.1c0,2-0.1,4.1,0.2,6c0.7,3.8,3.7,5.5,7.3,5.6
				c4.6,0.1,9.3-0.3,13.9-0.5c2.4-0.1,4.8-0.2,7.2-0.3c1.8-0.1,3.7,0,5.4-0.6c1.5-0.5,2.8-1.3,3.4-2.8c0.8-1.9,0.3-4.2,0.3-6.1
				c-0.2-4.8-0.4-9.5-0.6-14.3c-0.1-2.3-0.1-4.7-0.3-7c-0.2-1.8-1.1-3.4-2.6-4.5c-3.8-2.8-9.4-1.7-13.8-1.4
				c-5.4,0.3-10.8,0.6-16.3,0.9c-1.6,0.1-1.6,2.6,0,2.5c4.2-0.2,8.4-0.5,12.6-0.7c2.1-0.1,4.1-0.2,6.2-0.3c2-0.1,4-0.3,6-0.2
				c1.7,0.1,3.6,0.7,4.7,2.1c1.2,1.5,0.9,3.9,0.9,5.7c0.2,4.2,0.4,8.4,0.5,12.6c0.1,2.1,0.2,4.1,0.3,6.2c0.1,1.5,0.5,3.7-1,4.7
				c-1.3,0.8-3,0.7-4.4,0.8c-2.1,0.1-4.2,0.2-6.2,0.2c-4.2,0.2-8.5,0.3-12.7,0.5c-3.1,0.1-7.3,0.7-8.3-3.2c-0.5-2-0.3-4.1-0.3-6.2
				c0-2.3,0-4.6,0-6.9c0-4.8,0-9.5-0.1-14.3C22.5,18.7,20,18.7,20,20.3L20,20.3z"/>
		</g>
	</g>
	<g>
		<g>
			<path class="st1" d="M25.3,54.8c-0.9,1.5-0.7,3.6,0.3,5c0.6,0.8,1.3,1.4,2.2,1.6c0.9,0.3,1.9,0.1,2.8-0.3
				c1.7-0.8,2.6-2.8,2.4-4.6c-0.3-1.8-1.9-2.9-3.7-3c-1.8,0-3.8,1.1-4.1,3c-0.1,0.3-0.1,0.7,0.1,1c0.2,0.3,0.4,0.5,0.7,0.6
				c0.6,0.1,1.4-0.2,1.5-0.9c0-0.1,0.1-0.3,0.1-0.4c0.1-0.2-0.1,0.3,0,0.1c0-0.1,0.1-0.1,0.1-0.2c0,0,0.1-0.1,0.1-0.2
				c0,0-0.2,0.2-0.1,0.2c0,0,0-0.1,0.1-0.1c0.1-0.1,0.2-0.2,0.3-0.3c0.1-0.1-0.2,0.1-0.2,0.1c0,0,0.1-0.1,0.1-0.1
				c0.1,0,0.1-0.1,0.2-0.1c0.1,0,0.1-0.1,0.2-0.1c0,0,0.1,0,0.1,0c0.2-0.1-0.3,0.1-0.1,0.1c0.1,0,0.2-0.1,0.4-0.1c0.1,0,0.1,0,0.2,0
				c0.1,0,0.3-0.1,0.1,0c-0.3,0,0,0,0,0c0.1,0,0.1,0,0.2,0c0.1,0,0.1,0,0.2,0c0.1,0,0.3,0,0.1,0c-0.3,0,0,0,0,0c0.1,0,0.1,0,0.2,0
				c0.1,0,0.1,0,0.2,0.1c0.2,0.1-0.3-0.1,0,0c0.1,0.1,0.2,0.1,0.3,0.2c0.2,0.1-0.2-0.2-0.1-0.1c0.1,0.1,0.1,0.1,0.2,0.2
				c0,0,0.2,0.2,0,0c-0.1-0.2,0,0,0,0.1c0,0.1,0.1,0.1,0.1,0.2c0,0,0.1,0.2,0,0c-0.1-0.2,0,0,0,0c0,0.1,0.1,0.3,0.1,0.4
				c-0.1-0.4,0-0.2,0,0c0,0.1,0,0.2,0,0.2c0,0.1,0,0.3,0,0.1c0-0.3,0,0,0,0.1c0,0.1-0.1,0.3-0.1,0.4c-0.1,0.2,0.1-0.1,0.1-0.1
				c0,0,0,0.1,0,0.1c0,0.1-0.1,0.1-0.1,0.2c-0.1,0.1-0.2,0.2-0.2,0.4c0.2-0.3,0.1-0.1,0,0c0,0.1-0.1,0.1-0.1,0.2
				c0,0-0.1,0.1-0.2,0.1c0,0-0.1,0.1-0.1,0.1c-0.2,0.1,0.2-0.1,0.1-0.1c-0.1,0.1-0.2,0.2-0.4,0.2c0,0-0.1,0-0.1,0.1
				c-0.1,0.1,0.2-0.1,0.2-0.1c-0.1,0-0.2,0.1-0.2,0.1c-0.1,0-0.1,0-0.2,0.1c0,0-0.1,0-0.1,0c0,0,0.4,0,0.2,0c-0.2,0-0.3,0-0.4,0
				c-0.2,0,0.3,0.1,0.2,0c0,0-0.1,0-0.1,0c-0.1,0-0.2,0-0.2-0.1c-0.1,0-0.3-0.1-0.1,0c0.2,0.1-0.1,0-0.1-0.1c-0.1,0-0.3-0.1-0.3-0.2
				c0,0,0.3,0.2,0.1,0.1c0,0,0,0-0.1-0.1c-0.1-0.1-0.1-0.1-0.2-0.2c-0.1-0.1-0.1-0.1-0.2-0.2c-0.1-0.1-0.1-0.2,0.1,0.1
				c0,0,0-0.1-0.1-0.1c-0.1-0.1-0.2-0.3-0.3-0.5c0,0,0-0.1,0-0.1c-0.1-0.2,0,0.1,0,0.1c0-0.1-0.1-0.2-0.1-0.2
				c-0.1-0.2-0.1-0.3-0.1-0.5c-0.1-0.3,0,0.3,0,0c0-0.1,0-0.2,0-0.2c0-0.1,0-0.2,0-0.3c0,0,0-0.1,0-0.1c0-0.2,0,0.3,0,0.1
				c0-0.2,0.1-0.3,0.1-0.5c0,0,0-0.1,0-0.1c0,0-0.1,0.3-0.1,0.1c0-0.1,0.1-0.2,0.1-0.3c0.3-0.6,0.1-1.4-0.4-1.7
				C26.4,54,25.7,54.2,25.3,54.8L25.3,54.8z"/>
		</g>
	</g>
	<g>
		<g>
			<path class="st1" d="M30.2,42.8c0-0.2,0-0.3,0-0.5c0-0.2,0-0.3-0.1-0.5c-0.1-0.2-0.1-0.3-0.3-0.4c-0.1-0.1-0.2-0.2-0.4-0.3
				c-0.1-0.1-0.3-0.1-0.5-0.1c-0.1,0-0.2,0-0.3,0c-0.2,0.1-0.4,0.2-0.6,0.3c-0.1,0.1-0.1,0.2-0.2,0.3c-0.1,0.2-0.2,0.4-0.2,0.6
				c0,0.2,0,0.3,0,0.5c0,0.2,0,0.3,0.1,0.5c0.1,0.2,0.1,0.3,0.3,0.4c0.1,0.1,0.2,0.2,0.4,0.3c0.1,0.1,0.3,0.1,0.5,0.1
				c0.1,0,0.2,0,0.3,0c0.2-0.1,0.4-0.2,0.6-0.3c0.1-0.1,0.1-0.2,0.2-0.3C30.1,43.3,30.2,43.1,30.2,42.8L30.2,42.8z"/>
		</g>
	</g>
	<g>
		<g>
			<path class="st1" d="M50.1,42.3c0-0.2,0-0.3,0-0.5c0-0.2,0-0.3-0.1-0.5c-0.1-0.2-0.1-0.3-0.3-0.4c-0.1-0.1-0.2-0.2-0.4-0.3
				c-0.1-0.1-0.3-0.1-0.5-0.1c-0.1,0-0.2,0-0.3,0c-0.2,0.1-0.4,0.2-0.6,0.3c-0.1,0.1-0.1,0.2-0.2,0.3c-0.1,0.2-0.2,0.4-0.2,0.6
				c0,0.2,0,0.3,0,0.5c0,0.2,0,0.3,0.1,0.5c0.1,0.2,0.1,0.3,0.3,0.4c0.1,0.1,0.2,0.2,0.4,0.3c0.1,0.1,0.3,0.1,0.5,0.1
				c0.1,0,0.2,0,0.3,0c0.2-0.1,0.4-0.2,0.6-0.3c0.1-0.1,0.1-0.2,0.2-0.3C50.1,42.8,50.1,42.5,50.1,42.3L50.1,42.3z"/>
		</g>
	</g>
	<g>
		<g>
			<path class="st1" d="M26.8,24.7c0.4,3.3,0.5,6.5,0.4,9.8c0,0.7,0.6,1.2,1.2,1.2c4,0.4,8.1,0.6,12.1,0.7c2,0,4,0,6.1-0.1
				c1.4-0.1,2.9-0.4,3.8-1.5c1.2-1.4,0.8-3.6,0.8-5.2c0-1.7,0.3-3.9-0.5-5.4c-1.6-3.1-6.1-2.2-8.8-1.8c-4.3,0.6-8.8,1.7-13.2,1.1
				c-1.6-0.2-2.3,2.2-0.7,2.4c4.2,0.6,8.2-0.2,12.3-0.8c2-0.3,4.2-0.7,6.2-0.6c0.8,0.1,1.6,0.2,1.9,1c0.3,0.8,0.1,2,0.2,2.9
				c0,1.1,0,2.1,0,3.2c0,1,0.1,1.8-0.9,2.1c-0.9,0.3-1.9,0.2-2.8,0.2c-1.1,0-2.1,0-3.2,0c-4.5,0-9-0.2-13.4-0.7
				c0.4,0.4,0.8,0.8,1.2,1.2c0.2-3.3,0-6.6-0.4-9.8C29.1,23.1,26.6,23.1,26.8,24.7L26.8,24.7z"/>
		</g>
	</g>
	<g>
		<g>
			<path class="st1" d="M45.3,54.1c-0.9,1.5-0.7,3.6,0.3,5c0.6,0.8,1.3,1.4,2.2,1.6c0.9,0.3,1.9,0.1,2.8-0.3
				c1.7-0.8,2.6-2.8,2.4-4.6c-0.3-1.8-1.9-2.9-3.7-3c-1.8,0-3.8,1.1-4.1,3c-0.1,0.3-0.1,0.7,0.1,1c0.2,0.3,0.4,0.5,0.7,0.6
				c0.6,0.1,1.4-0.2,1.5-0.9c0-0.1,0.1-0.3,0.1-0.4c0.1-0.2-0.1,0.3,0,0.1c0-0.1,0.1-0.1,0.1-0.2c0,0,0.1-0.1,0.1-0.2
				c0,0-0.2,0.2-0.1,0.2c0,0,0-0.1,0.1-0.1c0.1-0.1,0.2-0.2,0.3-0.3c0.1-0.1-0.2,0.1-0.2,0.1c0,0,0.1-0.1,0.1-0.1
				c0.1,0,0.1-0.1,0.2-0.1c0.1,0,0.1-0.1,0.2-0.1c0,0,0.1,0,0.1,0c0.2-0.1-0.3,0.1-0.1,0.1c0.1,0,0.2-0.1,0.4-0.1c0.1,0,0.1,0,0.2,0
				c0.1,0,0.3-0.1,0.1,0c-0.3,0,0,0,0,0c0.1,0,0.1,0,0.2,0c0.1,0,0.1,0,0.2,0c0.1,0,0.3,0,0.1,0c-0.3,0,0,0,0,0c0.1,0,0.1,0,0.2,0
				c0.1,0,0.1,0,0.2,0.1c0.2,0.1-0.3-0.1,0,0c0.1,0.1,0.2,0.1,0.3,0.2c0.2,0.1-0.2-0.2-0.1-0.1c0.1,0.1,0.1,0.1,0.2,0.2
				c0,0,0.2,0.2,0,0c-0.1-0.2,0,0,0,0.1c0,0.1,0.1,0.1,0.1,0.2c0,0,0.1,0.2,0,0c-0.1-0.2,0,0,0,0c0,0.1,0.1,0.3,0.1,0.4
				c-0.1-0.4,0-0.2,0,0c0,0.1,0,0.2,0,0.2c0,0.1,0,0.3,0,0.1c0-0.3,0,0,0,0.1c0,0.1-0.1,0.3-0.1,0.4c-0.1,0.2,0.1-0.1,0.1-0.1
				c0,0,0,0.1,0,0.1c0,0.1-0.1,0.1-0.1,0.2c-0.1,0.1-0.2,0.2-0.2,0.4c0.2-0.3,0.1-0.1,0,0c0,0.1-0.1,0.1-0.1,0.2
				c0,0-0.1,0.1-0.2,0.1c0,0-0.1,0.1-0.1,0.1c-0.2,0.1,0.2-0.1,0.1-0.1c-0.1,0.1-0.2,0.2-0.4,0.2c0,0-0.1,0-0.1,0.1
				c-0.1,0.1,0.2-0.1,0.2-0.1c-0.1,0-0.2,0.1-0.2,0.1c-0.1,0-0.1,0-0.2,0.1c0,0-0.1,0-0.1,0c0,0,0.4,0,0.2,0c-0.2,0-0.3,0-0.4,0
				c-0.2,0,0.3,0.1,0.2,0c0,0-0.1,0-0.1,0c-0.1,0-0.2,0-0.2-0.1c-0.1,0-0.3-0.1-0.1,0c0.2,0.1-0.1,0-0.1-0.1c-0.1,0-0.3-0.1-0.3-0.2
				c0,0,0.3,0.2,0.1,0.1c0,0,0,0-0.1-0.1c-0.1-0.1-0.1-0.1-0.2-0.2c-0.1-0.1-0.1-0.1-0.2-0.2c-0.1-0.1-0.1-0.2,0.1,0.1
				c0,0,0-0.1-0.1-0.1c-0.1-0.1-0.2-0.3-0.3-0.5c0,0,0-0.1,0-0.1c-0.1-0.2,0,0.1,0,0.1c0-0.1-0.1-0.2-0.1-0.2
				c-0.1-0.2-0.1-0.3-0.1-0.5c-0.1-0.3,0,0.3,0,0c0-0.1,0-0.2,0-0.2c0-0.1,0-0.2,0-0.3c0,0,0-0.1,0-0.1c0-0.2,0,0.3,0,0.1
				c0-0.2,0.1-0.3,0.1-0.5c0,0,0-0.1,0-0.1c0,0-0.1,0.3-0.1,0.1c0-0.1,0.1-0.2,0.1-0.3c0.3-0.6,0.1-1.4-0.4-1.7
				C46.4,53.4,45.6,53.5,45.3,54.1L45.3,54.1z"/>
		</g>
	</g>
</g>
</svg>
