<?xml version="1.0" encoding="utf-8"?>
<!-- Generator: Adobe Illustrator 27.8.0, SVG Export Plug-In . SVG Version: 6.00 Build 0)  -->
<svg version="1.1" id="Layer_1" xmlns="http://www.w3.org/2000/svg" xmlns:xlink="http://www.w3.org/1999/xlink" x="0px" y="0px"
	 viewBox="0 0 78.5 78.5" style="enable-background:new 0 0 78.5 78.5;" xml:space="preserve">
<style type="text/css">
	.st0{fill:#FFFFFF;stroke:#1D1D1B;stroke-width:0.5;stroke-miterlimit:10;}
	.st1{fill:#1D1D1B;}
</style>
<g>
	<circle class="st0" cx="39.2" cy="39.2" r="39.2"/>
	<g>
		<g>
			<g>
				<path class="st1" d="M26.8,33.6c-0.7-0.4-1.4-0.9-2.2-1.3c-0.2,0.8-0.4,1.6-0.6,2.3c1.7,0.1,3.4,0.1,5.1,0.2
					c-0.3-0.7-0.6-1.4-0.9-2.1c-0.1,0.1-0.2,0.2-0.3,0.3c0,0-0.1,0.1-0.2,0.1c0.2-0.2,0.1-0.1,0,0c-0.1,0.1-0.2,0.1-0.4,0.2
					c-0.1,0.1-0.2,0.1,0,0c-0.1,0-0.1,0.1-0.2,0.1c-0.1,0-0.3,0.1-0.4,0.1c-0.1,0-0.1,0-0.2,0c0.3-0.1,0.2,0,0.1,0
					c-0.3,0-0.6,0-0.8,0c0.1,0,0.3,0,0.1,0c-0.1,0-0.1,0-0.2,0c-0.1,0-0.3-0.1-0.4-0.1c-0.1,0-0.1-0.1-0.2-0.1c0.1,0,0.2,0.1,0,0
					c-0.1-0.1-0.2-0.1-0.4-0.2c-0.1,0-0.1-0.1-0.2-0.1c-0.2-0.1,0.2,0.2,0,0c-0.1-0.1-0.2-0.2-0.3-0.3c0,0-0.1-0.1-0.1-0.2
					c-0.1-0.1,0.2,0.3,0,0c-0.1-0.1-0.2-0.3-0.2-0.4c-0.4,0.6-0.7,1.3-1.1,1.9c1.6,0.1,3.1,0.1,4.7,0.2c0.7,0,1.3-0.6,1.2-1.2
					c0-0.7-0.5-1.2-1.2-1.2c-1.6-0.1-3.1-0.1-4.7-0.2c-0.4,0-0.9,0.3-1.1,0.6c-0.2,0.4-0.2,0.9,0,1.3c1.4,2.9,5.9,3.4,8,1
					c0.3-0.4,0.5-0.9,0.3-1.4c-0.2-0.5-0.6-0.8-1.1-0.8c-1.7-0.1-3.4-0.1-5.1-0.2c-1.3,0-1.7,1.7-0.6,2.3c0.7,0.4,1.4,0.9,2.2,1.3
					c0.6,0.3,1.4,0.1,1.7-0.4C27.5,34.7,27.4,33.9,26.8,33.6L26.8,33.6z"/>
			</g>
		</g>
		<g>
			<g>
				<path class="st1" d="M27.6,37.2c1.7,3.6,3.3,7.1,5,10.7c0.3,0.6,1.2,0.8,1.7,0.4c0.6-0.4,0.7-1.1,0.4-1.7
					c-1.7-3.6-3.3-7.1-5-10.7c-0.3-0.6-1.2-0.8-1.7-0.4C27.4,35.9,27.3,36.6,27.6,37.2L27.6,37.2z"/>
			</g>
		</g>
		<g>
			<g>
				<path class="st1" d="M36.8,51.5c6.4-4.6,12.6-9.6,18.4-15c1.2-1.1-0.6-2.9-1.8-1.8C47.8,40,41.8,44.9,35.6,49.4
					C34.3,50.3,35.5,52.5,36.8,51.5L36.8,51.5z"/>
			</g>
		</g>
		<g>
			<g>
				<path class="st1" d="M32.3,37.2c7,0.5,14,0.2,20.8-0.9c1.6-0.3,0.9-2.7-0.7-2.4c-6.7,1.1-13.4,1.3-20.2,0.8
					C30.7,34.6,30.8,37.1,32.3,37.2L32.3,37.2z"/>
			</g>
		</g>
		<g>
			<g>
				<path class="st1" d="M51.6,30.2c0.6,0,1,0.2,1.1,0.6c0,0.2,0,0.2,0,0.1c0,0.2,0,0.2,0,0.1c0,0.1-0.1,0.2-0.1,0.3
					c-0.2,0.2-0.4,0.3-0.7,0.2c0,0-0.1,0-0.1,0c0,0,0.1,0.2,0.1,0.2c0.2,0.5,0.3,1,0.4,1.5c0.1,0.6,0.3,1.2,0.4,1.8
					c0.5,2.4,1.1,4.8,1.6,7.2c0.3,1.6,2.8,0.9,2.4-0.7c-0.4-1.9-0.8-3.8-1.3-5.6c-0.2-0.9-0.4-1.9-0.6-2.8c-0.2-0.8-0.3-1.7-0.7-2.5
					c-0.3-0.7-0.8-1.3-1.6-1.5c-0.8-0.2-1.6,0.1-2.1,0.8c-0.8,1.3,0,3.2,1.7,2.7C53.8,32.2,53.2,29.8,51.6,30.2L51.6,30.2z"/>
			</g>
		</g>
		<g>
			<g>
				<path class="st1" d="M55.2,41.5c-3.5,0.6-6,3.9-6.4,7.4c-0.3,3.6,2.2,7,5.4,8.4c3.5,1.5,7.6,0.6,10.4-2
					c2.9-2.7,4.4-7.2,1.5-10.4c-3.1-3.5-8.7-3.9-13-2.9c-1.6,0.4-0.9,2.8,0.7,2.4c3.1-0.7,6.7-0.6,9.4,1.3c1,0.7,1.9,1.7,2,2.9
					c0.2,1.5-0.7,3.1-1.6,4.2c-1.8,2-4.6,3.3-7.3,2.6c-2.5-0.6-4.7-2.7-5-5.3c-0.3-2.8,1.7-5.6,4.5-6.2
					C57.4,43.6,56.7,41.2,55.2,41.5L55.2,41.5z"/>
			</g>
		</g>
		<g>
			<g>
				<path class="st1" d="M26.4,52.5c3.3,0,6.6,0,9.8-0.1c0.8,0,1.4-0.8,1.2-1.6c-0.3-1-1.1-1.8-2.1-2.1c-1.6-0.4-2.2,2-0.7,2.4
					c0.2,0.1,0.3,0.1,0.4,0.3c0.4-0.5,0.8-1.1,1.2-1.6c-3.3,0-6.6,0-9.8,0.1C24.8,50,24.8,52.5,26.4,52.5L26.4,52.5z"/>
			</g>
		</g>
		<g>
			<g>
				<path class="st1" d="M18.6,44.4c-3.2,2.2-4.7,6.6-3.5,10.4c1.2,3.9,5.2,6.1,9.1,5.7c1.9-0.2,3.8-1,5.2-2.4
					c1.4-1.4,2.1-3.3,2.3-5.2c0.3-3.8-1.9-7.7-5.7-8.8c-4.2-1.1-9,1.3-10.3,5.4c-0.5,1.5,1.9,2.2,2.4,0.7c0.8-2.6,3.7-4,6.3-3.8
					c0.5,0,1.3,0.2,1.7,0.5c0.7,0.3,1.1,0.7,1.6,1.3c0.8,0.9,1.3,2.4,1.4,3.6c0.2,2.9-1.4,5.4-4.3,6.1c-2.7,0.6-5.8-0.4-7.1-3
					c-1.4-2.7-0.5-6.6,2-8.3c0.6-0.4,0.8-1.1,0.4-1.7C20,44.3,19.1,44.1,18.6,44.4L18.6,44.4z"/>
			</g>
		</g>
		<g>
			<g>
				<path class="st1" d="M26.3,51.9c0-0.4,0-0.9,0-1.3c0-0.2,0-0.3-0.1-0.5c-0.1-0.2-0.1-0.3-0.3-0.4c-0.1-0.1-0.2-0.2-0.4-0.3
					c-0.1-0.1-0.3-0.1-0.5-0.1c-0.1,0-0.2,0-0.3,0c-0.2,0.1-0.4,0.2-0.6,0.3c-0.2,0.2-0.4,0.5-0.4,0.9c0,0.4,0,0.9,0,1.3
					c0,0.2,0,0.3,0.1,0.5c0.1,0.2,0.1,0.3,0.3,0.4c0.1,0.1,0.2,0.2,0.4,0.3c0.1,0.1,0.3,0.1,0.5,0.1c0.1,0,0.2,0,0.3,0
					c0.2-0.1,0.4-0.2,0.6-0.3C26.2,52.6,26.3,52.3,26.3,51.9L26.3,51.9z"/>
			</g>
		</g>
		<g>
			<g>
				<path class="st1" d="M59.4,48.9c-0.3-1.8-0.5-3.5-0.8-5.3c0-0.3-0.3-0.6-0.6-0.7c-0.3-0.2-0.7-0.2-1-0.1c-0.7,0.2-1,0.8-0.9,1.5
					c0.3,1.8,0.5,3.5,0.8,5.3c0,0.3,0.3,0.6,0.6,0.7c0.3,0.2,0.7,0.2,1,0.1C59.2,50.2,59.5,49.6,59.4,48.9L59.4,48.9z"/>
			</g>
		</g>
		<g>
			<g>
				<path class="st1" d="M54.5,31.4c1.2-1.6,2.4-3.2,3.6-4.8c0.4-0.5,0.1-1.3-0.3-1.6c-0.5-0.4-1.2-0.3-1.6,0.1c-2,1.9-4,3.8-6,5.7
					c-0.5,0.5-0.5,1.3,0,1.8c0.5,0.5,1.3,0.5,1.8,0c2-1.9,4-3.8,6-5.7c-0.7-0.5-1.3-1-2-1.5c-1.2,1.6-2.4,3.2-3.6,4.8
					c-0.4,0.5-0.1,1.4,0.4,1.7C53.4,32.2,54.1,32,54.5,31.4L54.5,31.4z"/>
			</g>
		</g>
	</g>
</g>
</svg>
