<?xml version="1.0" encoding="utf-8"?>
<!-- Generator: Adobe Illustrator 27.8.0, SVG Export Plug-In . SVG Version: 6.00 Build 0)  -->
<svg version="1.1" id="Layer_1" xmlns="http://www.w3.org/2000/svg" xmlns:xlink="http://www.w3.org/1999/xlink" x="0px" y="0px"
	 viewBox="0 0 78.5 78.5" style="enable-background:new 0 0 78.5 78.5;" xml:space="preserve">
<style type="text/css">
	.st0{fill:#FFFFFF;stroke:#1D1D1B;stroke-miterlimit:10;}
	.st1{fill:#1D1D1B;}
	.st2{fill:none;stroke:#1D1D1B;stroke-width:1.5;stroke-miterlimit:10;}
	.st3{fill:none;stroke:#1D1D1B;stroke-miterlimit:10;}
	.st4{fill:none;stroke:#1D1D1B;stroke-width:3;stroke-miterlimit:10;}
</style>
<g>
	<circle class="st0" cx="39.2" cy="39.2" r="39.2"/>
	<g>
		<g>
			<path class="st1" d="M31,45.9c0-0.2,0-0.3,0-0.5c0-0.3-0.1-0.7-0.2-1c-0.1-0.3-0.3-0.6-0.5-0.8c-0.2-0.2-0.5-0.4-0.8-0.5
				c-0.3-0.2-0.6-0.2-1-0.2C28.2,43,28,43,27.8,43c-0.4,0.1-0.8,0.3-1.1,0.6c-0.1,0.2-0.3,0.3-0.4,0.5C26.1,44.6,26,45,26,45.4
				c0,0.2,0,0.3,0,0.5c0,0.3,0.1,0.7,0.2,1c0.1,0.3,0.3,0.6,0.5,0.8c0.2,0.2,0.5,0.4,0.8,0.5c0.3,0.2,0.6,0.2,1,0.2
				c0.2,0,0.4-0.1,0.7-0.1c0.4-0.1,0.8-0.3,1.1-0.6c0.1-0.2,0.3-0.3,0.4-0.5C30.8,46.8,31,46.4,31,45.9L31,45.9z"/>
		</g>
	</g>
	<g>
		<g>
			<path class="st1" d="M51.5,45.4c0-0.2,0-0.3,0-0.5c0-0.3-0.1-0.7-0.2-1c-0.1-0.3-0.3-0.6-0.5-0.8c-0.2-0.2-0.5-0.4-0.8-0.5
				c-0.3-0.2-0.6-0.2-1-0.2c-0.2,0-0.4,0.1-0.7,0.1c-0.4,0.1-0.8,0.3-1.1,0.6c-0.1,0.2-0.3,0.3-0.4,0.5c-0.2,0.4-0.3,0.8-0.3,1.3
				c0,0.2,0,0.3,0,0.5c0,0.3,0.1,0.7,0.2,1c0.1,0.3,0.3,0.6,0.5,0.8c0.2,0.2,0.5,0.4,0.8,0.5c0.3,0.2,0.6,0.2,1,0.2
				c0.2,0,0.4-0.1,0.7-0.1c0.4-0.1,0.8-0.3,1.1-0.6c0.1-0.2,0.3-0.3,0.4-0.5C51.3,46.3,51.5,45.9,51.5,45.4L51.5,45.4z"/>
		</g>
	</g>
</g>
<line class="st2" x1="29.4" y1="54" x2="16.7" y2="71.4"/>
<line class="st2" x1="51.4" y1="53.5" x2="63.6" y2="70"/>
<line class="st3" x1="26.4" y1="58.1" x2="53.9" y2="57"/>
<line class="st3" x1="22.6" y1="63.3" x2="57.5" y2="62"/>
<path class="st4" d="M46.7,53.5H31.1c-6.6,0-12-5.4-12-12V28.7c0-6.6,5.4-12,12-12h15.7c6.6,0,12,5.4,12,12v12.9
	C58.7,48.1,53.3,53.5,46.7,53.5z"/>
<path class="st4" d="M48.7,39.5H29.1c-2.7,0-5-2.2-5-5v-5c0-2.7,2.2-5,5-5h19.7c2.8,0,5,2.2,5,5v5C53.7,37.2,51.5,39.5,48.7,39.5z"
	/>
</svg>
