<?xml version="1.0" encoding="utf-8"?>
<!-- Generator: Adobe Illustrator 27.8.0, SVG Export Plug-In . SVG Version: 6.00 Build 0)  -->
<svg version="1.1" id="Layer_1" xmlns="http://www.w3.org/2000/svg" xmlns:xlink="http://www.w3.org/1999/xlink" x="0px" y="0px"
	 viewBox="0 0 78.5 78.5" style="enable-background:new 0 0 78.5 78.5;" xml:space="preserve">
<style type="text/css">
	.st0{fill:#FFFFFF;stroke:#1D1D1B;stroke-miterlimit:10;}
	.st1{fill:#1D1D1B;}
</style>
<g>
	<ellipse class="st0" cx="39.3" cy="39.2" rx="38.6" ry="38.6"/>
	<g>
		<g>
			<path class="st1" d="M30.9,31.1c-0.2,9.3-0.4,18.6-0.7,28c0,2.1-0.1,4.3,1.7,5.7c1.8,1.3,4.1,0.7,5.6-0.8
				c1.5-1.4,2.2-3.5,3.1-5.3c1.1-2.1,2.1-4.1,3.2-6.2c-1.4,0-2.9,0-4.3,0c2.5,3.8,5.2,7.4,8.2,10.8c1,1.2,3.2,0.8,3.9-0.5
				c2.3-4.2,1-8.9-1.1-12.9c-1-2-2.2-3.8-3.1-5.9c-0.9-2-1.5-4.2-1.9-6.3c-0.8-4.2-0.1-9.2-4-12c-3.8-2.8-9.1,0-9.3,4.7
				c-0.1,3.2,4.9,3.2,5,0c0-0.6,0.6-1,1.2-0.8c1,0.4,1.3,2.1,1.5,2.9c0.3,1.6,0.3,3.3,0.5,4.9c0.3,1.7,0.6,3.4,1.2,5.1
				c1,3.4,2.7,6.4,4.4,9.4c1.3,2.4,2.7,5.6,1.3,8.2c1.3-0.2,2.6-0.3,3.9-0.5c-2.7-3.1-5.2-6.4-7.4-9.8c-1-1.5-3.4-1.8-4.3,0
				c-1.6,3.2-3.1,6.6-4.9,9.7c-0.1,0.2-0.7,0.9-0.7,0.9c0.6,0.7,1,0.8,1.3,0.5c0,0,0,0,0,0c0.1-0.2,0-1,0-1.2c0-1.9,0.1-3.8,0.1-5.7
				c0.2-7.7,0.4-15.3,0.5-23C36,27.9,31,27.9,30.9,31.1L30.9,31.1z"/>
		</g>
	</g>
	<g>
		<g>
			<path class="st1" d="M31.1,14.9c-1.1,1.9-0.6,4.1,0.8,5.7c1.3,1.4,3.2,2,5.1,2c1.5,0,3.1-0.3,4.5-0.7c1.7-0.5,3.2-1.3,4.2-2.7
				c2.2-3.2,0-7.2-2.6-9.3c-2.7-2.2-6.6-3.3-9.7-1.4c-3,1.8-4.7,6-2.6,9.1c0.7,1.1,2.2,1.7,3.4,0.9c1.1-0.7,1.7-2.3,0.9-3.4
				c-0.1-0.1-0.1-0.2-0.2-0.3c-0.2-0.3,0-0.3,0.1,0.2c0-0.1-0.1-0.4-0.1-0.5c0.2,0.4,0,0.5,0,0.2c0-0.1,0-0.2,0-0.3
				c0-0.1,0-0.2,0-0.3c0,0.6-0.1,0.4,0,0.1c0-0.1,0.1-0.2,0.1-0.3c0.1-0.3,0.2-0.3-0.1,0.2c0.1-0.1,0.2-0.3,0.3-0.5
				c0.1-0.1,0.1-0.2,0.2-0.3c0.1-0.3-0.4,0.5-0.1,0.1c0.2-0.2,0.3-0.3,0.5-0.5c0.3-0.3-0.1,0.1-0.2,0.1c0.1,0,0.2-0.1,0.3-0.2
				c0.1-0.1,0.2-0.1,0.3-0.2c0.2-0.1,0.3,0-0.2,0.1c0.2,0,0.4-0.1,0.6-0.2c0.5-0.1-0.1,0-0.1,0c0,0,0.5,0,0.5,0c0.1,0,0.2,0,0.3,0
				c0.1,0,0.1,0,0.2,0c0.2,0,0.2,0,0,0c-0.1,0-0.1,0-0.2,0c0.1,0,0.2,0,0.3,0.1c0.1,0,0.2,0.1,0.3,0.1c0.1,0,0.2,0.1,0.3,0.1
				c0.1,0,0.6,0.2,0.2,0.1c-0.4-0.1,0.1,0.1,0.2,0.1c0.2,0.1,0.3,0.2,0.5,0.2c0.2,0.1,0.4,0.2,0.6,0.4c0,0,0.5,0.4,0.2,0.1
				c-0.3-0.3,0.1,0.1,0.1,0.1c0.2,0.2,0.3,0.3,0.5,0.5c0.1,0.1,0.2,0.2,0.3,0.3c0,0.1,0.4,0.5,0.2,0.2c-0.2-0.3,0.1,0.2,0.1,0.2
				c0.1,0.1,0.1,0.2,0.2,0.3c0.1,0.1,0.1,0.3,0.2,0.4c0.2,0.3-0.2-0.6,0,0c0,0.2,0.2,0.5,0.2,0.7c0-0.1,0-0.2-0.1-0.3
				c0,0.1,0,0.2,0,0.3c0,0.2,0,0.1,0-0.2c0,0.1,0,0.2-0.1,0.3c-0.1,0.4-0.2,0.1,0.1-0.1c0,0-0.1,0.2-0.1,0.2
				c-0.2,0.3,0.1-0.1,0.2-0.2c-0.1,0-0.2,0.2-0.2,0.2c-0.2,0.2-0.3,0.1,0.1-0.1c-0.1,0-0.2,0.1-0.2,0.2c-0.2,0.1-0.5,0.2-0.6,0.3
				c0.2-0.3,0.4-0.2,0.1-0.1c-0.1,0-0.2,0.1-0.4,0.1c-0.2,0.1-0.4,0.1-0.7,0.2c-0.5,0.1-0.9,0.2-1.4,0.3c-0.1,0-0.6,0.1-0.2,0
				c0.4,0-0.3,0-0.4,0c-0.4,0-0.7,0.1-1.1,0.1c-0.1,0-0.3,0-0.4,0c-0.6,0,0.5,0.1-0.1,0c-0.1,0-0.3-0.1-0.4-0.1
				c-0.5-0.1,0.3,0.2-0.1,0c0,0-0.1,0-0.1-0.1c-0.2-0.1-0.2-0.1,0.1,0.1c0-0.1-0.3-0.3-0.3-0.3c-0.2-0.2,0-0.2,0.1,0.2
				c0-0.1-0.2-0.3-0.2-0.4c0.3,0.3,0.1,0.4,0.1,0.2c-0.1-0.6,0.1,0,0,0.1c0,0,0-0.6,0-0.1c0,0.2,0,0.3,0,0.1
				c-0.2,0.4-0.2,0.4-0.1,0.2c0.6-1.1,0.3-2.8-0.9-3.4C33.3,13.4,31.8,13.7,31.1,14.9L31.1,14.9z"/>
		</g>
	</g>
</g>
</svg>
