<svg width="32" height="32" viewBox="0 0 32 32" fill="none" xmlns="http://www.w3.org/2000/svg">
<path d="M31.5 16C31.5 24.5604 24.5604 31.5 16 31.5C7.43959 31.5 0.5 24.5604 0.5 16C0.5 7.43959 7.43959 0.5 16 0.5C24.5604 0.5 31.5 7.43959 31.5 16Z" fill="#FBFCFE" stroke="#006781" stroke-miterlimit="10"/>
<path d="M7.57826 8.21692C7.59116 11.5101 7.47021 14.834 7.61535 18.124C7.68148 19.6335 7.89113 21.1559 9.37324 21.9172C11.3198 22.9154 14.255 22.2075 16.3306 22.13C18.282 22.0575 21.5978 22.6026 23.2686 21.2656C24.783 20.0528 24.1524 17.5305 24.0847 15.9097C23.9847 13.5099 24.4895 10.2409 23.5637 7.97985C22.9251 6.41872 21.3011 5.86071 19.7448 5.79298C16.4983 5.65428 13.1164 6.12359 9.87158 6.30583C8.58139 6.3784 8.57332 8.39433 9.87158 8.32175C11.6843 8.22015 13.497 8.11855 15.3114 8.01694C16.6677 7.94115 19.3642 7.29282 20.6334 7.91373C22.4203 8.78945 21.9284 12.5052 21.9962 14.1615C22.0736 16.0081 22.9912 19.1626 20.7431 19.9512C19.2287 20.4818 16.8338 20.0964 15.2275 20.156C13.5454 20.2189 11.694 20.7689 10.436 19.5529C9.12327 18.2853 9.62322 16.0629 9.61676 14.2728C9.6087 12.2536 9.60064 10.2361 9.59419 8.21692C9.58935 6.92028 7.57342 6.91867 7.57826 8.21692Z" fill="#006781"/>
<path d="M9.74578 22.28C9.17971 23.3783 9.46839 24.8088 10.5634 25.4797C11.723 26.1893 13.1583 25.5846 13.6712 24.3831C14.1566 23.2477 13.6147 21.8882 12.3697 21.5801C11.2327 21.2995 9.96834 21.9398 9.69094 23.109C9.39259 24.3702 11.3359 24.9088 11.6343 23.6444C11.652 23.5702 11.6069 23.5477 11.8327 23.5235C11.8891 23.517 11.9294 23.5751 11.8746 23.5235C11.773 23.4267 11.9149 23.5186 11.8165 23.6009C11.694 23.7025 11.7536 23.8138 11.5795 23.738C11.4392 23.6767 11.423 23.417 11.4843 23.2961C12.081 22.1462 10.3425 21.1253 9.74578 22.28Z" fill="#006781"/>
<path d="M18.3353 21.8897C18.2272 22.8864 18.2466 24.3008 19.0787 25.0184C19.9319 25.7538 20.9995 25.2684 21.4575 24.3572C21.9091 23.4573 22.0575 22.3364 21.4269 21.4833C20.8124 20.6527 19.7803 20.4253 18.8707 20.885C17.7127 21.4704 18.732 23.2105 19.8883 22.6251C19.5868 22.7783 19.9141 22.5251 19.8448 22.7832C19.848 22.9396 19.819 23.0896 19.7593 23.2347C19.5658 23.4879 19.6626 23.5702 20.0496 23.4863C20.6383 23.5444 20.3754 23.4347 20.327 22.9557C20.2899 22.5977 20.3141 22.2445 20.3528 21.8881C20.4915 20.6027 18.474 20.6124 18.3353 21.8897Z" fill="#006781"/>
<path d="M12.7616 17.4724C12.7616 17.4031 12.7616 17.3321 12.7616 17.2628C12.7616 15.9661 10.7457 15.9629 10.7457 17.2628C10.7457 17.3321 10.7457 17.4031 10.7457 17.4724C10.7457 18.7691 12.7616 18.7723 12.7616 17.4724Z" fill="#006781"/>
<path d="M20.9656 17.2628C20.9656 17.1935 20.9656 17.1225 20.9656 17.0532C20.9656 15.7565 18.9497 15.7533 18.9497 17.0532C18.9497 17.1225 18.9497 17.1935 18.9497 17.2628C18.9497 18.5595 20.9656 18.5611 20.9656 17.2628Z" fill="#006781"/>
<path d="M10.3828 10.028C10.5376 11.3779 10.5893 12.71 10.5393 14.0679C10.5167 14.6501 11.0199 15.0259 11.5472 15.0775C14.0405 15.3162 16.8064 15.6436 19.2997 15.2823C21.2608 14.9968 21.4107 13.7002 21.3914 11.9584C21.372 10.1989 21.2462 8.70716 19.2142 8.43783C16.6757 8.09915 14.1147 9.28452 11.5295 9.01519C10.2409 8.88133 10.2506 10.8973 11.5295 11.0311C12.9326 11.1779 14.284 11.0247 15.6694 10.8086C16.3919 10.6973 17.2741 10.4538 17.995 10.4715C19.2255 10.5005 19.3642 10.7908 19.3771 11.9568C19.39 13.1277 19.3739 13.1567 18.2272 13.318C17.5821 13.4099 16.8677 13.3373 16.2209 13.3293C14.6582 13.3099 13.1019 13.2099 11.5472 13.0616C11.8827 13.397 12.2197 13.7341 12.5552 14.0695C12.6052 12.7116 12.5536 11.3795 12.3987 10.0296C12.252 8.75392 10.2345 8.73941 10.3828 10.028Z" fill="#006781"/>
</svg>
