<svg width="32" height="32" viewBox="0 0 32 32" fill="none" xmlns="http://www.w3.org/2000/svg">
<path d="M31.5 16C31.5 24.5604 24.5604 31.5 16 31.5C7.43959 31.5 0.5 24.5604 0.5 16C0.5 7.43959 7.43959 0.5 16 0.5C24.5604 0.5 31.5 7.43959 31.5 16Z" fill="#FBFCFE" stroke="#006781" stroke-miterlimit="10"/>
<path d="M4.90595 18.9997C5.49138 20.4383 6.20743 21.0108 7.80243 21.2737C11.5327 21.8881 16.0081 21.1366 19.7528 20.8108C21.522 20.656 30.2131 20.2447 26.4893 16.0581C25.6281 15.0888 24.9443 15.5242 23.9621 15.013C22.967 14.4953 22.3639 13.7212 21.4462 13.0116C19.5384 11.5375 17.1644 10.786 14.763 10.8812C10.8376 11.0392 4.19635 14.5566 4.90595 18.9416C5.11238 20.2189 7.05574 19.677 6.84931 18.4062C6.3671 15.4226 13.4486 12.8293 15.3517 12.8697C17.6837 12.9197 21.3882 14.6292 22.5848 16.8531C23.9556 19.3996 19.4029 18.8368 17.3886 18.9755C15.8049 19.0852 7.59762 20.3028 6.84931 18.4626C6.36871 17.2773 4.41729 17.7966 4.90595 18.9997Z" fill="#006781"/>
<path d="M8.8104 21.6446C7.44602 23.8299 12.2568 25.6829 12.7519 22.9348C12.9245 21.9752 12.3181 20.9414 11.3537 20.7044C10.1377 20.4044 8.9507 21.4091 8.78943 22.588C8.69912 23.2509 9.04102 23.8282 9.76191 23.8637C9.97157 23.8734 10.1828 23.8847 10.3925 23.8944C11.6891 23.9589 11.6859 21.9413 10.3925 21.8784C10.1828 21.8688 9.97157 21.8575 9.76191 21.8478C10.0861 22.2736 10.4102 22.6977 10.7344 23.1235C10.7505 23.009 10.815 22.8687 10.8215 22.759C10.8554 22.7284 10.8908 22.6993 10.9247 22.6687C10.8699 22.6671 10.8231 22.6509 10.7844 22.6203C10.7844 22.5961 10.7876 22.4026 10.7973 22.4171C10.8505 22.3042 10.8166 22.2397 10.6957 22.222C10.4731 22.0655 10.4264 22.2123 10.5522 22.6622C11.2392 21.5591 9.49581 20.5463 8.8104 21.6446Z" fill="#006781"/>
<path d="M19.1448 20.477C18.9723 21.5495 19.2851 22.6671 20.3238 23.1832C21.3011 23.6686 22.5929 23.2815 23.0606 22.2816C23.5073 21.3253 23.0154 20.0673 21.9962 19.7254C20.856 19.3432 19.898 20.2141 19.4045 21.1527C18.8029 22.301 20.5415 23.3202 21.1446 22.1704C21.2091 22.0494 21.4253 21.8139 21.4365 21.7107C21.5446 21.6398 21.522 21.6059 21.3704 21.6059C21.2124 21.6107 21.1801 21.5382 21.272 21.3866C21.1914 21.2608 21.0479 21.2479 21.085 21.0124C21.2914 19.7448 19.3497 19.1981 19.1448 20.477Z" fill="#006781"/>
</svg>
