<svg width="32" height="32" viewBox="0 0 32 32" fill="none" xmlns="http://www.w3.org/2000/svg">
<path d="M31.5 16C31.5 24.5604 24.5604 31.5 16 31.5C7.43959 31.5 0.5 24.5604 0.5 16C0.5 7.43959 7.43959 0.5 16 0.5C24.5604 0.5 31.5 7.43959 31.5 16Z" fill="#FBFCFE" stroke="#006781" stroke-miterlimit="10"/>
<path d="M11.1602 13.2567C10.865 13.0825 10.5683 12.9083 10.2732 12.7358C10.1038 13.3615 9.93448 13.9873 9.76514 14.6146C10.4586 14.6372 11.1537 14.6598 11.8472 14.684C11.6101 14.1098 11.3714 13.5357 11.1344 12.9616C10.8715 13.239 10.4538 13.2019 10.2619 12.8648C9.97157 13.3696 9.68128 13.876 9.39098 14.3808C10.0248 14.4082 10.657 14.434 11.2908 14.4598C12.5874 14.513 12.5858 12.4971 11.2908 12.4439C10.657 12.4181 10.0248 12.3923 9.39098 12.3665C8.61042 12.3342 8.15724 13.2422 8.5201 13.8824C9.33776 15.3258 11.4117 15.5952 12.5584 14.3872C13.1712 13.7454 12.7245 12.6955 11.8472 12.6664C11.1537 12.6439 10.4586 12.6213 9.76514 12.5987C8.75073 12.5648 8.41366 13.9808 9.25551 14.4759C9.55064 14.6501 9.84578 14.8227 10.1409 14.9968C11.2634 15.6548 12.2794 13.9131 11.1602 13.2567Z" fill="#006781"/>
<path d="M10.9828 15.3323C11.6633 16.7837 12.3455 18.2368 13.0261 19.6883C13.4664 20.6269 14.8566 19.8092 14.4179 18.8738C13.7373 17.4224 13.0551 15.9693 12.3746 14.5178C11.9343 13.5792 10.5441 14.3969 10.9828 15.3323Z" fill="#006781"/>
<path d="M15.163 21.2656C17.7998 19.3577 20.3221 17.3063 22.7203 15.1033C23.4863 14.4001 22.3429 13.2615 21.5801 13.9631C19.2835 16.0726 16.8757 18.0449 14.3502 19.8722C13.5164 20.4753 14.3211 21.8752 15.163 21.2656Z" fill="#006781"/>
<path d="M13.1874 15.4742C16.0694 15.6807 18.911 15.5436 21.7639 15.1017C22.7864 14.9436 22.3526 13.389 21.335 13.547C18.6288 13.9663 15.9178 14.0566 13.1874 13.8615C12.152 13.7889 12.1552 15.4017 13.1874 15.4742Z" fill="#006781"/>
<path d="M21.1817 12.0021C21.143 12.0021 21.1059 12.0005 21.0672 12.0005C21.2995 12.1343 21.5317 12.2666 21.7639 12.4004C21.6672 12.6359 21.5704 12.8713 21.472 13.1068C21.2656 13.0794 21.0575 13.052 20.8511 13.0262C21.2043 13.1794 21.2978 14.7018 21.3817 15.0792C21.5446 15.8146 21.7075 16.55 21.872 17.287C22.0962 18.2998 23.6524 17.8708 23.4267 16.858C23.1686 15.6936 22.9106 14.5276 22.6509 13.3632C22.4961 12.6649 22.3123 11.7279 21.472 11.5521C20.0641 11.2586 19.6835 13.5955 21.1801 13.6148C22.2187 13.6293 22.2203 12.0166 21.1817 12.0021Z" fill="#006781"/>
<path d="M22.4074 16.6177C20.3915 17.1096 19.1094 19.2464 19.7738 21.2527C20.4399 23.2622 22.7106 24.3491 24.7088 23.7734C26.6231 23.2218 28.5229 20.9866 27.6956 18.9255C26.7683 16.6161 23.6508 16.3467 21.5656 16.7918C20.5512 17.0079 20.9801 18.5626 21.9946 18.3465C23.1251 18.1062 25.0313 18.0272 25.8732 19.0481C26.8828 20.2705 25.5265 21.8397 24.2798 22.2171C21.5511 23.0412 19.8577 18.8997 22.8364 18.1723C23.8428 17.9256 23.417 16.3709 22.4074 16.6177Z" fill="#006781"/>
<path d="M10.7618 21.7107C12.0988 21.7011 13.4357 21.6914 14.7727 21.6817C15.242 21.6785 15.7581 21.1592 15.5501 20.6608C15.3227 20.1157 15.0307 19.8158 14.4776 19.6013C13.5083 19.2271 13.089 20.7866 14.0486 21.156C14.0309 21.1334 14.0131 21.1108 13.9954 21.0882C14.255 20.7479 14.5131 20.4076 14.7727 20.0674C13.4357 20.077 12.0988 20.0867 10.7618 20.0964C9.72483 20.1044 9.72322 21.7172 10.7618 21.7107Z" fill="#006781"/>
<path d="M7.41701 17.8596C5.62848 19.1901 5.0237 21.8995 6.55258 23.6864C8.04114 25.4265 11.0666 25.4362 12.481 23.5993C13.797 21.8898 13.31 19.1078 11.4037 18.0386C9.40713 16.9177 6.85255 18.0837 6.10585 20.1497C5.75266 21.127 7.31057 21.5495 7.66054 20.5786C8.07178 19.4384 9.63937 18.8337 10.6909 19.4884C11.694 20.1126 11.9085 21.7043 11.2037 22.6171C10.4296 23.6187 8.71688 23.6219 7.85406 22.73C6.92513 21.7688 7.19123 20.0239 8.22822 19.2514C9.05556 18.6385 8.25241 17.2387 7.41701 17.8596Z" fill="#006781"/>
<path d="M11.0311 21.1656C11.0311 20.9866 11.0311 20.8076 11.0311 20.6269C11.0311 19.5899 9.4184 19.5867 9.4184 20.6269C9.4184 20.8059 9.4184 20.985 9.4184 21.1656C9.4184 22.2026 11.0311 22.2042 11.0311 21.1656Z" fill="#006781"/>
<path d="M24.4991 19.8674C24.3879 19.1529 24.275 18.4401 24.1637 17.7257C24.004 16.7032 22.4494 17.137 22.609 18.1546C22.7203 18.8691 22.8332 19.5819 22.9445 20.2964C23.1041 21.3188 24.6588 20.885 24.4991 19.8674Z" fill="#006781"/>
<path d="M22.4735 12.9503C22.9687 12.2971 23.4622 11.6456 23.9573 10.9924C24.5266 10.2409 23.3299 9.4071 22.6913 10.0151C21.872 10.7941 21.0511 11.5746 20.2318 12.3536C19.4787 13.0696 20.6205 14.2098 21.372 13.4938C22.1913 12.7148 23.0122 11.9343 23.8315 11.1553C23.4089 10.8295 22.9864 10.5038 22.5655 10.178C22.0704 10.8312 21.5769 11.4827 21.0817 12.1359C20.4544 12.9632 21.8543 13.768 22.4735 12.9503Z" fill="#006781"/>
</svg>
