<svg width="32" height="32" viewBox="0 0 32 32" fill="none" xmlns="http://www.w3.org/2000/svg">
<path d="M31.5 16C31.5 24.5604 24.5604 31.5 16 31.5C7.43959 31.5 0.5 24.5604 0.5 16C0.5 7.43959 7.43959 0.5 16 0.5C24.5604 0.5 31.5 7.43959 31.5 16Z" fill="#FBFCFE" stroke="#006781" stroke-miterlimit="10"/>
<path d="M10.6634 20.2834C9.39906 19.1238 7.41378 18.7126 6.35904 20.3753C6.00908 20.9269 5.95263 21.8655 6.35904 22.4106C6.93641 23.1831 7.85889 23.9524 8.85395 24.0766C10.1974 24.2443 11.2118 23.1234 11.6182 21.9477C12.0327 20.7527 11.7746 19.3464 10.6151 18.669C9.57324 18.0594 8.14757 18.5384 7.21218 19.1464C6.22196 19.7915 5.29625 20.7898 5.64944 22.0768C5.9478 23.1621 7.13961 23.8298 8.18305 23.9959C9.41841 24.1927 10.6538 23.5073 11.0489 22.2929C11.4585 21.0365 10.8876 20.0028 9.89901 19.2448C9.03458 18.5819 7.64117 19.1109 7.14122 19.9673C6.53322 21.0059 6.99769 22.0606 7.86373 22.7251C7.9105 22.7606 7.95727 22.7977 8.00565 22.8331C7.76535 22.5928 7.52344 22.3509 7.28314 22.1106C7.24283 21.8139 7.20251 21.5171 7.16219 21.2204C7.33475 20.9236 7.50732 20.6269 7.67988 20.3302C8.53624 19.3012 9.46035 20.4705 8.66526 19.8883C8.90556 20.1286 9.14747 20.3705 9.38777 20.6108C9.37003 20.5817 9.35068 20.5511 9.33294 20.5221C9.40067 21.0398 9.46841 21.5575 9.53614 22.0751C9.54421 22.0316 9.55227 21.9864 9.56034 21.9429C9.38777 22.2396 9.21521 22.5364 9.04265 22.8331C9.16683 22.6815 9.39906 22.4283 9.59582 22.4235C9.12006 22.2267 8.64591 22.03 8.17015 21.8332C8.21692 21.8736 8.2653 21.9139 8.31207 21.9542C8.13951 21.6574 7.96695 21.3607 7.79438 21.064C7.68794 20.7398 7.82825 20.5043 8.10242 20.3543C8.62011 20.2866 9.1378 20.2189 9.65549 20.1511C9.84256 20.2189 9.85708 20.2108 9.70226 20.1253C9.49421 19.9754 9.53937 20.0576 9.83934 20.3737C9.83934 21.0527 9.83934 21.73 9.83934 22.409C9.86514 22.3687 9.88933 22.3283 9.91514 22.2896C9.51357 22.5977 9.11199 22.9073 8.71042 23.2154C8.77009 23.2073 8.82815 23.1992 8.88782 23.1912C8.52979 23.1912 8.17338 23.1912 7.81535 23.1912C8.14757 23.2831 8.14596 23.2637 7.81051 23.1347C8.61204 23.8701 9.86837 23.9282 10.6618 23.1347C11.4085 22.388 11.4698 21.0204 10.6634 20.2834Z" fill="#006781"/>
<path d="M22.4994 18.0272C21.1688 17.1934 19.4061 17.6675 18.5965 18.9981C17.7547 20.3802 18.0675 22.409 19.7545 22.9541C20.9221 23.3315 22.759 22.8412 23.6138 21.9542C24.1879 21.3575 24.4121 20.4915 24.2056 19.6932C23.9686 18.7723 23.3138 18.3126 22.4623 17.9982C21.4414 17.6208 20.2528 18.4207 19.9819 19.4061C19.6722 20.5334 20.3657 21.5059 21.3898 21.8865C21.4495 21.9091 21.5091 21.93 21.5688 21.9526C21.2721 21.78 20.9753 21.6075 20.6786 21.4349C20.7253 21.4752 20.7705 21.5139 20.8173 21.5543C20.6447 21.2575 20.4721 20.9608 20.2996 20.664C20.3125 20.7334 20.3238 20.8011 20.3367 20.8705C20.4044 20.3528 20.4721 19.8351 20.5399 19.3174C21.1334 18.9271 21.2027 18.8223 20.7479 18.9997C20.3528 19.0722 20.3786 19.0964 20.8269 19.069C21.2285 19.3771 21.6301 19.6867 22.0317 19.9947C21.5091 20.4995 20.9866 21.0059 20.4657 21.5107C22.6687 22.8912 24.6943 19.4045 22.4994 18.0272Z" fill="#006781"/>
<path d="M11.752 20.1222C11.3892 16.708 11.5633 12.6697 12.1472 9.28941C12.3665 8.02018 10.4231 7.47507 10.2038 8.75398C9.58613 12.331 9.35389 16.5177 9.73773 20.1222C9.87158 21.3979 11.8891 21.4124 11.752 20.1222Z" fill="#006781"/>
<path d="M24.1347 19.2046C24.5556 15.3227 23.7879 11.6715 23.6879 7.79282C23.6557 6.49779 21.6381 6.49295 21.672 7.79282C21.7704 11.6505 22.5364 15.3421 22.1187 19.2046C21.9784 20.4915 23.996 20.4819 24.1347 19.2046Z" fill="#006781"/>
<path d="M11.1634 10.0361C13.3035 9.85704 15.1549 9.16195 17.2337 8.75715C19.3642 8.34268 21.5204 8.15237 23.6476 7.68468C24.9136 7.40567 24.3782 5.46232 23.1122 5.74133C21.2124 6.15903 19.3093 6.409 17.3918 6.70897C15.2646 7.04281 13.3438 7.83789 11.1634 8.02013C9.88126 8.12818 9.86836 10.1457 11.1634 10.0361Z" fill="#006781"/>
</svg>
