<?xml version="1.0" encoding="utf-8"?>
<!-- Generator: Adobe Illustrator 27.8.0, SVG Export Plug-In . SVG Version: 6.00 Build 0)  -->
<svg version="1.1" id="Layer_1" xmlns="http://www.w3.org/2000/svg" xmlns:xlink="http://www.w3.org/1999/xlink" x="0px" y="0px"
	 viewBox="0 0 78.5 78.5" style="enable-background:new 0 0 78.5 78.5;" xml:space="preserve">
<style type="text/css">
	.st0{fill:#FFFFFF;stroke:#1D1D1B;stroke-miterlimit:10;}
	.st1{fill:#FFFFFF;stroke:#1D1D1B;stroke-width:3;stroke-miterlimit:10;}
</style>
<circle class="st0" cx="39.25" cy="39.25" r="38.75"/>
<path class="st1" d="M43.47,19.84c3.9-1.55,6.48-1.14,8-0.62c11.02,3.84,12.29,30.15,5.64,34.35c-0.79,0.5-2.8,1.38-3.28,3.28
	c-0.35,1.38,0.1,3.33,1.64,4.31c1.67,1.06,3.73,0.44,4.92-0.62c1.09-0.96,1.75-2.55,1.4-3.99c-0.41-1.71-2.1-2.59-2.83-2.98
	c-7.85-4.13-33.32-0.91-33.85,4.83c-0.03,0.34-0.02,1.19-0.5,2.18c-0.78,1.62-2.62,3.12-4.85,2.99c-2.23-0.13-3.51-1.8-3.66-2
	c-1.15-1.54-1.25-3.59-0.5-5.19c1.06-2.25,3.81-3.59,6.14-2.81c2.69,0.9,3.28,4.12,3.32,4.37c0.13,0.75,0.07,1.4,0,1.84h25.36
	c2.84-10.63,5.69-21.26,8.53-31.88"/>
</svg>
