<svg width="32" height="32" viewBox="0 0 32 32" fill="none" xmlns="http://www.w3.org/2000/svg">
<path d="M10.815 14.4776C12.3262 12.0553 13.8873 9.66679 15.4984 7.30896C16.2322 6.23488 14.4872 5.2253 13.7583 6.29132C12.1472 8.64915 10.586 11.0376 9.07488 13.46C8.38463 14.5647 10.128 15.5775 10.815 14.4776Z" fill="#5A5B7D"/>
<path d="M14.7824 6.87837C16.7741 9.28619 18.7658 11.694 20.756 14.1018C21.5833 15.1017 23.0025 13.6696 22.1816 12.6762C20.1899 10.2683 18.1982 7.86053 16.208 5.4527C15.3807 4.4528 13.9615 5.88492 14.7824 6.87837Z" fill="#5A5B7D"/>
<path d="M10.3877 15.3855C14.0454 15.2403 17.695 14.9984 21.3382 14.6598C22.6187 14.5404 22.6316 12.5229 21.3382 12.6438C17.6934 12.9825 14.0438 13.2244 10.3877 13.3696C9.09426 13.4212 9.08781 15.4371 10.3877 15.3855Z" fill="#5A5B7D"/>
<path d="M19.6367 20.4383C17.7063 19.2901 14.9711 18.5498 13.2632 20.4948C12.0068 21.9253 11.952 24.2863 13.3132 25.6668C14.7066 27.0796 17.1466 27.2473 18.6868 25.9781C20.3044 24.646 20.5657 22.2333 19.5077 20.4835C18.8368 19.3755 17.0934 20.3867 17.7676 21.5011C18.3046 22.3881 18.2933 23.638 17.4756 24.3718C16.7322 25.0379 15.4194 24.9685 14.7388 24.2412C14.105 23.5638 14.2034 22.3623 14.863 21.7285C15.9097 20.7238 17.6031 21.5753 18.6191 22.1801C19.7367 22.8445 20.7527 21.1028 19.6367 20.4383Z" fill="#5A5B7D"/>
<path d="M18.0369 22.5332C17.6563 21.4898 16.5903 20.8431 15.484 21.2269C14.4647 21.5801 14.0502 22.7461 14.3808 23.7202C15.1775 26.0732 18.9852 24.7007 18.0531 22.4026C17.2612 20.4512 13.8761 20.835 14.2583 23.1686C14.4099 24.0911 15.2195 24.8604 16.1549 24.9491C16.6113 24.9926 17.1483 24.8765 17.4805 24.5346C17.9498 24.0524 17.8128 23.1073 17.845 22.4832C17.9127 21.1866 15.8968 21.1898 15.8291 22.4832C15.8065 22.9299 15.7823 23.3751 15.7597 23.8218C15.9258 23.5315 16.092 23.2412 16.2597 22.9509C16.3952 22.8751 16.1871 22.809 16.2242 22.7896C16.3129 22.7429 15.9646 23.2993 16.0242 23.1106C16.0307 23.0928 16.1565 23.1364 16.1565 23.138C16.1629 23.038 16.2452 22.9703 16.1694 22.9832C16.3871 22.9428 16.1468 23.2154 16.092 23.0686C16.5355 24.2782 18.4837 23.7557 18.0369 22.5332Z" fill="#5A5B7D"/>
<path d="M17.9595 22.93C19.2561 22.93 19.2593 20.9141 17.9595 20.9141C16.6612 20.9141 16.6596 22.93 17.9595 22.93Z" fill="#5A5B7D"/>
<path d="M14.334 8.26529C13.2922 9.79256 12.2488 11.3182 11.2069 12.8455C10.6215 13.7035 11.7537 14.7082 12.5858 14.2244C14.0599 13.3664 15.2194 12.1842 16.0371 10.6876C15.5097 10.7554 14.9824 10.8231 14.4534 10.8908C15.5839 12.1262 16.8306 13.2051 18.195 14.1728C18.4546 13.5583 18.7126 12.9439 18.9723 12.331C17.666 11.8843 16.3822 11.8391 15.034 12.1197C15.3614 12.681 15.6871 13.2422 16.0145 13.8051C16.3935 13.3148 17.4241 13.4438 17.9821 13.1841C18.5143 12.9358 19.0223 12.5003 19.169 11.902C19.5319 10.4183 17.5386 9.1023 16.658 8.22013C15.8678 7.42828 14.4324 8.46366 15.0743 9.44098C15.7516 10.4731 16.5354 11.3924 17.4676 12.2036C17.616 11.6424 17.7644 11.0811 17.9127 10.5183C16.5645 11.0408 15.1824 11.4085 13.7438 11.5682C12.4681 11.7101 12.4536 13.7276 13.7438 13.5841C15.371 13.4035 16.9209 13.0535 18.4482 12.4616C19.0949 12.2117 19.519 11.3214 18.8933 10.7763C18.0837 10.0716 17.4063 9.32002 16.8161 8.42173C16.2887 8.83136 15.7613 9.23777 15.2323 9.64418C15.65 10.0619 16.0661 10.4796 16.4838 10.8989C16.6919 11.1086 16.9015 11.3166 17.1096 11.5263C17.0209 11.3424 16.8677 11.323 16.6499 11.4698C15.8436 11.6311 15.1307 11.6811 14.5905 12.3794C13.9857 13.1616 14.5211 14.284 15.571 14.0647C16.5693 13.8567 17.4741 13.9454 18.4369 14.276C19.5851 14.6695 20.0883 13.0551 19.2142 12.4342C17.9901 11.565 16.8935 10.5731 15.8807 9.46678C15.4485 8.99425 14.6002 9.11843 14.297 9.66999C13.6373 10.8763 12.7552 11.7924 11.5682 12.4826C12.0278 12.9422 12.4875 13.4019 12.9471 13.8615C13.9889 12.3358 15.0324 10.8086 16.0742 9.28293C16.808 8.20884 15.063 7.19927 14.334 8.26529Z" fill="#5A5B7D"/>
<path d="M19.0804 13.955C20.377 13.955 20.3802 11.9391 19.0804 11.9391C17.7837 11.9391 17.7821 13.955 19.0804 13.955Z" fill="#5A5B7D"/>
<path d="M15.155 7.73306C15.0614 7.73306 14.9679 7.73306 14.8744 7.73306C13.5777 7.73306 13.5745 9.74899 14.8744 9.74899C14.9679 9.74899 15.0614 9.74899 15.155 9.74899C16.4516 9.74899 16.4532 7.73306 15.155 7.73306Z" fill="#5A5B7D"/>
</svg>
