<svg width="32" height="32" viewBox="0 0 32 32" fill="none" xmlns="http://www.w3.org/2000/svg">
<path d="M31.5 16C31.5 24.5604 24.5604 31.5 16 31.5C7.43959 31.5 0.5 24.5604 0.5 16C0.5 7.43959 7.43959 0.5 16 0.5C24.5604 0.5 31.5 7.43959 31.5 16Z" fill="#FBFCFE" stroke="#006781" stroke-miterlimit="10"/>
<path d="M11.7988 6.36553C14.9372 6.49294 18.0756 6.62035 21.2124 6.74937C22.509 6.80259 22.5074 4.78666 21.2124 4.73344C18.074 4.60603 14.9356 4.47863 11.7988 4.34961C10.5022 4.298 10.5038 6.31393 11.7988 6.36553Z" fill="#006781"/>
<path d="M21.3333 6.70574C21.6236 7.62984 21.9913 8.53459 22.4655 9.38128C22.6816 9.76672 22.9187 10.1409 23.1735 10.5005C23.3186 10.7053 23.4734 10.9053 23.6283 11.1021C23.7041 11.1988 24.025 11.7472 23.9686 11.2891C24.1347 10.9989 24.3008 10.7086 24.4685 10.4183C24.4298 10.4376 24.3895 10.457 24.3508 10.4763C24.7572 10.5295 25.1652 10.5812 25.5716 10.6344C25.549 10.607 25.5265 10.5795 25.5055 10.5521C24.6878 9.54416 23.2686 10.9779 24.0798 11.9778C24.1024 12.0052 24.125 12.0326 24.146 12.06C24.4395 12.4213 24.9943 12.4019 25.3668 12.2181C25.4055 12.1987 25.4458 12.1794 25.4845 12.16C25.7684 12.0197 26.0232 11.6117 25.9845 11.2891C25.8748 10.386 25.1168 9.81188 24.6346 9.07163C24.0427 8.16527 23.5992 7.20085 23.2767 6.1687C22.8896 4.93656 20.9431 5.46393 21.3333 6.70574Z" fill="#006781"/>
<path d="M23.8169 12.0601C23.4799 14.8211 23.3621 17.5837 23.4637 20.3641C23.8895 20.0399 24.3137 19.7158 24.7394 19.3916C24.6927 19.3803 24.6459 19.3706 24.5991 19.3593C24.8459 19.6835 25.0926 20.0077 25.3394 20.3318C25.3329 20.2851 25.3265 20.2367 25.32 20.1899C25.1523 18.9223 23.1331 18.9062 23.3041 20.1899C23.3105 20.2367 23.317 20.2851 23.3234 20.3318C23.3815 20.764 23.5944 21.1946 24.0637 21.3043C24.1105 21.3156 24.1572 21.3253 24.204 21.3366C24.8184 21.4785 25.5055 21.0447 25.4797 20.3641C25.3781 17.5837 25.4942 14.8211 25.8329 12.0601C25.9893 10.7763 23.9734 10.7876 23.8169 12.0601Z" fill="#006781"/>
<path d="M11.4102 26.5022C14.2437 26.5054 17.0789 26.5086 19.9125 26.5135C20.3302 26.5135 20.7963 26.2022 20.885 25.7732C20.8915 25.7394 20.8995 25.7055 20.906 25.6716C20.9963 25.2313 20.8463 24.7685 20.4431 24.533C20.3915 24.5024 20.3399 24.4733 20.2883 24.4427C19.1642 23.7879 18.1482 25.5297 19.2707 26.1829C19.3223 26.2135 19.3739 26.2425 19.4255 26.2732C19.2707 25.8942 19.1174 25.5136 18.9626 25.1346C18.9562 25.1684 18.9481 25.2023 18.9417 25.2362C19.2658 24.9894 19.59 24.7427 19.9141 24.4959C17.0806 24.4927 14.2454 24.4895 11.4118 24.4846C10.1135 24.4846 10.1119 26.5006 11.4102 26.5022Z" fill="#006781"/>
<path d="M5.3656 19.4319C6.84287 21.6849 8.45238 23.8395 10.1861 25.9022C10.6618 25.4265 11.136 24.9523 11.6117 24.4766C11.5214 24.3927 11.4295 24.3072 11.3392 24.2234C10.3877 23.3428 8.95878 24.7653 9.91352 25.649C10.0038 25.7329 10.0958 25.8184 10.1861 25.9022C11.1505 26.7957 12.4391 25.4604 11.6117 24.4766C9.98771 22.5461 8.49109 20.5254 7.10736 18.4143C6.39775 17.3338 4.65115 18.3417 5.3656 19.4319Z" fill="#006781"/>
<path d="M5.77523 10.7876C5.62041 13.5938 5.46558 16.4015 5.31076 19.2077C5.2398 20.5044 7.25573 20.4995 7.32669 19.2077C7.48151 16.4015 7.63633 13.5938 7.79115 10.7876C7.86373 9.49095 5.84619 9.49579 5.77523 10.7876Z" fill="#006781"/>
<path d="M11.6666 11.3359C12.1391 13.168 12.61 15.0017 13.0825 16.8338C13.1616 17.1434 13.4551 17.4853 13.7873 17.5385C14.6614 17.6772 15.5033 17.7385 16.3903 17.6804C17.6789 17.5966 17.6869 15.579 16.3903 15.6645C15.6936 15.7097 15.0146 15.7032 14.3244 15.5936C14.5598 15.829 14.7937 16.0629 15.0291 16.2983C14.555 14.4646 14.0824 12.6326 13.6099 10.8005C13.2874 9.54416 11.3424 10.0764 11.6666 11.3359Z" fill="#006781"/>
<path d="M18.0288 16.5064C18.5401 14.7985 19.1416 13.1261 19.8319 11.4827C20.3334 10.2893 18.3836 9.76676 17.8885 10.9473C17.1967 12.5907 16.5967 14.2631 16.0855 15.971C15.7129 17.216 17.6579 17.7482 18.0288 16.5064Z" fill="#006781"/>
<path d="M13.3487 11.1827C15.0275 11.315 16.7048 11.4472 18.3836 11.5795C19.6771 11.6811 19.6706 9.66514 18.3836 9.56353C16.7048 9.43129 15.0275 9.29904 13.3487 9.1668C12.0553 9.0652 12.0617 11.0811 13.3487 11.1827Z" fill="#006781"/>
<path d="M16.1177 19.2142C14.984 18.9175 13.8244 19.8077 13.8857 21.0124C13.9405 22.0929 14.9678 22.909 16.021 22.8058C17.1144 22.6993 17.9111 21.5817 17.6901 20.5076C17.4563 19.3723 16.2096 18.7239 15.134 19.1029C13.9179 19.5303 14.4421 21.4785 15.6694 21.0463C15.6694 21.0463 15.9645 20.9076 15.7323 20.8221C15.7645 20.8189 15.7984 20.814 15.8307 20.8108C16 20.7641 15.9161 20.8786 15.5823 21.1559C16.8386 21.4866 17.374 19.5432 16.1177 19.2142Z" fill="#006781"/>
<path d="M21.0834 26.1247C22.3945 24.483 23.7057 22.8412 25.0152 21.1994C25.8168 20.1947 24.3992 18.7594 23.5896 19.7738C22.2784 21.4155 20.9673 23.0573 19.6577 24.6991C18.8562 25.7022 20.2722 27.1392 21.0834 26.1247Z" fill="#006781"/>
<path d="M7.49117 11.4988C8.89748 9.76837 10.3022 8.03629 11.7085 6.30582C12.5181 5.30592 11.1005 3.87058 10.2812 4.87854C8.8749 6.60901 7.47021 8.3411 6.0639 10.0716C5.2543 11.0715 6.6719 12.5068 7.49117 11.4988Z" fill="#006781"/>
</svg>
