<svg width="32" height="32" viewBox="0 0 32 32" fill="none" xmlns="http://www.w3.org/2000/svg">
<path d="M13.139 15.5064C13.4293 14.0904 14.8114 13.2163 16.2693 13.3163C17.6579 13.4115 18.6933 14.6888 18.4998 16.0661C18.1304 18.6948 13.7986 19.127 13.2261 16.4338C12.9568 15.1661 11.0134 15.7016 11.2827 16.9692C12.3375 21.9332 20.2415 20.9317 20.5399 16.0032C20.6786 13.7115 18.9803 11.652 16.7064 11.3504C15.5113 11.1923 14.4131 11.5697 13.3406 12.0648C11.9601 12.7003 11.4956 13.5082 11.1956 14.971C10.936 16.237 12.8777 16.7789 13.139 15.5064Z" fill="#5A5B7D"/>
<path d="M16.8676 9.00551C16.766 8.30558 16.7321 7.60081 16.7305 6.89282C16.7273 5.59618 14.7114 5.59295 14.7146 6.89282C14.7162 7.78305 14.7969 8.66038 14.9243 9.54094C15.0017 10.0844 15.6855 10.3715 16.1645 10.2457C16.7434 10.0925 16.9434 9.54255 16.8676 9.00551Z" fill="#5A5B7D"/>
<path d="M22.3219 16.3274C22.9751 16.271 23.6299 16.2145 24.283 16.1581C25.5652 16.0468 25.5781 14.0309 24.283 14.1421C23.6299 14.1986 22.9751 14.255 22.3219 14.3115C21.0382 14.4228 21.0269 16.4387 22.3219 16.3274Z" fill="#5A5B7D"/>
<path d="M15.134 22.3139C15.242 23.059 15.3517 23.8057 15.4597 24.5508C15.5388 25.0943 16.2209 25.3814 16.6999 25.2556C17.2789 25.1024 17.4821 24.5524 17.4047 24.0154C17.2966 23.2703 17.187 22.5236 17.0789 21.7785C16.9999 21.235 16.3177 20.9479 15.8387 21.0737C15.2581 21.2269 15.0565 21.7785 15.134 22.3139Z" fill="#5A5B7D"/>
<path d="M8.99749 15.1485C8.22176 15.1614 7.47829 15.2888 6.75255 15.5629C5.55106 16.0177 6.07198 17.9675 7.28798 17.5063C7.85405 17.2918 8.3911 17.1741 8.99749 17.1628C10.2941 17.1418 10.2974 15.1259 8.99749 15.1485Z" fill="#5A5B7D"/>
<path d="M11.336 10.3603C10.9505 10.0845 10.6602 9.74096 10.4167 9.33777C9.74581 8.22821 8.00244 9.24101 8.67495 10.3554C9.10555 11.0666 9.64582 11.6198 10.3183 12.102C11.3747 12.8584 12.3826 11.1102 11.336 10.3603Z" fill="#5A5B7D"/>
<path d="M20.9221 11.244C21.4736 10.8117 22.0268 10.3795 22.5783 9.94893C23.5992 9.15063 22.1639 7.73303 21.1527 8.52327C20.6011 8.95548 20.048 9.3877 19.4964 9.8183C18.4755 10.6166 19.9125 12.0342 20.9221 11.244Z" fill="#5A5B7D"/>
<path d="M20.7447 20.8123C21.3059 21.3268 21.8672 21.8396 22.4284 22.3541C23.3847 23.2282 24.8136 21.8074 23.8541 20.9284C23.2928 20.414 22.7316 19.9011 22.1704 19.3867C21.214 18.5126 19.7851 19.935 20.7447 20.8123Z" fill="#5A5B7D"/>
<path d="M10.7344 19.9093C9.86834 20.4706 9.17486 21.1786 8.65233 22.0704C7.99434 23.1913 9.7361 24.2073 10.3925 23.0881C10.7408 22.4946 11.173 22.0236 11.752 21.6495C12.8374 20.9479 11.8278 19.2013 10.7344 19.9093Z" fill="#5A5B7D"/>
</svg>
