<svg width="32" height="32" viewBox="0 0 32 32" fill="none" xmlns="http://www.w3.org/2000/svg">
<path d="M12.5326 12.6471C12.4633 15.5775 12.3939 18.5094 12.3262 21.4398C12.2955 22.759 11.6972 25.1991 12.71 26.2667C15.1049 28.7939 17.2144 22.7638 17.853 21.5091C17.2725 21.5091 16.6919 21.5091 16.1129 21.5091C17.1628 23.0686 18.2836 24.5443 19.5013 25.9764C20.0431 26.6151 20.9334 26.1667 21.1866 25.5313C21.8639 23.8315 21.5285 22.2978 20.7576 20.6899C20.0254 19.1594 19.1481 17.7805 18.7336 16.1032C18.4127 14.8066 18.5497 13.2858 18.0724 12.0198C17.087 9.40712 13.9599 9.41519 13.1874 12.1036C12.8245 13.3551 14.7695 13.8889 15.1275 12.6423C15.5081 11.3182 16.5322 15.3985 16.5709 15.6097C16.758 16.6548 17.0515 17.6579 17.4499 18.6401C18.2804 20.685 20.1673 22.6703 19.24 24.9975C19.8012 24.8491 20.3625 24.7007 20.9253 24.5524C19.8206 23.2525 18.8046 21.9075 17.853 20.4931C17.4579 19.9061 16.4774 19.7754 16.1129 20.4931C15.7565 21.1946 14.805 24.0685 14.1324 24.3798C14.3453 25.0894 14.3985 24.8427 14.2905 23.6396C14.3082 22.9074 14.3244 22.1736 14.3421 21.4414C14.4115 18.511 14.4808 15.5791 14.5485 12.6487C14.5792 11.3505 12.5633 11.3505 12.5326 12.6471Z" fill="#5A5B7D"/>
<path d="M12.6068 5.98328C12.2407 6.8332 12.3262 7.71698 13.0068 8.40078C13.7196 9.11845 14.7517 9.17651 15.6984 9.06039C17.4563 8.84429 19.5384 7.91051 18.8658 5.73654C18.3143 3.95446 16.1 2.53686 14.2566 3.02552C12.5439 3.48031 11.5488 5.51075 12.4633 7.0735C13.118 8.19274 14.8614 7.17994 14.2034 6.05586C13.9438 5.61235 14.3405 5.09144 14.7904 4.97048C15.4791 4.78663 16.2435 5.34625 16.6435 5.84781C17.237 6.59129 16.7854 6.82352 16.0435 6.98318C15.7016 7.05576 15.2985 7.13962 14.9501 7.10575C14.7243 7.08479 14.3953 6.89126 14.3469 7.00092C14.855 5.82201 13.118 4.79308 12.6068 5.98328Z" fill="#5A5B7D"/>
</svg>
