<?xml version="1.0" encoding="utf-8"?>
<!-- Generator: Adobe Illustrator 27.8.1, SVG Export Plug-In . SVG Version: 6.00 Build 0)  -->
<svg version="1.1" id="Layer_1" xmlns="http://www.w3.org/2000/svg" xmlns:xlink="http://www.w3.org/1999/xlink" x="0px" y="0px"
	 viewBox="0 0 78.5 78.5" style="enable-background:new 0 0 78.5 78.5;" xml:space="preserve">
<style type="text/css">
	.st0{fill:#FFFFFF;stroke:#1D1D1B;stroke-miterlimit:10;}
	.st1{fill:#1D1D1B;}
</style>
<g>
	<ellipse class="st0" cx="39.2" cy="39.2" rx="38.7" ry="38.8"/>
	<g>
		<g>
			<g>
				<path class="st1" d="M17.9,30c0.2,9.1,1,18.2,2.3,27.2c0.4,2.8,5.1,2.1,4.9-0.7c0-0.6-0.1-1.2-0.1-1.7c-0.1-1.3-1.1-2.5-2.5-2.5
					c-1.3,0-2.6,1.1-2.5,2.5c0,0.6,0.1,1.2,0.1,1.7c1.6-0.2,3.3-0.4,4.9-0.7c-1.2-8.6-1.9-17.2-2.1-25.8
					C22.8,26.8,17.8,26.8,17.9,30L17.9,30z"/>
			</g>
		</g>
		<g>
			<g>
				<path class="st1" d="M23.7,58c5.1-0.4,10.2-0.9,15.3-1.3c2.5-0.2,4.9-0.4,7.4-0.6c2.5-0.2,5.2-0.2,7.6-1
					c1.3-0.4,2.1-1.7,1.7-3.1c-0.3-1.2-1.8-2.2-3.1-1.7c-2.1,0.7-4.5,0.7-6.7,0.9c-2.5,0.2-4.9,0.4-7.4,0.6
					c-4.9,0.4-9.9,0.8-14.8,1.3c-1.3,0.1-2.5,1.1-2.5,2.5C21.2,56.7,22.4,58.1,23.7,58L23.7,58z"/>
			</g>
		</g>
		<g>
			<g>
				<path class="st1" d="M48.3,24.3c1.6,9.4,2.7,18.9,3.1,28.4c1.3-0.7,2.5-1.4,3.8-2.2c-0.5-0.4-1-0.7-1.4-1.1
					c-1.1-0.8-2.8-0.2-3.4,0.9c-0.8,1.3-0.2,2.6,0.9,3.4c0.5,0.4,1,0.7,1.4,1.1c1.5,1.2,3.8-0.4,3.8-2.2c-0.4-10-1.5-19.9-3.2-29.7
					c-0.2-1.3-1.9-2.1-3.1-1.7C48.7,21.6,48.1,22.9,48.3,24.3L48.3,24.3z"/>
			</g>
		</g>
		<g>
			<g>
				<path class="st1" d="M19.2,27.6c9.8-1.1,19.5-2.2,29.3-3.3c1.3-0.2,2.5-1,2.5-2.5c0-1.2-1.1-2.7-2.5-2.5
					c-9.8,1.1-19.5,2.2-29.3,3.3c-1.3,0.2-2.5,1-2.5,2.5C16.7,26.3,17.9,27.7,19.2,27.6L19.2,27.6z"/>
			</g>
		</g>
		<g>
			<g>
				<path class="st1" d="M16.9,24.8c-0.2,0.9-0.3,1.8-0.3,2.7c0.1,0.9,0.2,1.8,0.5,2.7c0.1,0.3,0.2,0.6,0.4,0.9
					c0.2,0.3,0.4,0.5,0.7,0.6c0.5,0.3,1.3,0.4,1.9,0.3c0.6-0.2,1.2-0.6,1.5-1.1c0.3-0.6,0.5-1.3,0.3-1.9c-0.2-0.5-0.3-1-0.4-1.5
					c0,0.2,0.1,0.4,0.1,0.7c-0.1-0.6-0.1-1.2,0-1.9c0,0.2-0.1,0.4-0.1,0.7c0-0.2,0.1-0.4,0.1-0.6c0.2-0.6,0.1-1.3-0.3-1.9
					c-0.3-0.5-0.9-1-1.5-1.1c-0.6-0.1-1.4-0.1-1.9,0.3C17.5,23.7,17,24.2,16.9,24.8L16.9,24.8z"/>
			</g>
		</g>
		<g>
			<g>
				<path class="st1" d="M36.1,41.5c8-0.2,16.1-0.5,24.1-0.7c3.2-0.1,3.2-5.1,0-5c-8,0.2-16.1,0.5-24.1,0.7
					C32.9,36.6,32.9,41.6,36.1,41.5L36.1,41.5z"/>
			</g>
		</g>
		<g>
			<g>
				<path class="st1" d="M59.4,32.6c1.1,2.5,2.8,4.7,4.9,6.5c0-1.2,0-2.4,0-3.5c-2,1.6-3.6,3.6-4.6,5.9c-0.5,1.2-0.4,2.7,0.9,3.4
					c1.1,0.6,2.8,0.4,3.4-0.9c0.2-0.5,0.5-1,0.8-1.5c0.1-0.2,0.3-0.5,0.4-0.7c0.1-0.1,0.1-0.2,0.2-0.3c0.1-0.2,0.2-0.4,0,0
					c0.1-0.2,0.3-0.4,0.5-0.6c0.2-0.2,0.4-0.4,0.6-0.6c0.4-0.4,0.9-0.8,1.3-1.2c1-0.8,0.9-2.7,0-3.5c-0.5-0.4-0.9-0.8-1.4-1.3
					c-0.2-0.2-0.4-0.4-0.6-0.6c-0.1-0.1-0.2-0.2-0.3-0.4c-0.3-0.4,0.2,0.2,0,0c-0.7-1-1.3-2-1.9-3.2c-0.5-1.2-2.4-1.6-3.4-0.9
					C59,30,58.8,31.3,59.4,32.6L59.4,32.6z"/>
			</g>
		</g>
	</g>
</g>
</svg>
