<?xml version="1.0" encoding="utf-8"?>
<!-- Generator: Adobe Illustrator 27.8.1, SVG Export Plug-In . SVG Version: 6.00 Build 0)  -->
<svg version="1.1" id="Layer_1" xmlns="http://www.w3.org/2000/svg" xmlns:xlink="http://www.w3.org/1999/xlink" x="0px" y="0px"
	 viewBox="0 0 78.5 78.5" style="enable-background:new 0 0 78.5 78.5;" xml:space="preserve">
<style type="text/css">
	.st0{fill:#FFFFFF;stroke:#1D1D1B;stroke-miterlimit:10;}
	.st1{fill:#1D1D1B;}
</style>
<g>
	<circle class="st0" cx="39.2" cy="39.2" r="38.9"/>
	<g>
		<g>
			<path class="st1" d="M24.8,33.8c-1.8,6.1,0.4,13,5.4,16.9c5.1,4,12.6,4.2,18.1,0.7c5.6-3.6,8.1-10.6,6.5-17
				c-1.6-6.4-7.4-11.2-14-11.2C34.2,23.3,27.8,27.6,26,34c-0.9,3.1,3.9,4.4,4.8,1.3c1.1-3.7,4.6-6.3,8.5-7c1.6-0.3,3.6,0,5.1,0.6
				c2.1,1,3.9,2.8,4.9,5c1.8,4.1,0.8,9.3-2.6,12.3c-3.2,2.9-8.5,3.5-12.2,1.4c-4.4-2.4-6.3-7.9-4.9-12.6
				C30.6,32.1,25.7,30.7,24.8,33.8L24.8,33.8z"/>
		</g>
	</g>
	<g>
		<g>
			<path class="st1" d="M43.6,16.7c-3.7,14.2-7.4,28.3-11.1,42.5c-0.8,3.1,4,4.4,4.8,1.3c3.7-14.2,7.4-28.3,11.1-42.5
				C49.2,14.9,44.4,13.6,43.6,16.7L43.6,16.7z"/>
		</g>
	</g>
</g>
</svg>
