<?xml version="1.0" encoding="utf-8"?>
<!-- Generator: Adobe Illustrator 27.8.1, SVG Export Plug-In . SVG Version: 6.00 Build 0)  -->
<svg version="1.1" id="Layer_1" xmlns="http://www.w3.org/2000/svg" xmlns:xlink="http://www.w3.org/1999/xlink" x="0px" y="0px"
	 viewBox="0 0 78.5 78.5" style="enable-background:new 0 0 78.5 78.5;" xml:space="preserve">
<style type="text/css">
	.st0{fill:#FFFFFF;stroke:#000000;stroke-miterlimit:10;}
	.st1{fill:#FFFFFF;stroke:#1D1D1B;stroke-miterlimit:10;}
	.st2{stroke:#1D1D1B;stroke-linejoin:round;stroke-miterlimit:10;}
	.st3{fill:#FFFFFF;stroke:#000000;stroke-linejoin:round;stroke-miterlimit:10;}
	.st4{stroke:#000000;stroke-miterlimit:10;}
	.st5{fill:none;stroke:#000000;stroke-width:0.4;stroke-miterlimit:10;}
	.st6{fill:#FFFFFF;stroke:#000000;stroke-width:0.6;stroke-miterlimit:10;}
	.st7{fill:none;stroke:#000000;stroke-width:0.6;stroke-linecap:round;stroke-linejoin:round;stroke-miterlimit:10;}
	.st8{fill:none;stroke:#000000;stroke-miterlimit:10;}
</style>
<g>
	<circle class="st0" cx="39.2" cy="39.2" r="38.7"/>
</g>
<rect x="3.8" y="25.8" class="st0" width="70.7" height="28.5"/>
<path class="st1" d="M54.2,54.3H41.5V39.2c0-3.5,2.9-6.3,6.3-6.3h0c3.5,0,6.3,2.9,6.3,6.3V54.3z"/>
<path class="st1" d="M71.2,49.5H58.5v-12c0-3.5,2.9-6.3,6.3-6.3h0c3.5,0,6.3,2.9,6.3,6.3V49.5z"/>
<path class="st1" d="M37.1,49.5H24.5v-12c0-3.5,2.9-6.3,6.3-6.3h0c3.5,0,6.3,2.9,6.3,6.3V49.5z"/>
<path class="st1" d="M20.2,49.5H7.5v-12c0-3.5,2.9-6.3,6.3-6.3h0c3.5,0,6.3,2.9,6.3,6.3V49.5z"/>
<path class="st2" d="M76,28.8H2.4v0c0-2.2,1.8-3.9,3.9-3.9h65.7C74.3,24.8,76,26.6,76,28.8L76,28.8z"/>
<rect x="3.9" y="23.4" class="st3" width="70.7" height="2.5"/>
<path class="st4" d="M20.9,37h-14v0c0-3.4,2.8-6.2,6.2-6.2h1.7C18.1,30.8,20.9,33.6,20.9,37L20.9,37z"/>
<path class="st4" d="M37.8,37h-14v0c0-3.4,2.8-6.2,6.2-6.2h1.7C35,30.8,37.8,33.6,37.8,37L37.8,37z"/>
<path class="st4" d="M71.9,37h-14v0c0-3.4,2.8-6.2,6.2-6.2h1.7C69.1,30.8,71.9,33.6,71.9,37L71.9,37z"/>
<line class="st5" x1="10.3" y1="36.1" x2="10.3" y2="49.5"/>
<line class="st5" x1="17" y1="36.1" x2="17" y2="49.5"/>
<line class="st5" x1="7.2" y1="40.7" x2="20.5" y2="40.7"/>
<line class="st5" x1="7.2" y1="45.8" x2="20.5" y2="45.8"/>
<line class="st5" x1="27.2" y1="36.1" x2="27.2" y2="49.5"/>
<line class="st5" x1="34" y1="36.1" x2="34" y2="49.5"/>
<line class="st5" x1="24.1" y1="40.7" x2="37.5" y2="40.7"/>
<line class="st5" x1="24.1" y1="45.8" x2="37.5" y2="45.8"/>
<line class="st5" x1="61.3" y1="36.1" x2="61.3" y2="49.5"/>
<line class="st5" x1="68" y1="36.1" x2="68" y2="49.5"/>
<line class="st5" x1="58.2" y1="40.7" x2="71.5" y2="40.7"/>
<line class="st5" x1="58.2" y1="45.8" x2="71.5" y2="45.8"/>
<circle class="st0" cx="43.4" cy="45.2" r="0.4"/>
<path class="st6" d="M52.5,41.5h-9.3v-2.4c0-2.6,2.1-4.7,4.7-4.7h0c2.6,0,4.7,2.1,4.7,4.7V41.5z"/>
<line class="st5" x1="45.7" y1="35.2" x2="45.7" y2="41.5"/>
<line class="st5" x1="49.9" y1="35" x2="49.9" y2="41.5"/>
<line class="st5" x1="43.7" y1="37.4" x2="51.9" y2="37.4"/>
<line class="st5" x1="43" y1="39.6" x2="52.6" y2="39.6"/>
<path class="st7" d="M35,22.8L35,22.8c-0.6,0-1.1-0.5-1.1-1.1V9h2.3v12.6C36.1,22.3,35.6,22.8,35,22.8z"/>
<path class="st7" d="M37.2,22.8L37.2,22.8c-0.6,0-1.1-0.5-1.1-1.1V9h2.3v12.6C38.4,22.3,37.9,22.8,37.2,22.8z"/>
<path class="st7" d="M39.5,22.8L39.5,22.8c-0.6,0-1.1-0.5-1.1-1.1V9h2.3v12.6C40.6,22.3,40.1,22.8,39.5,22.8z"/>
<path class="st7" d="M41.8,22.8L41.8,22.8c-0.6,0-1.1-0.5-1.1-1.1V9h2.3v12.6C42.9,22.3,42.4,22.8,41.8,22.8z"/>
<path class="st7" d="M44.1,22.8L44.1,22.8c-0.6,0-1.1-0.5-1.1-1.1V9h2.3v12.6C45.2,22.3,44.7,22.8,44.1,22.8z"/>
<path class="st7" d="M46.3,22.8L46.3,22.8c-0.6,0-1.1-0.5-1.1-1.1V9h2.3v12.6C47.5,22.3,47,22.8,46.3,22.8z"/>
<path class="st7" d="M48.6,22.8L48.6,22.8c-0.6,0-1.1-0.5-1.1-1.1V9h2.3v12.6C49.7,22.3,49.2,22.8,48.6,22.8z"/>
<path class="st7" d="M50.9,22.8L50.9,22.8c-0.6,0-1.1-0.5-1.1-1.1V9H52v12.6C52,22.3,51.5,22.8,50.9,22.8z"/>
<path class="st7" d="M53.2,22.8L53.2,22.8c-0.6,0-1.1-0.5-1.1-1.1V9h2.3v12.6C54.3,22.3,53.8,22.8,53.2,22.8z"/>
<path class="st7" d="M55.4,22.8L55.4,22.8c-0.6,0-1.1-0.5-1.1-1.1V9h2.3v12.6C56.6,22.3,56.1,22.8,55.4,22.8z"/>
<path class="st7" d="M57.7,22.8L57.7,22.8c-0.6,0-1.1-0.5-1.1-1.1V9h2.3v12.6C58.9,22.3,58.3,22.8,57.7,22.8z"/>
<path class="st7" d="M60,22.8L60,22.8c-0.6,0-1.1-0.5-1.1-1.1V9h2.3v12.6C61.1,22.3,60.6,22.8,60,22.8z"/>
<path class="st7" d="M62.3,22.8L62.3,22.8c-0.6,0-1.1-0.5-1.1-1.1V9h2.3v12.6C63.4,22.3,62.9,22.8,62.3,22.8z"/>
<path class="st7" d="M64.5,22.8L64.5,22.8c-0.6,0-1.1-0.5-1.1-1.1V9l0,0c0.7,0.8,2.3,1,2.3,2.3v10.4C65.7,22.3,65.2,22.8,64.5,22.8z
	"/>
<path class="st7" d="M67.9,21.6c0,0.6-0.5,1.1-1.1,1.1l0,0c-0.6,0-1.1-0.5-1.1-1.1"/>
<path class="st7" d="M70.2,21.6c0,0.6-0.5,1.1-1.1,1.1l0,0c-0.6,0-1.1-0.5-1.1-1.1v-8.3"/>
<path class="st7" d="M72.5,21.6c0,0.6-0.5,1.1-1.1,1.1h0c-0.6,0-1.1-0.5-1.1-1.1v-5.3"/>
<path class="st7" d="M73.6,22.8L73.6,22.8c-0.6,0-1.1-0.5-1.1-1.1V20"/>
<path class="st7" d="M16.8,22.8L16.8,22.8c-0.6,0-1.1-0.5-1.1-1.1V9h2.3v12.6C17.9,22.3,17.4,22.8,16.8,22.8z"/>
<path class="st7" d="M19.1,22.8L19.1,22.8c-0.6,0-1.1-0.5-1.1-1.1V9h2.3v12.6C20.2,22.3,19.7,22.8,19.1,22.8z"/>
<path class="st7" d="M21.3,22.8L21.3,22.8c-0.6,0-1.1-0.5-1.1-1.1V9h2.3v12.6C22.5,22.3,21.9,22.8,21.3,22.8z"/>
<path class="st7" d="M23.6,22.8L23.6,22.8c-0.6,0-1.1-0.5-1.1-1.1V9h2.3v12.6C24.8,22.3,24.2,22.8,23.6,22.8z"/>
<path class="st7" d="M25.9,22.8L25.9,22.8c-0.6,0-1.1-0.5-1.1-1.1V9H27v12.6C27,22.3,26.5,22.8,25.9,22.8z"/>
<path class="st7" d="M28.2,22.8L28.2,22.8c-0.6,0-1.1-0.5-1.1-1.1V9h2.3v12.6C29.3,22.3,28.8,22.8,28.2,22.8z"/>
<path class="st7" d="M30.4,22.8L30.4,22.8c-0.6,0-1.1-0.5-1.1-1.1V9h2.3v12.6C31.6,22.3,31.1,22.8,30.4,22.8z"/>
<path class="st7" d="M32.7,22.8L32.7,22.8c-0.6,0-1.1-0.5-1.1-1.1V9h2.3v12.6C33.8,22.3,33.3,22.8,32.7,22.8z"/>
<path class="st7" d="M14.5,23L14.5,23c0.6,0,1.1-0.5,1.1-1.1V9.2V9c-0.8,0.3-2.3,0.6-2.3,1.8v11C13.4,22.5,13.9,23,14.5,23z"/>
<path class="st7" d="M11.1,21.9c0,0.6,0.5,1.1,1.1,1.1h0c0.6,0,1.1-0.5,1.1-1.1"/>
<path class="st7" d="M8.8,21.9c0,0.6,0.5,1.1,1.1,1.1h0c0.6,0,1.1-0.5,1.1-1.1v-9.1"/>
<path class="st7" d="M6.6,21.9c0,0.6,0.5,1.1,1.1,1.1h0c0.6,0,1.1-0.5,1.1-1.1v-6.3"/>
<path class="st7" d="M5.4,23.1L5.4,23.1c0.6,0,1.1-0.5,1.1-1.1v-3"/>
<line class="st8" x1="5.4" y1="58" x2="73.1" y2="57.6"/>
<line class="st8" x1="11.1" y1="66.4" x2="67" y2="66.1"/>
</svg>
