<?xml version="1.0" encoding="utf-8"?>
<!-- Generator: Adobe Illustrator 27.8.1, SVG Export Plug-In . SVG Version: 6.00 Build 0)  -->
<svg version="1.1" id="Layer_1" xmlns="http://www.w3.org/2000/svg" xmlns:xlink="http://www.w3.org/1999/xlink" x="0px" y="0px"
	 viewBox="0 0 78.5 78.5" style="enable-background:new 0 0 78.5 78.5;" xml:space="preserve">
<style type="text/css">
	.st0{fill:#FFFFFF;stroke:#1D1D1B;stroke-miterlimit:10;}
	.st1{fill:none;stroke:#1D1D1B;stroke-miterlimit:10;}
	.st2{fill:#1D1D1B;}
</style>
<g>
	<ellipse class="st0" cx="39.2" cy="39.3" rx="38.8" ry="38.8"/>
	<g>
		<path class="st1" d="M37.6,20.7c-0.3,8.2-0.9,16.3-1.7,24.4"/>
		<path class="st1" d="M35,48.9c-0.5,0.3-0.7,1.1-0.3,1.5c0.2,0.6,1.2,0.5,1.5,0c0.2-0.6-0.3-1.3-1-1.2c-0.6,0-1.1,0.7-1,1.4
			c0.4,0.1,0.9,0,1.3-0.2"/>
	</g>
	<g>
		<g>
			<path class="st2" d="M34.6,6.9c-5.1,11-10.3,22-15.4,33c-1.3,2.8-2.6,5.5-3.9,8.3c-1.2,2.7-2.7,5.4-3.6,8.3
				c-0.9,2.8,0.3,5.7,3.3,6.4c1.3,0.3,2.8,0.3,4.2,0.4c1.6,0.1,3.1,0.2,4.7,0.3c6,0.4,12,0.6,18,0.7c3,0,5.9,0.1,8.9,0
				c2.8,0,5.6,0.1,8.4-0.2c2.4-0.3,4.8-1.1,6-3.3c1.4-2.7,0.1-5.5-1.5-7.7c-3.2-4.3-6.1-8.8-8.8-13.4C49,29.1,44.4,18,41.3,6.4
				c-0.8-3.1-5.7-1.8-4.8,1.3c2.6,9.6,6.1,19,10.6,27.8c2.2,4.4,4.7,8.6,7.3,12.8c1.4,2.1,2.8,4.1,4.2,6.2c0.7,0.9,1.5,1.8,2,2.9
				c0.2,0.4,0.3,0.7,0.3,1.1c0-0.2,0.2-0.3-0.1,0.1c0.1-0.1,0.3-0.2-0.2,0.1c-1.4,0.9-4,0.6-5.6,0.6c-2.7,0.1-5.4,0.1-8.1,0.1
				c-5.6,0-11.2-0.2-16.8-0.4c-2.8-0.1-5.6-0.3-8.4-0.5c-1.3-0.1-2.6-0.2-3.9-0.3c-0.4,0-0.9-0.2-1.3-0.1c0,0-0.4-0.1-0.3-0.1
				c-0.1,0.1,0.3,0.3,0.4,0.3c0.1-0.1,0.4-1.2,0.5-1.4c0.2-0.6,0.5-1.1,0.7-1.7c0.6-1.3,1.2-2.7,1.8-4c1.1-2.5,2.3-4.9,3.4-7.4
				c5.4-11.5,10.7-22.9,16.1-34.4C39.5,8.2,39.3,6.7,38,6C36.9,5.4,35.2,5.7,34.6,6.9L34.6,6.9z"/>
		</g>
	</g>
</g>
</svg>
