<?xml version="1.0" encoding="utf-8"?>
<!-- Generator: Adobe Illustrator 27.8.1, SVG Export Plug-In . SVG Version: 6.00 Build 0)  -->
<svg version="1.1" id="Layer_1" xmlns="http://www.w3.org/2000/svg" xmlns:xlink="http://www.w3.org/1999/xlink" x="0px" y="0px"
	 viewBox="0 0 78.5 78.5" style="enable-background:new 0 0 78.5 78.5;" xml:space="preserve">
<style type="text/css">
	.st0{fill:#FFFFFF;stroke:#1D1D1B;stroke-miterlimit:10;}
	.st1{fill:#1D1D1B;}
</style>
<g>
	<ellipse class="st0" cx="39.2" cy="39.2" rx="38.8" ry="38.7"/>
	<g>
		<g>
			<g>
				<path class="st1" d="M18.1,36.5c2.2,2.5,4.4,5.1,6.6,7.6c0.7,0.8,2.2,1,3,0.4c0.9-0.6,1.5-1.8,1.1-2.8c-0.2-0.6-0.4-1.2-0.6-1.8
					c-0.2-0.6-0.6-1.2-1.1-1.5c-0.5-0.3-1.3-0.4-1.9-0.3c-1.2,0.4-2.2,1.8-1.7,3.1c0.2,0.6,0.4,1.2,0.6,1.8c1.4-0.8,2.8-1.6,4.2-2.4
					C26,38,23.8,35.5,21.6,33c-0.9-1-2.7-0.9-3.5,0C17.1,34,17.1,35.4,18.1,36.5L18.1,36.5z"/>
			</g>
		</g>
		<g>
			<g>
				<path class="st1" d="M19.9,34.6c4,0.2,7.9-0.2,11.8-1.2c1.3-0.3,2.2-1.8,1.7-3.1c-0.4-1.3-1.7-2.1-3.1-1.7
					c-0.9,0.2-1.8,0.4-2.7,0.6c-0.2,0-0.4,0.1-0.6,0.1c-0.1,0-0.8,0.1-0.5,0.1c0.3,0-0.4,0-0.5,0.1c-0.2,0-0.4,0-0.6,0.1
					c-1.8,0.2-3.7,0.2-5.5,0.1c-1.3-0.1-2.6,1.2-2.5,2.5C17.5,33.5,18.5,34.5,19.9,34.6L19.9,34.6z"/>
			</g>
		</g>
		<g>
			<g>
				<path class="st1" d="M34.5,31.2c1.7-2.5,3.3-4.9,5-7.4c-1.3,0.2-2.6,0.3-3.9,0.5c2.7,2.5,5.4,5.1,8.1,7.6c1,0.9,2.6,1,3.5,0
					c0.9-1,1-2.6,0-3.5c-2.7-2.5-5.4-5.1-8.1-7.6c-1.2-1.2-3-0.9-3.9,0.5c-1.7,2.5-3.3,4.9-5,7.4c-0.7,1.1-0.2,2.8,0.9,3.4
					C32.3,32.7,33.7,32.3,34.5,31.2L34.5,31.2z"/>
			</g>
		</g>
		<g>
			<g>
				<path class="st1" d="M46.6,32.6c2.4,0.3,4.8,0.5,7.2,0.8c0.6,0.1,1.4-0.3,1.8-0.7c0.4-0.4,0.8-1.1,0.7-1.8
					c0-0.6-0.2-1.3-0.7-1.8c-0.5-0.5-1.1-0.7-1.8-0.7c-2.4-0.3-4.8-0.5-7.2-0.8c-0.6-0.1-1.4,0.3-1.8,0.7c-0.4,0.4-0.8,1.1-0.7,1.8
					c0,0.6,0.2,1.3,0.7,1.8C45.4,32.3,45.9,32.5,46.6,32.6L46.6,32.6z"/>
			</g>
		</g>
		<g>
			<g>
				<path class="st1" d="M53,30.5c-1.4,1.5-2.6,3.2-3.6,5c-0.5,0.9-1,1.9-1.4,2.9c-0.2,0.4-0.4,0.9-0.5,1.4c0,0.1-0.2,0.4,0,0
					c0.2-0.4,0-0.1,0,0c0.2-0.2,0.4-0.4,0.7-0.7c1.1,0.7,2.2,1.3,3.3,2c0.1,0.6-0.5,1.6-1.1,1.8c-0.4,0.1-0.8,0.2-1.3,0.3
					c0,0,0,0,0,0c-0.4-0.1-0.8-0.2-1.3-0.3c-0.1-0.1-0.3-0.2-0.4-0.3c0.9,0.9,2.6,1,3.5,0c0.9-1,1-2.6,0-3.5c-1.2-1.2-3.4-1-4.2,0.6
					c-0.7,1.3-0.4,3,1,3.8c1.4,0.9,3.2,0.2,4-1.1c0.4-0.6,0.6-1.4,0.9-2.2c0-0.1,0.1-0.2,0.1-0.3c0,0.1-0.1,0.2-0.1,0.3
					c0.1-0.2,0.2-0.4,0.2-0.6c0.1-0.3,0.3-0.6,0.4-0.8c0.3-0.6,0.7-1.3,1.1-1.9c0.4-0.6,0.8-1.1,1.1-1.6c-0.4,0.6-0.1,0.1,0,0
					c0.1-0.1,0.2-0.3,0.3-0.4c0.2-0.3,0.5-0.5,0.7-0.8c0.9-1,1-2.6,0-3.5C55.6,29.6,53.9,29.4,53,30.5L53,30.5z"/>
			</g>
		</g>
		<g>
			<g>
				<path class="st1" d="M25.4,41.8c-0.3,3.5-0.5,6.9-0.8,10.4c-0.1,1.3,1.2,2.6,2.5,2.5c1.4-0.1,2.4-1.1,2.5-2.5
					c0.3-3.5,0.5-6.9,0.8-10.4c0.1-1.3-1.2-2.6-2.5-2.5C26.5,39.4,25.5,40.4,25.4,41.8L25.4,41.8z"/>
			</g>
		</g>
		<g>
			<g>
				<path class="st1" d="M29.1,55.2c4.1-2.4,7.8-5.4,11-8.8c0.9-1,1-2.6,0-3.5c-1-0.9-2.6-1-3.5,0c-1.5,1.6-3.1,3.1-4.9,4.5
					c-0.2,0.1-0.4,0.4-0.6,0.5c0.2-0.2,0.3-0.2,0.1-0.1c0,0-0.1,0.1-0.1,0.1c-0.1,0.1-0.2,0.1-0.3,0.2c-0.4,0.3-0.9,0.7-1.4,1
					c-0.9,0.7-1.9,1.3-2.9,1.8c-1.1,0.7-1.6,2.3-0.9,3.4C26.4,55.4,27.9,55.9,29.1,55.2L29.1,55.2z"/>
			</g>
		</g>
		<g>
			<g>
				<path class="st1" d="M37.7,46.2c3.1,3.1,6.8,5.5,10.9,7.2c0.6,0.2,1.4,0,1.9-0.3c0.5-0.3,1-0.9,1.1-1.5c0.1-0.6,0.1-1.4-0.3-1.9
					c-0.4-0.6-0.9-0.9-1.5-1.1c0.1,0.1,0.4,0.2,0.1,0.1c-0.1-0.1-0.3-0.1-0.4-0.2c-0.2-0.1-0.4-0.2-0.6-0.3
					c-0.4-0.2-0.8-0.4-1.3-0.6c-0.9-0.5-1.7-1-2.5-1.5c-0.4-0.3-0.8-0.5-1.2-0.8c-0.1-0.1-0.2-0.1-0.3-0.2c-0.3-0.2,0,0,0.1,0.1
					c-0.2-0.2-0.4-0.3-0.6-0.5c-0.8-0.6-1.5-1.3-2.2-2c-0.9-0.9-2.6-1-3.5,0C36.7,43.7,36.7,45.2,37.7,46.2L37.7,46.2z"/>
			</g>
		</g>
		<g>
			<g>
				<path class="st1" d="M47.3,39.9c0.3,3.7,0.5,7.4,0.8,11.1c0.1,1.3,1.1,2.6,2.5,2.5c1.3-0.1,2.6-1.1,2.5-2.5
					c-0.3-3.7-0.5-7.4-0.8-11.1c-0.1-1.3-1.1-2.6-2.5-2.5C48.5,37.4,47.1,38.5,47.3,39.9L47.3,39.9z"/>
			</g>
		</g>
		<g>
			<g>
				<path class="st1" d="M44.7,43.8c0.3,0.9,0.5,1.8,0.8,2.7c1.5-0.6,3-1.3,4.6-1.9c-0.2-0.5-0.5-1-0.7-1.5
					c-0.7-1.6-2.8-1.5-3.9-0.5c-1,0.9-1.6,2.2-1.6,3.6c1.6-0.2,3.3-0.4,4.9-0.7c-1-2.4-4-4-6.3-2.3c1.2,0.5,2.4,1,3.7,1.5
					c-0.3-2.1-2.4-3.7-4.6-3.6c-2,0.1-3.5,2.8-1.8,4.3c1.7,1.5,4.2,1,5.2-1.1c1-2.1-0.5-4-2.3-5c-0.6,1.5-1.3,3-1.9,4.6
					c0.8,0.3,1.6,0.7,2.4,1c1.6,0.6,3.1-1,3.2-2.4c0-1.4,0.1-2.9,0.1-4.3c-1.4,0.6-2.8,1.2-4.3,1.8c3.1,3,8.7-1.2,6.2-5
					c-0.6-0.8-1.5-1.3-2.5-1.2c-0.9,0.1-1.9,0.8-2.1,1.8c-0.2,1.3,0.1,2.6,1.3,3.3c1,0.6,2.1,0.7,3.2,0.3c2.7-1,2.4-4.2,1.1-6.2
					c-0.6-0.9-1.7-1.4-2.8-1.1c-1,0.3-2,1.3-1.8,2.4c0.2,1.5,1,2.7,2.7,2.9c1.6,0.2,2.8-0.7,3.3-2.2c0.5-1.3-0.5-2.7-1.7-3.1
					c-1.1-0.3-2.2-0.7-3.3-1c-0.8-0.2-1.9,0-2.4,0.6c-1.4,1.6-1.6,3.5-0.7,5.4c0.5,1.1,2.1,1.5,3.1,1c1.2-0.5,1.6-1.7,1.4-2.9
					c-0.5-2.9-4.5-3.8-6.3-1.6c-1.9,2.5,0.5,7.3,3.8,5.4c2.2-1.2,2.7-4.2,1.4-6.3c-1.4-2.4-4.1-2.9-6.7-3c-0.8-0.1-1.8,0.5-2.2,1.2
					c-1,2.2-0.5,4.5,1.6,5.8c1.6,1,3.7-0.3,3.8-2.2c0-2.3-1.6-4.6-3.9-4.9c-1.6-0.3-3.1,0.6-3.2,2.4c0,2.9,3.6,3.8,5.4,1.9
					c1-1,1-2.6,0.4-3.8c-0.3-0.6-0.8-1-1.3-1.4c-0.2-0.1-0.4-0.4-0.7-0.5c-0.3-0.1,0-0.2,0.1,0.2c-1.2,0.9-2.4,1.9-3.7,2.8
					c1.8,0.9,4.1,0.4,4.9-1.6c0.8-1.9-0.4-4-2.4-4.5c-1.4-0.3-2.6,0.4-3.1,1.7c-1.4,4.1-6.1,6.5-10.1,5.6c-2.8-0.6-4.2,3-1.9,4.6
					c2.9,2,5.7,4,8.6,6c1.9,1.3,4.2-0.8,3.7-2.8c-0.5-2-1-4.1-1.5-6.1c-0.8,1.1-1.6,2.1-2.4,3.2c-0.6-0.3-0.8-0.3-0.4,0
					c0,0.1,0.1,0.2,0.2,0.3c0.3,0.5,0.6,0.9,1,1.3c0.9,0.9,2,1.3,3.2,1.2c2.3-0.2,4.1-3,2.7-5.1c-1.3,1-2.6,2-3.9,3
					c0.7,0.7,1.3,1.4,2,2.1c1.1,1.1,3.2,0.9,3.9-0.5c0.4-0.8,0.8-1.6,1.2-2.3c-1.5-0.2-3-0.4-4.6-0.6c0.2,0.9-0.1,1.8-0.5,2.6
					c1.4,0,2.9,0,4.3,0c0.1,0.1-0.5,1.1,0,0.4c1.5-2.1-1.4-4.7-3.4-3.4c-2.4,1.5-4.4,3.5-5.9,5.9c-1.6,2.5,1.9,4.9,3.9,3
					c0.5-0.5,1-0.9,1.6-1.4c-1.3-1-2.6-2-3.9-3c-0.7,1.1-1.2,2.4-1.4,3.7c1.4-0.4,2.8-0.7,4.2-1.1c-0.1,1.3,0,1.7,0.3,1.1
					c-1.4-0.8-2.9-1.7-4.3-2.5c-0.9,1.3-1.8,2.6-2.7,4c1.6,0.4,3.1,0.8,4.7,1.3c0-0.2,0.2-0.4,0.3-0.5c-1.4-0.8-2.9-1.7-4.3-2.5
					c-0.5,1.1-1,2.2-1.5,3.3c1.5,0.2,3,0.4,4.6,0.6c0-0.1-0.2-0.5,0-0.6c-1.2-0.9-2.4-1.9-3.7-2.8c-0.2,0.7-0.3,1.4-0.5,2.2
					c-0.2,1.1,0.2,2.2,1.1,2.8c0.9,0.5,2.3,0.5,3-0.4c0.9-1.1,1.8-2.2,2.7-3.3c-1.4-0.4-2.8-0.7-4.2-1.1c0-0.2,0.1-0.5,0.3-0.5
					c0.8,1.4,1.6,2.8,2.4,4.2c1-1,2-2,3.1-3c-1.3-1-2.6-2-3.9-3c-0.3,0.6-0.6,1.3-0.9,1.9c-1.4,2.9,2.5,5.2,4.3,2.5
					c0.7-1.1,1.5-2.2,2.2-3.3c1.3-2-0.9-4-2.8-3.7c-1.4,0.3-2.9,0.5-4.3,0.8c-1.3,0.2-2.1,1.9-1.7,3.1c0.4,1.4,1.7,2,3.1,1.7
					c1.4-0.3,2.9-0.5,4.3-0.8c-0.9-1.2-1.9-2.4-2.8-3.7c-0.7,1.1-1.5,2.2-2.2,3.3c1.4,0.8,2.9,1.7,4.3,2.5c0.3-0.6,0.6-1.3,0.9-1.9
					c1.2-2.5-1.8-5.1-3.9-3c-1,1-2,2-3.1,3c-1.8,1.7,0,4.9,2.4,4.2c2.5-0.8,3.8-3.1,3.2-5.6c-0.4-1.7-3-2.6-4.2-1.1
					c-0.9,1.1-1.8,2.2-2.7,3.3c1.4,0.8,2.8,1.6,4.2,2.4c0.2-0.7,0.3-1.4,0.5-2.2c0.4-1.9-1.8-4.2-3.7-2.8c-2,1.5-3,3.8-2.3,6.3
					c0.6,1.8,3.6,2.7,4.6,0.6c0.5-1.1,1-2.2,1.5-3.3c1.3-2.9-2.4-5.2-4.3-2.5c-0.7,0.9-0.9,1.9-1,3c-0.1,1.1,0.8,2.1,1.8,2.4
					c1.1,0.3,2.2-0.2,2.8-1.1c0.9-1.3,1.8-2.6,2.7-4c0.8-1.1,0.2-2.8-0.9-3.4c-1.3-0.7-2.6-0.2-3.4,0.9c-1.2,1.6-0.7,3.6,0.4,5
					c1.1,1.4,3.9,0.7,4.2-1.1c0.1-0.9,0.4-1.7,0.9-2.5c1.5-2.5-1.9-4.9-3.9-3c-0.5,0.5-1,0.9-1.6,1.4c1.3,1,2.6,2,3.9,3
					c1.1-1.7,2.4-3.1,4.1-4.1c-1.1-1.1-2.3-2.3-3.4-3.4c-1,1.4-1,3.3,0,4.7c1,1.5,3.4,1.7,4.3,0c1.2-2,1.4-4.2,1-6.5
					c-0.4-2.1-3.6-2.4-4.6-0.6c-0.4,0.8-0.8,1.6-1.2,2.3c1.3-0.2,2.6-0.3,3.9-0.5c-0.7-0.7-1.3-1.4-2-2.1c-1.9-2-5.6,0.7-3.9,3
					c0-0.1,0-0.1-0.1-0.2c0-0.4,0-0.9,0-1.3c0.4-0.8,1.1-1.1,2.1-0.7c-0.1-0.1-0.2-0.2-0.2-0.3c-0.2-0.5-0.6-1-1-1.4
					c-0.9-0.9-1.9-1.4-3.2-1.5c-1.7-0.1-2.8,1.7-2.4,3.2c0.5,2,1,4.1,1.5,6.1c1.2-0.9,2.4-1.9,3.7-2.8c-2.9-2-5.7-4-8.6-6
					c-0.6,1.5-1.3,3-1.9,4.6c6.8,1.6,14-2.5,16.2-9.1c-1,0.6-2.1,1.2-3.1,1.7c-0.3-0.3-0.6-0.6-0.9-0.8c0-0.4,0-0.9,0-1.3
					c0.4-0.4,0.9-0.7,1.3-1.1c0.4,0.1,0.8,0.2,1.3,0.3c-0.1,0-0.2-0.1-0.2-0.1c-2-0.9-4.2,0.6-3.7,2.8c0.2,0.8,0.6,1.5,1.2,2
					c0.3,0.2,0.6,0.5,0.9,0.7c0.8,0.4-0.4,0.3,0.1-0.9c0.2-0.4,0.4-0.7,0.6-1.1c0.7-0.1,1.3-0.2,2-0.2c0.3,0.3,0.6,0.6,0.9,0.9
					c0,0-0.1-0.1-0.1-0.1c0.1,0.4,0.2,0.8,0.3,1.3c0-0.1,0-0.1,0-0.2c-1.1,0.8-2.1,1.6-3.2,2.4c0.7,0.1,0.3,0,0.3,0.1
					c1.3-0.7,2.5-1.4,3.8-2.2c0.4,0.2,0.4,0.7,0.2,1c-0.7,0.4-1.4,0.8-2.2,1.2c0.8,0.1,1.5,0.1,2.2,0.4c-0.2-0.1,0.3,0.2,0.1,0.3
					c0,0,0-0.3,0-0.3c0.1-0.1,0.8-0.6,0.2-0.3c0.8,0,1.7,0,2.5,0c0.9,0.7,0.6,1.2-0.7,1.5c-0.6,0.9-1.2,1-1.5,0.3
					c1.5-0.6,3-1.3,4.6-1.9c0.1,0.3,0.2,0.4,0,0.6c-0.8,0.2-1.6,0.4-2.4,0.6c1.1,0.3,2.2,0.7,3.3,1c-0.6-1-1.2-2.1-1.7-3.1
					c0,0.1,0,0.1-0.1,0.2c0.2-0.4,0.4-0.7,0.6-1.1c0,0-0.1,0.1-0.1,0.1c0.4-0.2,0.7-0.4,1.1-0.6c0.4,0.1,0.8,0.1,1.2,0.2
					c0.3,0.3,0.6,0.6,0.9,0.9c0,0-0.1-0.1-0.1-0.1c0.1,0.4,0.2,0.8,0.3,1.3c0-0.1,0-0.1,0-0.2c-1.6,0.4-3.1,0.8-4.7,1.3
					c0.1,0.1,0.3,0.6,0.4,0.7c0.6,0.4,1.3-2.2,2.1-1.6c0.3,0.3,0.6,0.6,0.9,0.9c0,0.1,0.1,0.2,0.1,0.3c0,0.4,0,0.9,0,1.3
					c0-0.1,0-0.1,0-0.2c-1.5,0.2-3,0.4-4.6,0.6c-0.8-1.2,0.8-1.9,1.6-1.1c-1.6-1.5-4.2-0.4-4.3,1.8c0,1.4-0.1,2.9-0.1,4.3
					c1.1-0.8,2.1-1.6,3.2-2.4c-0.8-0.3-1.6-0.7-2.4-1c-1.1-0.5-2.5,0.4-2.9,1.4c-0.5,1.1-0.1,2.5,1,3.1c0.1,0.1,0.2,0.1,0.3,0.2
					c0.8,0.2,1.1-0.6,0.8-2.4c0.4,0,0.9,0,1.3,0c-0.1,0-0.1,0-0.2,0c0.4,0.2,0.7,0.4,1.1,0.6c-0.1,0-0.1-0.1-0.2-0.1
					c-0.6,1.4-1.2,2.8-1.8,4.3c-0.2,0-0.4-0.9-0.3-0.1c0.2,1.5,2.5,2.4,3.7,1.5c0.4-0.3,0,0-0.3,0c-0.4,0-0.5-0.2-0.7-0.7
					c0.5,1.2,1.4,2,2.7,1.8c1.2-0.2,2.2-1.2,2.2-2.5c0-0.1-0.6,0.5,0.1-0.1c-1.3-0.2-2.6-0.3-3.9-0.5c0.2,0.5,0.5,1,0.7,1.5
					c1.2,2.6,5.4,0.8,4.6-1.9c-0.3-0.9-0.5-1.8-0.8-2.7C48.6,39.4,43.8,40.7,44.7,43.8L44.7,43.8z"/>
			</g>
		</g>
		<g>
			<g>
				<path class="st1" d="M26.4,46.8c0.1,2.2-0.5,4.3-2,6c1.3,1,2.6,2,3.9,3c1.2-2.3,2.5-4.4,4-6.4c0.7-0.9,1.5-1.8,2.2-2.7
					c0.4-0.5,0.9-1,1.3-1.4c0.2-0.2,1.3-1.1,1.3-1.3c-0.3,0.1-0.6,0.2-0.9,0.3c0.1,0.1,0.3,0.1,0.4,0.2c0.2,0.2,0.6,0.3,0.8,0.4
					c0.6,0.3,1.2,0.7,1.8,1c1.1,0.6,2.2,1.3,3.3,2c2.2,1.4,4.4,3,6.5,4.7c1,0.8,2.2,1,3.3,0.2c1-0.8,1.3-2.1,0.6-3.2
					c-1.9-3.3-3.8-6.7-5.6-10c-1.2-2.1-4.8-1.3-4.7,1.3c0.1,1.4,0.3,2.7,0.8,4c0.5,1.2,1.4,2,2.7,1.8c1.1-0.2,2.3-1.2,2.2-2.5
					c-0.5-6.1-2.8-11.6-6.7-16.4c-0.8-1-2.4-0.9-3.3-0.2c-1,0.8-1.2,2-0.6,3.2c1.3,3,3.7,5.8,7.1,6.3c3.3,0.5,6.3-1.1,7.5-4.2
					c0.9-2.2-1.9-3.6-3.7-2.8c-7.3,3.4-14.1,7.6-20.5,12.4c-1.1,0.8-1.6,2.1-0.9,3.4c0.6,1.1,2.3,1.7,3.4,0.9c1.3-1,2,0,3.5-0.1
					c1.8-0.2,3.6-0.9,5.4-1.3c3.1-0.8,1.8-5.6-1.3-4.8c-1.7,0.4-3.4,0.9-5,1.3c0.6,0.1,1.3,0.2,1.9,0.3c-2.2-1-4.8-1.1-6.9,0.4
					c0.8,1.4,1.7,2.9,2.5,4.3c6.3-4.9,13.2-9.1,20.5-12.4c-1.2-0.9-2.4-1.9-3.7-2.8c-0.1,0.2-0.5,0.4-0.8,0.5
					c-0.5,0.2-1.1,0.2-1.6,0c-1.5-0.7-2.4-2.3-3-3.7c-1.3,1-2.6,2-3.9,3c3,3.6,4.8,8.2,5.2,12.8c1.6-0.2,3.3-0.4,4.9-0.7
					c-0.3-0.9-0.6-1.8-0.7-2.7c-1.6,0.4-3.1,0.8-4.7,1.3c1.9,3.3,3.8,6.7,5.6,10c1.3-1,2.6-2,3.9-3c-2.5-2-5.1-4-7.8-5.7
					c-1.3-0.9-2.7-1.7-4.1-2.4c-1.5-0.8-3.2-2-5-1.6c-1.5,0.3-2.5,1.6-3.5,2.6c-1.1,1.1-2.1,2.2-3,3.4c-2,2.5-3.7,5.2-5.2,8
					c-1.3,2.4,1.9,5.2,3.9,3c2.4-2.6,3.7-6,3.5-9.5C31.2,43.6,26.2,43.6,26.4,46.8L26.4,46.8z"/>
			</g>
		</g>
		<g>
			<g>
				<path class="st1" d="M40.9,49.1C42.4,50,44,51,45.5,52c0.4,0.3,0.7,0.5,1.1,0.8c0.2,0.1,0.4,0.3,0.5,0.4
					c0.1,0.1,0.2,0.1,0.3,0.2c0.3,0.2,0,0-0.1-0.1c0.7,0.6,1.5,1.2,2.2,1.8c1,0.8,2.2,1,3.3,0.2c1-0.8,1.2-2.1,0.6-3.2
					c-1.3-2.7-2.6-5.5-3.9-8.2C48.8,42.7,47,42.3,46,43c-1.2,0.8-1.5,2.2-0.9,3.4c1.3,2.7,2.6,5.5,3.9,8.2c1.3-1,2.6-2,3.9-3
					c-3-2.5-6.1-4.8-9.5-6.8c-1.1-0.7-2.8-0.3-3.4,0.9C39.3,46.9,39.7,48.4,40.9,49.1L40.9,49.1z"/>
			</g>
		</g>
		<g>
			<g>
				<path class="st1" d="M50.5,33.9c1.9,0.2,3.9,0,5.7-0.6c-0.6-1.5-1.3-3-1.9-4.6c-1.3,0.8-2.5,1.7-3.8,2.5c-0.5,0.4-1,0.9-1.1,1.5
					c-0.2,0.6-0.1,1.4,0.3,1.9c0.3,0.5,0.9,1,1.5,1.1c0.6,0.1,1.4,0.1,1.9-0.3c1.3-0.8,2.5-1.7,3.8-2.5c0.5-0.3,1-0.9,1.1-1.5
					c0.1-0.6,0.1-1.1-0.1-1.6c-0.5-1.1-1.8-1.8-2.9-1.4c-0.7,0.2-1.4,0.4-2.1,0.5c0.2,0,0.4-0.1,0.7-0.1c-1,0.1-2,0.1-2.9,0
					c-0.6-0.1-1.4,0.3-1.8,0.7c-0.4,0.4-0.8,1.1-0.7,1.8c0,0.6,0.2,1.3,0.7,1.8c0.2,0.1,0.3,0.3,0.5,0.4
					C49.7,33.8,50.1,33.9,50.5,33.9L50.5,33.9z"/>
			</g>
		</g>
		<g>
			<g>
				<path class="st1" d="M22.5,31.7c-1-0.4-2-0.8-3.1-1.3c-0.2,1.6-0.4,3.3-0.7,4.9c0.8-0.1,1.6-0.1,2.5-0.2c0.3,0,0.7-0.1,1-0.2
					c0.3-0.1,0.6-0.3,0.8-0.5c0.2-0.2,0.4-0.5,0.5-0.8c0.2-0.3,0.2-0.6,0.2-1c0-0.6-0.2-1.3-0.7-1.8c-0.5-0.4-1.1-0.8-1.8-0.7
					c-0.8,0.1-1.6,0.1-2.5,0.2c-0.3,0-0.7,0.1-1,0.2c-0.3,0.1-0.6,0.3-0.8,0.5c-0.1,0.2-0.3,0.3-0.4,0.5c-0.2,0.3-0.3,0.6-0.3,0.9
					c-0.1,0.2-0.1,0.4,0,0.7c0,0.3,0.1,0.6,0.3,0.9c0.1,0.2,0.3,0.3,0.4,0.5c0.3,0.3,0.7,0.5,1.1,0.6c1,0.4,2,0.8,3.1,1.3
					c0.3,0.1,0.7,0.1,1,0c0.3,0,0.6-0.1,0.9-0.3c0.3-0.2,0.5-0.4,0.7-0.6c0.2-0.2,0.4-0.5,0.4-0.9c0.1-0.6,0.1-1.4-0.3-1.9
					c-0.1-0.2-0.3-0.3-0.4-0.5C23.3,32.1,22.9,31.8,22.5,31.7L22.5,31.7z"/>
			</g>
		</g>
	</g>
</g>
</svg>
