<?xml version="1.0" encoding="utf-8"?>
<!-- Generator: Adobe Illustrator 27.8.1, SVG Export Plug-In . SVG Version: 6.00 Build 0)  -->
<svg version="1.1" id="Layer_1" xmlns="http://www.w3.org/2000/svg" xmlns:xlink="http://www.w3.org/1999/xlink" x="0px" y="0px"
	 viewBox="0 0 78.5 78.5" style="enable-background:new 0 0 78.5 78.5;" xml:space="preserve">
<style type="text/css">
	.st0{fill:#FFFFFF;stroke:#1D1D1B;stroke-miterlimit:10;}
	.st1{stroke:#1D1D1B;stroke-miterlimit:10;}
	.st2{stroke:#000000;stroke-miterlimit:10;}
	.st3{fill:#FFFFFF;stroke:#FFFFFF;stroke-width:0.3;stroke-miterlimit:10;}
</style>
<g>
	<circle class="st0" cx="39.6" cy="39.2" r="38.7"/>
</g>
<rect x="15.4" y="21.4" class="st1" width="49.3" height="2.6"/>
<rect x="15.4" y="53.8" class="st1" width="49.3" height="2.6"/>
<line class="st1" x1="19.5" y1="21.4" x2="19.5" y2="55.7"/>
<line class="st1" x1="61.9" y1="22.1" x2="61.9" y2="56.4"/>
<line class="st1" x1="51.8" y1="22.1" x2="51.8" y2="56.4"/>
<line class="st1" x1="40.7" y1="21.4" x2="40.7" y2="55.7"/>
<line class="st1" x1="30.1" y1="22.1" x2="30.1" y2="56.4"/>
<line class="st1" x1="19.5" y1="31.3" x2="61.9" y2="31.3"/>
<line class="st1" x1="19.1" y1="38.6" x2="61.5" y2="38.6"/>
<line class="st1" x1="19.5" y1="46.9" x2="61.9" y2="46.9"/>
<path class="st2" d="M43.2,43.5h-4.9c-0.5,0-1-0.5-1-1v-7c0-0.5,0.5-1,1-1h4.9c0.5,0,1,0.5,1,1v7C44.2,43,43.8,43.5,43.2,43.5z"/>
<path class="st3" d="M39.8,37.3h1.9l-0.6,1.6c0,0,0.6,0.2,0.6,0.8c0,0.4-0.5,0.8-1,0.8s-1-0.3-1-0.8c0-0.6,0.5-0.7,0.5-0.7
	L39.8,37.3z"/>
</svg>
