<?xml version="1.0" encoding="utf-8"?>
<!-- Generator: Adobe Illustrator 27.8.1, SVG Export Plug-In . SVG Version: 6.00 Build 0)  -->
<svg version="1.1" id="Layer_1" xmlns="http://www.w3.org/2000/svg" xmlns:xlink="http://www.w3.org/1999/xlink" x="0px" y="0px"
	 viewBox="0 0 78.5 78.5" style="enable-background:new 0 0 78.5 78.5;" xml:space="preserve">
<style type="text/css">
	.st0{fill:#FFFFFF;stroke:#1D1D1B;stroke-miterlimit:10;}
	.st1{fill:#1D1D1B;}
</style>
<g>
	<circle class="st0" cx="39.2" cy="39.1" r="38.8"/>
	<g>
		<g>
			<path class="st1" d="M19,35.7c0.3,0.9,0.6,1.8,0.8,2.7c0.1,0.5,0.2,0.9,0.3,1.4c0.1,0.5,0-0.5,0,0.1c0,0.2,0,0.5,0.1,0.7
				c0.1,0.9,0.1,1.8,0,2.7c0,0.2,0,0.4,0,0.6c0,0.1,0,0.3,0,0.4c0,0.3,0,0.3,0-0.1c0,0.1-0.1,0.4-0.1,0.5c0,0.1,0,0.2-0.1,0.3
				c0.7-1.8,2-1.4,3.9,1.3c-0.2,0.4-0.4,0.7-0.6,1.1c0,0,0,0,0.1-0.1c0.9-0.9,1-2.6,0-3.5c-1-0.9-2.5-1-3.5,0c-1.1,1.1-1.1,2.9,0,4
				c0.9,1,2.4,1.2,3.6,0.5c1.7-1,1.8-3.3,1.9-5.1c0.2-3-0.3-6.2-1.4-9c-0.5-1.2-1.7-2.2-3.1-1.7C19.6,33,18.5,34.4,19,35.7L19,35.7z
				"/>
		</g>
	</g>
	<g>
		<g>
			<path class="st1" d="M26.5,27.2c5.6,7.6,7,18.2,3,26.9c1.6,0.4,3.1,0.8,4.7,1.3c0-0.7-0.1-1.3-0.1-2c-0.2-3.2-5.2-3.2-5,0
				c0,0.7,0.1,1.3,0.1,2c0.1,2.3,3.6,3.7,4.7,1.3c4.7-10.3,3.7-22.8-3-31.9c-0.8-1.1-2.2-1.6-3.4-0.9C26.3,24.4,25.7,26.1,26.5,27.2
				L26.5,27.2z"/>
		</g>
	</g>
	<g>
		<g>
			<path class="st1" d="M36.7,19.5c8.7,11.4,9.9,27.7,2.6,40.1c1.6,0.4,3.1,0.8,4.7,1.3c0.1-0.6,0.1-1.1,0.2-1.7
				c0.2-1.3-1.3-2.5-2.5-2.5c-1.5,0-2.3,1.2-2.5,2.5c-0.1,0.6-0.1,1.1-0.2,1.7c-0.3,2.6,3.5,3.2,4.7,1.3c8.1-13.8,7.2-32.4-2.6-45.2
				c-0.8-1.1-2.2-1.6-3.4-0.9C36.6,16.7,35.9,18.4,36.7,19.5L36.7,19.5z"/>
		</g>
	</g>
	<g>
		<g>
			<path class="st1" d="M46.1,14.4c2.6,2.2,4.6,4.7,6,7.8c1.5,3.2,2,6.8,2.3,10.2c0.7,6.6,0.8,13.5-0.9,20c-1,3.7-2.5,7-4.7,10.1
				c-0.8,1.1-0.2,2.8,0.9,3.4c1.3,0.7,2.6,0.2,3.4-0.9c4.4-6.1,6.2-13.5,6.7-20.9c0.2-3.7,0.1-7.5-0.3-11.2c-0.4-4-0.9-8.1-2.4-11.8
				c-1.6-4-4.2-7.5-7.5-10.3c-1-0.9-2.5-1-3.5,0C45.2,11.7,45,13.5,46.1,14.4L46.1,14.4z"/>
		</g>
	</g>
</g>
</svg>
