<?xml version="1.0" encoding="utf-8"?>
<!-- Generator: Adobe Illustrator 27.8.1, SVG Export Plug-In . SVG Version: 6.00 Build 0)  -->
<svg version="1.1" id="Layer_1" xmlns="http://www.w3.org/2000/svg" xmlns:xlink="http://www.w3.org/1999/xlink" x="0px" y="0px"
	 viewBox="0 0 78.5 78.5" style="enable-background:new 0 0 78.5 78.5;" xml:space="preserve">
<style type="text/css">
	.st0{fill:#FFFFFF;stroke:#1D1D1B;stroke-miterlimit:10;}
	.st1{fill:#1D1D1B;}
</style>
<g>
	<ellipse class="st0" cx="39.3" cy="39.2" rx="38.8" ry="38.8"/>
	<g>
		<g>
			<g>
				<path class="st1" d="M34.2,11.7c-4,7.2-8.2,14.5-10.1,22.6c-1.7,7-1.5,14.5,1.4,21.2c1.5,3.5,3.8,6.7,6.8,9c1.1,0.8,2.5,1,3.5,0
					c0.9-0.9,1.1-2.7,0-3.5c-4.7-3.7-7.2-9.3-7.7-15.2c-0.6-6.9,1.4-13.7,4.3-20c1.8-3.9,3.9-7.7,6.1-11.5
					C40.1,11.5,35.8,8.9,34.2,11.7L34.2,11.7z"/>
			</g>
		</g>
		<g>
			<g>
				<path class="st1" d="M37.3,13.5c3,1.9,5,4.9,6.6,8.1c1.9,3.6,3.5,7.5,4.9,11.3c2.6,7.1,4.7,16.8-0.9,23c-2.5,2.8-6.3,4.5-10,3.6
					c-3.1-0.8-4.5,4.1-1.3,4.8c4.5,1.1,9.2-0.2,12.8-3c3.7-2.9,5.9-7.2,6.7-11.7c1.7-10-2.8-19.9-6.9-28.8
					c-2.1-4.6-4.9-8.8-9.3-11.6C37.1,7.5,34.6,11.8,37.3,13.5L37.3,13.5z"/>
			</g>
		</g>
		<g>
			<g>
				<path class="st1" d="M35.8,28.1c0.6,10.6,1.2,21.3,1.8,31.9c0.2,3.2,5.2,3.2,5,0c-0.6-10.6-1.2-21.3-1.8-31.9
					C40.7,24.9,35.7,24.9,35.8,28.1L35.8,28.1z"/>
			</g>
		</g>
		<g>
			<g>
				<path class="st1" d="M31.4,36.4c1.3,2.2,2.6,4.3,4,6.5c0.3,0.5,0.9,1,1.5,1.1c0.6,0.2,1.4,0.1,1.9-0.3c1.1-0.7,1.6-2.2,0.9-3.4
					c-1.3-2.2-2.6-4.3-4-6.5c-0.3-0.5-0.9-1-1.5-1.1c-0.6-0.2-1.4-0.1-1.9,0.3C31.2,33.7,30.7,35.2,31.4,36.4L31.4,36.4z"/>
			</g>
		</g>
		<g>
			<g>
				<path class="st1" d="M42.9,51.2c1.1-2.3,2.3-4.5,3.4-6.8c0.3-0.6,0.4-1.3,0.3-1.9c-0.2-0.6-0.6-1.2-1.1-1.5
					c-1.1-0.6-2.8-0.4-3.4,0.9c-1.1,2.3-2.3,4.5-3.4,6.8c-0.3,0.6-0.4,1.3-0.3,1.9c0.2,0.6,0.6,1.2,1.1,1.5
					C40.6,52.7,42.2,52.4,42.9,51.2L42.9,51.2z"/>
			</g>
		</g>
		<g>
			<g>
				<path class="st1" d="M31.4,52.5c0.3,0.2,0.6,0.4,0.9,0.6c-0.2-0.1-0.3-0.3-0.5-0.4c1.3,1,2.5,2.2,3.5,3.5
					c-0.1-0.2-0.3-0.3-0.4-0.5c0.5,0.7,1,1.4,1.5,2.2c0.7,1.1,2.3,1.6,3.4,0.9c1.1-0.7,1.6-2.2,0.9-3.4c-1.7-2.9-4-5.4-6.8-7.3
					c-0.5-0.4-1.3-0.4-1.9-0.3c-0.6,0.2-1.2,0.6-1.5,1.1c-0.3,0.6-0.5,1.3-0.3,1.9C30.4,51.6,30.8,52.1,31.4,52.5L31.4,52.5z"/>
			</g>
		</g>
		<g>
			<g>
				<path class="st1" d="M42.1,32.1c1-1.8,2-3.5,2.9-5.3c0.3-0.6,0.4-1.3,0.3-1.9c-0.2-0.6-0.6-1.2-1.1-1.5
					c-0.6-0.3-1.3-0.5-1.9-0.3c-0.6,0.2-1.2,0.6-1.5,1.1c-1,1.8-2,3.5-2.9,5.3c-0.3,0.6-0.4,1.3-0.3,1.9c0.2,0.6,0.6,1.2,1.1,1.5
					c0.6,0.3,1.3,0.5,1.9,0.3C41.2,33.1,41.8,32.7,42.1,32.1L42.1,32.1z"/>
			</g>
		</g>
	</g>
</g>
</svg>
