<?xml version="1.0" encoding="utf-8"?>
<!-- Generator: Adobe Illustrator 27.8.1, SVG Export Plug-In . SVG Version: 6.00 Build 0)  -->
<svg version="1.1" id="Layer_1" xmlns="http://www.w3.org/2000/svg" xmlns:xlink="http://www.w3.org/1999/xlink" x="0px" y="0px"
	 viewBox="0 0 78.5 78.5" style="enable-background:new 0 0 78.5 78.5;" xml:space="preserve">
<style type="text/css">
	.st0{fill:#FFFFFF;stroke:#1D1D1B;stroke-miterlimit:10;}
	.st1{fill:#1D1D1B;stroke:#000000;stroke-width:2;stroke-miterlimit:10;}
</style>
<g>
	<circle class="st0" cx="39.1" cy="39.3" r="38.9"/>
	<g>
		<g>
			<g>
				<path class="st1" d="M29.6,30.7c3.2,0,3.2-5,0-5C26.3,25.7,26.3,30.7,29.6,30.7L29.6,30.7z"/>
			</g>
		</g>
		<g>
			<g>
				<path class="st1" d="M48.3,30c3.2,0,3.2-5,0-5S45.1,30,48.3,30L48.3,30z"/>
			</g>
		</g>
		<g>
			<g>
				<path class="st1" d="M30.2,49.1c3.2,0,3.2-5,0-5S27,49.1,30.2,49.1L30.2,49.1z"/>
			</g>
		</g>
		<g>
			<g>
				<path class="st1" d="M48.7,48.4c3.2,0,3.2-5,0-5S45.5,48.4,48.7,48.4L48.7,48.4z"/>
			</g>
		</g>
	</g>
</g>
</svg>
