<?xml version="1.0" encoding="utf-8"?>
<!-- Generator: Adobe Illustrator 27.8.1, SVG Export Plug-In . SVG Version: 6.00 Build 0)  -->
<svg version="1.1" id="Layer_1" xmlns="http://www.w3.org/2000/svg" xmlns:xlink="http://www.w3.org/1999/xlink" x="0px" y="0px"
	 viewBox="0 0 78.5 78.5" style="enable-background:new 0 0 78.5 78.5;" xml:space="preserve">
<style type="text/css">
	.st0{fill:#FFFFFF;stroke:#1D1D1B;stroke-miterlimit:10;}
	.st1{fill:#1D1D1B;}
</style>
<g>
	<ellipse class="st0" cx="39.3" cy="39.2" rx="38.7" ry="38.8"/>
	<g>
		<g>
			<g>
				<path class="st1" d="M16.8,30c-1.5,6.6-1.3,13.5,0.6,20c0.9,3,2.1,6.3,3.9,8.9c2.1,2.9,5.6,3.8,8.8,2c5.5-3.1,7.2-10.7,7.2-16.5
					c0-3-0.4-6-1-9c-0.5-2.8-1.2-5.5-2.5-8c-1.5-2.8-3.9-5.1-7.1-5.3c-3.7-0.3-6.5,2.3-8.7,4.9c-0.9,1-1,2.5,0,3.5
					c0.9,0.9,2.7,1,3.5,0c1.2-1.4,2.8-3.6,4.9-3.5c0.5,0,1,0.3,1.4,0.6c0.7,0.6,1.2,1.3,1.6,2.1c1,1.8,1.4,3.8,1.9,5.8
					c0.5,2.3,0.9,4.7,1,7c0.2,4.3-0.2,9.6-3.4,12.9c-0.5,0.5-1.3,1.3-2.1,1.4c-0.8,0-1.2-0.6-1.5-1.1c-1.4-2.1-2.3-4.7-3-7.1
					C20.6,43,20.3,37,21.6,31.3C22.3,28.2,17.5,26.8,16.8,30L16.8,30z"/>
			</g>
		</g>
		<g>
			<g>
				<path class="st1" d="M40.1,28c-0.3,6.8,1,13.6,3.8,19.8c1.3,2.8,3,6.3,5.4,8.3c3,2.4,6.8,1.4,9.3-1.2c4.4-4.6,5.1-11.9,3.5-17.8
					c-1.7-6.4-6-11.8-10.6-16.4c-1.3-1.3-2.6-2.8-4.2-3.6c-1.9-0.9-4.1-0.4-5.4,1.2c-2.5,2.9-3.6,7.2-3.5,11c0.1,3.2,5.1,3.2,5,0
					c-0.1-2.6,0.5-5,1.9-7.2c0.4-0.6,0.5-0.4,0.1-0.5c-0.5-0.1,0,0.1,0.1,0.2c0.2,0.2,0.4,0.3,0.5,0.5c1,0.9,2,1.9,2.9,2.8
					c3.5,3.6,6.7,7.6,8.2,12.5c1.3,4.2,1.2,9.1-1.3,12.9c-0.5,0.8-1.2,1.6-2.1,1.9c-0.9,0.3-1.4-0.3-1.9-0.9
					c-1.5-1.9-2.6-4.2-3.6-6.4c-2.4-5.3-3.4-11.2-3.1-17.1C45.3,24.8,40.3,24.8,40.1,28L40.1,28z"/>
			</g>
		</g>
	</g>
</g>
</svg>
