<?xml version="1.0" encoding="utf-8"?>
<!-- Generator: Adobe Illustrator 27.8.1, SVG Export Plug-In . SVG Version: 6.00 Build 0)  -->
<svg version="1.1" id="Layer_1" xmlns="http://www.w3.org/2000/svg" xmlns:xlink="http://www.w3.org/1999/xlink" x="0px" y="0px"
	 viewBox="0 0 78.5 78.5" style="enable-background:new 0 0 78.5 78.5;" xml:space="preserve">
<style type="text/css">
	.st0{fill:#FFFFFF;stroke:#1D1D1B;stroke-miterlimit:10;}
	.st1{fill:#1D1D1B;}
</style>
<g>
	<circle class="st0" cx="39.2" cy="39.2" r="38.7"/>
	<g>
		<g>
			<g>
				<path class="st1" d="M36.4,14.5C30.4,27.8,24.9,41.4,19.8,55c-0.5,1.3,0.5,2.7,1.7,3.1c1.4,0.4,2.6-0.5,3.1-1.7
					C29.6,43.1,34.9,30,40.7,17c0.5-1.2,0.4-2.7-0.9-3.4C38.7,13,36.9,13.3,36.4,14.5L36.4,14.5z"/>
			</g>
		</g>
		<g>
			<g>
				<path class="st1" d="M22.1,59.8c11.6-0.4,23.2-0.8,34.8-1.2c3.2-0.1,3.2-5.1,0-5c-11.6,0.4-23.2,0.8-34.8,1.2
					C18.9,54.9,18.9,59.9,22.1,59.8L22.1,59.8z"/>
			</g>
		</g>
		<g>
			<g>
				<path class="st1" d="M36.3,17.2c6,12.7,11.9,25.5,17.9,38.2c0.6,1.2,2.3,1.5,3.4,0.9c1.3-0.7,1.5-2.2,0.9-3.4
					c-6-12.7-11.9-25.5-17.9-38.2c-0.6-1.2-2.3-1.5-3.4-0.9C36,14.6,35.8,16,36.3,17.2L36.3,17.2z"/>
			</g>
		</g>
		<g>
			<g>
				<path class="st1" d="M36.3,40.4c-1.3,3.9-2.6,7.7-3.9,11.6c-0.3,0.9-0.7,1.9-0.7,2.9c0,1.6,1.2,2.9,2.8,3
					c1.5,0.1,2.8-1.4,2.8-2.8c0-0.7-0.3-1.4-0.8-1.9c-0.7-0.7-1.7-0.8-2.6-0.7c-1.3,0.2-2.1,1.9-1.7,3.1c0.5,1.4,1.7,2,3.1,1.7
					c0,0,0.1,0,0.1,0c-0.6-0.1-1.3-0.2-1.9-0.3c0,0,0,0,0.1,0c-0.3-0.3-0.6-0.6-0.9-0.9c0,0,0,0,0,0.1c-0.1-0.4-0.2-0.8-0.3-1.3
					c0.5-0.7,1-1.3,1.5-2c0.4,0,0.9,0,1.3,0c0,0-0.1,0-0.1,0c0.4,0.2,0.7,0.4,1.1,0.6c0.4,0.5,0.6,1,0.5,1.5c0-0.1,0.1-0.2,0.1-0.3
					c0.1-0.3,0.2-0.6,0.3-0.9c0.2-0.5,0.4-1.1,0.5-1.6c0.4-1.2,0.8-2.3,1.2-3.5c0.8-2.3,1.6-4.7,2.3-7c0.4-1.2-0.5-2.8-1.7-3.1
					C38,38.4,36.7,39.1,36.3,40.4L36.3,40.4z"/>
			</g>
		</g>
		<g>
			<g>
				<path class="st1" d="M37.2,42.6c1,3.5,1.9,6.9,2.9,10.4c0.3,1,0.5,2.1,1.3,2.8c1.1,1.1,2.7,1.3,3.9,0.4c1.1-0.9,1.4-2.5,0.6-3.7
					c-0.9-1.6-2.9-1.7-4.2-0.5c-1,0.9-1,2.6,0,3.5c1,0.9,2.5,0.9,3.5,0c0,0,0,0,0.1-0.1c-0.4,0.2-0.7,0.4-1.1,0.6c0,0,0,0,0.1,0
					c-0.4,0-0.9,0-1.3,0c0,0,0,0,0.1,0c-0.4-0.2-0.7-0.4-1.1-0.6c-0.7-0.7-0.8-1.5-0.3-2.5c0.3-0.3,0.6-0.6,0.9-0.9
					c0.3-0.1,0.6-0.2,1-0.3c0.4,0.1,0.8,0.2,1.3,0.3c0.2,0.1,0.3,0.3,0.5,0.5c0.1,0.3,0.2,0.4,0.1,0.2c0-0.3-0.1-0.5-0.2-0.8
					c-0.1-0.5-0.3-0.9-0.4-1.4c-0.3-1.1-0.6-2.1-0.9-3.2c-0.6-2.1-1.2-4.1-1.7-6.2c-0.4-1.3-1.8-2.2-3.1-1.7
					C37.7,39.9,36.8,41.2,37.2,42.6L37.2,42.6z"/>
			</g>
		</g>
		<g>
			<g>
				<path class="st1" d="M36.3,47.7c-0.7,1.9-1,4-0.8,6c0.1,0.7,0.2,1.3,0.7,1.8c0.4,0.4,1.1,0.8,1.8,0.7c0.6,0,1.3-0.2,1.8-0.7
					c0.4-0.5,0.7-1.1,0.7-1.8c0-0.1,0-0.2,0-0.4c0,0.2-0.1,0.4-0.1,0.7c0-0.2,0.1-0.4,0.2-0.6c-0.1,0.2-0.2,0.4-0.3,0.6
					c0.1-0.2,0.2-0.4,0.3-0.6c-0.1,0.2-0.3,0.3-0.4,0.5c0.1-0.2,0.3-0.3,0.5-0.5c-0.2,0.1-0.3,0.3-0.5,0.4c0.2-0.1,0.3-0.2,0.5-0.3
					c-0.2,0.1-0.4,0.2-0.6,0.3c0.2-0.1,0.4-0.1,0.6-0.2c-0.2,0-0.4,0.1-0.7,0.1c0,0,0,0,0.1,0c0.3,0,0.7-0.1,1-0.2
					c0.3-0.1,0.6-0.3,0.8-0.5c0.4-0.4,0.8-1.1,0.7-1.8c0-0.6-0.2-1.3-0.7-1.8c-0.5-0.4-1.1-0.8-1.8-0.7c-0.8,0.1-1.4,0.2-2.1,0.6
					c-0.3,0.2-0.6,0.4-0.8,0.6c-0.1,0.1-0.3,0.2-0.4,0.4c-0.8,1-1.4,2.1-1.3,3.4c1.7,0,3.3,0,5,0c-0.1-0.9,0-1.8,0.1-2.6
					c0,0.2-0.1,0.4-0.1,0.7c0.1-0.9,0.3-1.8,0.7-2.7c0.2-0.6,0.1-1.4-0.3-1.9c-0.3-0.5-0.9-1-1.5-1.1c-0.6-0.1-1.4-0.1-1.9,0.3
					C36.8,46.6,36.5,47.1,36.3,47.7L36.3,47.7z"/>
			</g>
		</g>
	</g>
</g>
</svg>
