<?xml version="1.0" encoding="utf-8"?>
<!-- Generator: Adobe Illustrator 27.8.1, SVG Export Plug-In . SVG Version: 6.00 Build 0)  -->
<svg version="1.1" id="Layer_1" xmlns="http://www.w3.org/2000/svg" xmlns:xlink="http://www.w3.org/1999/xlink" x="0px" y="0px"
	 viewBox="0 0 78.5 78.5" style="enable-background:new 0 0 78.5 78.5;" xml:space="preserve">
<style type="text/css">
	.st0{fill:#FFFFFF;stroke:#1D1D1B;stroke-miterlimit:10;}
	.st1{fill:none;stroke:#000000;stroke-miterlimit:10;}
	.st2{fill:none;stroke:#1D1D1B;stroke-miterlimit:10;}
</style>
<g>
	<circle class="st0" cx="39.2" cy="39.2" r="38.7"/>
</g>
<path class="st1" d="M26.4,28.4c0,0,2-2,0.8-4.1c-1-1.7-2.6-2.3-4.5-1.6c-2.3,0.8-2.9,2.8-2.1,4.3c0.8,1.6,2.8,1.7,2.8,1.7"/>
<path class="st1" d="M20.7,24.4c-2.1-1.3-3.9-0.6-4.7,1c-0.8,1.6,0.3,3.2,0.3,3.2"/>
<path class="st1" d="M27.6,19.9c1.6-2.9-2.2-8.3-7.6-6.1c-3.9,1.6-5.5,4.6-4.1,7.2c1.3,2.6,4.7,2.9,4.7,2.9"/>
<path class="st1" d="M48.4,28.4c0,0-2-2-0.8-4.1c1-1.7,2.6-2.3,4.5-1.6c2.3,0.8,2.9,2.8,2.1,4.3c-0.8,1.6-2.8,1.7-2.8,1.7"/>
<path class="st1" d="M54.1,24.4c2.1-1.3,3.9-0.6,4.7,1c0.8,1.6-0.3,3.2-0.3,3.2"/>
<path class="st1" d="M47.2,19.9c-1.6-2.9,2.2-8.3,7.6-6.1c3.9,1.6,5.5,4.6,4.1,7.2c-1.3,2.6-4.7,2.9-4.7,2.9"/>
<path class="st1" d="M52.9,46.4c0,0-2,2-0.8,4.1c1,1.7,2.6,2.3,4.5,1.6c2.3-0.8,2.9-2.8,2.1-4.3c-0.8-1.6-2.8-1.7-2.8-1.7"/>
<path class="st1" d="M58.5,50.4c2.1,1.3,3.9,0.6,4.7-1c0.8-1.6-0.3-3.2-0.3-3.2"/>
<path class="st1" d="M51.7,54.9c-1.6,2.9,2.2,8.3,7.6,6.1c3.9-1.6,5.5-4.6,4.1-7.2c-1.3-2.6-4.7-2.9-4.7-2.9"/>
<path class="st1" d="M22,46.5c0,0,2,2,0.8,4.1c-1,1.7-2.6,2.3-4.5,1.6c-2.3-0.8-2.9-2.8-2.1-4.3c0.8-1.6,2.8-1.7,2.8-1.7"/>
<path class="st1" d="M16.3,50.6c-2.1,1.3-3.9,0.6-4.7-1C10.8,48,12,46.3,12,46.3"/>
<path class="st1" d="M23.2,55c1.6,2.9-2.2,8.3-7.6,6.1c-3.9-1.6-5.5-4.6-4.1-7.2c1.3-2.6,4.7-2.9,4.7-2.9"/>
<path class="st1" d="M63.2,33.5c0,0,1.9-0.7,3,0.7c0.9,1.2,0.7,2.4-0.3,3.5c-1.3,1.3-2.7,1.1-3.5,0.1c-0.8-1-0.3-2.3-0.3-2.3"/>
<path class="st1" d="M64.2,38.5c0.2,1.8-0.8,2.8-2.1,2.8c-1.3,0-2-1.2-2-1.2"/>
<path class="st1" d="M11.2,34.7c0,0-1.9-0.7-3,0.7c-0.9,1.2-0.7,2.4,0.3,3.5c1.3,1.3,2.7,1.1,3.5,0.1c0.8-1,0.3-2.3,0.3-2.3"/>
<path class="st1" d="M10.3,39.7c-0.2,1.8,0.8,2.8,2.1,2.8c1.3,0,2-1.2,2-1.2"/>
<path class="st1" d="M36.2,10.7c0,0-1.7-1.1-1.1-2.8c0.5-1.4,1.5-2,3-1.8c1.8,0.3,2.4,1.6,2.1,2.8c-0.3,1.2-1.7,1.6-1.7,1.6"/>
<path class="st1" d="M39.7,7.1c1.3-1.2,2.8-0.9,3.5,0.1c0.8,1,0.2,2.4,0.2,2.4"/>
<path class="st1" d="M33.6,65.6c0,0-1.7,1.1-1.1,2.8c0.5,1.4,1.5,2,3,1.8c1.8-0.3,2.4-1.6,2.1-2.8c-0.3-1.2-1.7-1.6-1.7-1.6"/>
<path class="st1" d="M37.1,69.3c1.3,1.2,2.8,0.9,3.5-0.1c0.8-1,0.2-2.4,0.2-2.4"/>
<rect x="19.8" y="34.8" class="st1" width="0.9" height="0.9"/>
<rect x="54.3" y="41.9" class="st1" width="0.9" height="0.9"/>
<rect x="32.3" y="14.8" class="st1" width="0.9" height="0.9"/>
<rect x="42.3" y="17.8" class="st1" width="0.9" height="0.9"/>
<rect x="28.3" y="62.8" class="st1" width="0.9" height="0.9"/>
<rect x="46.8" y="64.4" class="st1" width="0.9" height="0.9"/>
<rect x="57.6" y="32.7" class="st1" width="0.9" height="0.9"/>
<line class="st1" x1="39.4" y1="33.6" x2="41.2" y2="35.8"/>
<line class="st0" x1="41.2" y1="32.1" x2="39.4" y2="34.2"/>
<ellipse class="st1" cx="37.1" cy="36.3" rx="8.7" ry="10.8"/>
<line class="st0" x1="37.1" y1="36.8" x2="37.1" y2="39"/>
<line class="st2" x1="33.9" y1="41.9" x2="40.3" y2="41.9"/>
<path class="st0" d="M28.7,51.4c0,0,3.6-3.3,8.5-3.3c4.9,0,8.5,3.3,8.5,3.3"/>
<line class="st1" x1="34.6" y1="33.6" x2="32.7" y2="35.8"/>
<line class="st0" x1="32.7" y1="32.1" x2="34.6" y2="34.2"/>
</svg>
