<?xml version="1.0" encoding="utf-8"?>
<!-- Generator: Adobe Illustrator 27.8.1, SVG Export Plug-In . SVG Version: 6.00 Build 0)  -->
<svg version="1.1" id="Layer_1" xmlns="http://www.w3.org/2000/svg" xmlns:xlink="http://www.w3.org/1999/xlink" x="0px" y="0px"
	 viewBox="0 0 78.5 78.5" style="enable-background:new 0 0 78.5 78.5;" xml:space="preserve">
<style type="text/css">
	.st0{fill:#FFFFFF;stroke:#1D1D1B;stroke-miterlimit:10;}
	.st1{fill:#1D1D1B;}
	.st2{fill:none;stroke:#FFFFFF;stroke-width:0.3;stroke-miterlimit:10;}
	.st3{fill:none;stroke:#FFFFFF;stroke-width:0.3;stroke-miterlimit:10;stroke-dasharray:0.4983,0.4983;}
	.st4{fill:none;stroke:#FFFFFF;stroke-width:0.3;stroke-miterlimit:10;stroke-dasharray:0.5004,0.5004;}
</style>
<g>
	<circle class="st0" cx="39.2" cy="39.2" r="38.7"/>
</g>
<path class="st1" d="M31.3,12.4c0,0-2.7,9.1,0,14.1C33.8,31,48.4,38,48,41.8c-0.5,4.9-6.4,12.4-8.3,16.4c-1.6,3.5-2.9,8.1-2.9,8.1
	h-7.1c0,0,4-5.5,6-10.2s5.6-11.3,4.7-13.9c-0.6-1.9-10-12.6-10.8-15.1C28.3,21.9,31.3,12.4,31.3,12.4z"/>
<path class="st1" d="M46.1,12.2c0,0,2.7,9.1,0,14.1c-2.4,4.4-16.3,13.1-16.3,15.8c0,2.5,5.5,10.8,7.5,15.3c1.6,3.5,2.5,8.6,2.5,8.6
	h7.8c0,0-3.6-5.5-5.6-10.2s-3.5-11.4-3.3-13.7c0.3-3.3,8.1-12.8,8.9-15.3C49.1,21.7,46.1,12.2,46.1,12.2z"/>
<path class="st0" d="M38.7,28.4c0,0-2.6-1.4-2.9-3.3s2.9-5.3,2.9-5.3s3.2,3.4,3,5C41.6,26.5,38.7,28.4,38.7,28.4z"/>
<path class="st0" d="M31.9,34.5c0,0,0.4,1.9-0.5,3c-0.9,1.1-4,1.5-4,1.5s0.4-3.1,1.4-3.9C29.7,34.2,31.9,34.5,31.9,34.5z"/>
<path class="st0" d="M30.9,32.5c0,0-1.7,0.9-3,0.3c-1.3-0.6-2.5-3.5-2.5-3.5s3.2-0.4,4.2,0.3C30.6,30.3,30.9,32.5,30.9,32.5z"/>
<path class="st0" d="M26.6,34.4c0,0-1,1.7-2.3,1.9c-1.4,0.2-4-1.6-4-1.6s2.4-2,3.6-2C25.1,32.7,26.6,34.4,26.6,34.4z"/>
<path class="st0" d="M46.7,34c0,0-0.9-1.7-0.4-3c0.5-1.3,3.4-2.6,3.4-2.6s0.5,3.1-0.2,4.2C48.9,33.6,46.7,34,46.7,34z"/>
<path class="st0" d="M46.1,36.6c0,0,1.2-1.5,2.7-1.4c1.4,0,3.6,2.3,3.6,2.3s-2.8,1.6-4,1.3S46.1,36.6,46.1,36.6z"/>
<path class="st0" d="M50.8,34.1c0,0,1-1.7,2.3-1.9c1.4-0.2,4,1.6,4,1.6s-2.4,2-3.6,2C52.3,35.8,50.8,34.1,50.8,34.1z"/>
<g>
	<g>
		<path class="st2" d="M44.4,65.5c0,0,0-0.1-0.1-0.2"/>
		<path class="st3" d="M44.1,64.9c-1.9-3.4-10.9-19-10.4-22.5c0.4-3,7.8-9.1,7.8-9.1s3.9-4.3,5-6c0.8-1.3,1.2-2.9,1.2-4.6
			c0-1.7-0.2-5.7-1.5-10.1c-1-3.5-0.4-1.5-0.1-0.5"/>
		<path class="st2" d="M46.1,12.3c0,0.1,0.1,0.2,0.1,0.2"/>
	</g>
</g>
<g>
	<g>
		<path class="st2" d="M32.7,67c0,0,0-0.1,0.1-0.2"/>
		<path class="st4" d="M33.1,66.4c2.1-3.5,12.2-20.8,11.8-24.2c-0.4-3-7.9-7.9-7.9-7.9s-4.1-3.8-5.2-5.5c-0.8-1.3-1.5-2.6-1.8-4.4
			c-0.3-1.6,0-5.8,1.1-10.3c0.9-3.5,0.4-1.5,0.1-0.5"/>
		<path class="st2" d="M31,13.8c0,0.1-0.1,0.2-0.1,0.2"/>
	</g>
</g>
<path class="st0" d="M30.3,18.4c0,0-1.6-1.1-1.6-2.5s2-3.8,2-3.8s1.8,2.6,1.7,3.8S30.3,18.4,30.3,18.4z"/>
<path class="st0" d="M47.5,18.3c0,0-1.8-0.6-2.3-1.9s0.7-4.2,0.7-4.2s2.5,1.9,2.7,3.1S47.5,18.3,47.5,18.3z"/>
</svg>
