<?xml version="1.0" encoding="utf-8"?>
<!-- Generator: Adobe Illustrator 27.8.1, SVG Export Plug-In . SVG Version: 6.00 Build 0)  -->
<svg version="1.1" id="Layer_1" xmlns="http://www.w3.org/2000/svg" xmlns:xlink="http://www.w3.org/1999/xlink" x="0px" y="0px"
	 viewBox="0 0 78.5 78.5" style="enable-background:new 0 0 78.5 78.5;" xml:space="preserve">
<style type="text/css">
	.st0{fill:#FFFFFF;stroke:#1D1D1B;stroke-miterlimit:10;}
	.st1{fill:none;stroke:#000000;stroke-miterlimit:10;}
	.st2{fill:#FFFFFF;stroke:#1D1D1B;stroke-linejoin:round;stroke-miterlimit:10;}
	.st3{fill:none;stroke:#1D1D1B;stroke-linejoin:round;stroke-miterlimit:10;}
</style>
<g>
	<ellipse class="st0" cx="39.5" cy="39.5" rx="39" ry="39.1"/>
</g>
<rect x="11.7" y="22.5" class="st1" width="56.7" height="23.9"/>
<rect x="45.9" y="26.1" class="st0" width="3.7" height="3.7"/>
<rect x="49.7" y="26.1" class="st0" width="3.7" height="3.7"/>
<rect x="53.4" y="26.1" class="st0" width="3.7" height="3.7"/>
<path class="st0" d="M59.3,43.3h-1.2c-0.6,0-1-0.4-1-1v-6.5c0-0.6,0.4-1,1-1h1.2c0.6,0,1,0.4,1,1v6.5C60.3,42.8,59.9,43.3,59.3,43.3
	z"/>
<rect x="11.7" y="34.9" class="st0" width="4.6" height="4.6"/>
<polygon class="st2" points="25.7,34.9 30.2,42.6 40.1,36.8 35.8,29.2 "/>
<polyline class="st3" points="25.7,34.9 21.5,32.9 35.8,24.6 35.8,29.2 "/>
<path class="st2" d="M48.9,61.1H31c-0.9,0-1.7-0.8-1.7-1.7v0c0-0.9,0.8-1.7,1.7-1.7h17.9c0.9,0,1.7,0.8,1.7,1.7v0
	C50.6,60.4,49.8,61.1,48.9,61.1z"/>
<path class="st2" d="M44.6,56h-9.1c-1.9,0-3.4-1.5-3.4-3.4v0c0-1.9,1.5-3.4,3.4-3.4h9.1c1.9,0,3.4,1.5,3.4,3.4v0
	C48,54.4,46.5,56,44.6,56z"/>
<ellipse class="st2" cx="40.1" cy="52" rx="3.7" ry="4"/>
</svg>
