<?xml version="1.0" encoding="utf-8"?>
<!-- Generator: Adobe Illustrator 27.8.1, SVG Export Plug-In . SVG Version: 6.00 Build 0)  -->
<svg version="1.1" id="Layer_1" xmlns="http://www.w3.org/2000/svg" xmlns:xlink="http://www.w3.org/1999/xlink" x="0px" y="0px"
	 viewBox="0 0 78.5 78.5" style="enable-background:new 0 0 78.5 78.5;" xml:space="preserve">
<style type="text/css">
	.st0{fill:#FFFFFF;stroke:#1D1D1B;stroke-miterlimit:10;}
	.st1{fill:#1D1D1B;}
</style>
<g>
	<ellipse class="st0" cx="39.3" cy="39.3" rx="38.8" ry="38.8"/>
	<g>
		<g>
			<path class="st1" d="M57.9,47.2c0.2,0,0.5,0,0.7,0c1.4,0.1,2.7-0.2,3.9-0.9c1.2-0.4,2.3-1.1,3.2-2.1c1-0.9,1.7-2,2.1-3.2
				c0.6-1.2,0.9-2.5,0.9-3.9c-0.1-0.9-0.2-1.8-0.4-2.7c-0.5-1.7-1.3-3.2-2.6-4.4c-0.7-0.5-1.3-1-2-1.6c-1.6-0.9-3.2-1.4-5-1.4
				c-0.2,0-0.5,0-0.7,0c-1.4-0.1-2.7,0.2-3.9,0.9c-1.2,0.4-2.3,1.1-3.2,2.1c-1,0.9-1.7,2-2.1,3.2c-0.6,1.2-0.9,2.5-0.9,3.9
				c0.1,0.9,0.2,1.8,0.4,2.7c0.5,1.7,1.3,3.2,2.6,4.4c0.7,0.5,1.3,1,2,1.6C54.4,46.8,56.1,47.2,57.9,47.2L57.9,47.2z"/>
		</g>
	</g>
</g>
</svg>
