<?xml version="1.0" encoding="utf-8"?>
<!-- Generator: Adobe Illustrator 27.8.1, SVG Export Plug-In . SVG Version: 6.00 Build 0)  -->
<svg version="1.1" id="Layer_1" xmlns="http://www.w3.org/2000/svg" xmlns:xlink="http://www.w3.org/1999/xlink" x="0px" y="0px"
	 viewBox="0 0 78.5 78.5" style="enable-background:new 0 0 78.5 78.5;" xml:space="preserve">
<style type="text/css">
	.st0{fill:#FFFFFF;stroke:#1D1D1B;stroke-miterlimit:10;}
	.st1{fill:#1D1D1B;}
</style>
<g>
	<circle class="st0" cx="39.2" cy="39.2" r="38.7"/>
	<g>
		<g>
			<path class="st1" d="M38,13.9c-0.1,12.2-0.1,24.4-0.2,36.6c0,3.2,5,3.2,5,0C42.9,38.3,43,26.1,43,13.9C43,10.7,38,10.7,38,13.9
				L38,13.9z"/>
		</g>
	</g>
	<g>
		<g>
			<path class="st1" d="M40.5,20.1c3.3,0,6.4-2.9,6.2-6.3c-0.2-3.4-2.7-6.2-6.2-6.2c-3.3,0-6.4,2.9-6.2,6.2
				C34.4,17.3,37,20.1,40.5,20.1L40.5,20.1z"/>
		</g>
	</g>
</g>
<g>
	<g>
		<path class="st1" d="M31.6,67.9c3.3-5.6,6.6-11.2,10-16.8c0.7-1.2,0.3-2.7-0.9-3.4c-1.2-0.7-2.7-0.3-3.4,0.9
			c-3.3,5.6-6.6,11.2-10,16.8c-0.7,1.2-0.3,2.7,0.9,3.4C29.3,69.5,30.9,69.1,31.6,67.9L31.6,67.9z"/>
	</g>
</g>
<g>
	<g>
		<path class="st1" d="M53.5,65.3c-3.4-5.5-6.8-11.1-10.2-16.6c-0.7-1.1-2.2-1.6-3.4-0.9c-1.1,0.7-1.6,2.3-0.9,3.4
			c3.4,5.5,6.8,11.1,10.2,16.6c0.7,1.1,2.2,1.6,3.4,0.9C53.8,68.1,54.3,66.5,53.5,65.3L53.5,65.3z"/>
	</g>
</g>
</svg>
