<?xml version="1.0" encoding="utf-8"?>
<!-- Generator: Adobe Illustrator 27.8.1, SVG Export Plug-In . SVG Version: 6.00 Build 0)  -->
<svg version="1.1" id="Layer_1" xmlns="http://www.w3.org/2000/svg" xmlns:xlink="http://www.w3.org/1999/xlink" x="0px" y="0px"
	 viewBox="0 0 78.5 78.5" style="enable-background:new 0 0 78.5 78.5;" xml:space="preserve">
<style type="text/css">
	.st0{fill:#FFFFFF;stroke:#1D1D1B;stroke-miterlimit:10;}
	.st1{fill:#1D1D1B;}
</style>
<g>
	<circle class="st0" cx="39.2" cy="39.2" r="38.8"/>
	<g>
		<g>
			<g>
				<path class="st1" d="M12.1,39.4c-2,5.9,1.5,11.7,5.2,16c3.5,4,7.5,7.8,12.6,9.5c5.8,2,12.1,0.2,17.5-2.1
					c5.2-2.2,10-5.1,13.4-9.7c6.1-8.2,5.9-20.4-0.2-28.6c-6.4-8.7-17.2-12.9-27.8-11c-12,2.1-21.3,12.9-21.2,25.1
					c0,2,1.7,3.8,3.8,3.8c2-0.1,3.8-1.6,3.8-3.8c0-0.5,0-1,0-1.5c0-0.3,0-0.5,0.1-0.8c0-0.1,0.1-0.7,0-0.1c0.2-1.1,0.4-2.1,0.8-3.2
					c0.1-0.2,0.2-0.5,0.3-0.7c0-0.1,0.3-0.8,0.2-0.4c-0.1,0.3,0.1-0.3,0.1-0.3c0.1-0.2,0.2-0.5,0.3-0.7c0.5-1,1.1-2,1.8-3
					c0,0,0.4-0.5,0.2-0.2c-0.2,0.3,0.3-0.3,0.3-0.4c0.3-0.4,0.7-0.8,1-1.1c0.4-0.4,0.7-0.7,1.1-1.1c0.2-0.2,0.4-0.3,0.6-0.5
					c0.2-0.2,0.2-0.2,0,0c0.1-0.1,0.2-0.2,0.3-0.2c0.9-0.6,1.8-1.2,2.7-1.7c0.5-0.2,1-0.5,1.4-0.7c-0.1,0-0.4,0.2,0,0
					c0.3-0.1,0.6-0.2,0.9-0.3c1-0.3,2-0.6,3.1-0.8c0.1,0,1.5-0.2,1-0.2c0.6-0.1,1.2-0.1,1.8-0.1c2.4-0.1,3.8,0.1,5.9,0.6
					c0.9,0.2,1.8,0.5,2.6,0.8c0.1,0,0.8,0.3,0.4,0.2c-0.4-0.2,0.3,0.2,0.4,0.2c0.5,0.2,1,0.5,1.5,0.8c0.9,0.5,1.7,1,2.5,1.6
					c0.1,0.1,0.5,0.4,0.1,0.1c0.2,0.2,0.4,0.3,0.6,0.5c0.4,0.4,0.8,0.7,1.2,1.1c1.6,1.5,2.1,2.3,3.2,4.2c0.2,0.4,0.5,0.9,0.7,1.3
					c0,0.1,0.3,0.8,0.2,0.4c-0.2-0.4,0.1,0.3,0.2,0.4c0.4,1,0.6,2,0.9,3.1c0,0.2,0.1,0.5,0.1,0.7c0-0.2-0.1-0.6,0,0.1
					c0,0.5,0.1,1,0.1,1.5c0,1,0,2-0.1,3c-0.1,0.8,0,0.3,0,0.1c0,0.2-0.1,0.5-0.1,0.7c-0.1,0.5-0.2,1-0.3,1.5c-0.1,0.5-0.3,1-0.4,1.4
					c-0.1,0.2-0.2,0.5-0.3,0.7c0.2-0.5-0.1,0.1-0.1,0.3c-0.4,0.8-0.9,1.7-1.4,2.4c-0.1,0.2-0.3,0.4-0.4,0.6c0.3-0.4-0.1,0.1-0.1,0.1
					c-0.4,0.5-0.9,1-1.4,1.5c-1.6,1.5-2.9,2.4-4.9,3.5c-1,0.5-2,1-3,1.5c-0.3,0.1-0.5,0.2-0.8,0.3c0.2-0.1,0.5-0.2-0.3,0.1
					c-0.6,0.2-1.1,0.4-1.7,0.6c-1.1,0.4-2.3,0.8-3.5,1.1c-1.3,0.3-2,0.4-3.2,0.5c-1.4,0-2.2,0-3.5-0.4c-0.2-0.1-1.3-0.5-0.9-0.3
					c-0.6-0.3-1.2-0.6-1.7-0.9c-0.5-0.3-1-0.6-1.5-1c-0.3-0.3-0.1-0.1,0,0c-0.3-0.3-0.6-0.5-0.9-0.8c-0.9-0.8-1.8-1.7-2.6-2.5
					c-1.8-1.8-3.1-3.3-4.3-5.4c-0.7-1.2-0.9-1.6-1.2-3c-0.1-0.6,0,0.5,0-0.1c0-0.3,0-0.6,0-1c0-0.1,0.1-0.7,0-0.2
					c0.1-0.4,0.2-0.8,0.3-1.1c0.6-1.9-0.7-4.2-2.6-4.6C14.6,36.3,12.7,37.4,12.1,39.4L12.1,39.4z"/>
			</g>
		</g>
	</g>
	<g>
		<g>
			<path class="st1" d="M39.3,45.7c3.9,0,7.7-3.4,7.5-7.5c-0.2-4.1-3.3-7.5-7.5-7.5c-3.9,0-7.7,3.4-7.5,7.5
				C32,42.2,35.1,45.7,39.3,45.7L39.3,45.7z"/>
		</g>
	</g>
</g>
</svg>
