<?xml version="1.0" encoding="utf-8"?>
<!-- Generator: Adobe Illustrator 27.8.1, SVG Export Plug-In . SVG Version: 6.00 Build 0)  -->
<svg version="1.1" id="Layer_1" xmlns="http://www.w3.org/2000/svg" xmlns:xlink="http://www.w3.org/1999/xlink" x="0px" y="0px"
	 viewBox="0 0 78.5 78.5" style="enable-background:new 0 0 78.5 78.5;" xml:space="preserve">
<style type="text/css">
	.st0{fill:#FFFFFF;stroke:#1D1D1B;stroke-miterlimit:10;}
	.st1{fill:none;stroke:#1D1D1B;stroke-miterlimit:10;}
	.st2{fill:none;stroke:#1D1D1B;stroke-linecap:round;stroke-linejoin:round;stroke-miterlimit:10;}
</style>
<g>
	<ellipse class="st0" cx="39.3" cy="39.2" rx="38.8" ry="38.7"/>
</g>
<path class="st1" d="M44.8,31.7c0.4,0.2,2.3,0.6,2.7,0.6c1.2,0.2,3.9,0.6,5.5,0.4c6.3-0.7,7.1,2.2,8.9,5.1s2.5,9.2-0.7,11.7
	c-3.2,2.6-11.9,6.9-20.6,6.7c-8.5-0.2-15.5-5-18.2-10.2s-4.5-8.6-3.5-18.2c1-9.6,7.6-12.8,11-12.9c3.8-0.2,8.9,2.6,9.4,5.7
	s0.7,5.3,1.7,7.2C42.2,30.3,43.6,31.1,44.8,31.7z"/>
<polyline class="st2" points="39,52.2 39,67.4 42.5,65.2 "/>
<polyline class="st2" points="39.1,52.2 39.1,67.4 35.6,65.2 "/>
</svg>
