<?xml version="1.0" encoding="utf-8"?>
<!-- Generator: Adobe Illustrator 27.8.1, SVG Export Plug-In . SVG Version: 6.00 Build 0)  -->
<svg version="1.1" id="Layer_1" xmlns="http://www.w3.org/2000/svg" xmlns:xlink="http://www.w3.org/1999/xlink" x="0px" y="0px"
	 viewBox="0 0 78.5 78.5" style="enable-background:new 0 0 78.5 78.5;" xml:space="preserve">
<style type="text/css">
	.st0{fill:#FFFFFF;stroke:#1D1D1B;stroke-miterlimit:10;}
	.st1{fill:none;stroke:#000000;stroke-linecap:round;stroke-linejoin:round;stroke-miterlimit:10;stroke-dasharray:3;}
</style>
<g>
	<ellipse class="st0" cx="39.3" cy="39.2" rx="38.8" ry="38.7"/>
</g>
<path class="st1" d="M14.5,48.5c0,0,5,10.3,10.3,9.9s-7-21.1-7-21.1s-1.3-5,2.6-6.8c3.9-1.8,14.9,27.2,14.9,27.2s1.6,3.8,5.8,2
	S31.6,32,31.6,32s-3.6-6,0-7.2c3.6-1.2,6.6,3.6,6.6,3.6l10.3,25.1c0,0,1.4,3.6,5.4,2.4c4-1.2,2.8-6.6,2.8-6.6L45.5,24.6
	c0,0-4.2-7.2,0-8.9s7.6,5.2,7.6,5.2L64,46.3"/>
</svg>
