<?xml version="1.0" encoding="utf-8"?>
<!-- Generator: Adobe Illustrator 27.8.1, SVG Export Plug-In . SVG Version: 6.00 Build 0)  -->
<svg version="1.1" id="Layer_1" xmlns="http://www.w3.org/2000/svg" xmlns:xlink="http://www.w3.org/1999/xlink" x="0px" y="0px"
	 viewBox="0 0 78.5 78.5" style="enable-background:new 0 0 78.5 78.5;" xml:space="preserve">
<style type="text/css">
	.st0{fill:#FFFFFF;stroke:#1D1D1B;stroke-miterlimit:10;}
	.st1{fill:#1D1D1B;}
</style>
<g>
	<g>
		<circle class="st0" cx="39.2" cy="39.2" r="38.7"/>
	</g>
	<g>
		<g>
			<g>
				<path class="st1" d="M20.7,41.6c12.5,0,24.9-0.3,37.4-0.8c3.2-0.1,3.2-5.1,0-5c-12.4,0.5-24.9,0.8-37.4,0.8
					C17.5,36.6,17.5,41.6,20.7,41.6L20.7,41.6z"/>
			</g>
		</g>
		<g>
			<g>
				<path class="st1" d="M24.3,32.1c-1.3,1.1-2.6,2.2-3.9,3.3c-0.6,0.5-1.4,1-1.9,1.7c-1,1.3-0.8,2.9,0.3,4.1
					c0.9,1.1,2.1,2.1,3.2,3.1c0.7,0.6,1.4,1.1,2.2,1.7c0.3,0.2,0.6,0.4,0.9,0.6c0.8,0.5,1.5,0.6,2.5,0.5c0.9-0.2,1.5-1,1.7-1.7
					c0.3-1.1-0.2-2.5-1.2-3s-2.2-0.5-3,0.4l0,0c-0.9,1-1,2.6,0,3.5s2.6,1,3.5,0l0,0c-1,0.1-2,0.3-3,0.4c0,0,0,0,0.1,0
					c-0.3-0.3-0.6-0.6-0.9-0.9c0,0,0,0,0,0.1c-0.1-0.6-0.2-1.3-0.3-1.9c0,0,0,0,0,0.1c0.6-0.6,1.2-1.2,1.7-1.7h-0.1
					c0.6,0.1,1.3,0.2,1.9,0.3c-0.5-0.3-1-0.7-1.5-1c-0.1-0.1-0.3-0.2-0.4-0.3c-0.4-0.3,0.2,0.2,0,0s-0.5-0.4-0.7-0.5
					c-1-0.8-1.9-1.6-2.7-2.5c-0.1-0.1-0.2-0.2-0.3-0.3c-0.1-0.1-0.1-0.1,0.2,0.2c-0.1,0.8-0.1,1.5-0.2,2.3c0.2-0.1,0.5-0.5,0.8-0.6
					c0.5-0.4,1-0.9,1.5-1.3c1.1-0.9,2.1-1.8,3.2-2.7c1-0.8,0.9-2.7,0-3.5C26.8,31.1,25.4,31.2,24.3,32.1L24.3,32.1z"/>
			</g>
		</g>
	</g>
</g>
</svg>
