<?xml version="1.0" encoding="utf-8"?>
<!-- Generator: Adobe Illustrator 27.8.1, SVG Export Plug-In . SVG Version: 6.00 Build 0)  -->
<svg version="1.1" id="Layer_1" xmlns="http://www.w3.org/2000/svg" xmlns:xlink="http://www.w3.org/1999/xlink" x="0px" y="0px"
	 viewBox="0 0 78.5 78.5" style="enable-background:new 0 0 78.5 78.5;" xml:space="preserve">
<style type="text/css">
	.st0{fill:#FFFFFF;stroke:#1D1D1B;stroke-miterlimit:10;}
	.st1{fill:none;stroke:#1D1D1B;stroke-miterlimit:10;}
	.st2{fill:none;stroke:#000000;stroke-miterlimit:10;}
	.st3{fill:none;stroke:#000000;stroke-miterlimit:10;stroke-dasharray:3.1317,3.1317;}
	.st4{fill:none;stroke:#000000;stroke-miterlimit:10;stroke-dasharray:3;}
</style>
<g>
	<ellipse class="st0" cx="39.8" cy="38.9" rx="38.8" ry="38.7"/>
</g>
<path class="st1" d="M64.4,39.5l1.3,0.3c0,0-7.3,5.6-22.4,6.5c-20.7,1.2-28.6-4-28.6-4"/>
<g>
	<g>
		<path class="st2" d="M63.7,37.4l2,0.4c-0.1-0.3-0.3-0.8-0.7-1.3"/>
		<path class="st3" d="M63.3,33.8c-2-2.5-4.9-5.1-8.2-5.3c-5.4-0.3-4.4,9.8-12,10.7c-7.6,0.9-5.7-10.1-11.9-10.1
			c-4.4,0-11.3,5.2-14.9,8.1"/>
		<path class="st2" d="M15.2,38.2c-0.7,0.6-1.1,1-1.1,1"/>
	</g>
</g>
<line class="st4" x1="66.6" y1="35.8" x2="66" y2="38.2"/>
<line class="st0" x1="66.4" y1="39.5" x2="65.8" y2="41.3"/>
<circle class="st0" cx="14.1" cy="41.4" r="2.2"/>
</svg>
