<?xml version="1.0" encoding="utf-8"?>
<!-- Generator: Adobe Illustrator 27.8.1, SVG Export Plug-In . SVG Version: 6.00 Build 0)  -->
<svg version="1.1" id="Layer_1" xmlns="http://www.w3.org/2000/svg" xmlns:xlink="http://www.w3.org/1999/xlink" x="0px" y="0px"
	 viewBox="0 0 78.5 78.5" style="enable-background:new 0 0 78.5 78.5;" xml:space="preserve">
<style type="text/css">
	.st0{fill:#FFFFFF;stroke:#1D1D1B;stroke-miterlimit:10;}
	.st1{fill:#1D1D1B;}
</style>
<g>
	<g>
		<circle class="st0" cx="39.2" cy="39.1" r="38.7"/>
	</g>
	<g>
		<g>
			<g>
				<path class="st1" d="M15,32.2c0.7,5.2,0.9,10.5,0.7,15.8c-0.1,1.3,1.2,2.6,2.5,2.5c1.4-0.1,2.4-1.1,2.5-2.5
					c0.2-5.3,0-10.5-0.7-15.8c-0.2-1.3-1-2.6-2.5-2.5C16.3,29.7,14.8,30.8,15,32.2L15,32.2z"/>
			</g>
		</g>
		<g>
			<g>
				<g>
					<path class="st1" d="M18.2,51.1c9.5-0.5,19-0.6,28.5-0.5c3.2,0.1,3.2-4.9,0-5c-9.5-0.1-19,0-28.5,0.5
						C15,46.2,15,51.2,18.2,51.1L18.2,51.1z"/>
				</g>
			</g>
			<g>
				<g>
					<path class="st1" d="M44.6,48.8c0.1,1.8,0.1,3.5,0.2,5.3c0,0.7,0.3,1.3,0.7,1.8c0.4,0.4,1.1,0.8,1.8,0.7c0.6,0,1.3-0.2,1.8-0.7
						c0.4-0.5,0.8-1.1,0.7-1.8c-0.1-1.8-0.1-3.5-0.2-5.3c0-0.7-0.3-1.3-0.7-1.8c-0.4-0.4-1.1-0.8-1.8-0.7c-0.6,0-1.3,0.2-1.8,0.7
						C44.8,47.5,44.5,48.1,44.6,48.8L44.6,48.8z"/>
				</g>
			</g>
			<g>
				<g>
					<path class="st1" d="M49,56.3c5.2-5.1,10.2-10.5,15-16.1c0.9-1,1-2.5,0-3.5c-0.9-0.9-2.7-1-3.5,0c-4.7,5.6-9.7,11-15,16.1
						c-1,0.9-0.9,2.6,0,3.5C46.4,57.3,48,57.3,49,56.3L49,56.3z"/>
				</g>
			</g>
			<g>
				<g>
					<path class="st1" d="M44.9,25.3c2.3,2.5,4.7,4.8,7.2,7.1c1.2,1.1,2.5,2.2,3.7,3.3c0.6,0.5,1.3,1.1,1.9,1.6
						c0.3,0.3,0.6,0.5,1,0.8c0.1,0.1,0.3,0.2,0.4,0.3c0.1,0.1,0.6,0.6,0.3,0.2c-0.1-0.4-0.2-0.8-0.3-1.3c0,0.1,0,0.1,0,0.2
						c0.4-0.7,0.8-1.4,1.2-2.2c0,0-0.1,0-0.1,0.1c0.6-0.1,1.3-0.2,1.9-0.3c0,0-0.1,0-0.1,0c0.4,0.2,0.7,0.4,1.1,0.6
						c0,0-0.1-0.1-0.1-0.1c0.2,0.4,0.4,0.7,0.6,1.1c0,0,0-0.1,0-0.1c-0.4,0.9-0.8,1.9-1.1,2.8c0,0,0,0,0.1,0
						c1.2-0.5,1.6-2.4,0.9-3.4c-0.8-1.2-2.1-1.5-3.4-0.9c0,0,0,0-0.1,0c-1,0.5-1.4,1.8-1.1,2.8c0.5,1.9,3.1,2.7,4.5,1.2
						c1.3-1.5,0.7-3.3-0.7-4.4c-1.7-1.3-3.4-2.7-5-4.2c-3.2-2.8-6.3-5.8-9.3-8.9c-0.9-1-2.6-1-3.5,0C43.9,22.8,43.9,24.3,44.9,25.3
						L44.9,25.3z"/>
				</g>
			</g>
			<g>
				<g>
					<path class="st1" d="M43.3,24.9c0.1,0.8,0.3,1.6,0.4,2.4c0-0.2-0.1-0.4-0.1-0.7c0.2,1.4,0.3,2.8,0.4,4.2c0,0.7,0.2,1.3,0.7,1.8
						c0.4,0.4,1.1,0.8,1.8,0.7c0.6,0,1.3-0.2,1.8-0.7c0.4-0.5,0.8-1.1,0.7-1.8c-0.2-2.4-0.5-4.9-0.9-7.3C48.1,23,47.5,22.3,47,22
						c-0.5-0.3-1.3-0.4-1.9-0.3c-0.6,0.2-1.2,0.6-1.5,1.1C43.3,23.6,43.2,24.2,43.3,24.9L43.3,24.9z"/>
				</g>
			</g>
			<g>
				<g>
					<path class="st1" d="M46.3,28.9c-9.6,0-19.1-0.1-28.7-0.1c-3.2,0-3.2,5,0,5c9.6,0,19.1,0.1,28.7,0.1
						C49.5,33.9,49.5,28.9,46.3,28.9L46.3,28.9z"/>
				</g>
			</g>
		</g>
	</g>
</g>
</svg>
