<?xml version="1.0" encoding="utf-8"?>
<!-- Generator: Adobe Illustrator 27.8.1, SVG Export Plug-In . SVG Version: 6.00 Build 0)  -->
<svg version="1.1" id="Layer_1" xmlns="http://www.w3.org/2000/svg" xmlns:xlink="http://www.w3.org/1999/xlink" x="0px" y="0px"
	 viewBox="0 0 78.5 78.5" style="enable-background:new 0 0 78.5 78.5;" xml:space="preserve">
<style type="text/css">
	.st0{fill:#FFFFFF;stroke:#1D1D1B;stroke-miterlimit:10;}
	.st1{fill:none;stroke:#1D1D1B;stroke-miterlimit:10;}
</style>
<g>
	<ellipse class="st0" cx="39.2" cy="38.8" rx="38.8" ry="38.8"/>
</g>
<path class="st1" d="M14.7,30.8c0,0,14.8,0,16.8,0s11.7,16,16,16c3.5,0,14.1,0,14.1,0l-2.2-0.9l4.6,0.9l-4.6,0.9l3-0.9l0,0"/>
<path class="st1" d="M14.2,46.9c0,0,14.8,0,16.8,0s11.7-16,16-16c3.5,0,14.1,0,14.1,0L59,31.8l4.6-0.9L59,30l3,0.9l0,0"/>
</svg>
