<?xml version="1.0" encoding="utf-8"?>
<!-- Generator: Adobe Illustrator 27.8.1, SVG Export Plug-In . SVG Version: 6.00 Build 0)  -->
<svg version="1.1" id="Layer_1" xmlns="http://www.w3.org/2000/svg" xmlns:xlink="http://www.w3.org/1999/xlink" x="0px" y="0px"
	 viewBox="0 0 78.5 78.5" style="enable-background:new 0 0 78.5 78.5;" xml:space="preserve">
<style type="text/css">
	.st0{fill:#FFFFFF;stroke:#1D1D1B;stroke-miterlimit:10;}
	.st1{fill:#1D1D1B;}
</style>
<g>
	<ellipse class="st0" cx="39.3" cy="39.2" rx="38.8" ry="38.7"/>
	<g>
		<g>
			<g>
				<path class="st1" d="M17.1,40.1C31.1,40,45,39.9,59,39.9c3.2,0,3.2-5,0-5C45,34.9,31.1,35,17.1,35.1
					C13.9,35.1,13.9,40.1,17.1,40.1L17.1,40.1z"/>
			</g>
		</g>
		<g>
			<g>
				<path class="st1" d="M56.8,38.2c-0.1,1.5-0.1,3.1-0.2,4.6c0,0.6,0.3,1.3,0.7,1.8c0.4,0.4,1.1,0.8,1.8,0.7c0.6,0,1.3-0.2,1.8-0.7
					c0.5-0.5,0.7-1.1,0.7-1.8c0.1-1.5,0.1-3.1,0.2-4.6c0-0.6-0.3-1.3-0.7-1.8c-0.4-0.4-1.1-0.8-1.8-0.7c-0.6,0-1.3,0.2-1.8,0.7
					C57.1,36.9,56.9,37.5,56.8,38.2L56.8,38.2z"/>
			</g>
		</g>
		<g>
			<g>
				<path class="st1" d="M54.7,44.5c0.8,0.9,1.5,1.7,2.3,2.6c0.2,0.2,0.5,0.4,0.8,0.5c0.3,0.2,0.6,0.2,1,0.2c0.3,0,0.7-0.1,1-0.2
					c0.3-0.1,0.6-0.3,0.8-0.5c0.4-0.5,0.8-1.1,0.7-1.8c0-0.2-0.1-0.4-0.1-0.7c-0.1-0.4-0.3-0.8-0.6-1.1c-0.8-0.9-1.5-1.7-2.3-2.6
					c-0.2-0.2-0.5-0.4-0.8-0.5c-0.3-0.2-0.6-0.2-1-0.2c-0.3,0-0.7,0.1-1,0.2c-0.3,0.1-0.6,0.3-0.8,0.5c-0.4,0.5-0.8,1.1-0.7,1.8
					c0,0.2,0.1,0.4,0.1,0.7C54.2,43.8,54.4,44.2,54.7,44.5L54.7,44.5z"/>
			</g>
		</g>
		<g>
			<g>
				<path class="st1" d="M61.3,46.8c0.8-1.2,1.5-2.5,2.3-3.7c0.3-0.5,0.4-1.3,0.3-1.9c-0.2-0.6-0.6-1.2-1.1-1.5
					c-0.6-0.3-1.3-0.5-1.9-0.3c-0.6,0.2-1.1,0.6-1.5,1.1c-0.8,1.2-1.5,2.5-2.3,3.7c-0.3,0.5-0.4,1.3-0.3,1.9
					c0.2,0.6,0.6,1.2,1.1,1.5c0.6,0.3,1.3,0.5,1.9,0.3C60.5,47.7,61,47.3,61.3,46.8L61.3,46.8z"/>
			</g>
		</g>
	</g>
</g>
</svg>
