<?xml version="1.0" encoding="utf-8"?>
<!-- Generator: Adobe Illustrator 27.8.1, SVG Export Plug-In . SVG Version: 6.00 Build 0)  -->
<svg version="1.1" id="Layer_1" xmlns="http://www.w3.org/2000/svg" xmlns:xlink="http://www.w3.org/1999/xlink" x="0px" y="0px"
	 viewBox="0 0 78.5 78.5" style="enable-background:new 0 0 78.5 78.5;" xml:space="preserve">
<style type="text/css">
	.st0{fill:#FFFFFF;stroke:#1D1D1B;stroke-miterlimit:10;}
	.st1{fill:#1D1D1B;}
</style>
<g>
	<circle class="st0" cx="39.3" cy="39.2" r="38.8"/>
	<g>
		<g>
			<g>
				<path class="st1" d="M20.6,45c12.8-0.6,25.6-0.8,38.4-0.6c3.2,0.1,3.2-4.9,0-5c-12.8-0.2-25.6,0-38.4,0.6
					C17.4,40.2,17.4,45.2,20.6,45L20.6,45z"/>
			</g>
		</g>
		<g>
			<g>
				<path class="st1" d="M56.3,33.8c0.1,2.5,0.1,5.1,0.2,7.6c0,1.3,1.1,2.6,2.5,2.5c1.3-0.1,2.5-1.1,2.5-2.5
					c-0.1-2.5-0.1-5.1-0.2-7.6c0-1.3-1.1-2.6-2.5-2.5C57.4,31.3,56.2,32.4,56.3,33.8L56.3,33.8z"/>
			</g>
		</g>
		<g>
			<g>
				<path class="st1" d="M56.9,30.1c-0.9,1-1.7,2-2.6,3c-0.2,0.2-0.4,0.5-0.5,0.8c-0.2,0.3-0.2,0.6-0.2,1c0,0.3,0.1,0.7,0.2,1
					c0.1,0.3,0.3,0.6,0.5,0.8c0.5,0.4,1.1,0.8,1.8,0.7c0.6,0,1.3-0.2,1.8-0.7c0.9-1,1.7-2,2.6-3c0.2-0.2,0.4-0.5,0.5-0.8
					c0.2-0.3,0.2-0.6,0.2-1c0-0.3-0.1-0.7-0.2-1c-0.1-0.3-0.3-0.6-0.5-0.8c-0.5-0.4-1.1-0.8-1.8-0.7C58,29.4,57.3,29.6,56.9,30.1
					L56.9,30.1z"/>
			</g>
		</g>
		<g>
			<g>
				<path class="st1" d="M56.5,32.6c0.3,0.8,0.7,1.5,1.1,2.2c0.5,0.7,1,1.3,1.6,1.9c0.2,0.2,0.5,0.4,0.8,0.5c0.3,0.2,0.6,0.2,1,0.2
					c0.3,0,0.7-0.1,1-0.2c0.3-0.1,0.6-0.3,0.8-0.5c0.4-0.5,0.8-1.1,0.7-1.8c0-0.6-0.2-1.3-0.7-1.8c-0.4-0.3-0.7-0.7-1.1-1.1
					c0.1,0.2,0.3,0.3,0.4,0.5c-0.4-0.5-0.8-1.1-1-1.8c0.1,0.2,0.2,0.4,0.3,0.6c0,0,0-0.1-0.1-0.1c-0.1-0.3-0.2-0.6-0.4-0.9
					c-0.2-0.3-0.4-0.5-0.7-0.6c-0.3-0.2-0.6-0.3-0.9-0.3c-0.3-0.1-0.7-0.1-1,0c-0.6,0.2-1.2,0.6-1.5,1.1c-0.1,0.2-0.2,0.4-0.3,0.6
					C56.4,31.7,56.4,32.2,56.5,32.6L56.5,32.6z"/>
			</g>
		</g>
	</g>
</g>
</svg>
