<?xml version="1.0" encoding="utf-8"?>
<!-- Generator: Adobe Illustrator 27.8.0, SVG Export Plug-In . SVG Version: 6.00 Build 0)  -->
<svg version="1.1" xmlns="http://www.w3.org/2000/svg" xmlns:xlink="http://www.w3.org/1999/xlink" x="0px" y="0px"
	 viewBox="0 0 78.5 78.5" style="enable-background:new 0 0 78.5 78.5;" xml:space="preserve">
<style type="text/css">
	.st0{fill:#FFFFFF;stroke:#1D1D1B;stroke-miterlimit:10;}
	.st1{fill:#1D1D1B;}
</style>
<g>
	<circle class="st0" cx="39.2" cy="39.3" r="38.7"/>
	<g>
		<g>
			<g>
				<path class="st1" d="M18.6,42.1c-0.7,4.8,0.9,9.5,4.3,12.9c3.5,3.6,8.4,5.3,13.3,5.7c8.5,0.8,17.6-2.8,22.9-9.5
					c5.2-6.6,6.1-15.7,2.2-23.2c-4.6-8.8-15.2-11.3-24.4-10.6c-5.5,0.4-10.4,2.3-13.3,7.1c-2.5,4.1-3.2,9.1-3.7,13.9
					c-0.1,1.3,1.2,2.5,2.5,2.5c1.5,0,2.4-1.2,2.5-2.5c0.3-3.3,0.8-6.7,2.1-9.7c1.4-3.2,3.8-5.2,7.3-6c4.2-0.9,8.8-0.6,12.9,0.4
					c3.3,0.8,6.3,2.3,8.4,5.1c3.6,4.8,4.2,11.9,1.3,17.1c-3.2,5.9-9.8,9.7-16.4,10.3c-4.2,0.4-8.6-0.3-12.2-2.6
					c-3.1-2-5.5-5.9-5-9.7c0.2-1.3-0.3-2.7-1.7-3.1C20.5,40,18.8,40.8,18.6,42.1L18.6,42.1z"/>
			</g>
		</g>
		<g>
			<g>
				<path class="st1" d="M18.5,37.2c0.7,1,1.2,2.1,1.7,3.2c-0.1-0.2-0.2-0.4-0.3-0.6c0,0,0,0.1,0,0.1c0.2,0.4,0.3,0.8,0.6,1.1
					c0.4,0.4,0.9,0.6,1.4,0.7c0.5,0.1,0.9,0,1.3-0.2c0.5-0.2,0.9-0.5,1.2-1c1-1.5,1.9-3,2.9-4.5c0.3-0.5,0.4-1.3,0.3-1.9
					c-0.2-0.6-0.6-1.2-1.1-1.5c-0.6-0.3-1.3-0.5-1.9-0.3c-0.6,0.2-1.1,0.6-1.5,1.1c-1,1.5-1.9,3-2.9,4.5c1.5,0.2,3,0.4,4.6,0.6
					c-0.6-1.3-1.2-2.6-2-3.8c-0.4-0.5-0.8-1-1.5-1.1c-0.6-0.2-1.4-0.1-1.9,0.3c-0.5,0.3-1,0.9-1.1,1.5
					C18.1,35.9,18.2,36.7,18.5,37.2L18.5,37.2z"/>
			</g>
		</g>
	</g>
</g>
</svg>
