<?xml version="1.0" encoding="utf-8"?>
<!-- Generator: Adobe Illustrator 27.8.0, SVG Export Plug-In . SVG Version: 6.00 Build 0)  -->
<svg version="1.1" id="Layer_1" xmlns="http://www.w3.org/2000/svg" xmlns:xlink="http://www.w3.org/1999/xlink" x="0px" y="0px"
	 viewBox="0 0 78.5 78.5" style="enable-background:new 0 0 78.5 78.5;" xml:space="preserve">
<style type="text/css">
	.st0{fill:#FFFFFF;stroke:#1D1D1B;stroke-miterlimit:10;}
	.st1{fill:#1D1D1B;}
</style>
<g>
	<circle class="st0" cx="39.3" cy="39.3" r="38.6"/>
	<g>
		<g>
			<g>
				<path class="st1" d="M29.1,16.1c7.6,0.3,15.2,0.6,22.7,0.9c3.2,0.1,3.2-4.9,0-5c-7.6-0.3-15.2-0.6-22.7-0.9
					C25.9,11,25.9,16,29.1,16.1L29.1,16.1z"/>
			</g>
		</g>
		<g>
			<g>
				<path class="st1" d="M52.1,16.9c0.7,2.3,1.6,4.5,2.8,6.6c0.5,1,1.1,1.9,1.8,2.8c0.4,0.6,0.8,1.1,1.2,1.6
					c0.2,0.2,0.4,0.5,0.6,0.7c0.1,0.1,0.2,0.2,0.3,0.3c0.5,0.6-0.3-0.1-0.3-0.9c0.1-0.4,0.2-0.8,0.3-1.3c0,0,0,0.1-0.1,0.1
					c0.3-0.3,0.6-0.6,0.9-0.9c0.1-0.1,0.3-0.1,0.4-0.2c0.4,0,0.9,0,1.3,0c0.1,0.1,0.3,0.1,0.4,0.2c0.3,0.3,0.6,0.6,0.9,0.9
					c0,0,0,0,0-0.1c0.1,0.4,0.2,0.8,0.3,1.3c0,0,0-0.1,0-0.1c0.1-1.3-1.2-2.6-2.5-2.5c-1.5,0.1-2.4,1.1-2.5,2.5
					c-0.2,1.8,1.8,3,3.4,2.6c1.6-0.4,2.4-2,1.9-3.6c-0.3-1-1.1-1.7-1.8-2.5c0-0.1-0.4-0.5-0.2-0.2c0.2,0.3-0.2-0.2-0.2-0.3
					c-0.2-0.3-0.4-0.6-0.6-0.9c-0.8-1.2-1.6-2.5-2.2-3.8c-0.1-0.3-0.3-0.6-0.4-0.9c-0.3-0.6,0.2,0.5-0.1-0.1
					c-0.1-0.2-0.1-0.3-0.2-0.5c-0.3-0.7-0.5-1.4-0.7-2.2c-0.4-1.3-1.8-2.2-3.1-1.7C52.6,14.2,51.7,15.5,52.1,16.9L52.1,16.9z"/>
			</g>
		</g>
		<g>
			<g>
				<path class="st1" d="M58.1,29.8c-0.8,6.7-1.1,13.4-0.9,20.1c0.8-0.8,1.7-1.7,2.5-2.5c-0.1,0-0.1,0-0.2,0
					c0.4,0.1,0.8,0.2,1.3,0.3c-0.1,0-0.1-0.1-0.2-0.1c0.3,0.3,0.6,0.6,0.9,0.9c0-0.1-0.1-0.1-0.1-0.2c0.1,0.6,0.2,1.3,0.3,1.9
					c0-0.1,0-0.1,0-0.2c0.3-1.3-0.4-2.7-1.7-3.1c-1.3-0.3-2.8,0.4-3.1,1.7c-0.4,1.7,0.8,3.8,2.8,3.6c1.3-0.2,2.6-1,2.5-2.5
					c-0.3-6.7,0-13.4,0.9-20.1c0.2-1.3-1.3-2.5-2.5-2.5C59.1,27.3,58.3,28.4,58.1,29.8L58.1,29.8z"/>
			</g>
		</g>
		<g>
			<g>
				<path class="st1" d="M28.2,64.7c3.7,0,7.4,0,11.1,0c1.8,0,3.6,0,5.4,0c1.9,0,4.4,0.5,5.9-0.8c0.6-0.5,0.9-1.7,0.6-2.4
					c-0.4-1.1-1-1.7-2.2-2.1c-3.1-1-4.4,3.8-1.3,4.8c0.1,0,0.1,0,0.2,0.1c-0.4-0.2-0.7-0.4-1.1-0.6c0.1,0,0.1,0.1,0.2,0.1
					c-0.2-0.4-0.4-0.7-0.6-1.1c0,0.1,0,0.1,0.1,0.2c0.2-0.8,0.4-1.6,0.6-2.4c0,0-0.1,0.1-0.1,0.1c0.6-0.2,1.2-0.5,1.8-0.7
					c-6.8,0-13.7,0-20.5,0C25,59.7,25,64.7,28.2,64.7L28.2,64.7z"/>
			</g>
		</g>
		<g>
			<g>
				<path class="st1" d="M13.5,47.6c3.6,5.4,7.5,10.7,11.7,15.6c1.2-1.2,2.4-2.4,3.5-3.5c-0.2-0.2-0.4-0.4-0.7-0.6
					c-1-0.9-2.6-1-3.5,0c-0.9,1-1,2.6,0,3.5c0.2,0.2,0.4,0.4,0.7,0.6c1,0.9,2.6,1,3.5,0c1-1.1,0.9-2.5,0-3.5
					c-4-4.7-7.5-9.4-10.9-14.6c-0.7-1.1-2.2-1.7-3.4-0.9C13.4,44.9,12.8,46.4,13.5,47.6L13.5,47.6z"/>
			</g>
		</g>
		<g>
			<g>
				<path class="st1" d="M14.5,26.7c-0.4,6.8-0.7,13.6-1.1,20.3c-0.1,1.3,1.2,2.5,2.5,2.5c1.4,0,2.4-1.1,2.5-2.5
					c0.4-6.8,0.7-13.6,1.1-20.3c0.1-1.3-1.2-2.5-2.5-2.5C15.6,24.2,14.6,25.4,14.5,26.7L14.5,26.7z"/>
			</g>
		</g>
		<g>
			<g>
				<path class="st1" d="M28.8,28c1.1,4.4,2.3,8.9,3.4,13.3c0.2,0.8,0.9,1.6,1.7,1.7c2.1,0.4,4.2,0.5,6.3,0.3
					c1.3-0.1,2.6-1.1,2.5-2.5c-0.1-1.3-1.1-2.6-2.5-2.5c-0.9,0.1-1.8,0.1-2.7,0.1c-0.4,0-0.9,0-1.3-0.1c-0.1,0-0.6-0.1-0.2,0
					c-0.3,0-0.5-0.1-0.8-0.1c0.6,0.6,1.2,1.2,1.7,1.7c-1.1-4.4-2.3-8.9-3.4-13.3c-0.3-1.3-1.8-2.2-3.1-1.7
					C29.2,25.4,28.4,26.7,28.8,28L28.8,28z"/>
			</g>
		</g>
		<g>
			<g>
				<path class="st1" d="M44.3,40.5c0.6-2,1.3-4,2-6c0.3-1,0.7-1.9,1.1-2.9c0.2-0.5,0.4-1,0.6-1.5c0.1-0.2,0.2-0.4,0.3-0.6
					c0-0.1,0.4-0.9,0.2-0.5c0.3-0.6,0.4-1.2,0.3-1.9c-0.2-0.6-0.6-1.2-1.1-1.5c-1.1-0.6-2.9-0.4-3.4,0.9c-1.8,4.2-3.3,8.4-4.6,12.7
					c-0.4,1.3,0.4,2.8,1.7,3.1C42.5,42.6,43.9,41.9,44.3,40.5L44.3,40.5z"/>
			</g>
		</g>
		<g>
			<g>
				<path class="st1" d="M32.9,27.7c4.1,0.3,8.1,0.6,12.2,1c1.3,0.1,2.6-1.2,2.5-2.5c-0.1-1.4-1.1-2.4-2.5-2.5
					c-4.1-0.3-8.1-0.6-12.2-1c-1.3-0.1-2.6,1.2-2.5,2.5C30.5,26.7,31.5,27.6,32.9,27.7L32.9,27.7z"/>
			</g>
		</g>
		<g>
			<g>
				<path class="st1" d="M40.2,47.2c-0.3-0.1-0.6-0.3-0.9-0.3c-0.3-0.1-0.7-0.1-1-0.1c-0.7,0.1-1.3,0.2-1.9,0.5
					c-0.3,0.2-0.5,0.4-0.8,0.6c-0.1,0.1-0.2,0.2-0.3,0.3c-0.5,0.6-0.7,1-1,1.7c-0.4,1.1-0.2,2.3,0.3,3.4c0.2,0.4,0.5,0.8,0.8,1.1
					c0.2,0.2,0.5,0.4,0.8,0.6c0.1,0.1,0.2,0.2,0.4,0.2c0.4,0.2,0.8,0.4,1.3,0.5c0.7,0.1,1.3,0.1,2,0c0.1,0,0.2-0.1,0.4-0.1
					c0.3-0.1,0.6-0.2,0.9-0.4c0.4-0.2,0.8-0.5,1.1-0.9c0.3-0.3,0.6-0.7,0.8-1.1c0.3-0.7,0.4-1.2,0.5-1.9c0-0.5,0-0.9-0.1-1.4
					c-0.1-0.3-0.2-0.6-0.4-0.9c-0.1-0.1-0.1-0.2-0.2-0.4c-0.7-1-1.6-1.7-2.8-2c-0.3-0.1-0.7-0.1-1-0.2c-0.1,0-0.3,0-0.4,0
					c-0.8,0.1-1.3,0.2-2,0.5c-0.5,0.3-1,0.9-1.1,1.5c-0.2,0.6-0.1,1.4,0.3,1.9c0.3,0.5,0.9,1,1.5,1.1c0.2,0,0.4,0.1,0.7,0.1
					c0.5,0,0.9-0.1,1.3-0.3c0,0,0.1,0,0.1,0c-0.2,0.1-0.4,0.2-0.6,0.3c0.2-0.1,0.3-0.1,0.5-0.1c-0.2,0-0.4,0.1-0.7,0.1
					c0.2,0,0.4,0,0.6,0c-0.2,0-0.4-0.1-0.7-0.1c0.2,0,0.4,0.1,0.6,0.2c-0.2-0.1-0.4-0.2-0.6-0.3c0.2,0.1,0.4,0.2,0.5,0.3
					c-0.2-0.1-0.3-0.3-0.5-0.4c0.2,0.1,0.3,0.3,0.4,0.4c-0.1-0.2-0.3-0.3-0.4-0.5c0.1,0.1,0.2,0.3,0.2,0.4c-0.1-0.2-0.2-0.4-0.3-0.6
					c0.1,0.2,0.1,0.3,0.1,0.5c0-0.2-0.1-0.4-0.1-0.7c0,0.2,0,0.4,0,0.6c0-0.2,0.1-0.4,0.1-0.7c0,0.2-0.1,0.4-0.2,0.6
					c0.1-0.2,0.2-0.4,0.3-0.6c-0.1,0.2-0.2,0.4-0.3,0.6c0.1-0.2,0.3-0.3,0.4-0.5c-0.1,0.1-0.2,0.3-0.4,0.4c0.2-0.1,0.3-0.3,0.5-0.4
					c-0.1,0.1-0.3,0.2-0.5,0.3c0.2-0.1,0.4-0.2,0.6-0.3c-0.2,0.1-0.3,0.1-0.5,0.1c0.2,0,0.4-0.1,0.7-0.1c-0.2,0-0.4,0-0.6,0
					c0.2,0,0.4,0.1,0.7,0.1c-0.2,0-0.4-0.1-0.5-0.1c0.2,0.1,0.4,0.2,0.6,0.3c-0.2-0.1-0.4-0.2-0.6-0.3c0.2,0.1,0.3,0.3,0.5,0.4
					c-0.1-0.1-0.3-0.3-0.4-0.4c0.1,0.2,0.3,0.3,0.4,0.5c-0.1-0.2-0.2-0.3-0.3-0.5c0.1,0.2,0.2,0.4,0.3,0.6c-0.1-0.2-0.1-0.4-0.1-0.5
					c0,0.2,0.1,0.4,0.1,0.7c0-0.1,0-0.3,0-0.4c0,0.2-0.1,0.4-0.1,0.7c0-0.2,0.1-0.3,0.1-0.5c-0.1,0.2-0.2,0.4-0.3,0.6
					c0.1-0.2,0.2-0.3,0.3-0.5c-0.1,0.2-0.3,0.3-0.4,0.5c0.1-0.1,0.2-0.3,0.4-0.4c-0.2,0.1-0.3,0.3-0.5,0.4c0.1-0.1,0.3-0.2,0.4-0.3
					c-0.2,0.1-0.4,0.2-0.6,0.3c0.1,0,0.2-0.1,0.4-0.1c-0.2,0-0.4,0.1-0.7,0.1c0.1,0,0.2,0,0.4,0c-0.2,0-0.4-0.1-0.7-0.1
					c0.1,0,0.2,0,0.3,0.1c-0.2-0.1-0.4-0.2-0.6-0.3c0,0,0,0,0.1,0c0.3,0.2,0.6,0.3,0.9,0.3c0.3,0.1,0.7,0.1,1,0
					c0.6-0.2,1.2-0.6,1.5-1.1c0.3-0.6,0.5-1.3,0.3-1.9C41.2,48.2,40.8,47.5,40.2,47.2L40.2,47.2z"/>
			</g>
		</g>
		<g>
			<g>
				<path class="st1" d="M51.6,63.8c3.2-4,6.3-7.9,9.5-11.9c0.4-0.5,0.7-1.1,0.7-1.8c0-0.6-0.3-1.3-0.7-1.8c-0.9-0.8-2.7-1.1-3.5,0
					c-3.2,4-6.3,7.9-9.5,11.9c-0.4,0.5-0.7,1.1-0.7,1.8c0,0.6,0.3,1.3,0.7,1.8C49,64.6,50.7,64.9,51.6,63.8L51.6,63.8z"/>
			</g>
		</g>
		<g>
			<g>
				<path class="st1" d="M18.8,28.5c3.4-4.2,6.8-8.4,10.2-12.5c0.8-1,1.1-2.6,0-3.5c-0.9-0.8-2.7-1.1-3.5,0
					c-3.4,4.2-6.8,8.4-10.2,12.5c-0.8,1-1.1,2.6,0,3.5C16.2,29.3,17.9,29.6,18.8,28.5L18.8,28.5z"/>
			</g>
		</g>
	</g>
</g>
</svg>
