<?xml version="1.0" encoding="utf-8"?>
<!-- Generator: Adobe Illustrator 27.8.1, SVG Export Plug-In . SVG Version: 6.00 Build 0)  -->
<svg version="1.1" id="Layer_1" xmlns="http://www.w3.org/2000/svg" xmlns:xlink="http://www.w3.org/1999/xlink" x="0px" y="0px"
	 viewBox="0 0 78.5 78.5" style="enable-background:new 0 0 78.5 78.5;" xml:space="preserve">
<style type="text/css">
	.st0{fill:#FFFFFF;stroke:#1D1D1B;stroke-miterlimit:10;}
	.st1{fill:#1D1D1B;}
</style>
<g>
	<circle class="st0" cx="39.1" cy="39.3" r="38.8"/>
	<g>
		<g>
			<g>
				<path class="st1" d="M34.1,15.8C29,26.7,23.3,37.4,17.3,47.9c-1.6,2.8,2.7,5.3,4.3,2.5C27.7,40,33.3,29.3,38.4,18.4
					c0.6-1.2,0.3-2.7-0.9-3.4C36.5,14.3,34.7,14.6,34.1,15.8L34.1,15.8z"/>
			</g>
		</g>
		<g>
			<g>
				<path class="st1" d="M19.1,54.6c14.8-0.1,29.5-1,44.2-2.7c1.3-0.1,2.5-1,2.5-2.5c0-1.2-1.1-2.7-2.5-2.5
					c-14.7,1.6-29.5,2.5-44.2,2.7C15.9,49.7,15.8,54.7,19.1,54.6L19.1,54.6z"/>
			</g>
		</g>
		<g>
			<g>
				<path class="st1" d="M36.9,17.2C45,28,52.8,39,60.3,50.2c1.8,2.7,6.1,0.2,4.3-2.5c-7.5-11.2-15.4-22.2-23.5-33
					c-0.8-1.1-2.2-1.6-3.4-0.9C36.7,14.4,36.1,16.1,36.9,17.2L36.9,17.2z"/>
			</g>
		</g>
		<g>
			<g>
				<path class="st1" d="M38.8,39.9c3.2,0,3.2-5,0-5C35.6,34.9,35.6,39.9,38.8,39.9L38.8,39.9z"/>
			</g>
		</g>
	</g>
</g>
</svg>
